G75*
%MOIN*%
%OFA0B0*%
%FSLAX25Y25*%
%IPPOS*%
%LPD*%
%AMOC8*
5,1,8,0,0,1.08239X$1,22.5*
%
%ADD10C,0.00500*%
%ADD11C,0.00000*%
%ADD12C,0.10243*%
%ADD13C,0.03943*%
%ADD14R,0.04652X0.04534*%
%ADD15C,0.01080*%
%ADD16R,0.05912X0.04337*%
%ADD17R,0.13780X0.11024*%
D10*
X0005050Y0016901D02*
X0005050Y0101862D01*
X0025050Y0101862D01*
X0025050Y0090026D01*
X0030675Y0090026D01*
X0030675Y0100221D01*
X0031652Y0101198D01*
X0043448Y0101198D01*
X0044425Y0100221D01*
X0044425Y0090026D01*
X0050050Y0090026D01*
X0050050Y0101901D01*
X0070001Y0101901D01*
X0070050Y0101862D01*
X0070050Y0101901D02*
X0070050Y0073151D01*
X0070001Y0016901D01*
X0062550Y0016901D01*
X0062550Y0008151D01*
X0062533Y0007969D01*
X0062511Y0007787D01*
X0062484Y0007605D01*
X0062454Y0007425D01*
X0062419Y0007245D01*
X0062379Y0007066D01*
X0062335Y0006888D01*
X0062287Y0006711D01*
X0062235Y0006535D01*
X0062178Y0006361D01*
X0062117Y0006188D01*
X0062052Y0006017D01*
X0061983Y0005847D01*
X0061909Y0005679D01*
X0061832Y0005513D01*
X0061750Y0005349D01*
X0061665Y0005187D01*
X0061576Y0005027D01*
X0061482Y0004869D01*
X0061385Y0004713D01*
X0061284Y0004560D01*
X0061180Y0004410D01*
X0061072Y0004262D01*
X0060960Y0004116D01*
X0060845Y0003974D01*
X0060726Y0003834D01*
X0060604Y0003698D01*
X0060479Y0003564D01*
X0060350Y0003433D01*
X0060219Y0003306D01*
X0060084Y0003181D01*
X0059946Y0003060D01*
X0059806Y0002943D01*
X0059662Y0002829D01*
X0059516Y0002718D01*
X0059367Y0002611D01*
X0059216Y0002508D01*
X0059062Y0002408D01*
X0058906Y0002313D01*
X0058747Y0002221D01*
X0058586Y0002133D01*
X0058424Y0002048D01*
X0058259Y0001968D01*
X0058092Y0001892D01*
X0057923Y0001820D01*
X0057753Y0001752D01*
X0057581Y0001689D01*
X0057408Y0001629D01*
X0057233Y0001574D01*
X0057057Y0001523D01*
X0056880Y0001476D01*
X0056702Y0001433D01*
X0056522Y0001395D01*
X0056342Y0001362D01*
X0056161Y0001333D01*
X0055980Y0001308D01*
X0055798Y0001287D01*
X0055615Y0001271D01*
X0055432Y0001260D01*
X0055249Y0001253D01*
X0055066Y0001250D01*
X0054883Y0001252D01*
X0054699Y0001258D01*
X0054516Y0001269D01*
X0054334Y0001284D01*
X0054152Y0001304D01*
X0053970Y0001328D01*
X0053789Y0001356D01*
X0053608Y0001389D01*
X0053429Y0001427D01*
X0053251Y0001468D01*
X0053073Y0001514D01*
X0052897Y0001565D01*
X0052722Y0001619D01*
X0052548Y0001678D01*
X0052376Y0001741D01*
X0052206Y0001808D01*
X0052037Y0001879D01*
X0051870Y0001955D01*
X0051705Y0002034D01*
X0051541Y0002118D01*
X0051380Y0002205D01*
X0051221Y0002297D01*
X0051065Y0002392D01*
X0050911Y0002491D01*
X0050759Y0002593D01*
X0050609Y0002700D01*
X0050463Y0002810D01*
X0050319Y0002923D01*
X0050178Y0003040D01*
X0050040Y0003160D01*
X0049904Y0003284D01*
X0049772Y0003411D01*
X0049643Y0003541D01*
X0049517Y0003674D01*
X0049395Y0003811D01*
X0049275Y0003950D01*
X0049159Y0004092D01*
X0049047Y0004237D01*
X0048938Y0004384D01*
X0048833Y0004534D01*
X0048732Y0004687D01*
X0048634Y0004842D01*
X0048540Y0004999D01*
X0048450Y0005159D01*
X0048364Y0005321D01*
X0048282Y0005485D01*
X0048204Y0005650D01*
X0048130Y0005818D01*
X0048060Y0005987D01*
X0047994Y0006158D01*
X0047932Y0006331D01*
X0047875Y0006505D01*
X0047822Y0006681D01*
X0047773Y0006857D01*
X0047728Y0007035D01*
X0047688Y0007214D01*
X0047652Y0007393D01*
X0047621Y0007574D01*
X0047594Y0007755D01*
X0047571Y0007937D01*
X0047553Y0008120D01*
X0047539Y0008302D01*
X0047530Y0008485D01*
X0047525Y0008669D01*
X0047524Y0008852D01*
X0047528Y0009035D01*
X0047537Y0009218D01*
X0047550Y0009401D01*
X0047550Y0016901D01*
X0027550Y0016901D01*
X0027550Y0009401D01*
X0027563Y0009217D01*
X0027572Y0009033D01*
X0027576Y0008848D01*
X0027575Y0008664D01*
X0027570Y0008480D01*
X0027561Y0008296D01*
X0027547Y0008112D01*
X0027528Y0007928D01*
X0027505Y0007745D01*
X0027478Y0007563D01*
X0027446Y0007381D01*
X0027409Y0007201D01*
X0027368Y0007021D01*
X0027323Y0006842D01*
X0027274Y0006664D01*
X0027220Y0006488D01*
X0027162Y0006313D01*
X0027099Y0006140D01*
X0027032Y0005968D01*
X0026961Y0005797D01*
X0026886Y0005629D01*
X0026807Y0005462D01*
X0026724Y0005298D01*
X0026637Y0005135D01*
X0026546Y0004975D01*
X0026451Y0004817D01*
X0026352Y0004661D01*
X0026249Y0004508D01*
X0026143Y0004358D01*
X0026032Y0004210D01*
X0025919Y0004065D01*
X0025802Y0003922D01*
X0025681Y0003783D01*
X0025557Y0003646D01*
X0025430Y0003513D01*
X0025299Y0003383D01*
X0025165Y0003256D01*
X0025029Y0003132D01*
X0024889Y0003012D01*
X0024746Y0002895D01*
X0024601Y0002782D01*
X0024452Y0002672D01*
X0024301Y0002566D01*
X0024148Y0002464D01*
X0023992Y0002365D01*
X0023834Y0002270D01*
X0023673Y0002180D01*
X0023511Y0002093D01*
X0023346Y0002010D01*
X0023179Y0001931D01*
X0023011Y0001857D01*
X0022840Y0001786D01*
X0022668Y0001720D01*
X0022494Y0001658D01*
X0022319Y0001600D01*
X0022143Y0001547D01*
X0021965Y0001498D01*
X0021786Y0001453D01*
X0021606Y0001413D01*
X0021425Y0001377D01*
X0021244Y0001345D01*
X0021061Y0001318D01*
X0020878Y0001296D01*
X0020695Y0001278D01*
X0020511Y0001264D01*
X0020327Y0001255D01*
X0020142Y0001251D01*
X0019958Y0001251D01*
X0019773Y0001255D01*
X0019589Y0001264D01*
X0019405Y0001278D01*
X0019222Y0001296D01*
X0019039Y0001318D01*
X0018856Y0001345D01*
X0018675Y0001377D01*
X0018494Y0001413D01*
X0018314Y0001453D01*
X0018135Y0001498D01*
X0017957Y0001547D01*
X0017781Y0001600D01*
X0017606Y0001658D01*
X0017432Y0001720D01*
X0017260Y0001786D01*
X0017089Y0001857D01*
X0016921Y0001931D01*
X0016754Y0002010D01*
X0016589Y0002093D01*
X0016427Y0002180D01*
X0016266Y0002270D01*
X0016108Y0002365D01*
X0015952Y0002464D01*
X0015799Y0002566D01*
X0015648Y0002672D01*
X0015499Y0002782D01*
X0015354Y0002895D01*
X0015211Y0003012D01*
X0015071Y0003132D01*
X0014935Y0003256D01*
X0014801Y0003383D01*
X0014670Y0003513D01*
X0014543Y0003646D01*
X0014419Y0003783D01*
X0014298Y0003922D01*
X0014181Y0004065D01*
X0014068Y0004210D01*
X0013957Y0004358D01*
X0013851Y0004508D01*
X0013748Y0004661D01*
X0013649Y0004817D01*
X0013554Y0004975D01*
X0013463Y0005135D01*
X0013376Y0005298D01*
X0013293Y0005462D01*
X0013214Y0005629D01*
X0013139Y0005797D01*
X0013068Y0005968D01*
X0013001Y0006140D01*
X0012938Y0006313D01*
X0012880Y0006488D01*
X0012826Y0006664D01*
X0012777Y0006842D01*
X0012732Y0007021D01*
X0012691Y0007201D01*
X0012654Y0007381D01*
X0012622Y0007563D01*
X0012595Y0007745D01*
X0012572Y0007928D01*
X0012553Y0008112D01*
X0012539Y0008296D01*
X0012530Y0008480D01*
X0012525Y0008664D01*
X0012524Y0008848D01*
X0012528Y0009033D01*
X0012537Y0009217D01*
X0012550Y0009401D01*
X0012550Y0016901D01*
X0005050Y0016901D01*
D11*
X0013278Y0015651D02*
X0013280Y0015735D01*
X0013286Y0015818D01*
X0013296Y0015901D01*
X0013310Y0015984D01*
X0013327Y0016066D01*
X0013349Y0016147D01*
X0013374Y0016226D01*
X0013403Y0016305D01*
X0013436Y0016382D01*
X0013472Y0016457D01*
X0013512Y0016531D01*
X0013555Y0016603D01*
X0013602Y0016672D01*
X0013652Y0016739D01*
X0013705Y0016804D01*
X0013761Y0016866D01*
X0013819Y0016926D01*
X0013881Y0016983D01*
X0013945Y0017036D01*
X0014012Y0017087D01*
X0014081Y0017134D01*
X0014152Y0017179D01*
X0014225Y0017219D01*
X0014300Y0017256D01*
X0014377Y0017290D01*
X0014455Y0017320D01*
X0014534Y0017346D01*
X0014615Y0017369D01*
X0014697Y0017387D01*
X0014779Y0017402D01*
X0014862Y0017413D01*
X0014945Y0017420D01*
X0015029Y0017423D01*
X0015113Y0017422D01*
X0015196Y0017417D01*
X0015280Y0017408D01*
X0015362Y0017395D01*
X0015444Y0017379D01*
X0015525Y0017358D01*
X0015606Y0017334D01*
X0015684Y0017306D01*
X0015762Y0017274D01*
X0015838Y0017238D01*
X0015912Y0017199D01*
X0015984Y0017157D01*
X0016054Y0017111D01*
X0016122Y0017062D01*
X0016187Y0017010D01*
X0016250Y0016955D01*
X0016310Y0016897D01*
X0016368Y0016836D01*
X0016422Y0016772D01*
X0016474Y0016706D01*
X0016522Y0016638D01*
X0016567Y0016567D01*
X0016608Y0016494D01*
X0016647Y0016420D01*
X0016681Y0016344D01*
X0016712Y0016266D01*
X0016739Y0016187D01*
X0016763Y0016106D01*
X0016782Y0016025D01*
X0016798Y0015943D01*
X0016810Y0015860D01*
X0016818Y0015776D01*
X0016822Y0015693D01*
X0016822Y0015609D01*
X0016818Y0015526D01*
X0016810Y0015442D01*
X0016798Y0015359D01*
X0016782Y0015277D01*
X0016763Y0015196D01*
X0016739Y0015115D01*
X0016712Y0015036D01*
X0016681Y0014958D01*
X0016647Y0014882D01*
X0016608Y0014808D01*
X0016567Y0014735D01*
X0016522Y0014664D01*
X0016474Y0014596D01*
X0016422Y0014530D01*
X0016368Y0014466D01*
X0016310Y0014405D01*
X0016250Y0014347D01*
X0016187Y0014292D01*
X0016122Y0014240D01*
X0016054Y0014191D01*
X0015984Y0014145D01*
X0015912Y0014103D01*
X0015838Y0014064D01*
X0015762Y0014028D01*
X0015684Y0013996D01*
X0015606Y0013968D01*
X0015525Y0013944D01*
X0015444Y0013923D01*
X0015362Y0013907D01*
X0015280Y0013894D01*
X0015196Y0013885D01*
X0015113Y0013880D01*
X0015029Y0013879D01*
X0014945Y0013882D01*
X0014862Y0013889D01*
X0014779Y0013900D01*
X0014697Y0013915D01*
X0014615Y0013933D01*
X0014534Y0013956D01*
X0014455Y0013982D01*
X0014377Y0014012D01*
X0014300Y0014046D01*
X0014225Y0014083D01*
X0014152Y0014123D01*
X0014081Y0014168D01*
X0014012Y0014215D01*
X0013945Y0014266D01*
X0013881Y0014319D01*
X0013819Y0014376D01*
X0013761Y0014436D01*
X0013705Y0014498D01*
X0013652Y0014563D01*
X0013602Y0014630D01*
X0013555Y0014699D01*
X0013512Y0014771D01*
X0013472Y0014845D01*
X0013436Y0014920D01*
X0013403Y0014997D01*
X0013374Y0015076D01*
X0013349Y0015155D01*
X0013327Y0015236D01*
X0013310Y0015318D01*
X0013296Y0015401D01*
X0013286Y0015484D01*
X0013280Y0015567D01*
X0013278Y0015651D01*
X0018278Y0015651D02*
X0018280Y0015735D01*
X0018286Y0015818D01*
X0018296Y0015901D01*
X0018310Y0015984D01*
X0018327Y0016066D01*
X0018349Y0016147D01*
X0018374Y0016226D01*
X0018403Y0016305D01*
X0018436Y0016382D01*
X0018472Y0016457D01*
X0018512Y0016531D01*
X0018555Y0016603D01*
X0018602Y0016672D01*
X0018652Y0016739D01*
X0018705Y0016804D01*
X0018761Y0016866D01*
X0018819Y0016926D01*
X0018881Y0016983D01*
X0018945Y0017036D01*
X0019012Y0017087D01*
X0019081Y0017134D01*
X0019152Y0017179D01*
X0019225Y0017219D01*
X0019300Y0017256D01*
X0019377Y0017290D01*
X0019455Y0017320D01*
X0019534Y0017346D01*
X0019615Y0017369D01*
X0019697Y0017387D01*
X0019779Y0017402D01*
X0019862Y0017413D01*
X0019945Y0017420D01*
X0020029Y0017423D01*
X0020113Y0017422D01*
X0020196Y0017417D01*
X0020280Y0017408D01*
X0020362Y0017395D01*
X0020444Y0017379D01*
X0020525Y0017358D01*
X0020606Y0017334D01*
X0020684Y0017306D01*
X0020762Y0017274D01*
X0020838Y0017238D01*
X0020912Y0017199D01*
X0020984Y0017157D01*
X0021054Y0017111D01*
X0021122Y0017062D01*
X0021187Y0017010D01*
X0021250Y0016955D01*
X0021310Y0016897D01*
X0021368Y0016836D01*
X0021422Y0016772D01*
X0021474Y0016706D01*
X0021522Y0016638D01*
X0021567Y0016567D01*
X0021608Y0016494D01*
X0021647Y0016420D01*
X0021681Y0016344D01*
X0021712Y0016266D01*
X0021739Y0016187D01*
X0021763Y0016106D01*
X0021782Y0016025D01*
X0021798Y0015943D01*
X0021810Y0015860D01*
X0021818Y0015776D01*
X0021822Y0015693D01*
X0021822Y0015609D01*
X0021818Y0015526D01*
X0021810Y0015442D01*
X0021798Y0015359D01*
X0021782Y0015277D01*
X0021763Y0015196D01*
X0021739Y0015115D01*
X0021712Y0015036D01*
X0021681Y0014958D01*
X0021647Y0014882D01*
X0021608Y0014808D01*
X0021567Y0014735D01*
X0021522Y0014664D01*
X0021474Y0014596D01*
X0021422Y0014530D01*
X0021368Y0014466D01*
X0021310Y0014405D01*
X0021250Y0014347D01*
X0021187Y0014292D01*
X0021122Y0014240D01*
X0021054Y0014191D01*
X0020984Y0014145D01*
X0020912Y0014103D01*
X0020838Y0014064D01*
X0020762Y0014028D01*
X0020684Y0013996D01*
X0020606Y0013968D01*
X0020525Y0013944D01*
X0020444Y0013923D01*
X0020362Y0013907D01*
X0020280Y0013894D01*
X0020196Y0013885D01*
X0020113Y0013880D01*
X0020029Y0013879D01*
X0019945Y0013882D01*
X0019862Y0013889D01*
X0019779Y0013900D01*
X0019697Y0013915D01*
X0019615Y0013933D01*
X0019534Y0013956D01*
X0019455Y0013982D01*
X0019377Y0014012D01*
X0019300Y0014046D01*
X0019225Y0014083D01*
X0019152Y0014123D01*
X0019081Y0014168D01*
X0019012Y0014215D01*
X0018945Y0014266D01*
X0018881Y0014319D01*
X0018819Y0014376D01*
X0018761Y0014436D01*
X0018705Y0014498D01*
X0018652Y0014563D01*
X0018602Y0014630D01*
X0018555Y0014699D01*
X0018512Y0014771D01*
X0018472Y0014845D01*
X0018436Y0014920D01*
X0018403Y0014997D01*
X0018374Y0015076D01*
X0018349Y0015155D01*
X0018327Y0015236D01*
X0018310Y0015318D01*
X0018296Y0015401D01*
X0018286Y0015484D01*
X0018280Y0015567D01*
X0018278Y0015651D01*
X0015129Y0008151D02*
X0015131Y0008291D01*
X0015137Y0008431D01*
X0015147Y0008570D01*
X0015161Y0008709D01*
X0015179Y0008848D01*
X0015200Y0008986D01*
X0015226Y0009124D01*
X0015256Y0009261D01*
X0015289Y0009396D01*
X0015327Y0009531D01*
X0015368Y0009665D01*
X0015413Y0009798D01*
X0015461Y0009929D01*
X0015514Y0010058D01*
X0015570Y0010187D01*
X0015629Y0010313D01*
X0015693Y0010438D01*
X0015759Y0010561D01*
X0015830Y0010682D01*
X0015903Y0010801D01*
X0015980Y0010918D01*
X0016061Y0011032D01*
X0016144Y0011144D01*
X0016231Y0011254D01*
X0016321Y0011362D01*
X0016413Y0011466D01*
X0016509Y0011568D01*
X0016608Y0011668D01*
X0016709Y0011764D01*
X0016813Y0011858D01*
X0016920Y0011948D01*
X0017029Y0012035D01*
X0017141Y0012120D01*
X0017255Y0012201D01*
X0017371Y0012279D01*
X0017489Y0012353D01*
X0017610Y0012424D01*
X0017732Y0012492D01*
X0017857Y0012556D01*
X0017983Y0012617D01*
X0018110Y0012674D01*
X0018240Y0012727D01*
X0018371Y0012777D01*
X0018503Y0012822D01*
X0018636Y0012865D01*
X0018771Y0012903D01*
X0018906Y0012937D01*
X0019043Y0012968D01*
X0019180Y0012995D01*
X0019318Y0013017D01*
X0019457Y0013036D01*
X0019596Y0013051D01*
X0019735Y0013062D01*
X0019875Y0013069D01*
X0020015Y0013072D01*
X0020155Y0013071D01*
X0020295Y0013066D01*
X0020434Y0013057D01*
X0020574Y0013044D01*
X0020713Y0013027D01*
X0020851Y0013006D01*
X0020989Y0012982D01*
X0021126Y0012953D01*
X0021262Y0012921D01*
X0021397Y0012884D01*
X0021531Y0012844D01*
X0021664Y0012800D01*
X0021795Y0012752D01*
X0021925Y0012701D01*
X0022054Y0012646D01*
X0022181Y0012587D01*
X0022306Y0012524D01*
X0022429Y0012459D01*
X0022551Y0012389D01*
X0022670Y0012316D01*
X0022788Y0012240D01*
X0022903Y0012161D01*
X0023016Y0012078D01*
X0023126Y0011992D01*
X0023234Y0011903D01*
X0023339Y0011811D01*
X0023442Y0011716D01*
X0023542Y0011618D01*
X0023639Y0011518D01*
X0023733Y0011414D01*
X0023825Y0011308D01*
X0023913Y0011200D01*
X0023998Y0011089D01*
X0024080Y0010975D01*
X0024159Y0010859D01*
X0024234Y0010742D01*
X0024306Y0010622D01*
X0024374Y0010500D01*
X0024439Y0010376D01*
X0024501Y0010250D01*
X0024559Y0010123D01*
X0024613Y0009994D01*
X0024664Y0009863D01*
X0024710Y0009731D01*
X0024753Y0009598D01*
X0024793Y0009464D01*
X0024828Y0009329D01*
X0024860Y0009192D01*
X0024887Y0009055D01*
X0024911Y0008917D01*
X0024931Y0008779D01*
X0024947Y0008640D01*
X0024959Y0008500D01*
X0024967Y0008361D01*
X0024971Y0008221D01*
X0024971Y0008081D01*
X0024967Y0007941D01*
X0024959Y0007802D01*
X0024947Y0007662D01*
X0024931Y0007523D01*
X0024911Y0007385D01*
X0024887Y0007247D01*
X0024860Y0007110D01*
X0024828Y0006973D01*
X0024793Y0006838D01*
X0024753Y0006704D01*
X0024710Y0006571D01*
X0024664Y0006439D01*
X0024613Y0006308D01*
X0024559Y0006179D01*
X0024501Y0006052D01*
X0024439Y0005926D01*
X0024374Y0005802D01*
X0024306Y0005680D01*
X0024234Y0005560D01*
X0024159Y0005443D01*
X0024080Y0005327D01*
X0023998Y0005213D01*
X0023913Y0005102D01*
X0023825Y0004994D01*
X0023733Y0004888D01*
X0023639Y0004784D01*
X0023542Y0004684D01*
X0023442Y0004586D01*
X0023339Y0004491D01*
X0023234Y0004399D01*
X0023126Y0004310D01*
X0023016Y0004224D01*
X0022903Y0004141D01*
X0022788Y0004062D01*
X0022670Y0003986D01*
X0022551Y0003913D01*
X0022429Y0003843D01*
X0022306Y0003778D01*
X0022181Y0003715D01*
X0022054Y0003656D01*
X0021925Y0003601D01*
X0021795Y0003550D01*
X0021664Y0003502D01*
X0021531Y0003458D01*
X0021397Y0003418D01*
X0021262Y0003381D01*
X0021126Y0003349D01*
X0020989Y0003320D01*
X0020851Y0003296D01*
X0020713Y0003275D01*
X0020574Y0003258D01*
X0020434Y0003245D01*
X0020295Y0003236D01*
X0020155Y0003231D01*
X0020015Y0003230D01*
X0019875Y0003233D01*
X0019735Y0003240D01*
X0019596Y0003251D01*
X0019457Y0003266D01*
X0019318Y0003285D01*
X0019180Y0003307D01*
X0019043Y0003334D01*
X0018906Y0003365D01*
X0018771Y0003399D01*
X0018636Y0003437D01*
X0018503Y0003480D01*
X0018371Y0003525D01*
X0018240Y0003575D01*
X0018110Y0003628D01*
X0017983Y0003685D01*
X0017857Y0003746D01*
X0017732Y0003810D01*
X0017610Y0003878D01*
X0017489Y0003949D01*
X0017371Y0004023D01*
X0017255Y0004101D01*
X0017141Y0004182D01*
X0017029Y0004267D01*
X0016920Y0004354D01*
X0016813Y0004444D01*
X0016709Y0004538D01*
X0016608Y0004634D01*
X0016509Y0004734D01*
X0016413Y0004836D01*
X0016321Y0004940D01*
X0016231Y0005048D01*
X0016144Y0005158D01*
X0016061Y0005270D01*
X0015980Y0005384D01*
X0015903Y0005501D01*
X0015830Y0005620D01*
X0015759Y0005741D01*
X0015693Y0005864D01*
X0015629Y0005989D01*
X0015570Y0006115D01*
X0015514Y0006244D01*
X0015461Y0006373D01*
X0015413Y0006504D01*
X0015368Y0006637D01*
X0015327Y0006771D01*
X0015289Y0006906D01*
X0015256Y0007041D01*
X0015226Y0007178D01*
X0015200Y0007316D01*
X0015179Y0007454D01*
X0015161Y0007593D01*
X0015147Y0007732D01*
X0015137Y0007871D01*
X0015131Y0008011D01*
X0015129Y0008151D01*
X0023278Y0015651D02*
X0023280Y0015735D01*
X0023286Y0015818D01*
X0023296Y0015901D01*
X0023310Y0015984D01*
X0023327Y0016066D01*
X0023349Y0016147D01*
X0023374Y0016226D01*
X0023403Y0016305D01*
X0023436Y0016382D01*
X0023472Y0016457D01*
X0023512Y0016531D01*
X0023555Y0016603D01*
X0023602Y0016672D01*
X0023652Y0016739D01*
X0023705Y0016804D01*
X0023761Y0016866D01*
X0023819Y0016926D01*
X0023881Y0016983D01*
X0023945Y0017036D01*
X0024012Y0017087D01*
X0024081Y0017134D01*
X0024152Y0017179D01*
X0024225Y0017219D01*
X0024300Y0017256D01*
X0024377Y0017290D01*
X0024455Y0017320D01*
X0024534Y0017346D01*
X0024615Y0017369D01*
X0024697Y0017387D01*
X0024779Y0017402D01*
X0024862Y0017413D01*
X0024945Y0017420D01*
X0025029Y0017423D01*
X0025113Y0017422D01*
X0025196Y0017417D01*
X0025280Y0017408D01*
X0025362Y0017395D01*
X0025444Y0017379D01*
X0025525Y0017358D01*
X0025606Y0017334D01*
X0025684Y0017306D01*
X0025762Y0017274D01*
X0025838Y0017238D01*
X0025912Y0017199D01*
X0025984Y0017157D01*
X0026054Y0017111D01*
X0026122Y0017062D01*
X0026187Y0017010D01*
X0026250Y0016955D01*
X0026310Y0016897D01*
X0026368Y0016836D01*
X0026422Y0016772D01*
X0026474Y0016706D01*
X0026522Y0016638D01*
X0026567Y0016567D01*
X0026608Y0016494D01*
X0026647Y0016420D01*
X0026681Y0016344D01*
X0026712Y0016266D01*
X0026739Y0016187D01*
X0026763Y0016106D01*
X0026782Y0016025D01*
X0026798Y0015943D01*
X0026810Y0015860D01*
X0026818Y0015776D01*
X0026822Y0015693D01*
X0026822Y0015609D01*
X0026818Y0015526D01*
X0026810Y0015442D01*
X0026798Y0015359D01*
X0026782Y0015277D01*
X0026763Y0015196D01*
X0026739Y0015115D01*
X0026712Y0015036D01*
X0026681Y0014958D01*
X0026647Y0014882D01*
X0026608Y0014808D01*
X0026567Y0014735D01*
X0026522Y0014664D01*
X0026474Y0014596D01*
X0026422Y0014530D01*
X0026368Y0014466D01*
X0026310Y0014405D01*
X0026250Y0014347D01*
X0026187Y0014292D01*
X0026122Y0014240D01*
X0026054Y0014191D01*
X0025984Y0014145D01*
X0025912Y0014103D01*
X0025838Y0014064D01*
X0025762Y0014028D01*
X0025684Y0013996D01*
X0025606Y0013968D01*
X0025525Y0013944D01*
X0025444Y0013923D01*
X0025362Y0013907D01*
X0025280Y0013894D01*
X0025196Y0013885D01*
X0025113Y0013880D01*
X0025029Y0013879D01*
X0024945Y0013882D01*
X0024862Y0013889D01*
X0024779Y0013900D01*
X0024697Y0013915D01*
X0024615Y0013933D01*
X0024534Y0013956D01*
X0024455Y0013982D01*
X0024377Y0014012D01*
X0024300Y0014046D01*
X0024225Y0014083D01*
X0024152Y0014123D01*
X0024081Y0014168D01*
X0024012Y0014215D01*
X0023945Y0014266D01*
X0023881Y0014319D01*
X0023819Y0014376D01*
X0023761Y0014436D01*
X0023705Y0014498D01*
X0023652Y0014563D01*
X0023602Y0014630D01*
X0023555Y0014699D01*
X0023512Y0014771D01*
X0023472Y0014845D01*
X0023436Y0014920D01*
X0023403Y0014997D01*
X0023374Y0015076D01*
X0023349Y0015155D01*
X0023327Y0015236D01*
X0023310Y0015318D01*
X0023296Y0015401D01*
X0023286Y0015484D01*
X0023280Y0015567D01*
X0023278Y0015651D01*
X0048278Y0015651D02*
X0048280Y0015735D01*
X0048286Y0015818D01*
X0048296Y0015901D01*
X0048310Y0015984D01*
X0048327Y0016066D01*
X0048349Y0016147D01*
X0048374Y0016226D01*
X0048403Y0016305D01*
X0048436Y0016382D01*
X0048472Y0016457D01*
X0048512Y0016531D01*
X0048555Y0016603D01*
X0048602Y0016672D01*
X0048652Y0016739D01*
X0048705Y0016804D01*
X0048761Y0016866D01*
X0048819Y0016926D01*
X0048881Y0016983D01*
X0048945Y0017036D01*
X0049012Y0017087D01*
X0049081Y0017134D01*
X0049152Y0017179D01*
X0049225Y0017219D01*
X0049300Y0017256D01*
X0049377Y0017290D01*
X0049455Y0017320D01*
X0049534Y0017346D01*
X0049615Y0017369D01*
X0049697Y0017387D01*
X0049779Y0017402D01*
X0049862Y0017413D01*
X0049945Y0017420D01*
X0050029Y0017423D01*
X0050113Y0017422D01*
X0050196Y0017417D01*
X0050280Y0017408D01*
X0050362Y0017395D01*
X0050444Y0017379D01*
X0050525Y0017358D01*
X0050606Y0017334D01*
X0050684Y0017306D01*
X0050762Y0017274D01*
X0050838Y0017238D01*
X0050912Y0017199D01*
X0050984Y0017157D01*
X0051054Y0017111D01*
X0051122Y0017062D01*
X0051187Y0017010D01*
X0051250Y0016955D01*
X0051310Y0016897D01*
X0051368Y0016836D01*
X0051422Y0016772D01*
X0051474Y0016706D01*
X0051522Y0016638D01*
X0051567Y0016567D01*
X0051608Y0016494D01*
X0051647Y0016420D01*
X0051681Y0016344D01*
X0051712Y0016266D01*
X0051739Y0016187D01*
X0051763Y0016106D01*
X0051782Y0016025D01*
X0051798Y0015943D01*
X0051810Y0015860D01*
X0051818Y0015776D01*
X0051822Y0015693D01*
X0051822Y0015609D01*
X0051818Y0015526D01*
X0051810Y0015442D01*
X0051798Y0015359D01*
X0051782Y0015277D01*
X0051763Y0015196D01*
X0051739Y0015115D01*
X0051712Y0015036D01*
X0051681Y0014958D01*
X0051647Y0014882D01*
X0051608Y0014808D01*
X0051567Y0014735D01*
X0051522Y0014664D01*
X0051474Y0014596D01*
X0051422Y0014530D01*
X0051368Y0014466D01*
X0051310Y0014405D01*
X0051250Y0014347D01*
X0051187Y0014292D01*
X0051122Y0014240D01*
X0051054Y0014191D01*
X0050984Y0014145D01*
X0050912Y0014103D01*
X0050838Y0014064D01*
X0050762Y0014028D01*
X0050684Y0013996D01*
X0050606Y0013968D01*
X0050525Y0013944D01*
X0050444Y0013923D01*
X0050362Y0013907D01*
X0050280Y0013894D01*
X0050196Y0013885D01*
X0050113Y0013880D01*
X0050029Y0013879D01*
X0049945Y0013882D01*
X0049862Y0013889D01*
X0049779Y0013900D01*
X0049697Y0013915D01*
X0049615Y0013933D01*
X0049534Y0013956D01*
X0049455Y0013982D01*
X0049377Y0014012D01*
X0049300Y0014046D01*
X0049225Y0014083D01*
X0049152Y0014123D01*
X0049081Y0014168D01*
X0049012Y0014215D01*
X0048945Y0014266D01*
X0048881Y0014319D01*
X0048819Y0014376D01*
X0048761Y0014436D01*
X0048705Y0014498D01*
X0048652Y0014563D01*
X0048602Y0014630D01*
X0048555Y0014699D01*
X0048512Y0014771D01*
X0048472Y0014845D01*
X0048436Y0014920D01*
X0048403Y0014997D01*
X0048374Y0015076D01*
X0048349Y0015155D01*
X0048327Y0015236D01*
X0048310Y0015318D01*
X0048296Y0015401D01*
X0048286Y0015484D01*
X0048280Y0015567D01*
X0048278Y0015651D01*
X0053278Y0015651D02*
X0053280Y0015735D01*
X0053286Y0015818D01*
X0053296Y0015901D01*
X0053310Y0015984D01*
X0053327Y0016066D01*
X0053349Y0016147D01*
X0053374Y0016226D01*
X0053403Y0016305D01*
X0053436Y0016382D01*
X0053472Y0016457D01*
X0053512Y0016531D01*
X0053555Y0016603D01*
X0053602Y0016672D01*
X0053652Y0016739D01*
X0053705Y0016804D01*
X0053761Y0016866D01*
X0053819Y0016926D01*
X0053881Y0016983D01*
X0053945Y0017036D01*
X0054012Y0017087D01*
X0054081Y0017134D01*
X0054152Y0017179D01*
X0054225Y0017219D01*
X0054300Y0017256D01*
X0054377Y0017290D01*
X0054455Y0017320D01*
X0054534Y0017346D01*
X0054615Y0017369D01*
X0054697Y0017387D01*
X0054779Y0017402D01*
X0054862Y0017413D01*
X0054945Y0017420D01*
X0055029Y0017423D01*
X0055113Y0017422D01*
X0055196Y0017417D01*
X0055280Y0017408D01*
X0055362Y0017395D01*
X0055444Y0017379D01*
X0055525Y0017358D01*
X0055606Y0017334D01*
X0055684Y0017306D01*
X0055762Y0017274D01*
X0055838Y0017238D01*
X0055912Y0017199D01*
X0055984Y0017157D01*
X0056054Y0017111D01*
X0056122Y0017062D01*
X0056187Y0017010D01*
X0056250Y0016955D01*
X0056310Y0016897D01*
X0056368Y0016836D01*
X0056422Y0016772D01*
X0056474Y0016706D01*
X0056522Y0016638D01*
X0056567Y0016567D01*
X0056608Y0016494D01*
X0056647Y0016420D01*
X0056681Y0016344D01*
X0056712Y0016266D01*
X0056739Y0016187D01*
X0056763Y0016106D01*
X0056782Y0016025D01*
X0056798Y0015943D01*
X0056810Y0015860D01*
X0056818Y0015776D01*
X0056822Y0015693D01*
X0056822Y0015609D01*
X0056818Y0015526D01*
X0056810Y0015442D01*
X0056798Y0015359D01*
X0056782Y0015277D01*
X0056763Y0015196D01*
X0056739Y0015115D01*
X0056712Y0015036D01*
X0056681Y0014958D01*
X0056647Y0014882D01*
X0056608Y0014808D01*
X0056567Y0014735D01*
X0056522Y0014664D01*
X0056474Y0014596D01*
X0056422Y0014530D01*
X0056368Y0014466D01*
X0056310Y0014405D01*
X0056250Y0014347D01*
X0056187Y0014292D01*
X0056122Y0014240D01*
X0056054Y0014191D01*
X0055984Y0014145D01*
X0055912Y0014103D01*
X0055838Y0014064D01*
X0055762Y0014028D01*
X0055684Y0013996D01*
X0055606Y0013968D01*
X0055525Y0013944D01*
X0055444Y0013923D01*
X0055362Y0013907D01*
X0055280Y0013894D01*
X0055196Y0013885D01*
X0055113Y0013880D01*
X0055029Y0013879D01*
X0054945Y0013882D01*
X0054862Y0013889D01*
X0054779Y0013900D01*
X0054697Y0013915D01*
X0054615Y0013933D01*
X0054534Y0013956D01*
X0054455Y0013982D01*
X0054377Y0014012D01*
X0054300Y0014046D01*
X0054225Y0014083D01*
X0054152Y0014123D01*
X0054081Y0014168D01*
X0054012Y0014215D01*
X0053945Y0014266D01*
X0053881Y0014319D01*
X0053819Y0014376D01*
X0053761Y0014436D01*
X0053705Y0014498D01*
X0053652Y0014563D01*
X0053602Y0014630D01*
X0053555Y0014699D01*
X0053512Y0014771D01*
X0053472Y0014845D01*
X0053436Y0014920D01*
X0053403Y0014997D01*
X0053374Y0015076D01*
X0053349Y0015155D01*
X0053327Y0015236D01*
X0053310Y0015318D01*
X0053296Y0015401D01*
X0053286Y0015484D01*
X0053280Y0015567D01*
X0053278Y0015651D01*
X0050129Y0008151D02*
X0050131Y0008291D01*
X0050137Y0008431D01*
X0050147Y0008570D01*
X0050161Y0008709D01*
X0050179Y0008848D01*
X0050200Y0008986D01*
X0050226Y0009124D01*
X0050256Y0009261D01*
X0050289Y0009396D01*
X0050327Y0009531D01*
X0050368Y0009665D01*
X0050413Y0009798D01*
X0050461Y0009929D01*
X0050514Y0010058D01*
X0050570Y0010187D01*
X0050629Y0010313D01*
X0050693Y0010438D01*
X0050759Y0010561D01*
X0050830Y0010682D01*
X0050903Y0010801D01*
X0050980Y0010918D01*
X0051061Y0011032D01*
X0051144Y0011144D01*
X0051231Y0011254D01*
X0051321Y0011362D01*
X0051413Y0011466D01*
X0051509Y0011568D01*
X0051608Y0011668D01*
X0051709Y0011764D01*
X0051813Y0011858D01*
X0051920Y0011948D01*
X0052029Y0012035D01*
X0052141Y0012120D01*
X0052255Y0012201D01*
X0052371Y0012279D01*
X0052489Y0012353D01*
X0052610Y0012424D01*
X0052732Y0012492D01*
X0052857Y0012556D01*
X0052983Y0012617D01*
X0053110Y0012674D01*
X0053240Y0012727D01*
X0053371Y0012777D01*
X0053503Y0012822D01*
X0053636Y0012865D01*
X0053771Y0012903D01*
X0053906Y0012937D01*
X0054043Y0012968D01*
X0054180Y0012995D01*
X0054318Y0013017D01*
X0054457Y0013036D01*
X0054596Y0013051D01*
X0054735Y0013062D01*
X0054875Y0013069D01*
X0055015Y0013072D01*
X0055155Y0013071D01*
X0055295Y0013066D01*
X0055434Y0013057D01*
X0055574Y0013044D01*
X0055713Y0013027D01*
X0055851Y0013006D01*
X0055989Y0012982D01*
X0056126Y0012953D01*
X0056262Y0012921D01*
X0056397Y0012884D01*
X0056531Y0012844D01*
X0056664Y0012800D01*
X0056795Y0012752D01*
X0056925Y0012701D01*
X0057054Y0012646D01*
X0057181Y0012587D01*
X0057306Y0012524D01*
X0057429Y0012459D01*
X0057551Y0012389D01*
X0057670Y0012316D01*
X0057788Y0012240D01*
X0057903Y0012161D01*
X0058016Y0012078D01*
X0058126Y0011992D01*
X0058234Y0011903D01*
X0058339Y0011811D01*
X0058442Y0011716D01*
X0058542Y0011618D01*
X0058639Y0011518D01*
X0058733Y0011414D01*
X0058825Y0011308D01*
X0058913Y0011200D01*
X0058998Y0011089D01*
X0059080Y0010975D01*
X0059159Y0010859D01*
X0059234Y0010742D01*
X0059306Y0010622D01*
X0059374Y0010500D01*
X0059439Y0010376D01*
X0059501Y0010250D01*
X0059559Y0010123D01*
X0059613Y0009994D01*
X0059664Y0009863D01*
X0059710Y0009731D01*
X0059753Y0009598D01*
X0059793Y0009464D01*
X0059828Y0009329D01*
X0059860Y0009192D01*
X0059887Y0009055D01*
X0059911Y0008917D01*
X0059931Y0008779D01*
X0059947Y0008640D01*
X0059959Y0008500D01*
X0059967Y0008361D01*
X0059971Y0008221D01*
X0059971Y0008081D01*
X0059967Y0007941D01*
X0059959Y0007802D01*
X0059947Y0007662D01*
X0059931Y0007523D01*
X0059911Y0007385D01*
X0059887Y0007247D01*
X0059860Y0007110D01*
X0059828Y0006973D01*
X0059793Y0006838D01*
X0059753Y0006704D01*
X0059710Y0006571D01*
X0059664Y0006439D01*
X0059613Y0006308D01*
X0059559Y0006179D01*
X0059501Y0006052D01*
X0059439Y0005926D01*
X0059374Y0005802D01*
X0059306Y0005680D01*
X0059234Y0005560D01*
X0059159Y0005443D01*
X0059080Y0005327D01*
X0058998Y0005213D01*
X0058913Y0005102D01*
X0058825Y0004994D01*
X0058733Y0004888D01*
X0058639Y0004784D01*
X0058542Y0004684D01*
X0058442Y0004586D01*
X0058339Y0004491D01*
X0058234Y0004399D01*
X0058126Y0004310D01*
X0058016Y0004224D01*
X0057903Y0004141D01*
X0057788Y0004062D01*
X0057670Y0003986D01*
X0057551Y0003913D01*
X0057429Y0003843D01*
X0057306Y0003778D01*
X0057181Y0003715D01*
X0057054Y0003656D01*
X0056925Y0003601D01*
X0056795Y0003550D01*
X0056664Y0003502D01*
X0056531Y0003458D01*
X0056397Y0003418D01*
X0056262Y0003381D01*
X0056126Y0003349D01*
X0055989Y0003320D01*
X0055851Y0003296D01*
X0055713Y0003275D01*
X0055574Y0003258D01*
X0055434Y0003245D01*
X0055295Y0003236D01*
X0055155Y0003231D01*
X0055015Y0003230D01*
X0054875Y0003233D01*
X0054735Y0003240D01*
X0054596Y0003251D01*
X0054457Y0003266D01*
X0054318Y0003285D01*
X0054180Y0003307D01*
X0054043Y0003334D01*
X0053906Y0003365D01*
X0053771Y0003399D01*
X0053636Y0003437D01*
X0053503Y0003480D01*
X0053371Y0003525D01*
X0053240Y0003575D01*
X0053110Y0003628D01*
X0052983Y0003685D01*
X0052857Y0003746D01*
X0052732Y0003810D01*
X0052610Y0003878D01*
X0052489Y0003949D01*
X0052371Y0004023D01*
X0052255Y0004101D01*
X0052141Y0004182D01*
X0052029Y0004267D01*
X0051920Y0004354D01*
X0051813Y0004444D01*
X0051709Y0004538D01*
X0051608Y0004634D01*
X0051509Y0004734D01*
X0051413Y0004836D01*
X0051321Y0004940D01*
X0051231Y0005048D01*
X0051144Y0005158D01*
X0051061Y0005270D01*
X0050980Y0005384D01*
X0050903Y0005501D01*
X0050830Y0005620D01*
X0050759Y0005741D01*
X0050693Y0005864D01*
X0050629Y0005989D01*
X0050570Y0006115D01*
X0050514Y0006244D01*
X0050461Y0006373D01*
X0050413Y0006504D01*
X0050368Y0006637D01*
X0050327Y0006771D01*
X0050289Y0006906D01*
X0050256Y0007041D01*
X0050226Y0007178D01*
X0050200Y0007316D01*
X0050179Y0007454D01*
X0050161Y0007593D01*
X0050147Y0007732D01*
X0050137Y0007871D01*
X0050131Y0008011D01*
X0050129Y0008151D01*
X0058278Y0015651D02*
X0058280Y0015735D01*
X0058286Y0015818D01*
X0058296Y0015901D01*
X0058310Y0015984D01*
X0058327Y0016066D01*
X0058349Y0016147D01*
X0058374Y0016226D01*
X0058403Y0016305D01*
X0058436Y0016382D01*
X0058472Y0016457D01*
X0058512Y0016531D01*
X0058555Y0016603D01*
X0058602Y0016672D01*
X0058652Y0016739D01*
X0058705Y0016804D01*
X0058761Y0016866D01*
X0058819Y0016926D01*
X0058881Y0016983D01*
X0058945Y0017036D01*
X0059012Y0017087D01*
X0059081Y0017134D01*
X0059152Y0017179D01*
X0059225Y0017219D01*
X0059300Y0017256D01*
X0059377Y0017290D01*
X0059455Y0017320D01*
X0059534Y0017346D01*
X0059615Y0017369D01*
X0059697Y0017387D01*
X0059779Y0017402D01*
X0059862Y0017413D01*
X0059945Y0017420D01*
X0060029Y0017423D01*
X0060113Y0017422D01*
X0060196Y0017417D01*
X0060280Y0017408D01*
X0060362Y0017395D01*
X0060444Y0017379D01*
X0060525Y0017358D01*
X0060606Y0017334D01*
X0060684Y0017306D01*
X0060762Y0017274D01*
X0060838Y0017238D01*
X0060912Y0017199D01*
X0060984Y0017157D01*
X0061054Y0017111D01*
X0061122Y0017062D01*
X0061187Y0017010D01*
X0061250Y0016955D01*
X0061310Y0016897D01*
X0061368Y0016836D01*
X0061422Y0016772D01*
X0061474Y0016706D01*
X0061522Y0016638D01*
X0061567Y0016567D01*
X0061608Y0016494D01*
X0061647Y0016420D01*
X0061681Y0016344D01*
X0061712Y0016266D01*
X0061739Y0016187D01*
X0061763Y0016106D01*
X0061782Y0016025D01*
X0061798Y0015943D01*
X0061810Y0015860D01*
X0061818Y0015776D01*
X0061822Y0015693D01*
X0061822Y0015609D01*
X0061818Y0015526D01*
X0061810Y0015442D01*
X0061798Y0015359D01*
X0061782Y0015277D01*
X0061763Y0015196D01*
X0061739Y0015115D01*
X0061712Y0015036D01*
X0061681Y0014958D01*
X0061647Y0014882D01*
X0061608Y0014808D01*
X0061567Y0014735D01*
X0061522Y0014664D01*
X0061474Y0014596D01*
X0061422Y0014530D01*
X0061368Y0014466D01*
X0061310Y0014405D01*
X0061250Y0014347D01*
X0061187Y0014292D01*
X0061122Y0014240D01*
X0061054Y0014191D01*
X0060984Y0014145D01*
X0060912Y0014103D01*
X0060838Y0014064D01*
X0060762Y0014028D01*
X0060684Y0013996D01*
X0060606Y0013968D01*
X0060525Y0013944D01*
X0060444Y0013923D01*
X0060362Y0013907D01*
X0060280Y0013894D01*
X0060196Y0013885D01*
X0060113Y0013880D01*
X0060029Y0013879D01*
X0059945Y0013882D01*
X0059862Y0013889D01*
X0059779Y0013900D01*
X0059697Y0013915D01*
X0059615Y0013933D01*
X0059534Y0013956D01*
X0059455Y0013982D01*
X0059377Y0014012D01*
X0059300Y0014046D01*
X0059225Y0014083D01*
X0059152Y0014123D01*
X0059081Y0014168D01*
X0059012Y0014215D01*
X0058945Y0014266D01*
X0058881Y0014319D01*
X0058819Y0014376D01*
X0058761Y0014436D01*
X0058705Y0014498D01*
X0058652Y0014563D01*
X0058602Y0014630D01*
X0058555Y0014699D01*
X0058512Y0014771D01*
X0058472Y0014845D01*
X0058436Y0014920D01*
X0058403Y0014997D01*
X0058374Y0015076D01*
X0058349Y0015155D01*
X0058327Y0015236D01*
X0058310Y0015318D01*
X0058296Y0015401D01*
X0058286Y0015484D01*
X0058280Y0015567D01*
X0058278Y0015651D01*
D12*
X0055050Y0008151D03*
X0020050Y0008151D03*
D13*
X0020050Y0015651D03*
X0015050Y0015651D03*
X0025050Y0015651D03*
X0050050Y0015651D03*
X0055050Y0015651D03*
X0060050Y0015651D03*
D14*
X0067238Y0092206D03*
X0067238Y0099096D03*
D15*
X0019642Y0088244D02*
X0019642Y0081050D01*
X0019642Y0088244D02*
X0023962Y0088244D01*
X0023962Y0081050D01*
X0019642Y0081050D01*
X0019642Y0082129D02*
X0023962Y0082129D01*
X0023962Y0083208D02*
X0019642Y0083208D01*
X0019642Y0084287D02*
X0023962Y0084287D01*
X0023962Y0085366D02*
X0019642Y0085366D01*
X0019642Y0086445D02*
X0023962Y0086445D01*
X0023962Y0087524D02*
X0019642Y0087524D01*
X0011768Y0088244D02*
X0011768Y0081050D01*
X0011768Y0088244D02*
X0016088Y0088244D01*
X0016088Y0081050D01*
X0011768Y0081050D01*
X0011768Y0082129D02*
X0016088Y0082129D01*
X0016088Y0083208D02*
X0011768Y0083208D01*
X0011768Y0084287D02*
X0016088Y0084287D01*
X0016088Y0085366D02*
X0011768Y0085366D01*
X0011768Y0086445D02*
X0016088Y0086445D01*
X0016088Y0087524D02*
X0011768Y0087524D01*
X0011768Y0025252D02*
X0011768Y0018058D01*
X0011768Y0025252D02*
X0016088Y0025252D01*
X0016088Y0018058D01*
X0011768Y0018058D01*
X0011768Y0019137D02*
X0016088Y0019137D01*
X0016088Y0020216D02*
X0011768Y0020216D01*
X0011768Y0021295D02*
X0016088Y0021295D01*
X0016088Y0022374D02*
X0011768Y0022374D01*
X0011768Y0023453D02*
X0016088Y0023453D01*
X0016088Y0024532D02*
X0011768Y0024532D01*
X0019642Y0025252D02*
X0019642Y0018058D01*
X0019642Y0025252D02*
X0023962Y0025252D01*
X0023962Y0018058D01*
X0019642Y0018058D01*
X0019642Y0019137D02*
X0023962Y0019137D01*
X0023962Y0020216D02*
X0019642Y0020216D01*
X0019642Y0021295D02*
X0023962Y0021295D01*
X0023962Y0022374D02*
X0019642Y0022374D01*
X0019642Y0023453D02*
X0023962Y0023453D01*
X0023962Y0024532D02*
X0019642Y0024532D01*
X0027516Y0025252D02*
X0027516Y0018058D01*
X0027516Y0025252D02*
X0031836Y0025252D01*
X0031836Y0018058D01*
X0027516Y0018058D01*
X0027516Y0019137D02*
X0031836Y0019137D01*
X0031836Y0020216D02*
X0027516Y0020216D01*
X0027516Y0021295D02*
X0031836Y0021295D01*
X0031836Y0022374D02*
X0027516Y0022374D01*
X0027516Y0023453D02*
X0031836Y0023453D01*
X0031836Y0024532D02*
X0027516Y0024532D01*
X0043264Y0025252D02*
X0043264Y0018058D01*
X0043264Y0025252D02*
X0047584Y0025252D01*
X0047584Y0018058D01*
X0043264Y0018058D01*
X0043264Y0019137D02*
X0047584Y0019137D01*
X0047584Y0020216D02*
X0043264Y0020216D01*
X0043264Y0021295D02*
X0047584Y0021295D01*
X0047584Y0022374D02*
X0043264Y0022374D01*
X0043264Y0023453D02*
X0047584Y0023453D01*
X0047584Y0024532D02*
X0043264Y0024532D01*
X0051138Y0025252D02*
X0051138Y0018058D01*
X0051138Y0025252D02*
X0055458Y0025252D01*
X0055458Y0018058D01*
X0051138Y0018058D01*
X0051138Y0019137D02*
X0055458Y0019137D01*
X0055458Y0020216D02*
X0051138Y0020216D01*
X0051138Y0021295D02*
X0055458Y0021295D01*
X0055458Y0022374D02*
X0051138Y0022374D01*
X0051138Y0023453D02*
X0055458Y0023453D01*
X0055458Y0024532D02*
X0051138Y0024532D01*
X0059012Y0025252D02*
X0059012Y0018058D01*
X0059012Y0025252D02*
X0063332Y0025252D01*
X0063332Y0018058D01*
X0059012Y0018058D01*
X0059012Y0019137D02*
X0063332Y0019137D01*
X0063332Y0020216D02*
X0059012Y0020216D01*
X0059012Y0021295D02*
X0063332Y0021295D01*
X0063332Y0022374D02*
X0059012Y0022374D01*
X0059012Y0023453D02*
X0063332Y0023453D01*
X0063332Y0024532D02*
X0059012Y0024532D01*
D16*
X0061881Y0091598D03*
X0061881Y0099079D03*
X0053219Y0095338D03*
D17*
X0037550Y0095700D03*
M02*
