G75*
%MOIN*%
%OFA0B0*%
%FSLAX25Y25*%
%IPPOS*%
%LPD*%
%AMOC8*
5,1,8,0,0,1.08239X$1,22.5*
%
%ADD10C,0.00500*%
%ADD11C,0.00000*%
%ADD12R,0.04252X0.04134*%
%ADD13C,0.01000*%
%ADD14R,0.05512X0.03937*%
%ADD15C,0.02400*%
%ADD16C,0.00800*%
%ADD17C,0.01200*%
%ADD18C,0.04724*%
D10*
X0005050Y0016901D02*
X0005050Y0101862D01*
X0025050Y0101862D01*
X0025050Y0090026D01*
X0030675Y0090026D01*
X0030675Y0100221D01*
X0031652Y0101198D01*
X0043448Y0101198D01*
X0044425Y0100221D01*
X0044425Y0090026D01*
X0050050Y0090026D01*
X0050050Y0101901D01*
X0070001Y0101901D01*
X0070050Y0101862D01*
X0070050Y0101901D02*
X0070050Y0073151D01*
X0070001Y0016901D01*
X0062550Y0016901D01*
X0062550Y0008151D01*
X0062533Y0007969D01*
X0062511Y0007787D01*
X0062484Y0007605D01*
X0062454Y0007425D01*
X0062419Y0007245D01*
X0062379Y0007066D01*
X0062335Y0006888D01*
X0062287Y0006711D01*
X0062235Y0006535D01*
X0062178Y0006361D01*
X0062117Y0006188D01*
X0062052Y0006017D01*
X0061983Y0005847D01*
X0061909Y0005679D01*
X0061832Y0005513D01*
X0061750Y0005349D01*
X0061665Y0005187D01*
X0061576Y0005027D01*
X0061482Y0004869D01*
X0061385Y0004713D01*
X0061284Y0004560D01*
X0061180Y0004410D01*
X0061072Y0004262D01*
X0060960Y0004116D01*
X0060845Y0003974D01*
X0060726Y0003834D01*
X0060604Y0003698D01*
X0060479Y0003564D01*
X0060350Y0003433D01*
X0060219Y0003306D01*
X0060084Y0003181D01*
X0059946Y0003060D01*
X0059806Y0002943D01*
X0059662Y0002829D01*
X0059516Y0002718D01*
X0059367Y0002611D01*
X0059216Y0002508D01*
X0059062Y0002408D01*
X0058906Y0002313D01*
X0058747Y0002221D01*
X0058586Y0002133D01*
X0058424Y0002048D01*
X0058259Y0001968D01*
X0058092Y0001892D01*
X0057923Y0001820D01*
X0057753Y0001752D01*
X0057581Y0001689D01*
X0057408Y0001629D01*
X0057233Y0001574D01*
X0057057Y0001523D01*
X0056880Y0001476D01*
X0056702Y0001433D01*
X0056522Y0001395D01*
X0056342Y0001362D01*
X0056161Y0001333D01*
X0055980Y0001308D01*
X0055798Y0001287D01*
X0055615Y0001271D01*
X0055432Y0001260D01*
X0055249Y0001253D01*
X0055066Y0001250D01*
X0054883Y0001252D01*
X0054699Y0001258D01*
X0054516Y0001269D01*
X0054334Y0001284D01*
X0054152Y0001304D01*
X0053970Y0001328D01*
X0053789Y0001356D01*
X0053608Y0001389D01*
X0053429Y0001427D01*
X0053251Y0001468D01*
X0053073Y0001514D01*
X0052897Y0001565D01*
X0052722Y0001619D01*
X0052548Y0001678D01*
X0052376Y0001741D01*
X0052206Y0001808D01*
X0052037Y0001879D01*
X0051870Y0001955D01*
X0051705Y0002034D01*
X0051541Y0002118D01*
X0051380Y0002205D01*
X0051221Y0002297D01*
X0051065Y0002392D01*
X0050911Y0002491D01*
X0050759Y0002593D01*
X0050609Y0002700D01*
X0050463Y0002810D01*
X0050319Y0002923D01*
X0050178Y0003040D01*
X0050040Y0003160D01*
X0049904Y0003284D01*
X0049772Y0003411D01*
X0049643Y0003541D01*
X0049517Y0003674D01*
X0049395Y0003811D01*
X0049275Y0003950D01*
X0049159Y0004092D01*
X0049047Y0004237D01*
X0048938Y0004384D01*
X0048833Y0004534D01*
X0048732Y0004687D01*
X0048634Y0004842D01*
X0048540Y0004999D01*
X0048450Y0005159D01*
X0048364Y0005321D01*
X0048282Y0005485D01*
X0048204Y0005650D01*
X0048130Y0005818D01*
X0048060Y0005987D01*
X0047994Y0006158D01*
X0047932Y0006331D01*
X0047875Y0006505D01*
X0047822Y0006681D01*
X0047773Y0006857D01*
X0047728Y0007035D01*
X0047688Y0007214D01*
X0047652Y0007393D01*
X0047621Y0007574D01*
X0047594Y0007755D01*
X0047571Y0007937D01*
X0047553Y0008120D01*
X0047539Y0008302D01*
X0047530Y0008485D01*
X0047525Y0008669D01*
X0047524Y0008852D01*
X0047528Y0009035D01*
X0047537Y0009218D01*
X0047550Y0009401D01*
X0047550Y0016901D01*
X0027550Y0016901D01*
X0027550Y0009401D01*
X0033226Y0018401D02*
X0033226Y0025734D01*
X0032318Y0026642D01*
X0027125Y0026642D01*
X0027125Y0026877D01*
X0026276Y0027726D01*
X0026187Y0027814D01*
X0026187Y0028207D01*
X0026306Y0028088D01*
X0028169Y0028088D01*
X0029487Y0029407D01*
X0029487Y0031270D01*
X0028916Y0031842D01*
X0035963Y0038888D01*
X0036812Y0039738D01*
X0036812Y0046613D01*
X0040963Y0050763D01*
X0043824Y0050763D01*
X0051100Y0043488D01*
X0051100Y0042695D01*
X0050300Y0041895D01*
X0050300Y0040032D01*
X0051618Y0038713D01*
X0053482Y0038713D01*
X0054800Y0040032D01*
X0054800Y0041895D01*
X0054000Y0042695D01*
X0054000Y0044689D01*
X0053151Y0045538D01*
X0046476Y0052213D01*
X0047526Y0053263D01*
X0048375Y0054113D01*
X0048375Y0056419D01*
X0049175Y0057219D01*
X0049175Y0059083D01*
X0047857Y0060401D01*
X0045993Y0060401D01*
X0044675Y0059083D01*
X0044675Y0057219D01*
X0045475Y0056419D01*
X0045475Y0055314D01*
X0043824Y0053663D01*
X0039762Y0053663D01*
X0038913Y0052814D01*
X0034937Y0048839D01*
X0034937Y0049064D01*
X0031226Y0052776D01*
X0032232Y0052776D01*
X0033550Y0054094D01*
X0033550Y0055958D01*
X0032232Y0057276D01*
X0031101Y0057276D01*
X0030875Y0057502D01*
X0030875Y0059769D01*
X0031618Y0059026D01*
X0033482Y0059026D01*
X0034800Y0060344D01*
X0034800Y0061475D01*
X0035026Y0061701D01*
X0037693Y0061701D01*
X0038493Y0060901D01*
X0040357Y0060901D01*
X0041675Y0062219D01*
X0041675Y0064083D01*
X0040357Y0065401D01*
X0038493Y0065401D01*
X0037693Y0064601D01*
X0033824Y0064601D01*
X0032749Y0063526D01*
X0031618Y0063526D01*
X0030875Y0062783D01*
X0030875Y0069149D01*
X0030899Y0069175D01*
X0030875Y0069744D01*
X0030875Y0070314D01*
X0030850Y0070340D01*
X0030848Y0070375D01*
X0030428Y0070761D01*
X0030026Y0071163D01*
X0029990Y0071163D01*
X0023252Y0077349D01*
X0023252Y0079660D01*
X0024444Y0079660D01*
X0025352Y0080568D01*
X0025352Y0082480D01*
X0025681Y0082151D01*
X0027544Y0082151D01*
X0028862Y0083469D01*
X0028862Y0084513D01*
X0036756Y0084513D01*
X0037556Y0083713D01*
X0039419Y0083713D01*
X0039850Y0084144D01*
X0039850Y0084064D01*
X0038584Y0082799D01*
X0038482Y0082901D01*
X0036618Y0082901D01*
X0035300Y0081583D01*
X0035300Y0079719D01*
X0036618Y0078401D01*
X0038482Y0078401D01*
X0039800Y0079719D01*
X0039800Y0079913D01*
X0039937Y0080050D01*
X0042750Y0082863D01*
X0042750Y0087189D01*
X0041901Y0088038D01*
X0040026Y0089913D01*
X0032175Y0089913D01*
X0032175Y0090529D01*
X0042925Y0090529D01*
X0042925Y0089405D01*
X0043804Y0088526D01*
X0046412Y0088526D01*
X0046412Y0085939D01*
X0036100Y0075627D01*
X0036100Y0074689D01*
X0035874Y0074463D01*
X0034743Y0074463D01*
X0033425Y0073145D01*
X0033425Y0071282D01*
X0034743Y0069963D01*
X0036607Y0069963D01*
X0037925Y0071282D01*
X0037925Y0072413D01*
X0039000Y0073488D01*
X0039000Y0074425D01*
X0049172Y0084597D01*
X0049431Y0084338D01*
X0050562Y0084338D01*
X0050699Y0084201D01*
X0062574Y0084201D01*
X0062975Y0083800D01*
X0062975Y0063408D01*
X0062232Y0064151D01*
X0061101Y0064151D01*
X0057437Y0067814D01*
X0056588Y0068663D01*
X0047407Y0068663D01*
X0046607Y0069463D01*
X0044743Y0069463D01*
X0043425Y0068145D01*
X0043425Y0066282D01*
X0044743Y0064963D01*
X0046607Y0064963D01*
X0047407Y0065763D01*
X0055387Y0065763D01*
X0059050Y0062100D01*
X0059050Y0060969D01*
X0059168Y0060851D01*
X0056012Y0060851D01*
X0055162Y0060002D01*
X0052662Y0057502D01*
X0052662Y0055508D01*
X0051862Y0054708D01*
X0051862Y0052844D01*
X0053181Y0051526D01*
X0055044Y0051526D01*
X0056362Y0052844D01*
X0056362Y0054708D01*
X0055562Y0055508D01*
X0055562Y0056300D01*
X0055612Y0056350D01*
X0055612Y0055969D01*
X0056931Y0054651D01*
X0058794Y0054651D01*
X0059594Y0055451D01*
X0064401Y0055451D01*
X0065250Y0056300D01*
X0067750Y0058800D01*
X0067750Y0059375D01*
X0068117Y0059008D01*
X0068537Y0058834D01*
X0068534Y0054966D01*
X0068117Y0054794D01*
X0067157Y0053834D01*
X0066638Y0052580D01*
X0066638Y0051222D01*
X0067157Y0049968D01*
X0068117Y0049008D01*
X0068529Y0048838D01*
X0068525Y0044963D01*
X0068117Y0044794D01*
X0067157Y0043834D01*
X0066638Y0042580D01*
X0066638Y0041222D01*
X0067157Y0039968D01*
X0068117Y0039008D01*
X0068520Y0038841D01*
X0068517Y0034959D01*
X0068117Y0034794D01*
X0067157Y0033834D01*
X0066638Y0032580D01*
X0066638Y0031222D01*
X0067157Y0029968D01*
X0068117Y0029008D01*
X0068511Y0028845D01*
X0068508Y0024956D01*
X0068117Y0024794D01*
X0067157Y0023834D01*
X0066638Y0022580D01*
X0066638Y0021222D01*
X0067157Y0019968D01*
X0068117Y0019008D01*
X0068502Y0018849D01*
X0068502Y0018401D01*
X0064722Y0018401D01*
X0064722Y0025734D01*
X0063814Y0026642D01*
X0058530Y0026642D01*
X0057622Y0025734D01*
X0057622Y0017576D01*
X0057662Y0017536D01*
X0057550Y0017424D01*
X0056848Y0018126D01*
X0056848Y0025734D01*
X0055940Y0026642D01*
X0050656Y0026642D01*
X0049748Y0025734D01*
X0049748Y0018673D01*
X0049449Y0018673D01*
X0049174Y0018559D01*
X0049174Y0021405D01*
X0045674Y0021405D01*
X0045674Y0021905D01*
X0045174Y0021905D01*
X0045174Y0026842D01*
X0043194Y0026842D01*
X0042749Y0026723D01*
X0042349Y0026492D01*
X0042024Y0026166D01*
X0041793Y0025767D01*
X0041674Y0025322D01*
X0041674Y0021905D01*
X0045174Y0021905D01*
X0045174Y0021405D01*
X0041674Y0021405D01*
X0041674Y0018401D01*
X0033226Y0018401D01*
X0033226Y0018895D02*
X0041674Y0018895D01*
X0041674Y0019394D02*
X0033226Y0019394D01*
X0033226Y0019892D02*
X0041674Y0019892D01*
X0041674Y0020391D02*
X0033226Y0020391D01*
X0033226Y0020889D02*
X0041674Y0020889D01*
X0041674Y0021388D02*
X0033226Y0021388D01*
X0033226Y0021886D02*
X0045174Y0021886D01*
X0045174Y0021405D02*
X0045674Y0021405D01*
X0045674Y0018401D01*
X0045174Y0018401D01*
X0045174Y0021405D01*
X0045174Y0021388D02*
X0045674Y0021388D01*
X0045674Y0021886D02*
X0049748Y0021886D01*
X0049748Y0021388D02*
X0049174Y0021388D01*
X0049174Y0020889D02*
X0049748Y0020889D01*
X0049748Y0020391D02*
X0049174Y0020391D01*
X0049174Y0019892D02*
X0049748Y0019892D01*
X0049748Y0019394D02*
X0049174Y0019394D01*
X0049174Y0018895D02*
X0049748Y0018895D01*
X0049174Y0021905D02*
X0049174Y0025322D01*
X0049055Y0025767D01*
X0048824Y0026166D01*
X0048499Y0026492D01*
X0048099Y0026723D01*
X0047654Y0026842D01*
X0045674Y0026842D01*
X0045674Y0021905D01*
X0049174Y0021905D01*
X0049174Y0022385D02*
X0049748Y0022385D01*
X0049748Y0022883D02*
X0049174Y0022883D01*
X0049174Y0023382D02*
X0049748Y0023382D01*
X0049748Y0023880D02*
X0049174Y0023880D01*
X0049174Y0024379D02*
X0049748Y0024379D01*
X0049748Y0024877D02*
X0049174Y0024877D01*
X0049160Y0025376D02*
X0049748Y0025376D01*
X0049888Y0025874D02*
X0048993Y0025874D01*
X0048618Y0026373D02*
X0050387Y0026373D01*
X0045674Y0026373D02*
X0045174Y0026373D01*
X0045174Y0025874D02*
X0045674Y0025874D01*
X0045674Y0025376D02*
X0045174Y0025376D01*
X0045174Y0024877D02*
X0045674Y0024877D01*
X0045674Y0024379D02*
X0045174Y0024379D01*
X0045174Y0023880D02*
X0045674Y0023880D01*
X0045674Y0023382D02*
X0045174Y0023382D01*
X0045174Y0022883D02*
X0045674Y0022883D01*
X0045674Y0022385D02*
X0045174Y0022385D01*
X0045174Y0020889D02*
X0045674Y0020889D01*
X0045674Y0020391D02*
X0045174Y0020391D01*
X0045174Y0019892D02*
X0045674Y0019892D01*
X0045674Y0019394D02*
X0045174Y0019394D01*
X0045174Y0018895D02*
X0045674Y0018895D01*
X0041674Y0022385D02*
X0033226Y0022385D01*
X0033226Y0022883D02*
X0041674Y0022883D01*
X0041674Y0023382D02*
X0033226Y0023382D01*
X0033226Y0023880D02*
X0041674Y0023880D01*
X0041674Y0024379D02*
X0033226Y0024379D01*
X0033226Y0024877D02*
X0041674Y0024877D01*
X0041688Y0025376D02*
X0033226Y0025376D01*
X0033086Y0025874D02*
X0041855Y0025874D01*
X0042230Y0026373D02*
X0032587Y0026373D01*
X0029445Y0029364D02*
X0067762Y0029364D01*
X0067263Y0029862D02*
X0029487Y0029862D01*
X0029487Y0030361D02*
X0066995Y0030361D01*
X0066788Y0030859D02*
X0029487Y0030859D01*
X0029400Y0031358D02*
X0066638Y0031358D01*
X0066638Y0031856D02*
X0028931Y0031856D01*
X0029429Y0032355D02*
X0066638Y0032355D01*
X0066751Y0032853D02*
X0029928Y0032853D01*
X0030426Y0033352D02*
X0066958Y0033352D01*
X0067174Y0033850D02*
X0030925Y0033850D01*
X0031423Y0034349D02*
X0067672Y0034349D01*
X0068247Y0034847D02*
X0031922Y0034847D01*
X0032421Y0035346D02*
X0068517Y0035346D01*
X0068517Y0035844D02*
X0032919Y0035844D01*
X0033418Y0036343D02*
X0068518Y0036343D01*
X0068518Y0036841D02*
X0033916Y0036841D01*
X0034415Y0037340D02*
X0068519Y0037340D01*
X0068519Y0037838D02*
X0034913Y0037838D01*
X0035412Y0038337D02*
X0068520Y0038337D01*
X0068520Y0038835D02*
X0053604Y0038835D01*
X0054102Y0039334D02*
X0067791Y0039334D01*
X0067293Y0039833D02*
X0054601Y0039833D01*
X0054800Y0040331D02*
X0067007Y0040331D01*
X0066800Y0040830D02*
X0054800Y0040830D01*
X0054800Y0041328D02*
X0066638Y0041328D01*
X0066638Y0041827D02*
X0054800Y0041827D01*
X0054370Y0042325D02*
X0066638Y0042325D01*
X0066739Y0042824D02*
X0054000Y0042824D01*
X0054000Y0043322D02*
X0066945Y0043322D01*
X0067152Y0043821D02*
X0054000Y0043821D01*
X0054000Y0044319D02*
X0067643Y0044319D01*
X0068175Y0044818D02*
X0053871Y0044818D01*
X0053373Y0045316D02*
X0068526Y0045316D01*
X0068526Y0045815D02*
X0052874Y0045815D01*
X0052376Y0046313D02*
X0068527Y0046313D01*
X0068527Y0046812D02*
X0051877Y0046812D01*
X0051379Y0047310D02*
X0068527Y0047310D01*
X0068528Y0047809D02*
X0050880Y0047809D01*
X0050382Y0048307D02*
X0068528Y0048307D01*
X0068529Y0048806D02*
X0049883Y0048806D01*
X0049385Y0049304D02*
X0067821Y0049304D01*
X0067323Y0049803D02*
X0048886Y0049803D01*
X0048388Y0050301D02*
X0067019Y0050301D01*
X0066813Y0050800D02*
X0047889Y0050800D01*
X0047391Y0051298D02*
X0066638Y0051298D01*
X0066638Y0051797D02*
X0055315Y0051797D01*
X0055814Y0052295D02*
X0066638Y0052295D01*
X0066726Y0052794D02*
X0056312Y0052794D01*
X0056362Y0053292D02*
X0066933Y0053292D01*
X0067139Y0053791D02*
X0056362Y0053791D01*
X0056362Y0054289D02*
X0067613Y0054289D01*
X0068111Y0054788D02*
X0058931Y0054788D01*
X0059430Y0055286D02*
X0068534Y0055286D01*
X0068535Y0055785D02*
X0064734Y0055785D01*
X0065233Y0056283D02*
X0068535Y0056283D01*
X0068536Y0056782D02*
X0065732Y0056782D01*
X0066230Y0057280D02*
X0068536Y0057280D01*
X0068537Y0057779D02*
X0066729Y0057779D01*
X0067227Y0058277D02*
X0068537Y0058277D01*
X0068537Y0058776D02*
X0067726Y0058776D01*
X0067750Y0059274D02*
X0067851Y0059274D01*
X0062975Y0063761D02*
X0062622Y0063761D01*
X0062975Y0064260D02*
X0060992Y0064260D01*
X0060494Y0064758D02*
X0062975Y0064758D01*
X0062975Y0065257D02*
X0059995Y0065257D01*
X0059496Y0065755D02*
X0062975Y0065755D01*
X0062975Y0066254D02*
X0058998Y0066254D01*
X0058499Y0066752D02*
X0062975Y0066752D01*
X0062975Y0067251D02*
X0058001Y0067251D01*
X0057502Y0067749D02*
X0062975Y0067749D01*
X0062975Y0068248D02*
X0057004Y0068248D01*
X0055395Y0065755D02*
X0047399Y0065755D01*
X0046900Y0065257D02*
X0055894Y0065257D01*
X0056392Y0064758D02*
X0041000Y0064758D01*
X0041498Y0064260D02*
X0056891Y0064260D01*
X0057389Y0063761D02*
X0041675Y0063761D01*
X0041675Y0063263D02*
X0057888Y0063263D01*
X0058386Y0062764D02*
X0041675Y0062764D01*
X0041675Y0062266D02*
X0058885Y0062266D01*
X0059050Y0061767D02*
X0041223Y0061767D01*
X0040724Y0061269D02*
X0059050Y0061269D01*
X0055931Y0060770D02*
X0034800Y0060770D01*
X0034800Y0061269D02*
X0038126Y0061269D01*
X0037850Y0064758D02*
X0030875Y0064758D01*
X0030875Y0064260D02*
X0033483Y0064260D01*
X0032984Y0063761D02*
X0030875Y0063761D01*
X0030875Y0063263D02*
X0031355Y0063263D01*
X0030875Y0065257D02*
X0038349Y0065257D01*
X0040501Y0065257D02*
X0044450Y0065257D01*
X0043951Y0065755D02*
X0030875Y0065755D01*
X0030875Y0066254D02*
X0043453Y0066254D01*
X0043425Y0066752D02*
X0030875Y0066752D01*
X0030875Y0067251D02*
X0043425Y0067251D01*
X0043425Y0067749D02*
X0030875Y0067749D01*
X0030875Y0068248D02*
X0043527Y0068248D01*
X0044026Y0068746D02*
X0030875Y0068746D01*
X0030896Y0069245D02*
X0044524Y0069245D01*
X0046826Y0069245D02*
X0062975Y0069245D01*
X0062975Y0069743D02*
X0030875Y0069743D01*
X0030875Y0070242D02*
X0034465Y0070242D01*
X0033966Y0070740D02*
X0030451Y0070740D01*
X0029908Y0071239D02*
X0033468Y0071239D01*
X0033425Y0071737D02*
X0029365Y0071737D01*
X0028822Y0072236D02*
X0033425Y0072236D01*
X0033425Y0072734D02*
X0028279Y0072734D01*
X0027736Y0073233D02*
X0033512Y0073233D01*
X0034011Y0073731D02*
X0027192Y0073731D01*
X0026649Y0074230D02*
X0034509Y0074230D01*
X0036100Y0074728D02*
X0026106Y0074728D01*
X0025563Y0075227D02*
X0036100Y0075227D01*
X0036199Y0075725D02*
X0025020Y0075725D01*
X0024477Y0076224D02*
X0036697Y0076224D01*
X0037196Y0076722D02*
X0023934Y0076722D01*
X0023391Y0077221D02*
X0037694Y0077221D01*
X0038193Y0077719D02*
X0023252Y0077719D01*
X0023252Y0078218D02*
X0038691Y0078218D01*
X0038797Y0078716D02*
X0039190Y0078716D01*
X0039296Y0079215D02*
X0039688Y0079215D01*
X0039794Y0079713D02*
X0040187Y0079713D01*
X0040099Y0080212D02*
X0040685Y0080212D01*
X0040598Y0080710D02*
X0041184Y0080710D01*
X0041096Y0081209D02*
X0041682Y0081209D01*
X0041595Y0081707D02*
X0042181Y0081707D01*
X0042093Y0082206D02*
X0042679Y0082206D01*
X0042592Y0082704D02*
X0043178Y0082704D01*
X0042750Y0083203D02*
X0043676Y0083203D01*
X0044175Y0083702D02*
X0042750Y0083702D01*
X0042750Y0084200D02*
X0044673Y0084200D01*
X0045172Y0084699D02*
X0042750Y0084699D01*
X0042750Y0085197D02*
X0045670Y0085197D01*
X0046169Y0085696D02*
X0042750Y0085696D01*
X0042750Y0086194D02*
X0046412Y0086194D01*
X0046412Y0086693D02*
X0042750Y0086693D01*
X0042748Y0087191D02*
X0046412Y0087191D01*
X0046412Y0087690D02*
X0042249Y0087690D01*
X0041751Y0088188D02*
X0046412Y0088188D01*
X0043643Y0088687D02*
X0041252Y0088687D01*
X0040754Y0089185D02*
X0043145Y0089185D01*
X0042925Y0089684D02*
X0040255Y0089684D01*
X0042925Y0090182D02*
X0032175Y0090182D01*
X0028862Y0084200D02*
X0037069Y0084200D01*
X0036422Y0082704D02*
X0028098Y0082704D01*
X0027599Y0082206D02*
X0035923Y0082206D01*
X0035424Y0081707D02*
X0025352Y0081707D01*
X0025352Y0081209D02*
X0035300Y0081209D01*
X0035300Y0080710D02*
X0025352Y0080710D01*
X0024996Y0080212D02*
X0035300Y0080212D01*
X0035306Y0079713D02*
X0024497Y0079713D01*
X0023252Y0079215D02*
X0035804Y0079215D01*
X0036303Y0078716D02*
X0023252Y0078716D01*
X0020352Y0078716D02*
X0015250Y0078716D01*
X0015250Y0078218D02*
X0020352Y0078218D01*
X0020352Y0077719D02*
X0015345Y0077719D01*
X0015250Y0077814D02*
X0015250Y0079660D01*
X0016570Y0079660D01*
X0017478Y0080568D01*
X0017478Y0088726D01*
X0016570Y0089634D01*
X0011500Y0089634D01*
X0011500Y0093175D01*
X0011901Y0093576D01*
X0012750Y0094425D01*
X0012750Y0098175D01*
X0013776Y0099201D01*
X0021324Y0099201D01*
X0022350Y0098175D01*
X0022350Y0089738D01*
X0022454Y0089634D01*
X0019160Y0089634D01*
X0018252Y0088726D01*
X0018252Y0080568D01*
X0019160Y0079660D01*
X0020352Y0079660D01*
X0020352Y0077276D01*
X0020328Y0077250D01*
X0020352Y0076681D01*
X0020352Y0076111D01*
X0020377Y0076085D01*
X0020379Y0076050D01*
X0020799Y0075664D01*
X0021201Y0075262D01*
X0021237Y0075262D01*
X0027975Y0069076D01*
X0027975Y0065283D01*
X0027232Y0066026D01*
X0025368Y0066026D01*
X0024625Y0065283D01*
X0024625Y0067189D01*
X0021987Y0069827D01*
X0021987Y0070958D01*
X0020669Y0072276D01*
X0018806Y0072276D01*
X0017488Y0070958D01*
X0017488Y0069094D01*
X0018806Y0067776D01*
X0019937Y0067776D01*
X0021725Y0065988D01*
X0021725Y0055675D01*
X0027312Y0050088D01*
X0026306Y0050088D01*
X0024987Y0048770D01*
X0024987Y0047639D01*
X0020699Y0043351D01*
X0015532Y0043351D01*
X0014732Y0044151D01*
X0012868Y0044151D01*
X0011550Y0042833D01*
X0011550Y0040969D01*
X0012868Y0039651D01*
X0014732Y0039651D01*
X0015532Y0040451D01*
X0021901Y0040451D01*
X0027038Y0045588D01*
X0027175Y0045588D01*
X0027175Y0043782D01*
X0027975Y0042982D01*
X0027975Y0042502D01*
X0019624Y0034151D01*
X0018493Y0034151D01*
X0017175Y0032833D01*
X0017175Y0030969D01*
X0017293Y0030851D01*
X0008824Y0030851D01*
X0007944Y0029970D01*
X0008462Y0031222D01*
X0008462Y0032580D01*
X0007943Y0033834D01*
X0006983Y0034794D01*
X0006550Y0034973D01*
X0006550Y0038829D01*
X0006983Y0039008D01*
X0007943Y0039968D01*
X0008462Y0041222D01*
X0008462Y0042580D01*
X0007943Y0043834D01*
X0006983Y0044794D01*
X0006550Y0044973D01*
X0006550Y0048829D01*
X0006983Y0049008D01*
X0007943Y0049968D01*
X0008462Y0051222D01*
X0008462Y0052580D01*
X0007943Y0053834D01*
X0006983Y0054794D01*
X0006550Y0054973D01*
X0006550Y0058829D01*
X0006983Y0059008D01*
X0007037Y0059063D01*
X0007037Y0057238D01*
X0007175Y0057100D01*
X0007175Y0055969D01*
X0008493Y0054651D01*
X0010357Y0054651D01*
X0011675Y0055969D01*
X0011675Y0057833D01*
X0010357Y0059151D01*
X0009937Y0059151D01*
X0009937Y0070707D01*
X0010993Y0069651D01*
X0012857Y0069651D01*
X0012975Y0069769D01*
X0012975Y0067863D01*
X0013737Y0067100D01*
X0013737Y0065969D01*
X0015056Y0064651D01*
X0016919Y0064651D01*
X0018237Y0065969D01*
X0018237Y0067833D01*
X0016919Y0069151D01*
X0015875Y0069151D01*
X0015875Y0077189D01*
X0015250Y0077814D01*
X0015843Y0077221D02*
X0020329Y0077221D01*
X0020350Y0076722D02*
X0015875Y0076722D01*
X0015875Y0076224D02*
X0020352Y0076224D01*
X0020732Y0075725D02*
X0015875Y0075725D01*
X0015875Y0075227D02*
X0021275Y0075227D01*
X0021818Y0074728D02*
X0015875Y0074728D01*
X0015875Y0074230D02*
X0022361Y0074230D01*
X0022904Y0073731D02*
X0015875Y0073731D01*
X0015875Y0073233D02*
X0023447Y0073233D01*
X0023990Y0072734D02*
X0015875Y0072734D01*
X0015875Y0072236D02*
X0018765Y0072236D01*
X0018267Y0071737D02*
X0015875Y0071737D01*
X0015875Y0071239D02*
X0017768Y0071239D01*
X0017488Y0070740D02*
X0015875Y0070740D01*
X0015875Y0070242D02*
X0017488Y0070242D01*
X0017488Y0069743D02*
X0015875Y0069743D01*
X0015875Y0069245D02*
X0017488Y0069245D01*
X0017324Y0068746D02*
X0017835Y0068746D01*
X0017823Y0068248D02*
X0018334Y0068248D01*
X0018237Y0067749D02*
X0019964Y0067749D01*
X0020462Y0067251D02*
X0018237Y0067251D01*
X0018237Y0066752D02*
X0020961Y0066752D01*
X0021459Y0066254D02*
X0018237Y0066254D01*
X0018024Y0065755D02*
X0021725Y0065755D01*
X0021725Y0065257D02*
X0017525Y0065257D01*
X0017027Y0064758D02*
X0021725Y0064758D01*
X0021725Y0064260D02*
X0009937Y0064260D01*
X0009937Y0064758D02*
X0014948Y0064758D01*
X0014450Y0065257D02*
X0009937Y0065257D01*
X0009937Y0065755D02*
X0013951Y0065755D01*
X0013737Y0066254D02*
X0009937Y0066254D01*
X0009937Y0066752D02*
X0013737Y0066752D01*
X0013587Y0067251D02*
X0009937Y0067251D01*
X0009937Y0067749D02*
X0013089Y0067749D01*
X0012975Y0068248D02*
X0009937Y0068248D01*
X0009937Y0068746D02*
X0012975Y0068746D01*
X0012975Y0069245D02*
X0009937Y0069245D01*
X0009937Y0069743D02*
X0010901Y0069743D01*
X0010402Y0070242D02*
X0009937Y0070242D01*
X0012949Y0069743D02*
X0012975Y0069743D01*
X0009937Y0063761D02*
X0021725Y0063761D01*
X0021725Y0063263D02*
X0009937Y0063263D01*
X0009937Y0062764D02*
X0021725Y0062764D01*
X0021725Y0062266D02*
X0009937Y0062266D01*
X0009937Y0061767D02*
X0021725Y0061767D01*
X0021725Y0061269D02*
X0009937Y0061269D01*
X0009937Y0060770D02*
X0021725Y0060770D01*
X0021725Y0060271D02*
X0009937Y0060271D01*
X0009937Y0059773D02*
X0021725Y0059773D01*
X0021725Y0059274D02*
X0009937Y0059274D01*
X0010732Y0058776D02*
X0021725Y0058776D01*
X0021725Y0058277D02*
X0011231Y0058277D01*
X0011675Y0057779D02*
X0021725Y0057779D01*
X0021725Y0057280D02*
X0011675Y0057280D01*
X0011675Y0056782D02*
X0021725Y0056782D01*
X0021725Y0056283D02*
X0011675Y0056283D01*
X0011491Y0055785D02*
X0021725Y0055785D01*
X0022114Y0055286D02*
X0010992Y0055286D01*
X0010494Y0054788D02*
X0022613Y0054788D01*
X0023111Y0054289D02*
X0007487Y0054289D01*
X0007961Y0053791D02*
X0023610Y0053791D01*
X0024108Y0053292D02*
X0008167Y0053292D01*
X0008374Y0052794D02*
X0024607Y0052794D01*
X0025105Y0052295D02*
X0008462Y0052295D01*
X0008462Y0051797D02*
X0025604Y0051797D01*
X0026102Y0051298D02*
X0008462Y0051298D01*
X0008287Y0050800D02*
X0026601Y0050800D01*
X0027099Y0050301D02*
X0008081Y0050301D01*
X0007777Y0049803D02*
X0026020Y0049803D01*
X0025521Y0049304D02*
X0007279Y0049304D01*
X0006550Y0048806D02*
X0025023Y0048806D01*
X0024987Y0048307D02*
X0006550Y0048307D01*
X0006550Y0047809D02*
X0024987Y0047809D01*
X0024659Y0047310D02*
X0006550Y0047310D01*
X0006550Y0046812D02*
X0024160Y0046812D01*
X0023662Y0046313D02*
X0006550Y0046313D01*
X0006550Y0045815D02*
X0023163Y0045815D01*
X0022665Y0045316D02*
X0006550Y0045316D01*
X0006925Y0044818D02*
X0022166Y0044818D01*
X0021668Y0044319D02*
X0007457Y0044319D01*
X0007948Y0043821D02*
X0012538Y0043821D01*
X0012039Y0043322D02*
X0008155Y0043322D01*
X0008361Y0042824D02*
X0011550Y0042824D01*
X0011550Y0042325D02*
X0008462Y0042325D01*
X0008462Y0041827D02*
X0011550Y0041827D01*
X0011550Y0041328D02*
X0008462Y0041328D01*
X0008300Y0040830D02*
X0011689Y0040830D01*
X0012188Y0040331D02*
X0008093Y0040331D01*
X0007807Y0039833D02*
X0012686Y0039833D01*
X0014913Y0039833D02*
X0025306Y0039833D01*
X0025804Y0040331D02*
X0015412Y0040331D01*
X0015062Y0043821D02*
X0021169Y0043821D01*
X0023276Y0041827D02*
X0027300Y0041827D01*
X0027798Y0042325D02*
X0023775Y0042325D01*
X0024273Y0042824D02*
X0027975Y0042824D01*
X0027634Y0043322D02*
X0024772Y0043322D01*
X0025270Y0043821D02*
X0027175Y0043821D01*
X0027175Y0044319D02*
X0025769Y0044319D01*
X0026267Y0044818D02*
X0027175Y0044818D01*
X0027175Y0045316D02*
X0026766Y0045316D01*
X0026801Y0041328D02*
X0022778Y0041328D01*
X0022279Y0040830D02*
X0026303Y0040830D01*
X0024807Y0039334D02*
X0007309Y0039334D01*
X0006566Y0038835D02*
X0024309Y0038835D01*
X0023810Y0038337D02*
X0006550Y0038337D01*
X0006550Y0037838D02*
X0023312Y0037838D01*
X0022813Y0037340D02*
X0006550Y0037340D01*
X0006550Y0036841D02*
X0022315Y0036841D01*
X0021816Y0036343D02*
X0006550Y0036343D01*
X0006550Y0035844D02*
X0021318Y0035844D01*
X0020819Y0035346D02*
X0006550Y0035346D01*
X0006853Y0034847D02*
X0020321Y0034847D01*
X0019822Y0034349D02*
X0007428Y0034349D01*
X0007926Y0033850D02*
X0018192Y0033850D01*
X0017694Y0033352D02*
X0008142Y0033352D01*
X0008349Y0032853D02*
X0017195Y0032853D01*
X0017175Y0032355D02*
X0008462Y0032355D01*
X0008462Y0031856D02*
X0017175Y0031856D01*
X0017175Y0031358D02*
X0008462Y0031358D01*
X0008312Y0030859D02*
X0017285Y0030859D01*
X0008334Y0030361D02*
X0008105Y0030361D01*
X0005050Y0016901D02*
X0012550Y0016901D01*
X0012550Y0009401D01*
X0012537Y0009217D01*
X0012528Y0009033D01*
X0012524Y0008848D01*
X0012525Y0008664D01*
X0012530Y0008480D01*
X0012539Y0008296D01*
X0012553Y0008112D01*
X0012572Y0007928D01*
X0012595Y0007745D01*
X0012622Y0007563D01*
X0012654Y0007381D01*
X0012691Y0007201D01*
X0012732Y0007021D01*
X0012777Y0006842D01*
X0012826Y0006664D01*
X0012880Y0006488D01*
X0012938Y0006313D01*
X0013001Y0006140D01*
X0013068Y0005968D01*
X0013139Y0005797D01*
X0013214Y0005629D01*
X0013293Y0005462D01*
X0013376Y0005298D01*
X0013463Y0005135D01*
X0013554Y0004975D01*
X0013649Y0004817D01*
X0013748Y0004661D01*
X0013851Y0004508D01*
X0013957Y0004358D01*
X0014068Y0004210D01*
X0014181Y0004065D01*
X0014298Y0003922D01*
X0014419Y0003783D01*
X0014543Y0003646D01*
X0014670Y0003513D01*
X0014801Y0003383D01*
X0014935Y0003256D01*
X0015071Y0003132D01*
X0015211Y0003012D01*
X0015354Y0002895D01*
X0015499Y0002782D01*
X0015648Y0002672D01*
X0015799Y0002566D01*
X0015952Y0002464D01*
X0016108Y0002365D01*
X0016266Y0002270D01*
X0016427Y0002180D01*
X0016589Y0002093D01*
X0016754Y0002010D01*
X0016921Y0001931D01*
X0017089Y0001857D01*
X0017260Y0001786D01*
X0017432Y0001720D01*
X0017606Y0001658D01*
X0017781Y0001600D01*
X0017957Y0001547D01*
X0018135Y0001498D01*
X0018314Y0001453D01*
X0018494Y0001413D01*
X0018675Y0001377D01*
X0018856Y0001345D01*
X0019039Y0001318D01*
X0019222Y0001296D01*
X0019405Y0001278D01*
X0019589Y0001264D01*
X0019773Y0001255D01*
X0019958Y0001251D01*
X0020142Y0001251D01*
X0020327Y0001255D01*
X0020511Y0001264D01*
X0020695Y0001278D01*
X0020878Y0001296D01*
X0021061Y0001318D01*
X0021244Y0001345D01*
X0021425Y0001377D01*
X0021606Y0001413D01*
X0021786Y0001453D01*
X0021965Y0001498D01*
X0022143Y0001547D01*
X0022319Y0001600D01*
X0022494Y0001658D01*
X0022668Y0001720D01*
X0022840Y0001786D01*
X0023011Y0001857D01*
X0023179Y0001931D01*
X0023346Y0002010D01*
X0023511Y0002093D01*
X0023673Y0002180D01*
X0023834Y0002270D01*
X0023992Y0002365D01*
X0024148Y0002464D01*
X0024301Y0002566D01*
X0024452Y0002672D01*
X0024601Y0002782D01*
X0024746Y0002895D01*
X0024889Y0003012D01*
X0025029Y0003132D01*
X0025165Y0003256D01*
X0025299Y0003383D01*
X0025430Y0003513D01*
X0025557Y0003646D01*
X0025681Y0003783D01*
X0025802Y0003922D01*
X0025919Y0004065D01*
X0026032Y0004210D01*
X0026143Y0004358D01*
X0026249Y0004508D01*
X0026352Y0004661D01*
X0026451Y0004817D01*
X0026546Y0004975D01*
X0026637Y0005135D01*
X0026724Y0005298D01*
X0026807Y0005462D01*
X0026886Y0005629D01*
X0026961Y0005797D01*
X0027032Y0005968D01*
X0027099Y0006140D01*
X0027162Y0006313D01*
X0027220Y0006488D01*
X0027274Y0006664D01*
X0027323Y0006842D01*
X0027368Y0007021D01*
X0027409Y0007201D01*
X0027446Y0007381D01*
X0027478Y0007563D01*
X0027505Y0007745D01*
X0027528Y0007928D01*
X0027547Y0008112D01*
X0027561Y0008296D01*
X0027570Y0008480D01*
X0027575Y0008664D01*
X0027576Y0008848D01*
X0027572Y0009033D01*
X0027563Y0009217D01*
X0027550Y0009401D01*
X0027125Y0026871D02*
X0068510Y0026871D01*
X0068509Y0026373D02*
X0064083Y0026373D01*
X0064582Y0025874D02*
X0068509Y0025874D01*
X0068508Y0025376D02*
X0064722Y0025376D01*
X0064722Y0024877D02*
X0068319Y0024877D01*
X0067702Y0024379D02*
X0064722Y0024379D01*
X0064722Y0023880D02*
X0067204Y0023880D01*
X0066970Y0023382D02*
X0064722Y0023382D01*
X0064722Y0022883D02*
X0066763Y0022883D01*
X0066638Y0022385D02*
X0064722Y0022385D01*
X0064722Y0021886D02*
X0066638Y0021886D01*
X0066638Y0021388D02*
X0064722Y0021388D01*
X0064722Y0020889D02*
X0066776Y0020889D01*
X0066982Y0020391D02*
X0064722Y0020391D01*
X0064722Y0019892D02*
X0067233Y0019892D01*
X0067732Y0019394D02*
X0064722Y0019394D01*
X0064722Y0018895D02*
X0068391Y0018895D01*
X0068510Y0027370D02*
X0026632Y0027370D01*
X0026187Y0027868D02*
X0068510Y0027868D01*
X0068511Y0028367D02*
X0028448Y0028367D01*
X0028946Y0028865D02*
X0068462Y0028865D01*
X0058261Y0026373D02*
X0056209Y0026373D01*
X0056708Y0025874D02*
X0057762Y0025874D01*
X0057622Y0025376D02*
X0056848Y0025376D01*
X0056848Y0024877D02*
X0057622Y0024877D01*
X0057622Y0024379D02*
X0056848Y0024379D01*
X0056848Y0023880D02*
X0057622Y0023880D01*
X0057622Y0023382D02*
X0056848Y0023382D01*
X0056848Y0022883D02*
X0057622Y0022883D01*
X0057622Y0022385D02*
X0056848Y0022385D01*
X0056848Y0021886D02*
X0057622Y0021886D01*
X0057622Y0021388D02*
X0056848Y0021388D01*
X0056848Y0020889D02*
X0057622Y0020889D01*
X0057622Y0020391D02*
X0056848Y0020391D01*
X0056848Y0019892D02*
X0057622Y0019892D01*
X0057622Y0019394D02*
X0056848Y0019394D01*
X0056848Y0018895D02*
X0057622Y0018895D01*
X0057622Y0018397D02*
X0056848Y0018397D01*
X0057076Y0017898D02*
X0057622Y0017898D01*
X0051496Y0038835D02*
X0035910Y0038835D01*
X0036409Y0039334D02*
X0050998Y0039334D01*
X0050499Y0039833D02*
X0036812Y0039833D01*
X0036812Y0040331D02*
X0050300Y0040331D01*
X0050300Y0040830D02*
X0036812Y0040830D01*
X0036812Y0041328D02*
X0050300Y0041328D01*
X0050300Y0041827D02*
X0036812Y0041827D01*
X0036812Y0042325D02*
X0050730Y0042325D01*
X0051100Y0042824D02*
X0036812Y0042824D01*
X0036812Y0043322D02*
X0051100Y0043322D01*
X0050767Y0043821D02*
X0036812Y0043821D01*
X0036812Y0044319D02*
X0050269Y0044319D01*
X0049770Y0044818D02*
X0036812Y0044818D01*
X0036812Y0045316D02*
X0049272Y0045316D01*
X0048773Y0045815D02*
X0036812Y0045815D01*
X0036812Y0046313D02*
X0048275Y0046313D01*
X0047776Y0046812D02*
X0037011Y0046812D01*
X0037510Y0047310D02*
X0047278Y0047310D01*
X0046779Y0047809D02*
X0038008Y0047809D01*
X0038507Y0048307D02*
X0046281Y0048307D01*
X0045782Y0048806D02*
X0039005Y0048806D01*
X0039504Y0049304D02*
X0045284Y0049304D01*
X0044785Y0049803D02*
X0040002Y0049803D01*
X0040501Y0050301D02*
X0044287Y0050301D01*
X0046557Y0052295D02*
X0052411Y0052295D01*
X0052910Y0051797D02*
X0046892Y0051797D01*
X0047056Y0052794D02*
X0051913Y0052794D01*
X0051862Y0053292D02*
X0047554Y0053292D01*
X0048053Y0053791D02*
X0051862Y0053791D01*
X0051862Y0054289D02*
X0048375Y0054289D01*
X0048375Y0054788D02*
X0051942Y0054788D01*
X0052441Y0055286D02*
X0048375Y0055286D01*
X0048375Y0055785D02*
X0052662Y0055785D01*
X0052662Y0056283D02*
X0048375Y0056283D01*
X0048738Y0056782D02*
X0052662Y0056782D01*
X0052662Y0057280D02*
X0049175Y0057280D01*
X0049175Y0057779D02*
X0052940Y0057779D01*
X0053438Y0058277D02*
X0049175Y0058277D01*
X0049175Y0058776D02*
X0053937Y0058776D01*
X0054435Y0059274D02*
X0048984Y0059274D01*
X0048485Y0059773D02*
X0054934Y0059773D01*
X0055432Y0060271D02*
X0047986Y0060271D01*
X0045864Y0060271D02*
X0034727Y0060271D01*
X0034229Y0059773D02*
X0045365Y0059773D01*
X0044866Y0059274D02*
X0033730Y0059274D01*
X0031370Y0059274D02*
X0030875Y0059274D01*
X0030875Y0058776D02*
X0044675Y0058776D01*
X0044675Y0058277D02*
X0030875Y0058277D01*
X0030875Y0057779D02*
X0044675Y0057779D01*
X0044675Y0057280D02*
X0031096Y0057280D01*
X0032726Y0056782D02*
X0045112Y0056782D01*
X0045475Y0056283D02*
X0033225Y0056283D01*
X0033550Y0055785D02*
X0045475Y0055785D01*
X0045447Y0055286D02*
X0033550Y0055286D01*
X0033550Y0054788D02*
X0044949Y0054788D01*
X0044450Y0054289D02*
X0033550Y0054289D01*
X0033247Y0053791D02*
X0043952Y0053791D01*
X0039391Y0053292D02*
X0032748Y0053292D01*
X0032250Y0052794D02*
X0038892Y0052794D01*
X0038394Y0052295D02*
X0031706Y0052295D01*
X0032205Y0051797D02*
X0037895Y0051797D01*
X0037397Y0051298D02*
X0032703Y0051298D01*
X0033202Y0050800D02*
X0036898Y0050800D01*
X0036400Y0050301D02*
X0033700Y0050301D01*
X0034199Y0049803D02*
X0035901Y0049803D01*
X0035403Y0049304D02*
X0034697Y0049304D01*
X0027975Y0065755D02*
X0027503Y0065755D01*
X0027975Y0066254D02*
X0024625Y0066254D01*
X0024625Y0066752D02*
X0027975Y0066752D01*
X0027975Y0067251D02*
X0024563Y0067251D01*
X0024065Y0067749D02*
X0027975Y0067749D01*
X0027975Y0068248D02*
X0023566Y0068248D01*
X0023068Y0068746D02*
X0027975Y0068746D01*
X0027792Y0069245D02*
X0022569Y0069245D01*
X0022071Y0069743D02*
X0027249Y0069743D01*
X0026705Y0070242D02*
X0021987Y0070242D01*
X0021987Y0070740D02*
X0026162Y0070740D01*
X0025619Y0071239D02*
X0021707Y0071239D01*
X0021208Y0071737D02*
X0025076Y0071737D01*
X0024533Y0072236D02*
X0020710Y0072236D01*
X0020352Y0079215D02*
X0015250Y0079215D01*
X0016623Y0079713D02*
X0019107Y0079713D01*
X0018608Y0080212D02*
X0017122Y0080212D01*
X0017478Y0080710D02*
X0018252Y0080710D01*
X0018252Y0081209D02*
X0017478Y0081209D01*
X0017478Y0081707D02*
X0018252Y0081707D01*
X0018252Y0082206D02*
X0017478Y0082206D01*
X0017478Y0082704D02*
X0018252Y0082704D01*
X0018252Y0083203D02*
X0017478Y0083203D01*
X0017478Y0083702D02*
X0018252Y0083702D01*
X0018252Y0084200D02*
X0017478Y0084200D01*
X0017478Y0084699D02*
X0018252Y0084699D01*
X0018252Y0085197D02*
X0017478Y0085197D01*
X0017478Y0085696D02*
X0018252Y0085696D01*
X0018252Y0086194D02*
X0017478Y0086194D01*
X0017478Y0086693D02*
X0018252Y0086693D01*
X0018252Y0087191D02*
X0017478Y0087191D01*
X0017478Y0087690D02*
X0018252Y0087690D01*
X0018252Y0088188D02*
X0017478Y0088188D01*
X0017478Y0088687D02*
X0018252Y0088687D01*
X0018711Y0089185D02*
X0017019Y0089185D01*
X0012495Y0094170D02*
X0022350Y0094170D01*
X0022350Y0093672D02*
X0011996Y0093672D01*
X0011500Y0093173D02*
X0022350Y0093173D01*
X0022350Y0092675D02*
X0011500Y0092675D01*
X0011500Y0092176D02*
X0022350Y0092176D01*
X0022350Y0091678D02*
X0011500Y0091678D01*
X0011500Y0091179D02*
X0022350Y0091179D01*
X0022350Y0090681D02*
X0011500Y0090681D01*
X0011500Y0090182D02*
X0022350Y0090182D01*
X0022404Y0089684D02*
X0011500Y0089684D01*
X0012750Y0094669D02*
X0022350Y0094669D01*
X0022350Y0095167D02*
X0012750Y0095167D01*
X0012750Y0095666D02*
X0022350Y0095666D01*
X0022350Y0096164D02*
X0012750Y0096164D01*
X0012750Y0096663D02*
X0022350Y0096663D01*
X0022350Y0097161D02*
X0012750Y0097161D01*
X0012750Y0097660D02*
X0022350Y0097660D01*
X0022350Y0098158D02*
X0012750Y0098158D01*
X0013231Y0098657D02*
X0021869Y0098657D01*
X0021370Y0099155D02*
X0013730Y0099155D01*
X0025352Y0082206D02*
X0025626Y0082206D01*
X0028596Y0083203D02*
X0038989Y0083203D01*
X0039487Y0083702D02*
X0028862Y0083702D01*
X0038246Y0072734D02*
X0062975Y0072734D01*
X0062975Y0072236D02*
X0037925Y0072236D01*
X0037925Y0071737D02*
X0062975Y0071737D01*
X0062975Y0071239D02*
X0037882Y0071239D01*
X0037384Y0070740D02*
X0062975Y0070740D01*
X0062975Y0070242D02*
X0036885Y0070242D01*
X0038745Y0073233D02*
X0062975Y0073233D01*
X0062975Y0073731D02*
X0039000Y0073731D01*
X0039000Y0074230D02*
X0062975Y0074230D01*
X0062975Y0074728D02*
X0039303Y0074728D01*
X0039801Y0075227D02*
X0062975Y0075227D01*
X0062975Y0075725D02*
X0040300Y0075725D01*
X0040798Y0076224D02*
X0062975Y0076224D01*
X0062975Y0076722D02*
X0041297Y0076722D01*
X0041795Y0077221D02*
X0062975Y0077221D01*
X0062975Y0077719D02*
X0042294Y0077719D01*
X0042792Y0078218D02*
X0062975Y0078218D01*
X0062975Y0078716D02*
X0043291Y0078716D01*
X0043790Y0079215D02*
X0062975Y0079215D01*
X0062975Y0079713D02*
X0044288Y0079713D01*
X0044787Y0080212D02*
X0062975Y0080212D01*
X0062975Y0080710D02*
X0045285Y0080710D01*
X0045784Y0081209D02*
X0062975Y0081209D01*
X0062975Y0081707D02*
X0046282Y0081707D01*
X0046781Y0082206D02*
X0062975Y0082206D01*
X0062975Y0082704D02*
X0047279Y0082704D01*
X0047778Y0083203D02*
X0062975Y0083203D01*
X0062975Y0083702D02*
X0048276Y0083702D01*
X0048775Y0084200D02*
X0062575Y0084200D01*
X0057917Y0096788D02*
X0057025Y0096788D01*
X0057025Y0097742D01*
X0056410Y0098357D01*
X0051550Y0098357D01*
X0051550Y0100401D01*
X0057875Y0100401D01*
X0057875Y0099329D01*
X0061631Y0099329D01*
X0061631Y0098829D01*
X0057875Y0098829D01*
X0057875Y0096946D01*
X0057917Y0096788D01*
X0057875Y0097161D02*
X0057025Y0097161D01*
X0057025Y0097660D02*
X0057875Y0097660D01*
X0057875Y0098158D02*
X0056609Y0098158D01*
X0057875Y0098657D02*
X0051550Y0098657D01*
X0051550Y0099155D02*
X0061631Y0099155D01*
X0062131Y0099155D02*
X0066987Y0099155D01*
X0066987Y0099346D02*
X0066987Y0098846D01*
X0063862Y0098846D01*
X0063862Y0098829D01*
X0062131Y0098829D01*
X0062131Y0099329D01*
X0065887Y0099329D01*
X0065887Y0099346D01*
X0066987Y0099346D01*
X0057875Y0099654D02*
X0051550Y0099654D01*
X0051550Y0100152D02*
X0057875Y0100152D01*
X0062975Y0068746D02*
X0047324Y0068746D01*
X0055562Y0056283D02*
X0055612Y0056283D01*
X0055562Y0055785D02*
X0055797Y0055785D01*
X0055784Y0055286D02*
X0056295Y0055286D01*
X0056283Y0054788D02*
X0056794Y0054788D01*
X0025097Y0065755D02*
X0024625Y0065755D01*
X0008356Y0054788D02*
X0006989Y0054788D01*
X0006550Y0055286D02*
X0007858Y0055286D01*
X0007359Y0055785D02*
X0006550Y0055785D01*
X0006550Y0056283D02*
X0007175Y0056283D01*
X0007175Y0056782D02*
X0006550Y0056782D01*
X0006550Y0057280D02*
X0007037Y0057280D01*
X0007037Y0057779D02*
X0006550Y0057779D01*
X0006550Y0058277D02*
X0007037Y0058277D01*
X0007037Y0058776D02*
X0006550Y0058776D01*
D11*
X0013278Y0015651D02*
X0013280Y0015735D01*
X0013286Y0015818D01*
X0013296Y0015901D01*
X0013310Y0015984D01*
X0013327Y0016066D01*
X0013349Y0016147D01*
X0013374Y0016226D01*
X0013403Y0016305D01*
X0013436Y0016382D01*
X0013472Y0016457D01*
X0013512Y0016531D01*
X0013555Y0016603D01*
X0013602Y0016672D01*
X0013652Y0016739D01*
X0013705Y0016804D01*
X0013761Y0016866D01*
X0013819Y0016926D01*
X0013881Y0016983D01*
X0013945Y0017036D01*
X0014012Y0017087D01*
X0014081Y0017134D01*
X0014152Y0017179D01*
X0014225Y0017219D01*
X0014300Y0017256D01*
X0014377Y0017290D01*
X0014455Y0017320D01*
X0014534Y0017346D01*
X0014615Y0017369D01*
X0014697Y0017387D01*
X0014779Y0017402D01*
X0014862Y0017413D01*
X0014945Y0017420D01*
X0015029Y0017423D01*
X0015113Y0017422D01*
X0015196Y0017417D01*
X0015280Y0017408D01*
X0015362Y0017395D01*
X0015444Y0017379D01*
X0015525Y0017358D01*
X0015606Y0017334D01*
X0015684Y0017306D01*
X0015762Y0017274D01*
X0015838Y0017238D01*
X0015912Y0017199D01*
X0015984Y0017157D01*
X0016054Y0017111D01*
X0016122Y0017062D01*
X0016187Y0017010D01*
X0016250Y0016955D01*
X0016310Y0016897D01*
X0016368Y0016836D01*
X0016422Y0016772D01*
X0016474Y0016706D01*
X0016522Y0016638D01*
X0016567Y0016567D01*
X0016608Y0016494D01*
X0016647Y0016420D01*
X0016681Y0016344D01*
X0016712Y0016266D01*
X0016739Y0016187D01*
X0016763Y0016106D01*
X0016782Y0016025D01*
X0016798Y0015943D01*
X0016810Y0015860D01*
X0016818Y0015776D01*
X0016822Y0015693D01*
X0016822Y0015609D01*
X0016818Y0015526D01*
X0016810Y0015442D01*
X0016798Y0015359D01*
X0016782Y0015277D01*
X0016763Y0015196D01*
X0016739Y0015115D01*
X0016712Y0015036D01*
X0016681Y0014958D01*
X0016647Y0014882D01*
X0016608Y0014808D01*
X0016567Y0014735D01*
X0016522Y0014664D01*
X0016474Y0014596D01*
X0016422Y0014530D01*
X0016368Y0014466D01*
X0016310Y0014405D01*
X0016250Y0014347D01*
X0016187Y0014292D01*
X0016122Y0014240D01*
X0016054Y0014191D01*
X0015984Y0014145D01*
X0015912Y0014103D01*
X0015838Y0014064D01*
X0015762Y0014028D01*
X0015684Y0013996D01*
X0015606Y0013968D01*
X0015525Y0013944D01*
X0015444Y0013923D01*
X0015362Y0013907D01*
X0015280Y0013894D01*
X0015196Y0013885D01*
X0015113Y0013880D01*
X0015029Y0013879D01*
X0014945Y0013882D01*
X0014862Y0013889D01*
X0014779Y0013900D01*
X0014697Y0013915D01*
X0014615Y0013933D01*
X0014534Y0013956D01*
X0014455Y0013982D01*
X0014377Y0014012D01*
X0014300Y0014046D01*
X0014225Y0014083D01*
X0014152Y0014123D01*
X0014081Y0014168D01*
X0014012Y0014215D01*
X0013945Y0014266D01*
X0013881Y0014319D01*
X0013819Y0014376D01*
X0013761Y0014436D01*
X0013705Y0014498D01*
X0013652Y0014563D01*
X0013602Y0014630D01*
X0013555Y0014699D01*
X0013512Y0014771D01*
X0013472Y0014845D01*
X0013436Y0014920D01*
X0013403Y0014997D01*
X0013374Y0015076D01*
X0013349Y0015155D01*
X0013327Y0015236D01*
X0013310Y0015318D01*
X0013296Y0015401D01*
X0013286Y0015484D01*
X0013280Y0015567D01*
X0013278Y0015651D01*
X0018278Y0015651D02*
X0018280Y0015735D01*
X0018286Y0015818D01*
X0018296Y0015901D01*
X0018310Y0015984D01*
X0018327Y0016066D01*
X0018349Y0016147D01*
X0018374Y0016226D01*
X0018403Y0016305D01*
X0018436Y0016382D01*
X0018472Y0016457D01*
X0018512Y0016531D01*
X0018555Y0016603D01*
X0018602Y0016672D01*
X0018652Y0016739D01*
X0018705Y0016804D01*
X0018761Y0016866D01*
X0018819Y0016926D01*
X0018881Y0016983D01*
X0018945Y0017036D01*
X0019012Y0017087D01*
X0019081Y0017134D01*
X0019152Y0017179D01*
X0019225Y0017219D01*
X0019300Y0017256D01*
X0019377Y0017290D01*
X0019455Y0017320D01*
X0019534Y0017346D01*
X0019615Y0017369D01*
X0019697Y0017387D01*
X0019779Y0017402D01*
X0019862Y0017413D01*
X0019945Y0017420D01*
X0020029Y0017423D01*
X0020113Y0017422D01*
X0020196Y0017417D01*
X0020280Y0017408D01*
X0020362Y0017395D01*
X0020444Y0017379D01*
X0020525Y0017358D01*
X0020606Y0017334D01*
X0020684Y0017306D01*
X0020762Y0017274D01*
X0020838Y0017238D01*
X0020912Y0017199D01*
X0020984Y0017157D01*
X0021054Y0017111D01*
X0021122Y0017062D01*
X0021187Y0017010D01*
X0021250Y0016955D01*
X0021310Y0016897D01*
X0021368Y0016836D01*
X0021422Y0016772D01*
X0021474Y0016706D01*
X0021522Y0016638D01*
X0021567Y0016567D01*
X0021608Y0016494D01*
X0021647Y0016420D01*
X0021681Y0016344D01*
X0021712Y0016266D01*
X0021739Y0016187D01*
X0021763Y0016106D01*
X0021782Y0016025D01*
X0021798Y0015943D01*
X0021810Y0015860D01*
X0021818Y0015776D01*
X0021822Y0015693D01*
X0021822Y0015609D01*
X0021818Y0015526D01*
X0021810Y0015442D01*
X0021798Y0015359D01*
X0021782Y0015277D01*
X0021763Y0015196D01*
X0021739Y0015115D01*
X0021712Y0015036D01*
X0021681Y0014958D01*
X0021647Y0014882D01*
X0021608Y0014808D01*
X0021567Y0014735D01*
X0021522Y0014664D01*
X0021474Y0014596D01*
X0021422Y0014530D01*
X0021368Y0014466D01*
X0021310Y0014405D01*
X0021250Y0014347D01*
X0021187Y0014292D01*
X0021122Y0014240D01*
X0021054Y0014191D01*
X0020984Y0014145D01*
X0020912Y0014103D01*
X0020838Y0014064D01*
X0020762Y0014028D01*
X0020684Y0013996D01*
X0020606Y0013968D01*
X0020525Y0013944D01*
X0020444Y0013923D01*
X0020362Y0013907D01*
X0020280Y0013894D01*
X0020196Y0013885D01*
X0020113Y0013880D01*
X0020029Y0013879D01*
X0019945Y0013882D01*
X0019862Y0013889D01*
X0019779Y0013900D01*
X0019697Y0013915D01*
X0019615Y0013933D01*
X0019534Y0013956D01*
X0019455Y0013982D01*
X0019377Y0014012D01*
X0019300Y0014046D01*
X0019225Y0014083D01*
X0019152Y0014123D01*
X0019081Y0014168D01*
X0019012Y0014215D01*
X0018945Y0014266D01*
X0018881Y0014319D01*
X0018819Y0014376D01*
X0018761Y0014436D01*
X0018705Y0014498D01*
X0018652Y0014563D01*
X0018602Y0014630D01*
X0018555Y0014699D01*
X0018512Y0014771D01*
X0018472Y0014845D01*
X0018436Y0014920D01*
X0018403Y0014997D01*
X0018374Y0015076D01*
X0018349Y0015155D01*
X0018327Y0015236D01*
X0018310Y0015318D01*
X0018296Y0015401D01*
X0018286Y0015484D01*
X0018280Y0015567D01*
X0018278Y0015651D01*
X0015129Y0008151D02*
X0015131Y0008291D01*
X0015137Y0008431D01*
X0015147Y0008570D01*
X0015161Y0008709D01*
X0015179Y0008848D01*
X0015200Y0008986D01*
X0015226Y0009124D01*
X0015256Y0009261D01*
X0015289Y0009396D01*
X0015327Y0009531D01*
X0015368Y0009665D01*
X0015413Y0009798D01*
X0015461Y0009929D01*
X0015514Y0010058D01*
X0015570Y0010187D01*
X0015629Y0010313D01*
X0015693Y0010438D01*
X0015759Y0010561D01*
X0015830Y0010682D01*
X0015903Y0010801D01*
X0015980Y0010918D01*
X0016061Y0011032D01*
X0016144Y0011144D01*
X0016231Y0011254D01*
X0016321Y0011362D01*
X0016413Y0011466D01*
X0016509Y0011568D01*
X0016608Y0011668D01*
X0016709Y0011764D01*
X0016813Y0011858D01*
X0016920Y0011948D01*
X0017029Y0012035D01*
X0017141Y0012120D01*
X0017255Y0012201D01*
X0017371Y0012279D01*
X0017489Y0012353D01*
X0017610Y0012424D01*
X0017732Y0012492D01*
X0017857Y0012556D01*
X0017983Y0012617D01*
X0018110Y0012674D01*
X0018240Y0012727D01*
X0018371Y0012777D01*
X0018503Y0012822D01*
X0018636Y0012865D01*
X0018771Y0012903D01*
X0018906Y0012937D01*
X0019043Y0012968D01*
X0019180Y0012995D01*
X0019318Y0013017D01*
X0019457Y0013036D01*
X0019596Y0013051D01*
X0019735Y0013062D01*
X0019875Y0013069D01*
X0020015Y0013072D01*
X0020155Y0013071D01*
X0020295Y0013066D01*
X0020434Y0013057D01*
X0020574Y0013044D01*
X0020713Y0013027D01*
X0020851Y0013006D01*
X0020989Y0012982D01*
X0021126Y0012953D01*
X0021262Y0012921D01*
X0021397Y0012884D01*
X0021531Y0012844D01*
X0021664Y0012800D01*
X0021795Y0012752D01*
X0021925Y0012701D01*
X0022054Y0012646D01*
X0022181Y0012587D01*
X0022306Y0012524D01*
X0022429Y0012459D01*
X0022551Y0012389D01*
X0022670Y0012316D01*
X0022788Y0012240D01*
X0022903Y0012161D01*
X0023016Y0012078D01*
X0023126Y0011992D01*
X0023234Y0011903D01*
X0023339Y0011811D01*
X0023442Y0011716D01*
X0023542Y0011618D01*
X0023639Y0011518D01*
X0023733Y0011414D01*
X0023825Y0011308D01*
X0023913Y0011200D01*
X0023998Y0011089D01*
X0024080Y0010975D01*
X0024159Y0010859D01*
X0024234Y0010742D01*
X0024306Y0010622D01*
X0024374Y0010500D01*
X0024439Y0010376D01*
X0024501Y0010250D01*
X0024559Y0010123D01*
X0024613Y0009994D01*
X0024664Y0009863D01*
X0024710Y0009731D01*
X0024753Y0009598D01*
X0024793Y0009464D01*
X0024828Y0009329D01*
X0024860Y0009192D01*
X0024887Y0009055D01*
X0024911Y0008917D01*
X0024931Y0008779D01*
X0024947Y0008640D01*
X0024959Y0008500D01*
X0024967Y0008361D01*
X0024971Y0008221D01*
X0024971Y0008081D01*
X0024967Y0007941D01*
X0024959Y0007802D01*
X0024947Y0007662D01*
X0024931Y0007523D01*
X0024911Y0007385D01*
X0024887Y0007247D01*
X0024860Y0007110D01*
X0024828Y0006973D01*
X0024793Y0006838D01*
X0024753Y0006704D01*
X0024710Y0006571D01*
X0024664Y0006439D01*
X0024613Y0006308D01*
X0024559Y0006179D01*
X0024501Y0006052D01*
X0024439Y0005926D01*
X0024374Y0005802D01*
X0024306Y0005680D01*
X0024234Y0005560D01*
X0024159Y0005443D01*
X0024080Y0005327D01*
X0023998Y0005213D01*
X0023913Y0005102D01*
X0023825Y0004994D01*
X0023733Y0004888D01*
X0023639Y0004784D01*
X0023542Y0004684D01*
X0023442Y0004586D01*
X0023339Y0004491D01*
X0023234Y0004399D01*
X0023126Y0004310D01*
X0023016Y0004224D01*
X0022903Y0004141D01*
X0022788Y0004062D01*
X0022670Y0003986D01*
X0022551Y0003913D01*
X0022429Y0003843D01*
X0022306Y0003778D01*
X0022181Y0003715D01*
X0022054Y0003656D01*
X0021925Y0003601D01*
X0021795Y0003550D01*
X0021664Y0003502D01*
X0021531Y0003458D01*
X0021397Y0003418D01*
X0021262Y0003381D01*
X0021126Y0003349D01*
X0020989Y0003320D01*
X0020851Y0003296D01*
X0020713Y0003275D01*
X0020574Y0003258D01*
X0020434Y0003245D01*
X0020295Y0003236D01*
X0020155Y0003231D01*
X0020015Y0003230D01*
X0019875Y0003233D01*
X0019735Y0003240D01*
X0019596Y0003251D01*
X0019457Y0003266D01*
X0019318Y0003285D01*
X0019180Y0003307D01*
X0019043Y0003334D01*
X0018906Y0003365D01*
X0018771Y0003399D01*
X0018636Y0003437D01*
X0018503Y0003480D01*
X0018371Y0003525D01*
X0018240Y0003575D01*
X0018110Y0003628D01*
X0017983Y0003685D01*
X0017857Y0003746D01*
X0017732Y0003810D01*
X0017610Y0003878D01*
X0017489Y0003949D01*
X0017371Y0004023D01*
X0017255Y0004101D01*
X0017141Y0004182D01*
X0017029Y0004267D01*
X0016920Y0004354D01*
X0016813Y0004444D01*
X0016709Y0004538D01*
X0016608Y0004634D01*
X0016509Y0004734D01*
X0016413Y0004836D01*
X0016321Y0004940D01*
X0016231Y0005048D01*
X0016144Y0005158D01*
X0016061Y0005270D01*
X0015980Y0005384D01*
X0015903Y0005501D01*
X0015830Y0005620D01*
X0015759Y0005741D01*
X0015693Y0005864D01*
X0015629Y0005989D01*
X0015570Y0006115D01*
X0015514Y0006244D01*
X0015461Y0006373D01*
X0015413Y0006504D01*
X0015368Y0006637D01*
X0015327Y0006771D01*
X0015289Y0006906D01*
X0015256Y0007041D01*
X0015226Y0007178D01*
X0015200Y0007316D01*
X0015179Y0007454D01*
X0015161Y0007593D01*
X0015147Y0007732D01*
X0015137Y0007871D01*
X0015131Y0008011D01*
X0015129Y0008151D01*
X0023278Y0015651D02*
X0023280Y0015735D01*
X0023286Y0015818D01*
X0023296Y0015901D01*
X0023310Y0015984D01*
X0023327Y0016066D01*
X0023349Y0016147D01*
X0023374Y0016226D01*
X0023403Y0016305D01*
X0023436Y0016382D01*
X0023472Y0016457D01*
X0023512Y0016531D01*
X0023555Y0016603D01*
X0023602Y0016672D01*
X0023652Y0016739D01*
X0023705Y0016804D01*
X0023761Y0016866D01*
X0023819Y0016926D01*
X0023881Y0016983D01*
X0023945Y0017036D01*
X0024012Y0017087D01*
X0024081Y0017134D01*
X0024152Y0017179D01*
X0024225Y0017219D01*
X0024300Y0017256D01*
X0024377Y0017290D01*
X0024455Y0017320D01*
X0024534Y0017346D01*
X0024615Y0017369D01*
X0024697Y0017387D01*
X0024779Y0017402D01*
X0024862Y0017413D01*
X0024945Y0017420D01*
X0025029Y0017423D01*
X0025113Y0017422D01*
X0025196Y0017417D01*
X0025280Y0017408D01*
X0025362Y0017395D01*
X0025444Y0017379D01*
X0025525Y0017358D01*
X0025606Y0017334D01*
X0025684Y0017306D01*
X0025762Y0017274D01*
X0025838Y0017238D01*
X0025912Y0017199D01*
X0025984Y0017157D01*
X0026054Y0017111D01*
X0026122Y0017062D01*
X0026187Y0017010D01*
X0026250Y0016955D01*
X0026310Y0016897D01*
X0026368Y0016836D01*
X0026422Y0016772D01*
X0026474Y0016706D01*
X0026522Y0016638D01*
X0026567Y0016567D01*
X0026608Y0016494D01*
X0026647Y0016420D01*
X0026681Y0016344D01*
X0026712Y0016266D01*
X0026739Y0016187D01*
X0026763Y0016106D01*
X0026782Y0016025D01*
X0026798Y0015943D01*
X0026810Y0015860D01*
X0026818Y0015776D01*
X0026822Y0015693D01*
X0026822Y0015609D01*
X0026818Y0015526D01*
X0026810Y0015442D01*
X0026798Y0015359D01*
X0026782Y0015277D01*
X0026763Y0015196D01*
X0026739Y0015115D01*
X0026712Y0015036D01*
X0026681Y0014958D01*
X0026647Y0014882D01*
X0026608Y0014808D01*
X0026567Y0014735D01*
X0026522Y0014664D01*
X0026474Y0014596D01*
X0026422Y0014530D01*
X0026368Y0014466D01*
X0026310Y0014405D01*
X0026250Y0014347D01*
X0026187Y0014292D01*
X0026122Y0014240D01*
X0026054Y0014191D01*
X0025984Y0014145D01*
X0025912Y0014103D01*
X0025838Y0014064D01*
X0025762Y0014028D01*
X0025684Y0013996D01*
X0025606Y0013968D01*
X0025525Y0013944D01*
X0025444Y0013923D01*
X0025362Y0013907D01*
X0025280Y0013894D01*
X0025196Y0013885D01*
X0025113Y0013880D01*
X0025029Y0013879D01*
X0024945Y0013882D01*
X0024862Y0013889D01*
X0024779Y0013900D01*
X0024697Y0013915D01*
X0024615Y0013933D01*
X0024534Y0013956D01*
X0024455Y0013982D01*
X0024377Y0014012D01*
X0024300Y0014046D01*
X0024225Y0014083D01*
X0024152Y0014123D01*
X0024081Y0014168D01*
X0024012Y0014215D01*
X0023945Y0014266D01*
X0023881Y0014319D01*
X0023819Y0014376D01*
X0023761Y0014436D01*
X0023705Y0014498D01*
X0023652Y0014563D01*
X0023602Y0014630D01*
X0023555Y0014699D01*
X0023512Y0014771D01*
X0023472Y0014845D01*
X0023436Y0014920D01*
X0023403Y0014997D01*
X0023374Y0015076D01*
X0023349Y0015155D01*
X0023327Y0015236D01*
X0023310Y0015318D01*
X0023296Y0015401D01*
X0023286Y0015484D01*
X0023280Y0015567D01*
X0023278Y0015651D01*
X0048278Y0015651D02*
X0048280Y0015735D01*
X0048286Y0015818D01*
X0048296Y0015901D01*
X0048310Y0015984D01*
X0048327Y0016066D01*
X0048349Y0016147D01*
X0048374Y0016226D01*
X0048403Y0016305D01*
X0048436Y0016382D01*
X0048472Y0016457D01*
X0048512Y0016531D01*
X0048555Y0016603D01*
X0048602Y0016672D01*
X0048652Y0016739D01*
X0048705Y0016804D01*
X0048761Y0016866D01*
X0048819Y0016926D01*
X0048881Y0016983D01*
X0048945Y0017036D01*
X0049012Y0017087D01*
X0049081Y0017134D01*
X0049152Y0017179D01*
X0049225Y0017219D01*
X0049300Y0017256D01*
X0049377Y0017290D01*
X0049455Y0017320D01*
X0049534Y0017346D01*
X0049615Y0017369D01*
X0049697Y0017387D01*
X0049779Y0017402D01*
X0049862Y0017413D01*
X0049945Y0017420D01*
X0050029Y0017423D01*
X0050113Y0017422D01*
X0050196Y0017417D01*
X0050280Y0017408D01*
X0050362Y0017395D01*
X0050444Y0017379D01*
X0050525Y0017358D01*
X0050606Y0017334D01*
X0050684Y0017306D01*
X0050762Y0017274D01*
X0050838Y0017238D01*
X0050912Y0017199D01*
X0050984Y0017157D01*
X0051054Y0017111D01*
X0051122Y0017062D01*
X0051187Y0017010D01*
X0051250Y0016955D01*
X0051310Y0016897D01*
X0051368Y0016836D01*
X0051422Y0016772D01*
X0051474Y0016706D01*
X0051522Y0016638D01*
X0051567Y0016567D01*
X0051608Y0016494D01*
X0051647Y0016420D01*
X0051681Y0016344D01*
X0051712Y0016266D01*
X0051739Y0016187D01*
X0051763Y0016106D01*
X0051782Y0016025D01*
X0051798Y0015943D01*
X0051810Y0015860D01*
X0051818Y0015776D01*
X0051822Y0015693D01*
X0051822Y0015609D01*
X0051818Y0015526D01*
X0051810Y0015442D01*
X0051798Y0015359D01*
X0051782Y0015277D01*
X0051763Y0015196D01*
X0051739Y0015115D01*
X0051712Y0015036D01*
X0051681Y0014958D01*
X0051647Y0014882D01*
X0051608Y0014808D01*
X0051567Y0014735D01*
X0051522Y0014664D01*
X0051474Y0014596D01*
X0051422Y0014530D01*
X0051368Y0014466D01*
X0051310Y0014405D01*
X0051250Y0014347D01*
X0051187Y0014292D01*
X0051122Y0014240D01*
X0051054Y0014191D01*
X0050984Y0014145D01*
X0050912Y0014103D01*
X0050838Y0014064D01*
X0050762Y0014028D01*
X0050684Y0013996D01*
X0050606Y0013968D01*
X0050525Y0013944D01*
X0050444Y0013923D01*
X0050362Y0013907D01*
X0050280Y0013894D01*
X0050196Y0013885D01*
X0050113Y0013880D01*
X0050029Y0013879D01*
X0049945Y0013882D01*
X0049862Y0013889D01*
X0049779Y0013900D01*
X0049697Y0013915D01*
X0049615Y0013933D01*
X0049534Y0013956D01*
X0049455Y0013982D01*
X0049377Y0014012D01*
X0049300Y0014046D01*
X0049225Y0014083D01*
X0049152Y0014123D01*
X0049081Y0014168D01*
X0049012Y0014215D01*
X0048945Y0014266D01*
X0048881Y0014319D01*
X0048819Y0014376D01*
X0048761Y0014436D01*
X0048705Y0014498D01*
X0048652Y0014563D01*
X0048602Y0014630D01*
X0048555Y0014699D01*
X0048512Y0014771D01*
X0048472Y0014845D01*
X0048436Y0014920D01*
X0048403Y0014997D01*
X0048374Y0015076D01*
X0048349Y0015155D01*
X0048327Y0015236D01*
X0048310Y0015318D01*
X0048296Y0015401D01*
X0048286Y0015484D01*
X0048280Y0015567D01*
X0048278Y0015651D01*
X0053278Y0015651D02*
X0053280Y0015735D01*
X0053286Y0015818D01*
X0053296Y0015901D01*
X0053310Y0015984D01*
X0053327Y0016066D01*
X0053349Y0016147D01*
X0053374Y0016226D01*
X0053403Y0016305D01*
X0053436Y0016382D01*
X0053472Y0016457D01*
X0053512Y0016531D01*
X0053555Y0016603D01*
X0053602Y0016672D01*
X0053652Y0016739D01*
X0053705Y0016804D01*
X0053761Y0016866D01*
X0053819Y0016926D01*
X0053881Y0016983D01*
X0053945Y0017036D01*
X0054012Y0017087D01*
X0054081Y0017134D01*
X0054152Y0017179D01*
X0054225Y0017219D01*
X0054300Y0017256D01*
X0054377Y0017290D01*
X0054455Y0017320D01*
X0054534Y0017346D01*
X0054615Y0017369D01*
X0054697Y0017387D01*
X0054779Y0017402D01*
X0054862Y0017413D01*
X0054945Y0017420D01*
X0055029Y0017423D01*
X0055113Y0017422D01*
X0055196Y0017417D01*
X0055280Y0017408D01*
X0055362Y0017395D01*
X0055444Y0017379D01*
X0055525Y0017358D01*
X0055606Y0017334D01*
X0055684Y0017306D01*
X0055762Y0017274D01*
X0055838Y0017238D01*
X0055912Y0017199D01*
X0055984Y0017157D01*
X0056054Y0017111D01*
X0056122Y0017062D01*
X0056187Y0017010D01*
X0056250Y0016955D01*
X0056310Y0016897D01*
X0056368Y0016836D01*
X0056422Y0016772D01*
X0056474Y0016706D01*
X0056522Y0016638D01*
X0056567Y0016567D01*
X0056608Y0016494D01*
X0056647Y0016420D01*
X0056681Y0016344D01*
X0056712Y0016266D01*
X0056739Y0016187D01*
X0056763Y0016106D01*
X0056782Y0016025D01*
X0056798Y0015943D01*
X0056810Y0015860D01*
X0056818Y0015776D01*
X0056822Y0015693D01*
X0056822Y0015609D01*
X0056818Y0015526D01*
X0056810Y0015442D01*
X0056798Y0015359D01*
X0056782Y0015277D01*
X0056763Y0015196D01*
X0056739Y0015115D01*
X0056712Y0015036D01*
X0056681Y0014958D01*
X0056647Y0014882D01*
X0056608Y0014808D01*
X0056567Y0014735D01*
X0056522Y0014664D01*
X0056474Y0014596D01*
X0056422Y0014530D01*
X0056368Y0014466D01*
X0056310Y0014405D01*
X0056250Y0014347D01*
X0056187Y0014292D01*
X0056122Y0014240D01*
X0056054Y0014191D01*
X0055984Y0014145D01*
X0055912Y0014103D01*
X0055838Y0014064D01*
X0055762Y0014028D01*
X0055684Y0013996D01*
X0055606Y0013968D01*
X0055525Y0013944D01*
X0055444Y0013923D01*
X0055362Y0013907D01*
X0055280Y0013894D01*
X0055196Y0013885D01*
X0055113Y0013880D01*
X0055029Y0013879D01*
X0054945Y0013882D01*
X0054862Y0013889D01*
X0054779Y0013900D01*
X0054697Y0013915D01*
X0054615Y0013933D01*
X0054534Y0013956D01*
X0054455Y0013982D01*
X0054377Y0014012D01*
X0054300Y0014046D01*
X0054225Y0014083D01*
X0054152Y0014123D01*
X0054081Y0014168D01*
X0054012Y0014215D01*
X0053945Y0014266D01*
X0053881Y0014319D01*
X0053819Y0014376D01*
X0053761Y0014436D01*
X0053705Y0014498D01*
X0053652Y0014563D01*
X0053602Y0014630D01*
X0053555Y0014699D01*
X0053512Y0014771D01*
X0053472Y0014845D01*
X0053436Y0014920D01*
X0053403Y0014997D01*
X0053374Y0015076D01*
X0053349Y0015155D01*
X0053327Y0015236D01*
X0053310Y0015318D01*
X0053296Y0015401D01*
X0053286Y0015484D01*
X0053280Y0015567D01*
X0053278Y0015651D01*
X0050129Y0008151D02*
X0050131Y0008291D01*
X0050137Y0008431D01*
X0050147Y0008570D01*
X0050161Y0008709D01*
X0050179Y0008848D01*
X0050200Y0008986D01*
X0050226Y0009124D01*
X0050256Y0009261D01*
X0050289Y0009396D01*
X0050327Y0009531D01*
X0050368Y0009665D01*
X0050413Y0009798D01*
X0050461Y0009929D01*
X0050514Y0010058D01*
X0050570Y0010187D01*
X0050629Y0010313D01*
X0050693Y0010438D01*
X0050759Y0010561D01*
X0050830Y0010682D01*
X0050903Y0010801D01*
X0050980Y0010918D01*
X0051061Y0011032D01*
X0051144Y0011144D01*
X0051231Y0011254D01*
X0051321Y0011362D01*
X0051413Y0011466D01*
X0051509Y0011568D01*
X0051608Y0011668D01*
X0051709Y0011764D01*
X0051813Y0011858D01*
X0051920Y0011948D01*
X0052029Y0012035D01*
X0052141Y0012120D01*
X0052255Y0012201D01*
X0052371Y0012279D01*
X0052489Y0012353D01*
X0052610Y0012424D01*
X0052732Y0012492D01*
X0052857Y0012556D01*
X0052983Y0012617D01*
X0053110Y0012674D01*
X0053240Y0012727D01*
X0053371Y0012777D01*
X0053503Y0012822D01*
X0053636Y0012865D01*
X0053771Y0012903D01*
X0053906Y0012937D01*
X0054043Y0012968D01*
X0054180Y0012995D01*
X0054318Y0013017D01*
X0054457Y0013036D01*
X0054596Y0013051D01*
X0054735Y0013062D01*
X0054875Y0013069D01*
X0055015Y0013072D01*
X0055155Y0013071D01*
X0055295Y0013066D01*
X0055434Y0013057D01*
X0055574Y0013044D01*
X0055713Y0013027D01*
X0055851Y0013006D01*
X0055989Y0012982D01*
X0056126Y0012953D01*
X0056262Y0012921D01*
X0056397Y0012884D01*
X0056531Y0012844D01*
X0056664Y0012800D01*
X0056795Y0012752D01*
X0056925Y0012701D01*
X0057054Y0012646D01*
X0057181Y0012587D01*
X0057306Y0012524D01*
X0057429Y0012459D01*
X0057551Y0012389D01*
X0057670Y0012316D01*
X0057788Y0012240D01*
X0057903Y0012161D01*
X0058016Y0012078D01*
X0058126Y0011992D01*
X0058234Y0011903D01*
X0058339Y0011811D01*
X0058442Y0011716D01*
X0058542Y0011618D01*
X0058639Y0011518D01*
X0058733Y0011414D01*
X0058825Y0011308D01*
X0058913Y0011200D01*
X0058998Y0011089D01*
X0059080Y0010975D01*
X0059159Y0010859D01*
X0059234Y0010742D01*
X0059306Y0010622D01*
X0059374Y0010500D01*
X0059439Y0010376D01*
X0059501Y0010250D01*
X0059559Y0010123D01*
X0059613Y0009994D01*
X0059664Y0009863D01*
X0059710Y0009731D01*
X0059753Y0009598D01*
X0059793Y0009464D01*
X0059828Y0009329D01*
X0059860Y0009192D01*
X0059887Y0009055D01*
X0059911Y0008917D01*
X0059931Y0008779D01*
X0059947Y0008640D01*
X0059959Y0008500D01*
X0059967Y0008361D01*
X0059971Y0008221D01*
X0059971Y0008081D01*
X0059967Y0007941D01*
X0059959Y0007802D01*
X0059947Y0007662D01*
X0059931Y0007523D01*
X0059911Y0007385D01*
X0059887Y0007247D01*
X0059860Y0007110D01*
X0059828Y0006973D01*
X0059793Y0006838D01*
X0059753Y0006704D01*
X0059710Y0006571D01*
X0059664Y0006439D01*
X0059613Y0006308D01*
X0059559Y0006179D01*
X0059501Y0006052D01*
X0059439Y0005926D01*
X0059374Y0005802D01*
X0059306Y0005680D01*
X0059234Y0005560D01*
X0059159Y0005443D01*
X0059080Y0005327D01*
X0058998Y0005213D01*
X0058913Y0005102D01*
X0058825Y0004994D01*
X0058733Y0004888D01*
X0058639Y0004784D01*
X0058542Y0004684D01*
X0058442Y0004586D01*
X0058339Y0004491D01*
X0058234Y0004399D01*
X0058126Y0004310D01*
X0058016Y0004224D01*
X0057903Y0004141D01*
X0057788Y0004062D01*
X0057670Y0003986D01*
X0057551Y0003913D01*
X0057429Y0003843D01*
X0057306Y0003778D01*
X0057181Y0003715D01*
X0057054Y0003656D01*
X0056925Y0003601D01*
X0056795Y0003550D01*
X0056664Y0003502D01*
X0056531Y0003458D01*
X0056397Y0003418D01*
X0056262Y0003381D01*
X0056126Y0003349D01*
X0055989Y0003320D01*
X0055851Y0003296D01*
X0055713Y0003275D01*
X0055574Y0003258D01*
X0055434Y0003245D01*
X0055295Y0003236D01*
X0055155Y0003231D01*
X0055015Y0003230D01*
X0054875Y0003233D01*
X0054735Y0003240D01*
X0054596Y0003251D01*
X0054457Y0003266D01*
X0054318Y0003285D01*
X0054180Y0003307D01*
X0054043Y0003334D01*
X0053906Y0003365D01*
X0053771Y0003399D01*
X0053636Y0003437D01*
X0053503Y0003480D01*
X0053371Y0003525D01*
X0053240Y0003575D01*
X0053110Y0003628D01*
X0052983Y0003685D01*
X0052857Y0003746D01*
X0052732Y0003810D01*
X0052610Y0003878D01*
X0052489Y0003949D01*
X0052371Y0004023D01*
X0052255Y0004101D01*
X0052141Y0004182D01*
X0052029Y0004267D01*
X0051920Y0004354D01*
X0051813Y0004444D01*
X0051709Y0004538D01*
X0051608Y0004634D01*
X0051509Y0004734D01*
X0051413Y0004836D01*
X0051321Y0004940D01*
X0051231Y0005048D01*
X0051144Y0005158D01*
X0051061Y0005270D01*
X0050980Y0005384D01*
X0050903Y0005501D01*
X0050830Y0005620D01*
X0050759Y0005741D01*
X0050693Y0005864D01*
X0050629Y0005989D01*
X0050570Y0006115D01*
X0050514Y0006244D01*
X0050461Y0006373D01*
X0050413Y0006504D01*
X0050368Y0006637D01*
X0050327Y0006771D01*
X0050289Y0006906D01*
X0050256Y0007041D01*
X0050226Y0007178D01*
X0050200Y0007316D01*
X0050179Y0007454D01*
X0050161Y0007593D01*
X0050147Y0007732D01*
X0050137Y0007871D01*
X0050131Y0008011D01*
X0050129Y0008151D01*
X0058278Y0015651D02*
X0058280Y0015735D01*
X0058286Y0015818D01*
X0058296Y0015901D01*
X0058310Y0015984D01*
X0058327Y0016066D01*
X0058349Y0016147D01*
X0058374Y0016226D01*
X0058403Y0016305D01*
X0058436Y0016382D01*
X0058472Y0016457D01*
X0058512Y0016531D01*
X0058555Y0016603D01*
X0058602Y0016672D01*
X0058652Y0016739D01*
X0058705Y0016804D01*
X0058761Y0016866D01*
X0058819Y0016926D01*
X0058881Y0016983D01*
X0058945Y0017036D01*
X0059012Y0017087D01*
X0059081Y0017134D01*
X0059152Y0017179D01*
X0059225Y0017219D01*
X0059300Y0017256D01*
X0059377Y0017290D01*
X0059455Y0017320D01*
X0059534Y0017346D01*
X0059615Y0017369D01*
X0059697Y0017387D01*
X0059779Y0017402D01*
X0059862Y0017413D01*
X0059945Y0017420D01*
X0060029Y0017423D01*
X0060113Y0017422D01*
X0060196Y0017417D01*
X0060280Y0017408D01*
X0060362Y0017395D01*
X0060444Y0017379D01*
X0060525Y0017358D01*
X0060606Y0017334D01*
X0060684Y0017306D01*
X0060762Y0017274D01*
X0060838Y0017238D01*
X0060912Y0017199D01*
X0060984Y0017157D01*
X0061054Y0017111D01*
X0061122Y0017062D01*
X0061187Y0017010D01*
X0061250Y0016955D01*
X0061310Y0016897D01*
X0061368Y0016836D01*
X0061422Y0016772D01*
X0061474Y0016706D01*
X0061522Y0016638D01*
X0061567Y0016567D01*
X0061608Y0016494D01*
X0061647Y0016420D01*
X0061681Y0016344D01*
X0061712Y0016266D01*
X0061739Y0016187D01*
X0061763Y0016106D01*
X0061782Y0016025D01*
X0061798Y0015943D01*
X0061810Y0015860D01*
X0061818Y0015776D01*
X0061822Y0015693D01*
X0061822Y0015609D01*
X0061818Y0015526D01*
X0061810Y0015442D01*
X0061798Y0015359D01*
X0061782Y0015277D01*
X0061763Y0015196D01*
X0061739Y0015115D01*
X0061712Y0015036D01*
X0061681Y0014958D01*
X0061647Y0014882D01*
X0061608Y0014808D01*
X0061567Y0014735D01*
X0061522Y0014664D01*
X0061474Y0014596D01*
X0061422Y0014530D01*
X0061368Y0014466D01*
X0061310Y0014405D01*
X0061250Y0014347D01*
X0061187Y0014292D01*
X0061122Y0014240D01*
X0061054Y0014191D01*
X0060984Y0014145D01*
X0060912Y0014103D01*
X0060838Y0014064D01*
X0060762Y0014028D01*
X0060684Y0013996D01*
X0060606Y0013968D01*
X0060525Y0013944D01*
X0060444Y0013923D01*
X0060362Y0013907D01*
X0060280Y0013894D01*
X0060196Y0013885D01*
X0060113Y0013880D01*
X0060029Y0013879D01*
X0059945Y0013882D01*
X0059862Y0013889D01*
X0059779Y0013900D01*
X0059697Y0013915D01*
X0059615Y0013933D01*
X0059534Y0013956D01*
X0059455Y0013982D01*
X0059377Y0014012D01*
X0059300Y0014046D01*
X0059225Y0014083D01*
X0059152Y0014123D01*
X0059081Y0014168D01*
X0059012Y0014215D01*
X0058945Y0014266D01*
X0058881Y0014319D01*
X0058819Y0014376D01*
X0058761Y0014436D01*
X0058705Y0014498D01*
X0058652Y0014563D01*
X0058602Y0014630D01*
X0058555Y0014699D01*
X0058512Y0014771D01*
X0058472Y0014845D01*
X0058436Y0014920D01*
X0058403Y0014997D01*
X0058374Y0015076D01*
X0058349Y0015155D01*
X0058327Y0015236D01*
X0058310Y0015318D01*
X0058296Y0015401D01*
X0058286Y0015484D01*
X0058280Y0015567D01*
X0058278Y0015651D01*
D12*
X0067238Y0092206D03*
X0067238Y0099096D03*
D13*
X0019802Y0088084D02*
X0019802Y0081210D01*
X0019802Y0088084D02*
X0023802Y0088084D01*
X0023802Y0081210D01*
X0019802Y0081210D01*
X0019802Y0082209D02*
X0023802Y0082209D01*
X0023802Y0083208D02*
X0019802Y0083208D01*
X0019802Y0084207D02*
X0023802Y0084207D01*
X0023802Y0085206D02*
X0019802Y0085206D01*
X0019802Y0086205D02*
X0023802Y0086205D01*
X0023802Y0087204D02*
X0019802Y0087204D01*
X0011928Y0088084D02*
X0011928Y0081210D01*
X0011928Y0088084D02*
X0015928Y0088084D01*
X0015928Y0081210D01*
X0011928Y0081210D01*
X0011928Y0082209D02*
X0015928Y0082209D01*
X0015928Y0083208D02*
X0011928Y0083208D01*
X0011928Y0084207D02*
X0015928Y0084207D01*
X0015928Y0085206D02*
X0011928Y0085206D01*
X0011928Y0086205D02*
X0015928Y0086205D01*
X0015928Y0087204D02*
X0011928Y0087204D01*
X0011928Y0025092D02*
X0011928Y0018218D01*
X0011928Y0025092D02*
X0015928Y0025092D01*
X0015928Y0018218D01*
X0011928Y0018218D01*
X0011928Y0019217D02*
X0015928Y0019217D01*
X0015928Y0020216D02*
X0011928Y0020216D01*
X0011928Y0021215D02*
X0015928Y0021215D01*
X0015928Y0022214D02*
X0011928Y0022214D01*
X0011928Y0023213D02*
X0015928Y0023213D01*
X0015928Y0024212D02*
X0011928Y0024212D01*
X0019802Y0025092D02*
X0019802Y0018218D01*
X0019802Y0025092D02*
X0023802Y0025092D01*
X0023802Y0018218D01*
X0019802Y0018218D01*
X0019802Y0019217D02*
X0023802Y0019217D01*
X0023802Y0020216D02*
X0019802Y0020216D01*
X0019802Y0021215D02*
X0023802Y0021215D01*
X0023802Y0022214D02*
X0019802Y0022214D01*
X0019802Y0023213D02*
X0023802Y0023213D01*
X0023802Y0024212D02*
X0019802Y0024212D01*
X0027676Y0025092D02*
X0027676Y0018218D01*
X0027676Y0025092D02*
X0031676Y0025092D01*
X0031676Y0018218D01*
X0027676Y0018218D01*
X0027676Y0019217D02*
X0031676Y0019217D01*
X0031676Y0020216D02*
X0027676Y0020216D01*
X0027676Y0021215D02*
X0031676Y0021215D01*
X0031676Y0022214D02*
X0027676Y0022214D01*
X0027676Y0023213D02*
X0031676Y0023213D01*
X0031676Y0024212D02*
X0027676Y0024212D01*
X0043424Y0025092D02*
X0043424Y0018218D01*
X0043424Y0025092D02*
X0047424Y0025092D01*
X0047424Y0018218D01*
X0043424Y0018218D01*
X0043424Y0019217D02*
X0047424Y0019217D01*
X0047424Y0020216D02*
X0043424Y0020216D01*
X0043424Y0021215D02*
X0047424Y0021215D01*
X0047424Y0022214D02*
X0043424Y0022214D01*
X0043424Y0023213D02*
X0047424Y0023213D01*
X0047424Y0024212D02*
X0043424Y0024212D01*
X0051298Y0025092D02*
X0051298Y0018218D01*
X0051298Y0025092D02*
X0055298Y0025092D01*
X0055298Y0018218D01*
X0051298Y0018218D01*
X0051298Y0019217D02*
X0055298Y0019217D01*
X0055298Y0020216D02*
X0051298Y0020216D01*
X0051298Y0021215D02*
X0055298Y0021215D01*
X0055298Y0022214D02*
X0051298Y0022214D01*
X0051298Y0023213D02*
X0055298Y0023213D01*
X0055298Y0024212D02*
X0051298Y0024212D01*
X0059172Y0025092D02*
X0059172Y0018218D01*
X0059172Y0025092D02*
X0063172Y0025092D01*
X0063172Y0018218D01*
X0059172Y0018218D01*
X0059172Y0019217D02*
X0063172Y0019217D01*
X0063172Y0020216D02*
X0059172Y0020216D01*
X0059172Y0021215D02*
X0063172Y0021215D01*
X0063172Y0022214D02*
X0059172Y0022214D01*
X0059172Y0023213D02*
X0063172Y0023213D01*
X0063172Y0024212D02*
X0059172Y0024212D01*
D14*
X0061881Y0091598D03*
X0061881Y0099079D03*
X0053219Y0095338D03*
D15*
X0058175Y0088151D03*
X0061612Y0081901D03*
X0067863Y0088151D03*
X0060050Y0099088D03*
X0050362Y0086588D03*
X0044425Y0086276D03*
X0038488Y0085963D03*
X0037550Y0080651D03*
X0035675Y0072213D03*
X0033488Y0067838D03*
X0032550Y0061276D03*
X0031300Y0055026D03*
X0034425Y0052526D03*
X0029425Y0044713D03*
X0027237Y0047838D03*
X0026300Y0063776D03*
X0019738Y0070026D03*
X0015987Y0066901D03*
X0011925Y0071901D03*
X0009425Y0056901D03*
X0013800Y0041901D03*
X0008175Y0036901D03*
X0006925Y0026901D03*
X0016613Y0027213D03*
X0019425Y0031901D03*
X0027237Y0030338D03*
X0035675Y0025026D03*
X0045362Y0019401D03*
X0053487Y0020026D03*
X0052550Y0040963D03*
X0054112Y0053776D03*
X0057862Y0056901D03*
X0061300Y0061901D03*
X0054112Y0075338D03*
X0045675Y0067213D03*
X0041613Y0067838D03*
X0039425Y0063151D03*
X0042550Y0056276D03*
X0046925Y0058151D03*
X0040675Y0041588D03*
X0026612Y0084401D03*
X0015050Y0091276D03*
X0015050Y0097838D03*
X0008175Y0095963D03*
D16*
X0008175Y0089713D01*
X0008488Y0089401D01*
X0008488Y0057838D01*
X0009425Y0056901D01*
X0015987Y0066901D02*
X0014425Y0068463D01*
X0014425Y0076588D01*
X0013800Y0077213D01*
X0013800Y0084519D01*
X0013928Y0084647D01*
X0010050Y0093776D02*
X0011300Y0095026D01*
X0011300Y0098776D01*
X0013175Y0100651D01*
X0021925Y0100651D01*
X0023800Y0098776D01*
X0023800Y0090338D01*
X0025675Y0088463D01*
X0039425Y0088463D01*
X0041300Y0086588D01*
X0041300Y0083463D01*
X0038488Y0080651D01*
X0037550Y0080651D01*
X0038488Y0085963D02*
X0028175Y0085963D01*
X0026612Y0084401D01*
X0021802Y0084647D02*
X0021802Y0076712D01*
X0029425Y0069713D01*
X0029425Y0056901D01*
X0031300Y0055026D01*
X0026300Y0055651D02*
X0033488Y0048463D01*
X0033488Y0040963D01*
X0024737Y0032213D01*
X0024737Y0027213D01*
X0025675Y0026276D01*
X0025675Y0023151D01*
X0026925Y0021901D01*
X0029430Y0021901D01*
X0029676Y0021655D01*
X0027237Y0030338D02*
X0027237Y0032213D01*
X0035363Y0040338D01*
X0035363Y0047213D01*
X0040363Y0052213D01*
X0044425Y0052213D01*
X0052550Y0044088D01*
X0052550Y0040963D01*
X0044425Y0052213D02*
X0046925Y0054713D01*
X0046925Y0058151D01*
X0042550Y0056276D02*
X0042550Y0066901D01*
X0041613Y0067838D01*
X0045675Y0067213D02*
X0055987Y0067213D01*
X0061300Y0061901D01*
X0063175Y0059401D02*
X0064425Y0060651D01*
X0064425Y0084401D01*
X0063175Y0085651D01*
X0051300Y0085651D01*
X0050362Y0086588D01*
X0051300Y0089088D02*
X0048800Y0089088D01*
X0047862Y0088151D01*
X0047862Y0085338D01*
X0037550Y0075026D01*
X0037550Y0074088D01*
X0035675Y0072213D01*
X0034425Y0063151D02*
X0032550Y0061276D01*
X0034425Y0063151D02*
X0039425Y0063151D01*
X0031612Y0047838D02*
X0023175Y0056276D01*
X0023175Y0066588D01*
X0019738Y0070026D01*
X0026300Y0063776D02*
X0026300Y0055651D01*
X0027237Y0047838D02*
X0021300Y0041901D01*
X0013800Y0041901D01*
X0019425Y0031901D02*
X0029425Y0041901D01*
X0029425Y0044713D01*
X0031612Y0041588D02*
X0031612Y0047838D01*
X0031612Y0041588D02*
X0021925Y0031901D01*
X0021925Y0030338D01*
X0020988Y0029401D01*
X0021802Y0028587D01*
X0021802Y0021655D01*
X0016613Y0027213D02*
X0014425Y0027213D01*
X0013928Y0026716D01*
X0013928Y0021655D01*
X0006925Y0026901D02*
X0009425Y0029401D01*
X0020988Y0029401D01*
X0038175Y0043776D02*
X0039425Y0042526D01*
X0054112Y0053776D02*
X0054112Y0056901D01*
X0056612Y0059401D01*
X0063175Y0059401D01*
X0063800Y0056901D02*
X0057862Y0056901D01*
X0063800Y0056901D02*
X0066300Y0059401D01*
X0066300Y0086588D01*
X0067863Y0088151D01*
X0067238Y0092206D02*
X0067238Y0094713D01*
X0066613Y0095338D01*
X0053219Y0095338D01*
X0053175Y0095294D01*
X0053175Y0090963D01*
X0051300Y0089088D01*
X0058175Y0088151D02*
X0061300Y0088151D01*
X0061925Y0088776D01*
X0061925Y0091554D01*
X0061881Y0091598D01*
X0061881Y0099079D02*
X0061898Y0099096D01*
X0060995Y0099408D01*
X0060050Y0099088D01*
X0061898Y0099096D02*
X0067238Y0099096D01*
X0053298Y0021655D02*
X0054927Y0020026D01*
X0053487Y0020026D01*
X0045424Y0019775D02*
X0045362Y0019401D01*
X0045424Y0019775D02*
X0045424Y0021655D01*
X0011925Y0071901D02*
X0010050Y0073776D01*
X0010050Y0093776D01*
D17*
X0028800Y0021655D02*
X0029676Y0021655D01*
D18*
X0005050Y0021901D03*
X0005050Y0031901D03*
X0005050Y0041901D03*
X0005050Y0051901D03*
X0005050Y0061901D03*
X0005050Y0071901D03*
X0005050Y0081901D03*
X0070050Y0081901D03*
X0070050Y0071901D03*
X0070050Y0061901D03*
X0070050Y0051901D03*
X0070050Y0041901D03*
X0070050Y0031901D03*
X0070050Y0021901D03*
M02*
