G75*
%MOIN*%
%OFA0B0*%
%FSLAX25Y25*%
%IPPOS*%
%LPD*%
%AMOC8*
5,1,8,0,0,1.08239X$1,22.5*
%
%ADD10C,0.00500*%
%ADD11C,0.00000*%
%ADD12C,0.00300*%
%ADD13C,0.00800*%
%ADD14C,0.00100*%
%ADD15C,0.00600*%
%ADD16C,0.01600*%
%ADD17R,0.01181X0.02362*%
%ADD18C,0.00400*%
%ADD19R,0.03150X0.01378*%
%ADD20R,0.02362X0.01181*%
%ADD21R,0.01800X0.02300*%
%ADD22R,0.01600X0.02800*%
%ADD23R,0.02800X0.01600*%
%ADD24R,0.01339X0.00827*%
%ADD25R,0.03150X0.01142*%
D10*
X0005050Y0016901D02*
X0005050Y0101862D01*
X0025050Y0101862D01*
X0025050Y0090026D01*
X0030675Y0090026D01*
X0030675Y0100221D01*
X0031652Y0101198D01*
X0043448Y0101198D01*
X0044425Y0100221D01*
X0044425Y0090026D01*
X0050050Y0090026D01*
X0050050Y0101901D01*
X0070001Y0101901D01*
X0070050Y0101862D01*
X0070050Y0101901D02*
X0070050Y0073151D01*
X0070001Y0016901D01*
X0062550Y0016901D01*
X0062550Y0008151D01*
X0062533Y0007969D01*
X0062511Y0007787D01*
X0062484Y0007605D01*
X0062454Y0007425D01*
X0062419Y0007245D01*
X0062379Y0007066D01*
X0062335Y0006888D01*
X0062287Y0006711D01*
X0062235Y0006535D01*
X0062178Y0006361D01*
X0062117Y0006188D01*
X0062052Y0006017D01*
X0061983Y0005847D01*
X0061909Y0005679D01*
X0061832Y0005513D01*
X0061750Y0005349D01*
X0061665Y0005187D01*
X0061576Y0005027D01*
X0061482Y0004869D01*
X0061385Y0004713D01*
X0061284Y0004560D01*
X0061180Y0004410D01*
X0061072Y0004262D01*
X0060960Y0004116D01*
X0060845Y0003974D01*
X0060726Y0003834D01*
X0060604Y0003698D01*
X0060479Y0003564D01*
X0060350Y0003433D01*
X0060219Y0003306D01*
X0060084Y0003181D01*
X0059946Y0003060D01*
X0059806Y0002943D01*
X0059662Y0002829D01*
X0059516Y0002718D01*
X0059367Y0002611D01*
X0059216Y0002508D01*
X0059062Y0002408D01*
X0058906Y0002313D01*
X0058747Y0002221D01*
X0058586Y0002133D01*
X0058424Y0002048D01*
X0058259Y0001968D01*
X0058092Y0001892D01*
X0057923Y0001820D01*
X0057753Y0001752D01*
X0057581Y0001689D01*
X0057408Y0001629D01*
X0057233Y0001574D01*
X0057057Y0001523D01*
X0056880Y0001476D01*
X0056702Y0001433D01*
X0056522Y0001395D01*
X0056342Y0001362D01*
X0056161Y0001333D01*
X0055980Y0001308D01*
X0055798Y0001287D01*
X0055615Y0001271D01*
X0055432Y0001260D01*
X0055249Y0001253D01*
X0055066Y0001250D01*
X0054883Y0001252D01*
X0054699Y0001258D01*
X0054516Y0001269D01*
X0054334Y0001284D01*
X0054152Y0001304D01*
X0053970Y0001328D01*
X0053789Y0001356D01*
X0053608Y0001389D01*
X0053429Y0001427D01*
X0053251Y0001468D01*
X0053073Y0001514D01*
X0052897Y0001565D01*
X0052722Y0001619D01*
X0052548Y0001678D01*
X0052376Y0001741D01*
X0052206Y0001808D01*
X0052037Y0001879D01*
X0051870Y0001955D01*
X0051705Y0002034D01*
X0051541Y0002118D01*
X0051380Y0002205D01*
X0051221Y0002297D01*
X0051065Y0002392D01*
X0050911Y0002491D01*
X0050759Y0002593D01*
X0050609Y0002700D01*
X0050463Y0002810D01*
X0050319Y0002923D01*
X0050178Y0003040D01*
X0050040Y0003160D01*
X0049904Y0003284D01*
X0049772Y0003411D01*
X0049643Y0003541D01*
X0049517Y0003674D01*
X0049395Y0003811D01*
X0049275Y0003950D01*
X0049159Y0004092D01*
X0049047Y0004237D01*
X0048938Y0004384D01*
X0048833Y0004534D01*
X0048732Y0004687D01*
X0048634Y0004842D01*
X0048540Y0004999D01*
X0048450Y0005159D01*
X0048364Y0005321D01*
X0048282Y0005485D01*
X0048204Y0005650D01*
X0048130Y0005818D01*
X0048060Y0005987D01*
X0047994Y0006158D01*
X0047932Y0006331D01*
X0047875Y0006505D01*
X0047822Y0006681D01*
X0047773Y0006857D01*
X0047728Y0007035D01*
X0047688Y0007214D01*
X0047652Y0007393D01*
X0047621Y0007574D01*
X0047594Y0007755D01*
X0047571Y0007937D01*
X0047553Y0008120D01*
X0047539Y0008302D01*
X0047530Y0008485D01*
X0047525Y0008669D01*
X0047524Y0008852D01*
X0047528Y0009035D01*
X0047537Y0009218D01*
X0047550Y0009401D01*
X0047550Y0016901D01*
X0027550Y0016901D01*
X0027550Y0009401D01*
X0027563Y0009217D01*
X0027572Y0009033D01*
X0027576Y0008848D01*
X0027575Y0008664D01*
X0027570Y0008480D01*
X0027561Y0008296D01*
X0027547Y0008112D01*
X0027528Y0007928D01*
X0027505Y0007745D01*
X0027478Y0007563D01*
X0027446Y0007381D01*
X0027409Y0007201D01*
X0027368Y0007021D01*
X0027323Y0006842D01*
X0027274Y0006664D01*
X0027220Y0006488D01*
X0027162Y0006313D01*
X0027099Y0006140D01*
X0027032Y0005968D01*
X0026961Y0005797D01*
X0026886Y0005629D01*
X0026807Y0005462D01*
X0026724Y0005298D01*
X0026637Y0005135D01*
X0026546Y0004975D01*
X0026451Y0004817D01*
X0026352Y0004661D01*
X0026249Y0004508D01*
X0026143Y0004358D01*
X0026032Y0004210D01*
X0025919Y0004065D01*
X0025802Y0003922D01*
X0025681Y0003783D01*
X0025557Y0003646D01*
X0025430Y0003513D01*
X0025299Y0003383D01*
X0025165Y0003256D01*
X0025029Y0003132D01*
X0024889Y0003012D01*
X0024746Y0002895D01*
X0024601Y0002782D01*
X0024452Y0002672D01*
X0024301Y0002566D01*
X0024148Y0002464D01*
X0023992Y0002365D01*
X0023834Y0002270D01*
X0023673Y0002180D01*
X0023511Y0002093D01*
X0023346Y0002010D01*
X0023179Y0001931D01*
X0023011Y0001857D01*
X0022840Y0001786D01*
X0022668Y0001720D01*
X0022494Y0001658D01*
X0022319Y0001600D01*
X0022143Y0001547D01*
X0021965Y0001498D01*
X0021786Y0001453D01*
X0021606Y0001413D01*
X0021425Y0001377D01*
X0021244Y0001345D01*
X0021061Y0001318D01*
X0020878Y0001296D01*
X0020695Y0001278D01*
X0020511Y0001264D01*
X0020327Y0001255D01*
X0020142Y0001251D01*
X0019958Y0001251D01*
X0019773Y0001255D01*
X0019589Y0001264D01*
X0019405Y0001278D01*
X0019222Y0001296D01*
X0019039Y0001318D01*
X0018856Y0001345D01*
X0018675Y0001377D01*
X0018494Y0001413D01*
X0018314Y0001453D01*
X0018135Y0001498D01*
X0017957Y0001547D01*
X0017781Y0001600D01*
X0017606Y0001658D01*
X0017432Y0001720D01*
X0017260Y0001786D01*
X0017089Y0001857D01*
X0016921Y0001931D01*
X0016754Y0002010D01*
X0016589Y0002093D01*
X0016427Y0002180D01*
X0016266Y0002270D01*
X0016108Y0002365D01*
X0015952Y0002464D01*
X0015799Y0002566D01*
X0015648Y0002672D01*
X0015499Y0002782D01*
X0015354Y0002895D01*
X0015211Y0003012D01*
X0015071Y0003132D01*
X0014935Y0003256D01*
X0014801Y0003383D01*
X0014670Y0003513D01*
X0014543Y0003646D01*
X0014419Y0003783D01*
X0014298Y0003922D01*
X0014181Y0004065D01*
X0014068Y0004210D01*
X0013957Y0004358D01*
X0013851Y0004508D01*
X0013748Y0004661D01*
X0013649Y0004817D01*
X0013554Y0004975D01*
X0013463Y0005135D01*
X0013376Y0005298D01*
X0013293Y0005462D01*
X0013214Y0005629D01*
X0013139Y0005797D01*
X0013068Y0005968D01*
X0013001Y0006140D01*
X0012938Y0006313D01*
X0012880Y0006488D01*
X0012826Y0006664D01*
X0012777Y0006842D01*
X0012732Y0007021D01*
X0012691Y0007201D01*
X0012654Y0007381D01*
X0012622Y0007563D01*
X0012595Y0007745D01*
X0012572Y0007928D01*
X0012553Y0008112D01*
X0012539Y0008296D01*
X0012530Y0008480D01*
X0012525Y0008664D01*
X0012524Y0008848D01*
X0012528Y0009033D01*
X0012537Y0009217D01*
X0012550Y0009401D01*
X0012550Y0016901D01*
X0005050Y0016901D01*
X0037550Y0042414D02*
X0018341Y0061623D01*
X0018063Y0061901D02*
X0037550Y0081388D01*
X0057037Y0061901D01*
X0037550Y0042414D01*
X0041888Y0036438D02*
X0043069Y0036438D01*
X0041888Y0036438D02*
X0041888Y0034864D01*
X0043069Y0034864D01*
X0043266Y0033092D02*
X0043266Y0038210D01*
X0049959Y0038210D01*
X0049959Y0033092D01*
X0043266Y0033092D01*
X0045038Y0033289D02*
X0045038Y0038013D01*
X0045431Y0038013D01*
X0045431Y0033289D01*
X0050156Y0034864D02*
X0051337Y0034864D01*
X0051337Y0036438D01*
X0050156Y0036438D01*
X0044440Y0090188D02*
X0044440Y0100228D01*
X0043456Y0101212D01*
X0031644Y0101212D01*
X0030660Y0100228D01*
X0030660Y0090188D01*
D11*
X0023278Y0015651D02*
X0023280Y0015735D01*
X0023286Y0015818D01*
X0023296Y0015901D01*
X0023310Y0015984D01*
X0023327Y0016066D01*
X0023349Y0016147D01*
X0023374Y0016226D01*
X0023403Y0016305D01*
X0023436Y0016382D01*
X0023472Y0016457D01*
X0023512Y0016531D01*
X0023555Y0016603D01*
X0023602Y0016672D01*
X0023652Y0016739D01*
X0023705Y0016804D01*
X0023761Y0016866D01*
X0023819Y0016926D01*
X0023881Y0016983D01*
X0023945Y0017036D01*
X0024012Y0017087D01*
X0024081Y0017134D01*
X0024152Y0017179D01*
X0024225Y0017219D01*
X0024300Y0017256D01*
X0024377Y0017290D01*
X0024455Y0017320D01*
X0024534Y0017346D01*
X0024615Y0017369D01*
X0024697Y0017387D01*
X0024779Y0017402D01*
X0024862Y0017413D01*
X0024945Y0017420D01*
X0025029Y0017423D01*
X0025113Y0017422D01*
X0025196Y0017417D01*
X0025280Y0017408D01*
X0025362Y0017395D01*
X0025444Y0017379D01*
X0025525Y0017358D01*
X0025606Y0017334D01*
X0025684Y0017306D01*
X0025762Y0017274D01*
X0025838Y0017238D01*
X0025912Y0017199D01*
X0025984Y0017157D01*
X0026054Y0017111D01*
X0026122Y0017062D01*
X0026187Y0017010D01*
X0026250Y0016955D01*
X0026310Y0016897D01*
X0026368Y0016836D01*
X0026422Y0016772D01*
X0026474Y0016706D01*
X0026522Y0016638D01*
X0026567Y0016567D01*
X0026608Y0016494D01*
X0026647Y0016420D01*
X0026681Y0016344D01*
X0026712Y0016266D01*
X0026739Y0016187D01*
X0026763Y0016106D01*
X0026782Y0016025D01*
X0026798Y0015943D01*
X0026810Y0015860D01*
X0026818Y0015776D01*
X0026822Y0015693D01*
X0026822Y0015609D01*
X0026818Y0015526D01*
X0026810Y0015442D01*
X0026798Y0015359D01*
X0026782Y0015277D01*
X0026763Y0015196D01*
X0026739Y0015115D01*
X0026712Y0015036D01*
X0026681Y0014958D01*
X0026647Y0014882D01*
X0026608Y0014808D01*
X0026567Y0014735D01*
X0026522Y0014664D01*
X0026474Y0014596D01*
X0026422Y0014530D01*
X0026368Y0014466D01*
X0026310Y0014405D01*
X0026250Y0014347D01*
X0026187Y0014292D01*
X0026122Y0014240D01*
X0026054Y0014191D01*
X0025984Y0014145D01*
X0025912Y0014103D01*
X0025838Y0014064D01*
X0025762Y0014028D01*
X0025684Y0013996D01*
X0025606Y0013968D01*
X0025525Y0013944D01*
X0025444Y0013923D01*
X0025362Y0013907D01*
X0025280Y0013894D01*
X0025196Y0013885D01*
X0025113Y0013880D01*
X0025029Y0013879D01*
X0024945Y0013882D01*
X0024862Y0013889D01*
X0024779Y0013900D01*
X0024697Y0013915D01*
X0024615Y0013933D01*
X0024534Y0013956D01*
X0024455Y0013982D01*
X0024377Y0014012D01*
X0024300Y0014046D01*
X0024225Y0014083D01*
X0024152Y0014123D01*
X0024081Y0014168D01*
X0024012Y0014215D01*
X0023945Y0014266D01*
X0023881Y0014319D01*
X0023819Y0014376D01*
X0023761Y0014436D01*
X0023705Y0014498D01*
X0023652Y0014563D01*
X0023602Y0014630D01*
X0023555Y0014699D01*
X0023512Y0014771D01*
X0023472Y0014845D01*
X0023436Y0014920D01*
X0023403Y0014997D01*
X0023374Y0015076D01*
X0023349Y0015155D01*
X0023327Y0015236D01*
X0023310Y0015318D01*
X0023296Y0015401D01*
X0023286Y0015484D01*
X0023280Y0015567D01*
X0023278Y0015651D01*
X0018278Y0015651D02*
X0018280Y0015735D01*
X0018286Y0015818D01*
X0018296Y0015901D01*
X0018310Y0015984D01*
X0018327Y0016066D01*
X0018349Y0016147D01*
X0018374Y0016226D01*
X0018403Y0016305D01*
X0018436Y0016382D01*
X0018472Y0016457D01*
X0018512Y0016531D01*
X0018555Y0016603D01*
X0018602Y0016672D01*
X0018652Y0016739D01*
X0018705Y0016804D01*
X0018761Y0016866D01*
X0018819Y0016926D01*
X0018881Y0016983D01*
X0018945Y0017036D01*
X0019012Y0017087D01*
X0019081Y0017134D01*
X0019152Y0017179D01*
X0019225Y0017219D01*
X0019300Y0017256D01*
X0019377Y0017290D01*
X0019455Y0017320D01*
X0019534Y0017346D01*
X0019615Y0017369D01*
X0019697Y0017387D01*
X0019779Y0017402D01*
X0019862Y0017413D01*
X0019945Y0017420D01*
X0020029Y0017423D01*
X0020113Y0017422D01*
X0020196Y0017417D01*
X0020280Y0017408D01*
X0020362Y0017395D01*
X0020444Y0017379D01*
X0020525Y0017358D01*
X0020606Y0017334D01*
X0020684Y0017306D01*
X0020762Y0017274D01*
X0020838Y0017238D01*
X0020912Y0017199D01*
X0020984Y0017157D01*
X0021054Y0017111D01*
X0021122Y0017062D01*
X0021187Y0017010D01*
X0021250Y0016955D01*
X0021310Y0016897D01*
X0021368Y0016836D01*
X0021422Y0016772D01*
X0021474Y0016706D01*
X0021522Y0016638D01*
X0021567Y0016567D01*
X0021608Y0016494D01*
X0021647Y0016420D01*
X0021681Y0016344D01*
X0021712Y0016266D01*
X0021739Y0016187D01*
X0021763Y0016106D01*
X0021782Y0016025D01*
X0021798Y0015943D01*
X0021810Y0015860D01*
X0021818Y0015776D01*
X0021822Y0015693D01*
X0021822Y0015609D01*
X0021818Y0015526D01*
X0021810Y0015442D01*
X0021798Y0015359D01*
X0021782Y0015277D01*
X0021763Y0015196D01*
X0021739Y0015115D01*
X0021712Y0015036D01*
X0021681Y0014958D01*
X0021647Y0014882D01*
X0021608Y0014808D01*
X0021567Y0014735D01*
X0021522Y0014664D01*
X0021474Y0014596D01*
X0021422Y0014530D01*
X0021368Y0014466D01*
X0021310Y0014405D01*
X0021250Y0014347D01*
X0021187Y0014292D01*
X0021122Y0014240D01*
X0021054Y0014191D01*
X0020984Y0014145D01*
X0020912Y0014103D01*
X0020838Y0014064D01*
X0020762Y0014028D01*
X0020684Y0013996D01*
X0020606Y0013968D01*
X0020525Y0013944D01*
X0020444Y0013923D01*
X0020362Y0013907D01*
X0020280Y0013894D01*
X0020196Y0013885D01*
X0020113Y0013880D01*
X0020029Y0013879D01*
X0019945Y0013882D01*
X0019862Y0013889D01*
X0019779Y0013900D01*
X0019697Y0013915D01*
X0019615Y0013933D01*
X0019534Y0013956D01*
X0019455Y0013982D01*
X0019377Y0014012D01*
X0019300Y0014046D01*
X0019225Y0014083D01*
X0019152Y0014123D01*
X0019081Y0014168D01*
X0019012Y0014215D01*
X0018945Y0014266D01*
X0018881Y0014319D01*
X0018819Y0014376D01*
X0018761Y0014436D01*
X0018705Y0014498D01*
X0018652Y0014563D01*
X0018602Y0014630D01*
X0018555Y0014699D01*
X0018512Y0014771D01*
X0018472Y0014845D01*
X0018436Y0014920D01*
X0018403Y0014997D01*
X0018374Y0015076D01*
X0018349Y0015155D01*
X0018327Y0015236D01*
X0018310Y0015318D01*
X0018296Y0015401D01*
X0018286Y0015484D01*
X0018280Y0015567D01*
X0018278Y0015651D01*
X0013278Y0015651D02*
X0013280Y0015735D01*
X0013286Y0015818D01*
X0013296Y0015901D01*
X0013310Y0015984D01*
X0013327Y0016066D01*
X0013349Y0016147D01*
X0013374Y0016226D01*
X0013403Y0016305D01*
X0013436Y0016382D01*
X0013472Y0016457D01*
X0013512Y0016531D01*
X0013555Y0016603D01*
X0013602Y0016672D01*
X0013652Y0016739D01*
X0013705Y0016804D01*
X0013761Y0016866D01*
X0013819Y0016926D01*
X0013881Y0016983D01*
X0013945Y0017036D01*
X0014012Y0017087D01*
X0014081Y0017134D01*
X0014152Y0017179D01*
X0014225Y0017219D01*
X0014300Y0017256D01*
X0014377Y0017290D01*
X0014455Y0017320D01*
X0014534Y0017346D01*
X0014615Y0017369D01*
X0014697Y0017387D01*
X0014779Y0017402D01*
X0014862Y0017413D01*
X0014945Y0017420D01*
X0015029Y0017423D01*
X0015113Y0017422D01*
X0015196Y0017417D01*
X0015280Y0017408D01*
X0015362Y0017395D01*
X0015444Y0017379D01*
X0015525Y0017358D01*
X0015606Y0017334D01*
X0015684Y0017306D01*
X0015762Y0017274D01*
X0015838Y0017238D01*
X0015912Y0017199D01*
X0015984Y0017157D01*
X0016054Y0017111D01*
X0016122Y0017062D01*
X0016187Y0017010D01*
X0016250Y0016955D01*
X0016310Y0016897D01*
X0016368Y0016836D01*
X0016422Y0016772D01*
X0016474Y0016706D01*
X0016522Y0016638D01*
X0016567Y0016567D01*
X0016608Y0016494D01*
X0016647Y0016420D01*
X0016681Y0016344D01*
X0016712Y0016266D01*
X0016739Y0016187D01*
X0016763Y0016106D01*
X0016782Y0016025D01*
X0016798Y0015943D01*
X0016810Y0015860D01*
X0016818Y0015776D01*
X0016822Y0015693D01*
X0016822Y0015609D01*
X0016818Y0015526D01*
X0016810Y0015442D01*
X0016798Y0015359D01*
X0016782Y0015277D01*
X0016763Y0015196D01*
X0016739Y0015115D01*
X0016712Y0015036D01*
X0016681Y0014958D01*
X0016647Y0014882D01*
X0016608Y0014808D01*
X0016567Y0014735D01*
X0016522Y0014664D01*
X0016474Y0014596D01*
X0016422Y0014530D01*
X0016368Y0014466D01*
X0016310Y0014405D01*
X0016250Y0014347D01*
X0016187Y0014292D01*
X0016122Y0014240D01*
X0016054Y0014191D01*
X0015984Y0014145D01*
X0015912Y0014103D01*
X0015838Y0014064D01*
X0015762Y0014028D01*
X0015684Y0013996D01*
X0015606Y0013968D01*
X0015525Y0013944D01*
X0015444Y0013923D01*
X0015362Y0013907D01*
X0015280Y0013894D01*
X0015196Y0013885D01*
X0015113Y0013880D01*
X0015029Y0013879D01*
X0014945Y0013882D01*
X0014862Y0013889D01*
X0014779Y0013900D01*
X0014697Y0013915D01*
X0014615Y0013933D01*
X0014534Y0013956D01*
X0014455Y0013982D01*
X0014377Y0014012D01*
X0014300Y0014046D01*
X0014225Y0014083D01*
X0014152Y0014123D01*
X0014081Y0014168D01*
X0014012Y0014215D01*
X0013945Y0014266D01*
X0013881Y0014319D01*
X0013819Y0014376D01*
X0013761Y0014436D01*
X0013705Y0014498D01*
X0013652Y0014563D01*
X0013602Y0014630D01*
X0013555Y0014699D01*
X0013512Y0014771D01*
X0013472Y0014845D01*
X0013436Y0014920D01*
X0013403Y0014997D01*
X0013374Y0015076D01*
X0013349Y0015155D01*
X0013327Y0015236D01*
X0013310Y0015318D01*
X0013296Y0015401D01*
X0013286Y0015484D01*
X0013280Y0015567D01*
X0013278Y0015651D01*
X0015129Y0008151D02*
X0015131Y0008291D01*
X0015137Y0008431D01*
X0015147Y0008570D01*
X0015161Y0008709D01*
X0015179Y0008848D01*
X0015200Y0008986D01*
X0015226Y0009124D01*
X0015256Y0009261D01*
X0015289Y0009396D01*
X0015327Y0009531D01*
X0015368Y0009665D01*
X0015413Y0009798D01*
X0015461Y0009929D01*
X0015514Y0010058D01*
X0015570Y0010187D01*
X0015629Y0010313D01*
X0015693Y0010438D01*
X0015759Y0010561D01*
X0015830Y0010682D01*
X0015903Y0010801D01*
X0015980Y0010918D01*
X0016061Y0011032D01*
X0016144Y0011144D01*
X0016231Y0011254D01*
X0016321Y0011362D01*
X0016413Y0011466D01*
X0016509Y0011568D01*
X0016608Y0011668D01*
X0016709Y0011764D01*
X0016813Y0011858D01*
X0016920Y0011948D01*
X0017029Y0012035D01*
X0017141Y0012120D01*
X0017255Y0012201D01*
X0017371Y0012279D01*
X0017489Y0012353D01*
X0017610Y0012424D01*
X0017732Y0012492D01*
X0017857Y0012556D01*
X0017983Y0012617D01*
X0018110Y0012674D01*
X0018240Y0012727D01*
X0018371Y0012777D01*
X0018503Y0012822D01*
X0018636Y0012865D01*
X0018771Y0012903D01*
X0018906Y0012937D01*
X0019043Y0012968D01*
X0019180Y0012995D01*
X0019318Y0013017D01*
X0019457Y0013036D01*
X0019596Y0013051D01*
X0019735Y0013062D01*
X0019875Y0013069D01*
X0020015Y0013072D01*
X0020155Y0013071D01*
X0020295Y0013066D01*
X0020434Y0013057D01*
X0020574Y0013044D01*
X0020713Y0013027D01*
X0020851Y0013006D01*
X0020989Y0012982D01*
X0021126Y0012953D01*
X0021262Y0012921D01*
X0021397Y0012884D01*
X0021531Y0012844D01*
X0021664Y0012800D01*
X0021795Y0012752D01*
X0021925Y0012701D01*
X0022054Y0012646D01*
X0022181Y0012587D01*
X0022306Y0012524D01*
X0022429Y0012459D01*
X0022551Y0012389D01*
X0022670Y0012316D01*
X0022788Y0012240D01*
X0022903Y0012161D01*
X0023016Y0012078D01*
X0023126Y0011992D01*
X0023234Y0011903D01*
X0023339Y0011811D01*
X0023442Y0011716D01*
X0023542Y0011618D01*
X0023639Y0011518D01*
X0023733Y0011414D01*
X0023825Y0011308D01*
X0023913Y0011200D01*
X0023998Y0011089D01*
X0024080Y0010975D01*
X0024159Y0010859D01*
X0024234Y0010742D01*
X0024306Y0010622D01*
X0024374Y0010500D01*
X0024439Y0010376D01*
X0024501Y0010250D01*
X0024559Y0010123D01*
X0024613Y0009994D01*
X0024664Y0009863D01*
X0024710Y0009731D01*
X0024753Y0009598D01*
X0024793Y0009464D01*
X0024828Y0009329D01*
X0024860Y0009192D01*
X0024887Y0009055D01*
X0024911Y0008917D01*
X0024931Y0008779D01*
X0024947Y0008640D01*
X0024959Y0008500D01*
X0024967Y0008361D01*
X0024971Y0008221D01*
X0024971Y0008081D01*
X0024967Y0007941D01*
X0024959Y0007802D01*
X0024947Y0007662D01*
X0024931Y0007523D01*
X0024911Y0007385D01*
X0024887Y0007247D01*
X0024860Y0007110D01*
X0024828Y0006973D01*
X0024793Y0006838D01*
X0024753Y0006704D01*
X0024710Y0006571D01*
X0024664Y0006439D01*
X0024613Y0006308D01*
X0024559Y0006179D01*
X0024501Y0006052D01*
X0024439Y0005926D01*
X0024374Y0005802D01*
X0024306Y0005680D01*
X0024234Y0005560D01*
X0024159Y0005443D01*
X0024080Y0005327D01*
X0023998Y0005213D01*
X0023913Y0005102D01*
X0023825Y0004994D01*
X0023733Y0004888D01*
X0023639Y0004784D01*
X0023542Y0004684D01*
X0023442Y0004586D01*
X0023339Y0004491D01*
X0023234Y0004399D01*
X0023126Y0004310D01*
X0023016Y0004224D01*
X0022903Y0004141D01*
X0022788Y0004062D01*
X0022670Y0003986D01*
X0022551Y0003913D01*
X0022429Y0003843D01*
X0022306Y0003778D01*
X0022181Y0003715D01*
X0022054Y0003656D01*
X0021925Y0003601D01*
X0021795Y0003550D01*
X0021664Y0003502D01*
X0021531Y0003458D01*
X0021397Y0003418D01*
X0021262Y0003381D01*
X0021126Y0003349D01*
X0020989Y0003320D01*
X0020851Y0003296D01*
X0020713Y0003275D01*
X0020574Y0003258D01*
X0020434Y0003245D01*
X0020295Y0003236D01*
X0020155Y0003231D01*
X0020015Y0003230D01*
X0019875Y0003233D01*
X0019735Y0003240D01*
X0019596Y0003251D01*
X0019457Y0003266D01*
X0019318Y0003285D01*
X0019180Y0003307D01*
X0019043Y0003334D01*
X0018906Y0003365D01*
X0018771Y0003399D01*
X0018636Y0003437D01*
X0018503Y0003480D01*
X0018371Y0003525D01*
X0018240Y0003575D01*
X0018110Y0003628D01*
X0017983Y0003685D01*
X0017857Y0003746D01*
X0017732Y0003810D01*
X0017610Y0003878D01*
X0017489Y0003949D01*
X0017371Y0004023D01*
X0017255Y0004101D01*
X0017141Y0004182D01*
X0017029Y0004267D01*
X0016920Y0004354D01*
X0016813Y0004444D01*
X0016709Y0004538D01*
X0016608Y0004634D01*
X0016509Y0004734D01*
X0016413Y0004836D01*
X0016321Y0004940D01*
X0016231Y0005048D01*
X0016144Y0005158D01*
X0016061Y0005270D01*
X0015980Y0005384D01*
X0015903Y0005501D01*
X0015830Y0005620D01*
X0015759Y0005741D01*
X0015693Y0005864D01*
X0015629Y0005989D01*
X0015570Y0006115D01*
X0015514Y0006244D01*
X0015461Y0006373D01*
X0015413Y0006504D01*
X0015368Y0006637D01*
X0015327Y0006771D01*
X0015289Y0006906D01*
X0015256Y0007041D01*
X0015226Y0007178D01*
X0015200Y0007316D01*
X0015179Y0007454D01*
X0015161Y0007593D01*
X0015147Y0007732D01*
X0015137Y0007871D01*
X0015131Y0008011D01*
X0015129Y0008151D01*
X0048278Y0015651D02*
X0048280Y0015735D01*
X0048286Y0015818D01*
X0048296Y0015901D01*
X0048310Y0015984D01*
X0048327Y0016066D01*
X0048349Y0016147D01*
X0048374Y0016226D01*
X0048403Y0016305D01*
X0048436Y0016382D01*
X0048472Y0016457D01*
X0048512Y0016531D01*
X0048555Y0016603D01*
X0048602Y0016672D01*
X0048652Y0016739D01*
X0048705Y0016804D01*
X0048761Y0016866D01*
X0048819Y0016926D01*
X0048881Y0016983D01*
X0048945Y0017036D01*
X0049012Y0017087D01*
X0049081Y0017134D01*
X0049152Y0017179D01*
X0049225Y0017219D01*
X0049300Y0017256D01*
X0049377Y0017290D01*
X0049455Y0017320D01*
X0049534Y0017346D01*
X0049615Y0017369D01*
X0049697Y0017387D01*
X0049779Y0017402D01*
X0049862Y0017413D01*
X0049945Y0017420D01*
X0050029Y0017423D01*
X0050113Y0017422D01*
X0050196Y0017417D01*
X0050280Y0017408D01*
X0050362Y0017395D01*
X0050444Y0017379D01*
X0050525Y0017358D01*
X0050606Y0017334D01*
X0050684Y0017306D01*
X0050762Y0017274D01*
X0050838Y0017238D01*
X0050912Y0017199D01*
X0050984Y0017157D01*
X0051054Y0017111D01*
X0051122Y0017062D01*
X0051187Y0017010D01*
X0051250Y0016955D01*
X0051310Y0016897D01*
X0051368Y0016836D01*
X0051422Y0016772D01*
X0051474Y0016706D01*
X0051522Y0016638D01*
X0051567Y0016567D01*
X0051608Y0016494D01*
X0051647Y0016420D01*
X0051681Y0016344D01*
X0051712Y0016266D01*
X0051739Y0016187D01*
X0051763Y0016106D01*
X0051782Y0016025D01*
X0051798Y0015943D01*
X0051810Y0015860D01*
X0051818Y0015776D01*
X0051822Y0015693D01*
X0051822Y0015609D01*
X0051818Y0015526D01*
X0051810Y0015442D01*
X0051798Y0015359D01*
X0051782Y0015277D01*
X0051763Y0015196D01*
X0051739Y0015115D01*
X0051712Y0015036D01*
X0051681Y0014958D01*
X0051647Y0014882D01*
X0051608Y0014808D01*
X0051567Y0014735D01*
X0051522Y0014664D01*
X0051474Y0014596D01*
X0051422Y0014530D01*
X0051368Y0014466D01*
X0051310Y0014405D01*
X0051250Y0014347D01*
X0051187Y0014292D01*
X0051122Y0014240D01*
X0051054Y0014191D01*
X0050984Y0014145D01*
X0050912Y0014103D01*
X0050838Y0014064D01*
X0050762Y0014028D01*
X0050684Y0013996D01*
X0050606Y0013968D01*
X0050525Y0013944D01*
X0050444Y0013923D01*
X0050362Y0013907D01*
X0050280Y0013894D01*
X0050196Y0013885D01*
X0050113Y0013880D01*
X0050029Y0013879D01*
X0049945Y0013882D01*
X0049862Y0013889D01*
X0049779Y0013900D01*
X0049697Y0013915D01*
X0049615Y0013933D01*
X0049534Y0013956D01*
X0049455Y0013982D01*
X0049377Y0014012D01*
X0049300Y0014046D01*
X0049225Y0014083D01*
X0049152Y0014123D01*
X0049081Y0014168D01*
X0049012Y0014215D01*
X0048945Y0014266D01*
X0048881Y0014319D01*
X0048819Y0014376D01*
X0048761Y0014436D01*
X0048705Y0014498D01*
X0048652Y0014563D01*
X0048602Y0014630D01*
X0048555Y0014699D01*
X0048512Y0014771D01*
X0048472Y0014845D01*
X0048436Y0014920D01*
X0048403Y0014997D01*
X0048374Y0015076D01*
X0048349Y0015155D01*
X0048327Y0015236D01*
X0048310Y0015318D01*
X0048296Y0015401D01*
X0048286Y0015484D01*
X0048280Y0015567D01*
X0048278Y0015651D01*
X0053278Y0015651D02*
X0053280Y0015735D01*
X0053286Y0015818D01*
X0053296Y0015901D01*
X0053310Y0015984D01*
X0053327Y0016066D01*
X0053349Y0016147D01*
X0053374Y0016226D01*
X0053403Y0016305D01*
X0053436Y0016382D01*
X0053472Y0016457D01*
X0053512Y0016531D01*
X0053555Y0016603D01*
X0053602Y0016672D01*
X0053652Y0016739D01*
X0053705Y0016804D01*
X0053761Y0016866D01*
X0053819Y0016926D01*
X0053881Y0016983D01*
X0053945Y0017036D01*
X0054012Y0017087D01*
X0054081Y0017134D01*
X0054152Y0017179D01*
X0054225Y0017219D01*
X0054300Y0017256D01*
X0054377Y0017290D01*
X0054455Y0017320D01*
X0054534Y0017346D01*
X0054615Y0017369D01*
X0054697Y0017387D01*
X0054779Y0017402D01*
X0054862Y0017413D01*
X0054945Y0017420D01*
X0055029Y0017423D01*
X0055113Y0017422D01*
X0055196Y0017417D01*
X0055280Y0017408D01*
X0055362Y0017395D01*
X0055444Y0017379D01*
X0055525Y0017358D01*
X0055606Y0017334D01*
X0055684Y0017306D01*
X0055762Y0017274D01*
X0055838Y0017238D01*
X0055912Y0017199D01*
X0055984Y0017157D01*
X0056054Y0017111D01*
X0056122Y0017062D01*
X0056187Y0017010D01*
X0056250Y0016955D01*
X0056310Y0016897D01*
X0056368Y0016836D01*
X0056422Y0016772D01*
X0056474Y0016706D01*
X0056522Y0016638D01*
X0056567Y0016567D01*
X0056608Y0016494D01*
X0056647Y0016420D01*
X0056681Y0016344D01*
X0056712Y0016266D01*
X0056739Y0016187D01*
X0056763Y0016106D01*
X0056782Y0016025D01*
X0056798Y0015943D01*
X0056810Y0015860D01*
X0056818Y0015776D01*
X0056822Y0015693D01*
X0056822Y0015609D01*
X0056818Y0015526D01*
X0056810Y0015442D01*
X0056798Y0015359D01*
X0056782Y0015277D01*
X0056763Y0015196D01*
X0056739Y0015115D01*
X0056712Y0015036D01*
X0056681Y0014958D01*
X0056647Y0014882D01*
X0056608Y0014808D01*
X0056567Y0014735D01*
X0056522Y0014664D01*
X0056474Y0014596D01*
X0056422Y0014530D01*
X0056368Y0014466D01*
X0056310Y0014405D01*
X0056250Y0014347D01*
X0056187Y0014292D01*
X0056122Y0014240D01*
X0056054Y0014191D01*
X0055984Y0014145D01*
X0055912Y0014103D01*
X0055838Y0014064D01*
X0055762Y0014028D01*
X0055684Y0013996D01*
X0055606Y0013968D01*
X0055525Y0013944D01*
X0055444Y0013923D01*
X0055362Y0013907D01*
X0055280Y0013894D01*
X0055196Y0013885D01*
X0055113Y0013880D01*
X0055029Y0013879D01*
X0054945Y0013882D01*
X0054862Y0013889D01*
X0054779Y0013900D01*
X0054697Y0013915D01*
X0054615Y0013933D01*
X0054534Y0013956D01*
X0054455Y0013982D01*
X0054377Y0014012D01*
X0054300Y0014046D01*
X0054225Y0014083D01*
X0054152Y0014123D01*
X0054081Y0014168D01*
X0054012Y0014215D01*
X0053945Y0014266D01*
X0053881Y0014319D01*
X0053819Y0014376D01*
X0053761Y0014436D01*
X0053705Y0014498D01*
X0053652Y0014563D01*
X0053602Y0014630D01*
X0053555Y0014699D01*
X0053512Y0014771D01*
X0053472Y0014845D01*
X0053436Y0014920D01*
X0053403Y0014997D01*
X0053374Y0015076D01*
X0053349Y0015155D01*
X0053327Y0015236D01*
X0053310Y0015318D01*
X0053296Y0015401D01*
X0053286Y0015484D01*
X0053280Y0015567D01*
X0053278Y0015651D01*
X0050129Y0008151D02*
X0050131Y0008291D01*
X0050137Y0008431D01*
X0050147Y0008570D01*
X0050161Y0008709D01*
X0050179Y0008848D01*
X0050200Y0008986D01*
X0050226Y0009124D01*
X0050256Y0009261D01*
X0050289Y0009396D01*
X0050327Y0009531D01*
X0050368Y0009665D01*
X0050413Y0009798D01*
X0050461Y0009929D01*
X0050514Y0010058D01*
X0050570Y0010187D01*
X0050629Y0010313D01*
X0050693Y0010438D01*
X0050759Y0010561D01*
X0050830Y0010682D01*
X0050903Y0010801D01*
X0050980Y0010918D01*
X0051061Y0011032D01*
X0051144Y0011144D01*
X0051231Y0011254D01*
X0051321Y0011362D01*
X0051413Y0011466D01*
X0051509Y0011568D01*
X0051608Y0011668D01*
X0051709Y0011764D01*
X0051813Y0011858D01*
X0051920Y0011948D01*
X0052029Y0012035D01*
X0052141Y0012120D01*
X0052255Y0012201D01*
X0052371Y0012279D01*
X0052489Y0012353D01*
X0052610Y0012424D01*
X0052732Y0012492D01*
X0052857Y0012556D01*
X0052983Y0012617D01*
X0053110Y0012674D01*
X0053240Y0012727D01*
X0053371Y0012777D01*
X0053503Y0012822D01*
X0053636Y0012865D01*
X0053771Y0012903D01*
X0053906Y0012937D01*
X0054043Y0012968D01*
X0054180Y0012995D01*
X0054318Y0013017D01*
X0054457Y0013036D01*
X0054596Y0013051D01*
X0054735Y0013062D01*
X0054875Y0013069D01*
X0055015Y0013072D01*
X0055155Y0013071D01*
X0055295Y0013066D01*
X0055434Y0013057D01*
X0055574Y0013044D01*
X0055713Y0013027D01*
X0055851Y0013006D01*
X0055989Y0012982D01*
X0056126Y0012953D01*
X0056262Y0012921D01*
X0056397Y0012884D01*
X0056531Y0012844D01*
X0056664Y0012800D01*
X0056795Y0012752D01*
X0056925Y0012701D01*
X0057054Y0012646D01*
X0057181Y0012587D01*
X0057306Y0012524D01*
X0057429Y0012459D01*
X0057551Y0012389D01*
X0057670Y0012316D01*
X0057788Y0012240D01*
X0057903Y0012161D01*
X0058016Y0012078D01*
X0058126Y0011992D01*
X0058234Y0011903D01*
X0058339Y0011811D01*
X0058442Y0011716D01*
X0058542Y0011618D01*
X0058639Y0011518D01*
X0058733Y0011414D01*
X0058825Y0011308D01*
X0058913Y0011200D01*
X0058998Y0011089D01*
X0059080Y0010975D01*
X0059159Y0010859D01*
X0059234Y0010742D01*
X0059306Y0010622D01*
X0059374Y0010500D01*
X0059439Y0010376D01*
X0059501Y0010250D01*
X0059559Y0010123D01*
X0059613Y0009994D01*
X0059664Y0009863D01*
X0059710Y0009731D01*
X0059753Y0009598D01*
X0059793Y0009464D01*
X0059828Y0009329D01*
X0059860Y0009192D01*
X0059887Y0009055D01*
X0059911Y0008917D01*
X0059931Y0008779D01*
X0059947Y0008640D01*
X0059959Y0008500D01*
X0059967Y0008361D01*
X0059971Y0008221D01*
X0059971Y0008081D01*
X0059967Y0007941D01*
X0059959Y0007802D01*
X0059947Y0007662D01*
X0059931Y0007523D01*
X0059911Y0007385D01*
X0059887Y0007247D01*
X0059860Y0007110D01*
X0059828Y0006973D01*
X0059793Y0006838D01*
X0059753Y0006704D01*
X0059710Y0006571D01*
X0059664Y0006439D01*
X0059613Y0006308D01*
X0059559Y0006179D01*
X0059501Y0006052D01*
X0059439Y0005926D01*
X0059374Y0005802D01*
X0059306Y0005680D01*
X0059234Y0005560D01*
X0059159Y0005443D01*
X0059080Y0005327D01*
X0058998Y0005213D01*
X0058913Y0005102D01*
X0058825Y0004994D01*
X0058733Y0004888D01*
X0058639Y0004784D01*
X0058542Y0004684D01*
X0058442Y0004586D01*
X0058339Y0004491D01*
X0058234Y0004399D01*
X0058126Y0004310D01*
X0058016Y0004224D01*
X0057903Y0004141D01*
X0057788Y0004062D01*
X0057670Y0003986D01*
X0057551Y0003913D01*
X0057429Y0003843D01*
X0057306Y0003778D01*
X0057181Y0003715D01*
X0057054Y0003656D01*
X0056925Y0003601D01*
X0056795Y0003550D01*
X0056664Y0003502D01*
X0056531Y0003458D01*
X0056397Y0003418D01*
X0056262Y0003381D01*
X0056126Y0003349D01*
X0055989Y0003320D01*
X0055851Y0003296D01*
X0055713Y0003275D01*
X0055574Y0003258D01*
X0055434Y0003245D01*
X0055295Y0003236D01*
X0055155Y0003231D01*
X0055015Y0003230D01*
X0054875Y0003233D01*
X0054735Y0003240D01*
X0054596Y0003251D01*
X0054457Y0003266D01*
X0054318Y0003285D01*
X0054180Y0003307D01*
X0054043Y0003334D01*
X0053906Y0003365D01*
X0053771Y0003399D01*
X0053636Y0003437D01*
X0053503Y0003480D01*
X0053371Y0003525D01*
X0053240Y0003575D01*
X0053110Y0003628D01*
X0052983Y0003685D01*
X0052857Y0003746D01*
X0052732Y0003810D01*
X0052610Y0003878D01*
X0052489Y0003949D01*
X0052371Y0004023D01*
X0052255Y0004101D01*
X0052141Y0004182D01*
X0052029Y0004267D01*
X0051920Y0004354D01*
X0051813Y0004444D01*
X0051709Y0004538D01*
X0051608Y0004634D01*
X0051509Y0004734D01*
X0051413Y0004836D01*
X0051321Y0004940D01*
X0051231Y0005048D01*
X0051144Y0005158D01*
X0051061Y0005270D01*
X0050980Y0005384D01*
X0050903Y0005501D01*
X0050830Y0005620D01*
X0050759Y0005741D01*
X0050693Y0005864D01*
X0050629Y0005989D01*
X0050570Y0006115D01*
X0050514Y0006244D01*
X0050461Y0006373D01*
X0050413Y0006504D01*
X0050368Y0006637D01*
X0050327Y0006771D01*
X0050289Y0006906D01*
X0050256Y0007041D01*
X0050226Y0007178D01*
X0050200Y0007316D01*
X0050179Y0007454D01*
X0050161Y0007593D01*
X0050147Y0007732D01*
X0050137Y0007871D01*
X0050131Y0008011D01*
X0050129Y0008151D01*
X0058278Y0015651D02*
X0058280Y0015735D01*
X0058286Y0015818D01*
X0058296Y0015901D01*
X0058310Y0015984D01*
X0058327Y0016066D01*
X0058349Y0016147D01*
X0058374Y0016226D01*
X0058403Y0016305D01*
X0058436Y0016382D01*
X0058472Y0016457D01*
X0058512Y0016531D01*
X0058555Y0016603D01*
X0058602Y0016672D01*
X0058652Y0016739D01*
X0058705Y0016804D01*
X0058761Y0016866D01*
X0058819Y0016926D01*
X0058881Y0016983D01*
X0058945Y0017036D01*
X0059012Y0017087D01*
X0059081Y0017134D01*
X0059152Y0017179D01*
X0059225Y0017219D01*
X0059300Y0017256D01*
X0059377Y0017290D01*
X0059455Y0017320D01*
X0059534Y0017346D01*
X0059615Y0017369D01*
X0059697Y0017387D01*
X0059779Y0017402D01*
X0059862Y0017413D01*
X0059945Y0017420D01*
X0060029Y0017423D01*
X0060113Y0017422D01*
X0060196Y0017417D01*
X0060280Y0017408D01*
X0060362Y0017395D01*
X0060444Y0017379D01*
X0060525Y0017358D01*
X0060606Y0017334D01*
X0060684Y0017306D01*
X0060762Y0017274D01*
X0060838Y0017238D01*
X0060912Y0017199D01*
X0060984Y0017157D01*
X0061054Y0017111D01*
X0061122Y0017062D01*
X0061187Y0017010D01*
X0061250Y0016955D01*
X0061310Y0016897D01*
X0061368Y0016836D01*
X0061422Y0016772D01*
X0061474Y0016706D01*
X0061522Y0016638D01*
X0061567Y0016567D01*
X0061608Y0016494D01*
X0061647Y0016420D01*
X0061681Y0016344D01*
X0061712Y0016266D01*
X0061739Y0016187D01*
X0061763Y0016106D01*
X0061782Y0016025D01*
X0061798Y0015943D01*
X0061810Y0015860D01*
X0061818Y0015776D01*
X0061822Y0015693D01*
X0061822Y0015609D01*
X0061818Y0015526D01*
X0061810Y0015442D01*
X0061798Y0015359D01*
X0061782Y0015277D01*
X0061763Y0015196D01*
X0061739Y0015115D01*
X0061712Y0015036D01*
X0061681Y0014958D01*
X0061647Y0014882D01*
X0061608Y0014808D01*
X0061567Y0014735D01*
X0061522Y0014664D01*
X0061474Y0014596D01*
X0061422Y0014530D01*
X0061368Y0014466D01*
X0061310Y0014405D01*
X0061250Y0014347D01*
X0061187Y0014292D01*
X0061122Y0014240D01*
X0061054Y0014191D01*
X0060984Y0014145D01*
X0060912Y0014103D01*
X0060838Y0014064D01*
X0060762Y0014028D01*
X0060684Y0013996D01*
X0060606Y0013968D01*
X0060525Y0013944D01*
X0060444Y0013923D01*
X0060362Y0013907D01*
X0060280Y0013894D01*
X0060196Y0013885D01*
X0060113Y0013880D01*
X0060029Y0013879D01*
X0059945Y0013882D01*
X0059862Y0013889D01*
X0059779Y0013900D01*
X0059697Y0013915D01*
X0059615Y0013933D01*
X0059534Y0013956D01*
X0059455Y0013982D01*
X0059377Y0014012D01*
X0059300Y0014046D01*
X0059225Y0014083D01*
X0059152Y0014123D01*
X0059081Y0014168D01*
X0059012Y0014215D01*
X0058945Y0014266D01*
X0058881Y0014319D01*
X0058819Y0014376D01*
X0058761Y0014436D01*
X0058705Y0014498D01*
X0058652Y0014563D01*
X0058602Y0014630D01*
X0058555Y0014699D01*
X0058512Y0014771D01*
X0058472Y0014845D01*
X0058436Y0014920D01*
X0058403Y0014997D01*
X0058374Y0015076D01*
X0058349Y0015155D01*
X0058327Y0015236D01*
X0058310Y0015318D01*
X0058296Y0015401D01*
X0058286Y0015484D01*
X0058280Y0015567D01*
X0058278Y0015651D01*
D12*
X0057941Y0018976D02*
X0059876Y0018976D01*
X0058908Y0018976D02*
X0058908Y0021878D01*
X0057941Y0020911D01*
X0056929Y0021395D02*
X0056929Y0019460D01*
X0056446Y0018976D01*
X0055478Y0018976D01*
X0054994Y0019460D01*
X0054994Y0021395D01*
X0055478Y0021878D01*
X0056446Y0021878D01*
X0056929Y0021395D01*
X0055962Y0019943D02*
X0056929Y0018976D01*
X0061829Y0024551D02*
X0063681Y0024551D01*
X0064298Y0025168D01*
X0064298Y0027637D01*
X0063681Y0028254D01*
X0061829Y0028254D01*
X0061829Y0024551D01*
X0064329Y0024551D02*
X0066798Y0024551D01*
X0066204Y0024551D02*
X0068673Y0027020D01*
X0068673Y0027637D01*
X0068056Y0028254D01*
X0066822Y0028254D01*
X0066204Y0027637D01*
X0065564Y0028254D02*
X0065564Y0024551D01*
X0066204Y0024551D02*
X0068673Y0024551D01*
X0065564Y0028254D02*
X0064329Y0027020D01*
X0063704Y0034551D02*
X0065556Y0034551D01*
X0066173Y0035168D01*
X0066173Y0037637D01*
X0065556Y0038254D01*
X0063704Y0038254D01*
X0063704Y0034551D01*
X0066204Y0035168D02*
X0066822Y0034551D01*
X0068056Y0034551D01*
X0068673Y0035168D01*
X0068673Y0035785D01*
X0068056Y0036403D01*
X0066204Y0036403D01*
X0066204Y0035168D01*
X0066204Y0036403D02*
X0067439Y0037637D01*
X0068673Y0038254D01*
X0068056Y0044551D02*
X0066822Y0044551D01*
X0066204Y0045168D01*
X0066204Y0045785D01*
X0066822Y0046403D01*
X0068056Y0046403D01*
X0068673Y0045785D01*
X0068673Y0045168D01*
X0068056Y0044551D01*
X0068056Y0046403D02*
X0068673Y0047020D01*
X0068673Y0047637D01*
X0068056Y0048254D01*
X0066822Y0048254D01*
X0066204Y0047637D01*
X0066204Y0047020D01*
X0066822Y0046403D01*
X0066173Y0047637D02*
X0066173Y0045168D01*
X0065556Y0044551D01*
X0063704Y0044551D01*
X0063704Y0048254D01*
X0065556Y0048254D01*
X0066173Y0047637D01*
X0065556Y0054551D02*
X0063704Y0054551D01*
X0063704Y0058254D01*
X0065556Y0058254D01*
X0066173Y0057637D01*
X0066173Y0055168D01*
X0065556Y0054551D01*
X0066204Y0055168D02*
X0066822Y0054551D01*
X0068056Y0054551D01*
X0068673Y0055168D01*
X0068673Y0057637D01*
X0068056Y0058254D01*
X0066822Y0058254D01*
X0066204Y0057637D01*
X0066204Y0057020D01*
X0066822Y0056403D01*
X0068673Y0056403D01*
X0068056Y0064551D02*
X0066822Y0064551D01*
X0066204Y0065168D01*
X0066173Y0064551D02*
X0066173Y0067020D01*
X0064939Y0068254D01*
X0063704Y0067020D01*
X0063704Y0064551D01*
X0063343Y0065384D02*
X0061408Y0065384D01*
X0062375Y0065384D02*
X0062375Y0068286D01*
X0061408Y0067319D01*
X0060396Y0067802D02*
X0059912Y0068286D01*
X0058945Y0068286D01*
X0058461Y0067802D01*
X0058461Y0065867D01*
X0058945Y0065384D01*
X0059912Y0065384D01*
X0060396Y0065867D01*
X0063704Y0066403D02*
X0066173Y0066403D01*
X0066204Y0067637D02*
X0066822Y0068254D01*
X0068056Y0068254D01*
X0068673Y0067637D01*
X0068673Y0067020D01*
X0068056Y0066403D01*
X0068673Y0065785D01*
X0068673Y0065168D01*
X0068056Y0064551D01*
X0068056Y0066403D02*
X0067439Y0066403D01*
X0068056Y0074551D02*
X0068056Y0078254D01*
X0066204Y0076403D01*
X0068673Y0076403D01*
X0066173Y0076403D02*
X0063704Y0076403D01*
X0063704Y0077020D02*
X0064939Y0078254D01*
X0066173Y0077020D01*
X0066173Y0074551D01*
X0063704Y0074551D02*
X0063704Y0077020D01*
X0063392Y0084551D02*
X0063392Y0088254D01*
X0065861Y0084551D01*
X0065861Y0088254D01*
X0066204Y0088254D02*
X0068056Y0088254D01*
X0068673Y0087637D01*
X0068673Y0085168D01*
X0068056Y0084551D01*
X0066204Y0084551D01*
X0066204Y0088254D01*
X0065992Y0088601D02*
X0065024Y0089568D01*
X0065508Y0089568D02*
X0064057Y0089568D01*
X0064057Y0088601D02*
X0064057Y0091503D01*
X0065508Y0091503D01*
X0065992Y0091020D01*
X0065992Y0090052D01*
X0065508Y0089568D01*
X0067003Y0089085D02*
X0067487Y0088601D01*
X0068455Y0088601D01*
X0068938Y0089085D01*
X0068938Y0089568D01*
X0068455Y0090052D01*
X0067003Y0090052D01*
X0067003Y0089085D01*
X0067003Y0090052D02*
X0067971Y0091020D01*
X0068938Y0091503D01*
X0062736Y0087637D02*
X0062118Y0088254D01*
X0060884Y0088254D01*
X0060267Y0087637D01*
X0060267Y0085168D01*
X0060884Y0084551D01*
X0062118Y0084551D01*
X0062736Y0085168D01*
X0062736Y0086403D01*
X0061501Y0086403D01*
X0061837Y0089801D02*
X0058935Y0089801D01*
X0058935Y0091252D01*
X0059419Y0091736D01*
X0061354Y0091736D01*
X0061837Y0091252D01*
X0061837Y0089801D01*
X0061837Y0092748D02*
X0061837Y0094682D01*
X0061162Y0094970D02*
X0061162Y0096422D01*
X0060679Y0096905D01*
X0058744Y0096905D01*
X0058260Y0096422D01*
X0058260Y0094970D01*
X0061162Y0094970D01*
X0061837Y0093715D02*
X0058935Y0093715D01*
X0059903Y0092748D01*
X0060679Y0097917D02*
X0061162Y0098401D01*
X0061162Y0099368D01*
X0060679Y0099852D01*
X0060195Y0099852D01*
X0059711Y0099368D01*
X0059711Y0098884D01*
X0059711Y0099368D02*
X0059228Y0099852D01*
X0058744Y0099852D01*
X0058260Y0099368D01*
X0058260Y0098401D01*
X0058744Y0097917D01*
X0055188Y0092753D02*
X0053253Y0092753D01*
X0053253Y0091302D01*
X0054221Y0091786D01*
X0054705Y0091786D01*
X0055188Y0091302D01*
X0055188Y0090335D01*
X0054705Y0089851D01*
X0053737Y0089851D01*
X0053253Y0090335D01*
X0052242Y0089851D02*
X0051274Y0090818D01*
X0051758Y0090818D02*
X0050307Y0090818D01*
X0050307Y0089851D02*
X0050307Y0092753D01*
X0051758Y0092753D01*
X0052242Y0092270D01*
X0052242Y0091302D01*
X0051758Y0090818D01*
X0050726Y0088375D02*
X0049759Y0087891D01*
X0048791Y0086924D01*
X0050243Y0086924D01*
X0050726Y0086440D01*
X0050726Y0085956D01*
X0050243Y0085473D01*
X0049275Y0085473D01*
X0048791Y0085956D01*
X0048791Y0086924D01*
X0047780Y0087891D02*
X0047296Y0088375D01*
X0046329Y0088375D01*
X0045845Y0087891D01*
X0045845Y0085956D01*
X0046329Y0085473D01*
X0047296Y0085473D01*
X0047780Y0085956D01*
X0047938Y0084859D02*
X0047938Y0084375D01*
X0046003Y0082440D01*
X0046003Y0081956D01*
X0044992Y0082440D02*
X0044508Y0081956D01*
X0043541Y0081956D01*
X0043057Y0082440D01*
X0043057Y0084375D01*
X0043541Y0084859D01*
X0044508Y0084859D01*
X0044992Y0084375D01*
X0046003Y0084859D02*
X0047938Y0084859D01*
X0050557Y0079566D02*
X0052008Y0079566D01*
X0052492Y0079082D01*
X0052492Y0077147D01*
X0052008Y0076663D01*
X0050557Y0076663D01*
X0050557Y0079566D01*
X0053503Y0079566D02*
X0053503Y0078115D01*
X0054471Y0078598D01*
X0054955Y0078598D01*
X0055438Y0078115D01*
X0055438Y0077147D01*
X0054955Y0076663D01*
X0053987Y0076663D01*
X0053503Y0077147D01*
X0053503Y0079566D02*
X0055438Y0079566D01*
X0041549Y0086895D02*
X0039614Y0086895D01*
X0041066Y0088347D01*
X0041066Y0085444D01*
X0038603Y0085444D02*
X0037635Y0086412D01*
X0038119Y0086412D02*
X0036668Y0086412D01*
X0036668Y0085444D02*
X0036668Y0088347D01*
X0038119Y0088347D01*
X0038603Y0087863D01*
X0038603Y0086895D01*
X0038119Y0086412D01*
X0025031Y0084744D02*
X0023096Y0084744D01*
X0024064Y0084744D02*
X0024064Y0087647D01*
X0023096Y0086679D01*
X0022085Y0087163D02*
X0022085Y0086195D01*
X0021601Y0085712D01*
X0020150Y0085712D01*
X0020150Y0084744D02*
X0020150Y0087647D01*
X0021601Y0087647D01*
X0022085Y0087163D01*
X0021117Y0085712D02*
X0022085Y0084744D01*
X0016731Y0085168D02*
X0016114Y0084551D01*
X0014880Y0084551D01*
X0014262Y0085168D01*
X0013606Y0085168D02*
X0013606Y0088254D01*
X0014262Y0087637D02*
X0014262Y0087020D01*
X0014880Y0086403D01*
X0016114Y0086403D01*
X0016731Y0085785D01*
X0016731Y0085168D01*
X0016731Y0087637D02*
X0016114Y0088254D01*
X0014880Y0088254D01*
X0014262Y0087637D01*
X0013606Y0085168D02*
X0012989Y0084551D01*
X0011755Y0084551D01*
X0011137Y0085168D01*
X0011137Y0088254D01*
X0011106Y0087637D02*
X0011106Y0087020D01*
X0010489Y0086403D01*
X0008638Y0086403D01*
X0007981Y0085785D02*
X0007981Y0088254D01*
X0008638Y0088254D02*
X0010489Y0088254D01*
X0011106Y0087637D01*
X0010489Y0086403D02*
X0011106Y0085785D01*
X0011106Y0085168D01*
X0010489Y0084551D01*
X0008638Y0084551D01*
X0008638Y0088254D01*
X0007981Y0085785D02*
X0006747Y0084551D01*
X0005512Y0085785D01*
X0005512Y0088254D01*
X0005512Y0078254D02*
X0007364Y0078254D01*
X0007981Y0077637D01*
X0007981Y0075168D01*
X0007364Y0074551D01*
X0005512Y0074551D01*
X0005512Y0078254D01*
X0008950Y0078254D02*
X0011419Y0078254D01*
X0011419Y0077637D01*
X0008950Y0075168D01*
X0008950Y0074551D01*
X0009559Y0068254D02*
X0009559Y0064551D01*
X0009888Y0064551D02*
X0012356Y0064551D01*
X0011122Y0064551D02*
X0011122Y0068254D01*
X0009888Y0067020D01*
X0009559Y0068254D02*
X0008325Y0067020D01*
X0007981Y0067637D02*
X0007364Y0068254D01*
X0005512Y0068254D01*
X0005512Y0064551D01*
X0007364Y0064551D01*
X0007981Y0065168D01*
X0007981Y0067637D01*
X0008325Y0064551D02*
X0010794Y0064551D01*
X0007981Y0058254D02*
X0007981Y0055785D01*
X0006747Y0054551D01*
X0005512Y0055785D01*
X0005512Y0058254D01*
X0008012Y0056403D02*
X0008012Y0055168D01*
X0008630Y0054551D01*
X0010481Y0054551D01*
X0010192Y0054551D02*
X0012044Y0054551D01*
X0010192Y0054551D02*
X0009575Y0055168D01*
X0009575Y0056403D01*
X0010192Y0057020D01*
X0012044Y0057020D01*
X0010481Y0057020D02*
X0008630Y0057020D01*
X0008012Y0056403D01*
X0007364Y0048254D02*
X0005512Y0048254D01*
X0005512Y0044551D01*
X0007364Y0044551D01*
X0007981Y0045168D01*
X0007981Y0047637D01*
X0007364Y0048254D01*
X0008638Y0047637D02*
X0009255Y0048254D01*
X0010489Y0048254D01*
X0011106Y0047637D01*
X0011106Y0047020D01*
X0008638Y0044551D01*
X0011106Y0044551D01*
X0011106Y0038254D02*
X0008638Y0034551D01*
X0007981Y0034551D02*
X0006747Y0035785D01*
X0007364Y0035785D02*
X0005512Y0035785D01*
X0005512Y0034551D02*
X0005512Y0038254D01*
X0007364Y0038254D01*
X0007981Y0037637D01*
X0007981Y0036403D01*
X0007364Y0035785D01*
X0008638Y0038254D02*
X0011106Y0034551D01*
X0010481Y0028254D02*
X0008012Y0024551D01*
X0006747Y0024551D02*
X0006747Y0028254D01*
X0007981Y0028254D02*
X0005512Y0028254D01*
X0008012Y0028254D02*
X0010481Y0024551D01*
X0024228Y0045476D02*
X0025196Y0045476D01*
X0025679Y0045960D01*
X0026691Y0045960D02*
X0027175Y0045476D01*
X0028142Y0045476D01*
X0028626Y0045960D01*
X0028626Y0047895D01*
X0028142Y0048378D01*
X0027175Y0048378D01*
X0026691Y0047895D01*
X0026691Y0047411D01*
X0027175Y0046927D01*
X0028626Y0046927D01*
X0025679Y0047895D02*
X0025196Y0048378D01*
X0024228Y0048378D01*
X0023744Y0047895D01*
X0023744Y0045960D01*
X0024228Y0045476D01*
X0023598Y0050738D02*
X0022630Y0050738D01*
X0022147Y0051222D01*
X0021135Y0050738D02*
X0020167Y0051706D01*
X0020651Y0051706D02*
X0019200Y0051706D01*
X0019200Y0050738D02*
X0019200Y0053641D01*
X0020651Y0053641D01*
X0021135Y0053157D01*
X0021135Y0052190D01*
X0020651Y0051706D01*
X0022147Y0053157D02*
X0022630Y0053641D01*
X0023598Y0053641D01*
X0024081Y0053157D01*
X0024081Y0052673D01*
X0023598Y0052190D01*
X0024081Y0051706D01*
X0024081Y0051222D01*
X0023598Y0050738D01*
X0023598Y0052190D02*
X0023114Y0052190D01*
X0022951Y0069283D02*
X0021984Y0069283D01*
X0021500Y0069767D01*
X0023435Y0071702D01*
X0023435Y0069767D01*
X0022951Y0069283D01*
X0021500Y0069767D02*
X0021500Y0071702D01*
X0021984Y0072185D01*
X0022951Y0072185D01*
X0023435Y0071702D01*
X0020489Y0069283D02*
X0018554Y0069283D01*
X0019521Y0069283D02*
X0019521Y0072185D01*
X0018554Y0071218D01*
X0017542Y0071702D02*
X0017058Y0072185D01*
X0016091Y0072185D01*
X0015607Y0071702D01*
X0015607Y0069767D01*
X0016091Y0069283D01*
X0017058Y0069283D01*
X0017542Y0069767D01*
X0037326Y0040711D02*
X0038777Y0040711D01*
X0039261Y0040228D01*
X0039261Y0038293D01*
X0038777Y0037809D01*
X0037326Y0037809D01*
X0037326Y0040711D01*
X0040273Y0040228D02*
X0040756Y0040711D01*
X0041724Y0040711D01*
X0042208Y0040228D01*
X0042208Y0039744D01*
X0040273Y0037809D01*
X0042208Y0037809D01*
X0043057Y0043038D02*
X0043057Y0045941D01*
X0044508Y0045941D01*
X0044992Y0045457D01*
X0044992Y0044490D01*
X0044508Y0044006D01*
X0043057Y0044006D01*
X0044024Y0044006D02*
X0044992Y0043038D01*
X0046003Y0043038D02*
X0047938Y0044973D01*
X0047938Y0045457D01*
X0047455Y0045941D01*
X0046487Y0045941D01*
X0046003Y0045457D01*
X0046003Y0043038D02*
X0047938Y0043038D01*
X0049101Y0048484D02*
X0050068Y0048484D01*
X0050552Y0048968D01*
X0050552Y0051387D01*
X0051564Y0050419D02*
X0052531Y0051387D01*
X0052531Y0048484D01*
X0051564Y0048484D02*
X0053499Y0048484D01*
X0055660Y0047659D02*
X0056761Y0048760D01*
X0058962Y0048760D01*
X0058962Y0049873D02*
X0058962Y0050974D01*
X0058962Y0050424D02*
X0055660Y0050424D01*
X0055660Y0049873D01*
X0055660Y0047659D02*
X0056761Y0046558D01*
X0058962Y0046558D01*
X0058962Y0045445D02*
X0057311Y0045445D01*
X0056761Y0044895D01*
X0056761Y0043244D01*
X0058962Y0043244D01*
X0058962Y0041580D02*
X0058962Y0040479D01*
X0058412Y0039929D01*
X0057311Y0039929D01*
X0056761Y0040479D01*
X0056761Y0041580D01*
X0057311Y0042131D01*
X0057861Y0042131D01*
X0057861Y0039929D01*
X0057311Y0038816D02*
X0056761Y0038265D01*
X0056761Y0036614D01*
X0060063Y0036614D01*
X0058962Y0036614D02*
X0058962Y0038265D01*
X0058412Y0038816D01*
X0057311Y0038816D01*
X0056210Y0035501D02*
X0055660Y0034951D01*
X0055660Y0033850D01*
X0056210Y0033299D01*
X0058412Y0033299D01*
X0058962Y0033850D01*
X0058962Y0034951D01*
X0058412Y0035501D01*
X0056210Y0035501D01*
X0057311Y0046558D02*
X0057311Y0048760D01*
X0058412Y0052083D02*
X0057861Y0052634D01*
X0057861Y0054285D01*
X0057311Y0054285D02*
X0058962Y0054285D01*
X0058962Y0052634D01*
X0058412Y0052083D01*
X0056761Y0052634D02*
X0056761Y0053735D01*
X0057311Y0054285D01*
X0056761Y0055398D02*
X0058962Y0055398D01*
X0057861Y0055398D02*
X0056761Y0056499D01*
X0056761Y0057049D01*
X0056761Y0058160D02*
X0056761Y0058711D01*
X0057311Y0059261D01*
X0056761Y0059812D01*
X0057311Y0060362D01*
X0058962Y0060362D01*
X0058962Y0059261D02*
X0057311Y0059261D01*
X0056761Y0058160D02*
X0058962Y0058160D01*
X0049101Y0048484D02*
X0048617Y0048968D01*
X0048617Y0051387D01*
X0036267Y0030250D02*
X0035300Y0030250D01*
X0034816Y0029766D01*
X0034816Y0029282D01*
X0035300Y0028798D01*
X0036267Y0028798D01*
X0036751Y0028315D01*
X0036751Y0027831D01*
X0036267Y0027347D01*
X0035300Y0027347D01*
X0034816Y0027831D01*
X0034816Y0028315D01*
X0035300Y0028798D01*
X0036267Y0028798D02*
X0036751Y0029282D01*
X0036751Y0029766D01*
X0036267Y0030250D01*
X0033804Y0029766D02*
X0033321Y0030250D01*
X0032353Y0030250D01*
X0031869Y0029766D01*
X0031869Y0027831D01*
X0032353Y0027347D01*
X0033321Y0027347D01*
X0033804Y0027831D01*
X0034010Y0023078D02*
X0034010Y0022595D01*
X0033042Y0021627D01*
X0033042Y0020176D01*
X0033042Y0021627D02*
X0032075Y0022595D01*
X0032075Y0023078D01*
X0035022Y0022111D02*
X0035989Y0023078D01*
X0035989Y0020176D01*
X0035022Y0020176D02*
X0036956Y0020176D01*
X0041738Y0020154D02*
X0041738Y0018219D01*
X0042222Y0017735D01*
X0043189Y0017735D01*
X0043673Y0018219D01*
X0044684Y0017735D02*
X0046619Y0019670D01*
X0046619Y0020154D01*
X0046136Y0020638D01*
X0045168Y0020638D01*
X0044684Y0020154D01*
X0043673Y0020154D02*
X0043189Y0020638D01*
X0042222Y0020638D01*
X0041738Y0020154D01*
X0044684Y0017735D02*
X0046619Y0017735D01*
D13*
X0031349Y0028914D02*
X0031349Y0033638D01*
X0026231Y0041119D02*
X0023869Y0041119D01*
X0018751Y0033638D02*
X0018751Y0028914D01*
X0023869Y0021433D02*
X0026231Y0021433D01*
X0037550Y0042414D02*
X0038664Y0043527D01*
X0037550Y0042414D02*
X0036436Y0043527D01*
X0019176Y0060787D02*
X0018063Y0061901D01*
X0019176Y0063015D01*
X0036158Y0079996D02*
X0038942Y0079996D01*
X0035728Y0076588D02*
X0035730Y0076673D01*
X0035736Y0076757D01*
X0035746Y0076842D01*
X0035759Y0076925D01*
X0035777Y0077008D01*
X0035799Y0077090D01*
X0035824Y0077171D01*
X0035853Y0077251D01*
X0035886Y0077329D01*
X0035922Y0077406D01*
X0035962Y0077481D01*
X0036005Y0077554D01*
X0036051Y0077624D01*
X0036101Y0077693D01*
X0036154Y0077759D01*
X0036210Y0077823D01*
X0036269Y0077884D01*
X0036331Y0077942D01*
X0036395Y0077997D01*
X0036462Y0078049D01*
X0036531Y0078099D01*
X0036603Y0078144D01*
X0036676Y0078187D01*
X0036751Y0078226D01*
X0036828Y0078261D01*
X0036907Y0078293D01*
X0036987Y0078321D01*
X0037068Y0078345D01*
X0037150Y0078366D01*
X0037234Y0078382D01*
X0037317Y0078395D01*
X0037402Y0078404D01*
X0037486Y0078409D01*
X0037571Y0078410D01*
X0037656Y0078407D01*
X0037740Y0078400D01*
X0037825Y0078389D01*
X0037908Y0078374D01*
X0037991Y0078356D01*
X0038073Y0078333D01*
X0038153Y0078307D01*
X0038233Y0078277D01*
X0038310Y0078244D01*
X0038387Y0078207D01*
X0038461Y0078166D01*
X0038533Y0078122D01*
X0038604Y0078074D01*
X0038672Y0078024D01*
X0038737Y0077970D01*
X0038800Y0077913D01*
X0038861Y0077854D01*
X0038918Y0077791D01*
X0038973Y0077726D01*
X0039024Y0077659D01*
X0039072Y0077589D01*
X0039117Y0077517D01*
X0039159Y0077443D01*
X0039197Y0077368D01*
X0039231Y0077290D01*
X0039262Y0077211D01*
X0039289Y0077131D01*
X0039313Y0077049D01*
X0039332Y0076967D01*
X0039348Y0076883D01*
X0039360Y0076800D01*
X0039368Y0076715D01*
X0039372Y0076630D01*
X0039372Y0076546D01*
X0039368Y0076461D01*
X0039360Y0076376D01*
X0039348Y0076293D01*
X0039332Y0076209D01*
X0039313Y0076127D01*
X0039289Y0076045D01*
X0039262Y0075965D01*
X0039231Y0075886D01*
X0039197Y0075808D01*
X0039159Y0075733D01*
X0039117Y0075659D01*
X0039072Y0075587D01*
X0039024Y0075517D01*
X0038973Y0075450D01*
X0038918Y0075385D01*
X0038861Y0075322D01*
X0038800Y0075263D01*
X0038737Y0075206D01*
X0038672Y0075152D01*
X0038604Y0075102D01*
X0038533Y0075054D01*
X0038461Y0075010D01*
X0038387Y0074969D01*
X0038310Y0074932D01*
X0038233Y0074899D01*
X0038153Y0074869D01*
X0038073Y0074843D01*
X0037991Y0074820D01*
X0037908Y0074802D01*
X0037825Y0074787D01*
X0037740Y0074776D01*
X0037656Y0074769D01*
X0037571Y0074766D01*
X0037486Y0074767D01*
X0037402Y0074772D01*
X0037317Y0074781D01*
X0037234Y0074794D01*
X0037150Y0074810D01*
X0037068Y0074831D01*
X0036987Y0074855D01*
X0036907Y0074883D01*
X0036828Y0074915D01*
X0036751Y0074950D01*
X0036676Y0074989D01*
X0036603Y0075032D01*
X0036531Y0075077D01*
X0036462Y0075127D01*
X0036395Y0075179D01*
X0036331Y0075234D01*
X0036269Y0075292D01*
X0036210Y0075353D01*
X0036154Y0075417D01*
X0036101Y0075483D01*
X0036051Y0075552D01*
X0036005Y0075622D01*
X0035962Y0075695D01*
X0035922Y0075770D01*
X0035886Y0075847D01*
X0035853Y0075925D01*
X0035824Y0076005D01*
X0035799Y0076086D01*
X0035777Y0076168D01*
X0035759Y0076251D01*
X0035746Y0076334D01*
X0035736Y0076419D01*
X0035730Y0076503D01*
X0035728Y0076588D01*
X0054489Y0095607D02*
X0056300Y0095607D01*
X0055380Y0096827D01*
X0056300Y0095607D02*
X0058111Y0095607D01*
X0057160Y0096827D02*
X0056400Y0095667D01*
X0061989Y0095607D02*
X0063800Y0095607D01*
X0062880Y0096827D01*
X0063800Y0095607D02*
X0065611Y0095607D01*
X0064660Y0096827D02*
X0063900Y0095667D01*
X0055924Y0063015D02*
X0057037Y0061901D01*
X0055924Y0060787D01*
D14*
X0043238Y0088355D02*
X0042254Y0088355D01*
X0042008Y0088601D01*
X0042008Y0089093D01*
X0042254Y0089339D01*
X0042746Y0089339D02*
X0042746Y0088847D01*
X0042746Y0089339D02*
X0043238Y0089339D01*
X0043484Y0089093D01*
X0043484Y0088601D01*
X0043238Y0088355D01*
X0040975Y0089027D02*
X0039974Y0089027D01*
X0039974Y0089277D01*
X0040224Y0089527D01*
X0039974Y0089777D01*
X0040224Y0090027D01*
X0040975Y0090027D01*
X0040975Y0090500D02*
X0040975Y0091000D01*
X0040975Y0090750D02*
X0039974Y0090750D01*
X0039974Y0090500D01*
X0039474Y0090750D02*
X0039224Y0090750D01*
X0039974Y0091732D02*
X0040224Y0091482D01*
X0040725Y0091482D01*
X0040975Y0091732D01*
X0040975Y0092483D01*
X0040975Y0092955D02*
X0039974Y0092955D01*
X0039974Y0092483D02*
X0039974Y0091732D01*
X0040475Y0092955D02*
X0039974Y0093456D01*
X0039974Y0093706D01*
X0040224Y0094183D02*
X0040725Y0094183D01*
X0040975Y0094433D01*
X0040975Y0094934D01*
X0040725Y0095184D01*
X0040224Y0095184D01*
X0039974Y0094934D01*
X0039974Y0094433D01*
X0040224Y0094183D01*
X0039974Y0095656D02*
X0040725Y0095656D01*
X0040975Y0095906D01*
X0040975Y0096657D01*
X0039974Y0096657D01*
X0040224Y0097129D02*
X0039974Y0097380D01*
X0039974Y0098130D01*
X0039974Y0098603D02*
X0039974Y0099353D01*
X0040224Y0099604D01*
X0040725Y0099604D01*
X0040975Y0099353D01*
X0040975Y0098603D01*
X0039474Y0098603D01*
X0040475Y0097880D02*
X0040475Y0097380D01*
X0040224Y0097129D01*
X0040975Y0097129D02*
X0040975Y0097880D01*
X0040725Y0098130D01*
X0040475Y0097880D01*
X0040224Y0089527D02*
X0040975Y0089527D01*
X0038120Y0088847D02*
X0037136Y0088847D01*
X0037628Y0088355D02*
X0037628Y0089339D01*
X0034872Y0089339D02*
X0034872Y0088355D01*
X0032972Y0088887D02*
X0032480Y0089379D01*
X0031496Y0089379D01*
X0031496Y0088395D02*
X0032480Y0088395D01*
X0032972Y0088887D01*
D15*
X0032296Y0085082D02*
X0030932Y0083718D01*
X0032179Y0082470D02*
X0033543Y0083834D01*
X0027293Y0080280D02*
X0025929Y0081644D01*
X0024682Y0080397D02*
X0026046Y0079033D01*
X0022918Y0076218D02*
X0021554Y0077582D01*
X0020307Y0076334D02*
X0021671Y0074970D01*
X0018119Y0055991D02*
X0018119Y0054061D01*
X0016356Y0054061D02*
X0016356Y0055991D01*
X0018773Y0047783D02*
X0020702Y0047783D01*
X0020702Y0046019D02*
X0018773Y0046019D01*
X0033543Y0035678D02*
X0033543Y0033749D01*
X0035307Y0033749D02*
X0035307Y0035678D01*
X0046273Y0040082D02*
X0048202Y0040082D01*
X0048202Y0041845D02*
X0046273Y0041845D01*
X0046637Y0028251D02*
X0057837Y0028251D01*
X0057837Y0023051D01*
X0046637Y0023051D01*
X0046637Y0028251D01*
X0055418Y0069374D02*
X0055418Y0071303D01*
X0057182Y0071303D02*
X0057182Y0069374D01*
X0047804Y0079033D02*
X0049168Y0080397D01*
X0047921Y0081644D02*
X0046557Y0080280D01*
X0051356Y0095936D02*
X0051356Y0097866D01*
X0053119Y0097866D02*
X0053119Y0095936D01*
X0066981Y0095936D02*
X0066981Y0097866D01*
X0068744Y0097866D02*
X0068744Y0095936D01*
D16*
X0056420Y0070338D02*
X0056180Y0070338D01*
X0047947Y0080254D02*
X0047778Y0080423D01*
X0021697Y0076361D02*
X0021528Y0076191D01*
X0019738Y0047021D02*
X0019738Y0046781D01*
X0034305Y0034713D02*
X0034545Y0034713D01*
D17*
X0045628Y0040983D03*
X0048828Y0040983D03*
G36*
X0022320Y0073872D02*
X0021485Y0074707D01*
X0023154Y0076376D01*
X0023989Y0075541D01*
X0022320Y0073872D01*
G37*
G36*
X0020057Y0076135D02*
X0019222Y0076970D01*
X0020891Y0078639D01*
X0021726Y0077804D01*
X0020057Y0076135D01*
G37*
G36*
X0025280Y0082742D02*
X0026115Y0081907D01*
X0024446Y0080238D01*
X0023611Y0081073D01*
X0025280Y0082742D01*
G37*
G36*
X0027543Y0080479D02*
X0028378Y0079644D01*
X0026709Y0077975D01*
X0025874Y0078810D01*
X0027543Y0080479D01*
G37*
G36*
X0032378Y0082221D02*
X0031543Y0081386D01*
X0029874Y0083055D01*
X0030709Y0083890D01*
X0032378Y0082221D01*
G37*
G36*
X0034641Y0084484D02*
X0033806Y0083649D01*
X0032137Y0085318D01*
X0032972Y0086153D01*
X0034641Y0084484D01*
G37*
G36*
X0045459Y0079631D02*
X0046294Y0080466D01*
X0047963Y0078797D01*
X0047128Y0077962D01*
X0045459Y0079631D01*
G37*
G36*
X0047722Y0081894D02*
X0048557Y0082729D01*
X0050226Y0081060D01*
X0049391Y0080225D01*
X0047722Y0081894D01*
G37*
X0021328Y0046920D03*
X0018128Y0046920D03*
D18*
X0042110Y0029443D02*
X0042110Y0023734D01*
X0044865Y0023734D02*
X0044865Y0029443D01*
X0056600Y0076141D02*
X0059750Y0076141D01*
X0059750Y0080786D01*
X0056600Y0080786D01*
X0056600Y0076141D01*
X0055490Y0081859D02*
X0055490Y0087568D01*
X0052735Y0087568D02*
X0052735Y0081859D01*
D19*
X0054112Y0082253D03*
X0054112Y0087174D03*
X0043487Y0029049D03*
X0043487Y0024128D03*
D20*
X0034444Y0033123D03*
X0034444Y0036323D03*
X0017218Y0053417D03*
X0017218Y0056617D03*
X0052257Y0095310D03*
X0052257Y0098510D03*
X0067882Y0098510D03*
X0067882Y0095310D03*
X0056281Y0071929D03*
X0056281Y0068729D03*
D21*
X0055937Y0029601D03*
X0052237Y0021701D03*
X0048537Y0029601D03*
D22*
G36*
X0026411Y0081893D02*
X0027542Y0080762D01*
X0025563Y0078783D01*
X0024432Y0079914D01*
X0026411Y0081893D01*
G37*
G36*
X0033792Y0083352D02*
X0032661Y0082221D01*
X0030682Y0084200D01*
X0031813Y0085331D01*
X0033792Y0083352D01*
G37*
D23*
X0052237Y0096901D03*
X0067863Y0096901D03*
X0017238Y0055026D03*
D24*
X0058175Y0075924D03*
X0058175Y0081003D03*
D25*
X0058175Y0076712D03*
M02*
