G75*
%MOIN*%
%OFA0B0*%
%FSLAX25Y25*%
%IPPOS*%
%LPD*%
%AMOC8*
5,1,8,0,0,1.08239X$1,22.5*
%
%ADD10C,0.00500*%
%ADD11C,0.00000*%
%ADD12R,0.02756X0.03543*%
%ADD13R,0.04252X0.04134*%
%ADD14R,0.03543X0.02756*%
%ADD15R,0.03150X0.03150*%
%ADD16R,0.03937X0.03150*%
%ADD17R,0.10000X0.05000*%
%ADD18R,0.03937X0.05512*%
%ADD19R,0.03150X0.01181*%
%ADD20R,0.04331X0.07480*%
%ADD21R,0.01378X0.11024*%
%ADD22R,0.01378X0.10236*%
%ADD23R,0.01969X0.02756*%
%ADD24C,0.03150*%
%ADD25R,0.05000X0.10000*%
%ADD26C,0.00800*%
%ADD27C,0.02400*%
%ADD28C,0.00600*%
%ADD29C,0.04724*%
D10*
X0005050Y0016901D02*
X0005050Y0101862D01*
X0025050Y0101862D01*
X0025050Y0090026D01*
X0030675Y0090026D01*
X0030675Y0100221D01*
X0031652Y0101198D01*
X0043448Y0101198D01*
X0044425Y0100221D01*
X0044425Y0090026D01*
X0050050Y0090026D01*
X0050050Y0101901D01*
X0070001Y0101901D01*
X0070050Y0101862D01*
X0070050Y0101901D02*
X0070050Y0073151D01*
X0070001Y0016901D01*
X0062550Y0016901D01*
X0062550Y0008151D01*
X0062533Y0007969D01*
X0062511Y0007787D01*
X0062484Y0007605D01*
X0062454Y0007425D01*
X0062419Y0007245D01*
X0062379Y0007066D01*
X0062335Y0006888D01*
X0062287Y0006711D01*
X0062235Y0006535D01*
X0062178Y0006361D01*
X0062117Y0006188D01*
X0062052Y0006017D01*
X0061983Y0005847D01*
X0061909Y0005679D01*
X0061832Y0005513D01*
X0061750Y0005349D01*
X0061665Y0005187D01*
X0061576Y0005027D01*
X0061482Y0004869D01*
X0061385Y0004713D01*
X0061284Y0004560D01*
X0061180Y0004410D01*
X0061072Y0004262D01*
X0060960Y0004116D01*
X0060845Y0003974D01*
X0060726Y0003834D01*
X0060604Y0003698D01*
X0060479Y0003564D01*
X0060350Y0003433D01*
X0060219Y0003306D01*
X0060084Y0003181D01*
X0059946Y0003060D01*
X0059806Y0002943D01*
X0059662Y0002829D01*
X0059516Y0002718D01*
X0059367Y0002611D01*
X0059216Y0002508D01*
X0059062Y0002408D01*
X0058906Y0002313D01*
X0058747Y0002221D01*
X0058586Y0002133D01*
X0058424Y0002048D01*
X0058259Y0001968D01*
X0058092Y0001892D01*
X0057923Y0001820D01*
X0057753Y0001752D01*
X0057581Y0001689D01*
X0057408Y0001629D01*
X0057233Y0001574D01*
X0057057Y0001523D01*
X0056880Y0001476D01*
X0056702Y0001433D01*
X0056522Y0001395D01*
X0056342Y0001362D01*
X0056161Y0001333D01*
X0055980Y0001308D01*
X0055798Y0001287D01*
X0055615Y0001271D01*
X0055432Y0001260D01*
X0055249Y0001253D01*
X0055066Y0001250D01*
X0054883Y0001252D01*
X0054699Y0001258D01*
X0054516Y0001269D01*
X0054334Y0001284D01*
X0054152Y0001304D01*
X0053970Y0001328D01*
X0053789Y0001356D01*
X0053608Y0001389D01*
X0053429Y0001427D01*
X0053251Y0001468D01*
X0053073Y0001514D01*
X0052897Y0001565D01*
X0052722Y0001619D01*
X0052548Y0001678D01*
X0052376Y0001741D01*
X0052206Y0001808D01*
X0052037Y0001879D01*
X0051870Y0001955D01*
X0051705Y0002034D01*
X0051541Y0002118D01*
X0051380Y0002205D01*
X0051221Y0002297D01*
X0051065Y0002392D01*
X0050911Y0002491D01*
X0050759Y0002593D01*
X0050609Y0002700D01*
X0050463Y0002810D01*
X0050319Y0002923D01*
X0050178Y0003040D01*
X0050040Y0003160D01*
X0049904Y0003284D01*
X0049772Y0003411D01*
X0049643Y0003541D01*
X0049517Y0003674D01*
X0049395Y0003811D01*
X0049275Y0003950D01*
X0049159Y0004092D01*
X0049047Y0004237D01*
X0048938Y0004384D01*
X0048833Y0004534D01*
X0048732Y0004687D01*
X0048634Y0004842D01*
X0048540Y0004999D01*
X0048450Y0005159D01*
X0048364Y0005321D01*
X0048282Y0005485D01*
X0048204Y0005650D01*
X0048130Y0005818D01*
X0048060Y0005987D01*
X0047994Y0006158D01*
X0047932Y0006331D01*
X0047875Y0006505D01*
X0047822Y0006681D01*
X0047773Y0006857D01*
X0047728Y0007035D01*
X0047688Y0007214D01*
X0047652Y0007393D01*
X0047621Y0007574D01*
X0047594Y0007755D01*
X0047571Y0007937D01*
X0047553Y0008120D01*
X0047539Y0008302D01*
X0047530Y0008485D01*
X0047525Y0008669D01*
X0047524Y0008852D01*
X0047528Y0009035D01*
X0047537Y0009218D01*
X0047550Y0009401D01*
X0047550Y0016901D01*
X0027550Y0016901D01*
X0027550Y0009401D01*
X0027563Y0009217D01*
X0027572Y0009033D01*
X0027576Y0008848D01*
X0027575Y0008664D01*
X0027570Y0008480D01*
X0027561Y0008296D01*
X0027547Y0008112D01*
X0027528Y0007928D01*
X0027505Y0007745D01*
X0027478Y0007563D01*
X0027446Y0007381D01*
X0027409Y0007201D01*
X0027368Y0007021D01*
X0027323Y0006842D01*
X0027274Y0006664D01*
X0027220Y0006488D01*
X0027162Y0006313D01*
X0027099Y0006140D01*
X0027032Y0005968D01*
X0026961Y0005797D01*
X0026886Y0005629D01*
X0026807Y0005462D01*
X0026724Y0005298D01*
X0026637Y0005135D01*
X0026546Y0004975D01*
X0026451Y0004817D01*
X0026352Y0004661D01*
X0026249Y0004508D01*
X0026143Y0004358D01*
X0026032Y0004210D01*
X0025919Y0004065D01*
X0025802Y0003922D01*
X0025681Y0003783D01*
X0025557Y0003646D01*
X0025430Y0003513D01*
X0025299Y0003383D01*
X0025165Y0003256D01*
X0025029Y0003132D01*
X0024889Y0003012D01*
X0024746Y0002895D01*
X0024601Y0002782D01*
X0024452Y0002672D01*
X0024301Y0002566D01*
X0024148Y0002464D01*
X0023992Y0002365D01*
X0023834Y0002270D01*
X0023673Y0002180D01*
X0023511Y0002093D01*
X0023346Y0002010D01*
X0023179Y0001931D01*
X0023011Y0001857D01*
X0022840Y0001786D01*
X0022668Y0001720D01*
X0022494Y0001658D01*
X0022319Y0001600D01*
X0022143Y0001547D01*
X0021965Y0001498D01*
X0021786Y0001453D01*
X0021606Y0001413D01*
X0021425Y0001377D01*
X0021244Y0001345D01*
X0021061Y0001318D01*
X0020878Y0001296D01*
X0020695Y0001278D01*
X0020511Y0001264D01*
X0020327Y0001255D01*
X0020142Y0001251D01*
X0019958Y0001251D01*
X0019773Y0001255D01*
X0019589Y0001264D01*
X0019405Y0001278D01*
X0019222Y0001296D01*
X0019039Y0001318D01*
X0018856Y0001345D01*
X0018675Y0001377D01*
X0018494Y0001413D01*
X0018314Y0001453D01*
X0018135Y0001498D01*
X0017957Y0001547D01*
X0017781Y0001600D01*
X0017606Y0001658D01*
X0017432Y0001720D01*
X0017260Y0001786D01*
X0017089Y0001857D01*
X0016921Y0001931D01*
X0016754Y0002010D01*
X0016589Y0002093D01*
X0016427Y0002180D01*
X0016266Y0002270D01*
X0016108Y0002365D01*
X0015952Y0002464D01*
X0015799Y0002566D01*
X0015648Y0002672D01*
X0015499Y0002782D01*
X0015354Y0002895D01*
X0015211Y0003012D01*
X0015071Y0003132D01*
X0014935Y0003256D01*
X0014801Y0003383D01*
X0014670Y0003513D01*
X0014543Y0003646D01*
X0014419Y0003783D01*
X0014298Y0003922D01*
X0014181Y0004065D01*
X0014068Y0004210D01*
X0013957Y0004358D01*
X0013851Y0004508D01*
X0013748Y0004661D01*
X0013649Y0004817D01*
X0013554Y0004975D01*
X0013463Y0005135D01*
X0013376Y0005298D01*
X0013293Y0005462D01*
X0013214Y0005629D01*
X0013139Y0005797D01*
X0013068Y0005968D01*
X0013001Y0006140D01*
X0012938Y0006313D01*
X0012880Y0006488D01*
X0012826Y0006664D01*
X0012777Y0006842D01*
X0012732Y0007021D01*
X0012691Y0007201D01*
X0012654Y0007381D01*
X0012622Y0007563D01*
X0012595Y0007745D01*
X0012572Y0007928D01*
X0012553Y0008112D01*
X0012539Y0008296D01*
X0012530Y0008480D01*
X0012525Y0008664D01*
X0012524Y0008848D01*
X0012528Y0009033D01*
X0012537Y0009217D01*
X0012550Y0009401D01*
X0012550Y0016901D01*
X0005050Y0016901D01*
D11*
X0013278Y0015651D02*
X0013280Y0015735D01*
X0013286Y0015818D01*
X0013296Y0015901D01*
X0013310Y0015984D01*
X0013327Y0016066D01*
X0013349Y0016147D01*
X0013374Y0016226D01*
X0013403Y0016305D01*
X0013436Y0016382D01*
X0013472Y0016457D01*
X0013512Y0016531D01*
X0013555Y0016603D01*
X0013602Y0016672D01*
X0013652Y0016739D01*
X0013705Y0016804D01*
X0013761Y0016866D01*
X0013819Y0016926D01*
X0013881Y0016983D01*
X0013945Y0017036D01*
X0014012Y0017087D01*
X0014081Y0017134D01*
X0014152Y0017179D01*
X0014225Y0017219D01*
X0014300Y0017256D01*
X0014377Y0017290D01*
X0014455Y0017320D01*
X0014534Y0017346D01*
X0014615Y0017369D01*
X0014697Y0017387D01*
X0014779Y0017402D01*
X0014862Y0017413D01*
X0014945Y0017420D01*
X0015029Y0017423D01*
X0015113Y0017422D01*
X0015196Y0017417D01*
X0015280Y0017408D01*
X0015362Y0017395D01*
X0015444Y0017379D01*
X0015525Y0017358D01*
X0015606Y0017334D01*
X0015684Y0017306D01*
X0015762Y0017274D01*
X0015838Y0017238D01*
X0015912Y0017199D01*
X0015984Y0017157D01*
X0016054Y0017111D01*
X0016122Y0017062D01*
X0016187Y0017010D01*
X0016250Y0016955D01*
X0016310Y0016897D01*
X0016368Y0016836D01*
X0016422Y0016772D01*
X0016474Y0016706D01*
X0016522Y0016638D01*
X0016567Y0016567D01*
X0016608Y0016494D01*
X0016647Y0016420D01*
X0016681Y0016344D01*
X0016712Y0016266D01*
X0016739Y0016187D01*
X0016763Y0016106D01*
X0016782Y0016025D01*
X0016798Y0015943D01*
X0016810Y0015860D01*
X0016818Y0015776D01*
X0016822Y0015693D01*
X0016822Y0015609D01*
X0016818Y0015526D01*
X0016810Y0015442D01*
X0016798Y0015359D01*
X0016782Y0015277D01*
X0016763Y0015196D01*
X0016739Y0015115D01*
X0016712Y0015036D01*
X0016681Y0014958D01*
X0016647Y0014882D01*
X0016608Y0014808D01*
X0016567Y0014735D01*
X0016522Y0014664D01*
X0016474Y0014596D01*
X0016422Y0014530D01*
X0016368Y0014466D01*
X0016310Y0014405D01*
X0016250Y0014347D01*
X0016187Y0014292D01*
X0016122Y0014240D01*
X0016054Y0014191D01*
X0015984Y0014145D01*
X0015912Y0014103D01*
X0015838Y0014064D01*
X0015762Y0014028D01*
X0015684Y0013996D01*
X0015606Y0013968D01*
X0015525Y0013944D01*
X0015444Y0013923D01*
X0015362Y0013907D01*
X0015280Y0013894D01*
X0015196Y0013885D01*
X0015113Y0013880D01*
X0015029Y0013879D01*
X0014945Y0013882D01*
X0014862Y0013889D01*
X0014779Y0013900D01*
X0014697Y0013915D01*
X0014615Y0013933D01*
X0014534Y0013956D01*
X0014455Y0013982D01*
X0014377Y0014012D01*
X0014300Y0014046D01*
X0014225Y0014083D01*
X0014152Y0014123D01*
X0014081Y0014168D01*
X0014012Y0014215D01*
X0013945Y0014266D01*
X0013881Y0014319D01*
X0013819Y0014376D01*
X0013761Y0014436D01*
X0013705Y0014498D01*
X0013652Y0014563D01*
X0013602Y0014630D01*
X0013555Y0014699D01*
X0013512Y0014771D01*
X0013472Y0014845D01*
X0013436Y0014920D01*
X0013403Y0014997D01*
X0013374Y0015076D01*
X0013349Y0015155D01*
X0013327Y0015236D01*
X0013310Y0015318D01*
X0013296Y0015401D01*
X0013286Y0015484D01*
X0013280Y0015567D01*
X0013278Y0015651D01*
X0018278Y0015651D02*
X0018280Y0015735D01*
X0018286Y0015818D01*
X0018296Y0015901D01*
X0018310Y0015984D01*
X0018327Y0016066D01*
X0018349Y0016147D01*
X0018374Y0016226D01*
X0018403Y0016305D01*
X0018436Y0016382D01*
X0018472Y0016457D01*
X0018512Y0016531D01*
X0018555Y0016603D01*
X0018602Y0016672D01*
X0018652Y0016739D01*
X0018705Y0016804D01*
X0018761Y0016866D01*
X0018819Y0016926D01*
X0018881Y0016983D01*
X0018945Y0017036D01*
X0019012Y0017087D01*
X0019081Y0017134D01*
X0019152Y0017179D01*
X0019225Y0017219D01*
X0019300Y0017256D01*
X0019377Y0017290D01*
X0019455Y0017320D01*
X0019534Y0017346D01*
X0019615Y0017369D01*
X0019697Y0017387D01*
X0019779Y0017402D01*
X0019862Y0017413D01*
X0019945Y0017420D01*
X0020029Y0017423D01*
X0020113Y0017422D01*
X0020196Y0017417D01*
X0020280Y0017408D01*
X0020362Y0017395D01*
X0020444Y0017379D01*
X0020525Y0017358D01*
X0020606Y0017334D01*
X0020684Y0017306D01*
X0020762Y0017274D01*
X0020838Y0017238D01*
X0020912Y0017199D01*
X0020984Y0017157D01*
X0021054Y0017111D01*
X0021122Y0017062D01*
X0021187Y0017010D01*
X0021250Y0016955D01*
X0021310Y0016897D01*
X0021368Y0016836D01*
X0021422Y0016772D01*
X0021474Y0016706D01*
X0021522Y0016638D01*
X0021567Y0016567D01*
X0021608Y0016494D01*
X0021647Y0016420D01*
X0021681Y0016344D01*
X0021712Y0016266D01*
X0021739Y0016187D01*
X0021763Y0016106D01*
X0021782Y0016025D01*
X0021798Y0015943D01*
X0021810Y0015860D01*
X0021818Y0015776D01*
X0021822Y0015693D01*
X0021822Y0015609D01*
X0021818Y0015526D01*
X0021810Y0015442D01*
X0021798Y0015359D01*
X0021782Y0015277D01*
X0021763Y0015196D01*
X0021739Y0015115D01*
X0021712Y0015036D01*
X0021681Y0014958D01*
X0021647Y0014882D01*
X0021608Y0014808D01*
X0021567Y0014735D01*
X0021522Y0014664D01*
X0021474Y0014596D01*
X0021422Y0014530D01*
X0021368Y0014466D01*
X0021310Y0014405D01*
X0021250Y0014347D01*
X0021187Y0014292D01*
X0021122Y0014240D01*
X0021054Y0014191D01*
X0020984Y0014145D01*
X0020912Y0014103D01*
X0020838Y0014064D01*
X0020762Y0014028D01*
X0020684Y0013996D01*
X0020606Y0013968D01*
X0020525Y0013944D01*
X0020444Y0013923D01*
X0020362Y0013907D01*
X0020280Y0013894D01*
X0020196Y0013885D01*
X0020113Y0013880D01*
X0020029Y0013879D01*
X0019945Y0013882D01*
X0019862Y0013889D01*
X0019779Y0013900D01*
X0019697Y0013915D01*
X0019615Y0013933D01*
X0019534Y0013956D01*
X0019455Y0013982D01*
X0019377Y0014012D01*
X0019300Y0014046D01*
X0019225Y0014083D01*
X0019152Y0014123D01*
X0019081Y0014168D01*
X0019012Y0014215D01*
X0018945Y0014266D01*
X0018881Y0014319D01*
X0018819Y0014376D01*
X0018761Y0014436D01*
X0018705Y0014498D01*
X0018652Y0014563D01*
X0018602Y0014630D01*
X0018555Y0014699D01*
X0018512Y0014771D01*
X0018472Y0014845D01*
X0018436Y0014920D01*
X0018403Y0014997D01*
X0018374Y0015076D01*
X0018349Y0015155D01*
X0018327Y0015236D01*
X0018310Y0015318D01*
X0018296Y0015401D01*
X0018286Y0015484D01*
X0018280Y0015567D01*
X0018278Y0015651D01*
X0015129Y0008151D02*
X0015131Y0008291D01*
X0015137Y0008431D01*
X0015147Y0008570D01*
X0015161Y0008709D01*
X0015179Y0008848D01*
X0015200Y0008986D01*
X0015226Y0009124D01*
X0015256Y0009261D01*
X0015289Y0009396D01*
X0015327Y0009531D01*
X0015368Y0009665D01*
X0015413Y0009798D01*
X0015461Y0009929D01*
X0015514Y0010058D01*
X0015570Y0010187D01*
X0015629Y0010313D01*
X0015693Y0010438D01*
X0015759Y0010561D01*
X0015830Y0010682D01*
X0015903Y0010801D01*
X0015980Y0010918D01*
X0016061Y0011032D01*
X0016144Y0011144D01*
X0016231Y0011254D01*
X0016321Y0011362D01*
X0016413Y0011466D01*
X0016509Y0011568D01*
X0016608Y0011668D01*
X0016709Y0011764D01*
X0016813Y0011858D01*
X0016920Y0011948D01*
X0017029Y0012035D01*
X0017141Y0012120D01*
X0017255Y0012201D01*
X0017371Y0012279D01*
X0017489Y0012353D01*
X0017610Y0012424D01*
X0017732Y0012492D01*
X0017857Y0012556D01*
X0017983Y0012617D01*
X0018110Y0012674D01*
X0018240Y0012727D01*
X0018371Y0012777D01*
X0018503Y0012822D01*
X0018636Y0012865D01*
X0018771Y0012903D01*
X0018906Y0012937D01*
X0019043Y0012968D01*
X0019180Y0012995D01*
X0019318Y0013017D01*
X0019457Y0013036D01*
X0019596Y0013051D01*
X0019735Y0013062D01*
X0019875Y0013069D01*
X0020015Y0013072D01*
X0020155Y0013071D01*
X0020295Y0013066D01*
X0020434Y0013057D01*
X0020574Y0013044D01*
X0020713Y0013027D01*
X0020851Y0013006D01*
X0020989Y0012982D01*
X0021126Y0012953D01*
X0021262Y0012921D01*
X0021397Y0012884D01*
X0021531Y0012844D01*
X0021664Y0012800D01*
X0021795Y0012752D01*
X0021925Y0012701D01*
X0022054Y0012646D01*
X0022181Y0012587D01*
X0022306Y0012524D01*
X0022429Y0012459D01*
X0022551Y0012389D01*
X0022670Y0012316D01*
X0022788Y0012240D01*
X0022903Y0012161D01*
X0023016Y0012078D01*
X0023126Y0011992D01*
X0023234Y0011903D01*
X0023339Y0011811D01*
X0023442Y0011716D01*
X0023542Y0011618D01*
X0023639Y0011518D01*
X0023733Y0011414D01*
X0023825Y0011308D01*
X0023913Y0011200D01*
X0023998Y0011089D01*
X0024080Y0010975D01*
X0024159Y0010859D01*
X0024234Y0010742D01*
X0024306Y0010622D01*
X0024374Y0010500D01*
X0024439Y0010376D01*
X0024501Y0010250D01*
X0024559Y0010123D01*
X0024613Y0009994D01*
X0024664Y0009863D01*
X0024710Y0009731D01*
X0024753Y0009598D01*
X0024793Y0009464D01*
X0024828Y0009329D01*
X0024860Y0009192D01*
X0024887Y0009055D01*
X0024911Y0008917D01*
X0024931Y0008779D01*
X0024947Y0008640D01*
X0024959Y0008500D01*
X0024967Y0008361D01*
X0024971Y0008221D01*
X0024971Y0008081D01*
X0024967Y0007941D01*
X0024959Y0007802D01*
X0024947Y0007662D01*
X0024931Y0007523D01*
X0024911Y0007385D01*
X0024887Y0007247D01*
X0024860Y0007110D01*
X0024828Y0006973D01*
X0024793Y0006838D01*
X0024753Y0006704D01*
X0024710Y0006571D01*
X0024664Y0006439D01*
X0024613Y0006308D01*
X0024559Y0006179D01*
X0024501Y0006052D01*
X0024439Y0005926D01*
X0024374Y0005802D01*
X0024306Y0005680D01*
X0024234Y0005560D01*
X0024159Y0005443D01*
X0024080Y0005327D01*
X0023998Y0005213D01*
X0023913Y0005102D01*
X0023825Y0004994D01*
X0023733Y0004888D01*
X0023639Y0004784D01*
X0023542Y0004684D01*
X0023442Y0004586D01*
X0023339Y0004491D01*
X0023234Y0004399D01*
X0023126Y0004310D01*
X0023016Y0004224D01*
X0022903Y0004141D01*
X0022788Y0004062D01*
X0022670Y0003986D01*
X0022551Y0003913D01*
X0022429Y0003843D01*
X0022306Y0003778D01*
X0022181Y0003715D01*
X0022054Y0003656D01*
X0021925Y0003601D01*
X0021795Y0003550D01*
X0021664Y0003502D01*
X0021531Y0003458D01*
X0021397Y0003418D01*
X0021262Y0003381D01*
X0021126Y0003349D01*
X0020989Y0003320D01*
X0020851Y0003296D01*
X0020713Y0003275D01*
X0020574Y0003258D01*
X0020434Y0003245D01*
X0020295Y0003236D01*
X0020155Y0003231D01*
X0020015Y0003230D01*
X0019875Y0003233D01*
X0019735Y0003240D01*
X0019596Y0003251D01*
X0019457Y0003266D01*
X0019318Y0003285D01*
X0019180Y0003307D01*
X0019043Y0003334D01*
X0018906Y0003365D01*
X0018771Y0003399D01*
X0018636Y0003437D01*
X0018503Y0003480D01*
X0018371Y0003525D01*
X0018240Y0003575D01*
X0018110Y0003628D01*
X0017983Y0003685D01*
X0017857Y0003746D01*
X0017732Y0003810D01*
X0017610Y0003878D01*
X0017489Y0003949D01*
X0017371Y0004023D01*
X0017255Y0004101D01*
X0017141Y0004182D01*
X0017029Y0004267D01*
X0016920Y0004354D01*
X0016813Y0004444D01*
X0016709Y0004538D01*
X0016608Y0004634D01*
X0016509Y0004734D01*
X0016413Y0004836D01*
X0016321Y0004940D01*
X0016231Y0005048D01*
X0016144Y0005158D01*
X0016061Y0005270D01*
X0015980Y0005384D01*
X0015903Y0005501D01*
X0015830Y0005620D01*
X0015759Y0005741D01*
X0015693Y0005864D01*
X0015629Y0005989D01*
X0015570Y0006115D01*
X0015514Y0006244D01*
X0015461Y0006373D01*
X0015413Y0006504D01*
X0015368Y0006637D01*
X0015327Y0006771D01*
X0015289Y0006906D01*
X0015256Y0007041D01*
X0015226Y0007178D01*
X0015200Y0007316D01*
X0015179Y0007454D01*
X0015161Y0007593D01*
X0015147Y0007732D01*
X0015137Y0007871D01*
X0015131Y0008011D01*
X0015129Y0008151D01*
X0023278Y0015651D02*
X0023280Y0015735D01*
X0023286Y0015818D01*
X0023296Y0015901D01*
X0023310Y0015984D01*
X0023327Y0016066D01*
X0023349Y0016147D01*
X0023374Y0016226D01*
X0023403Y0016305D01*
X0023436Y0016382D01*
X0023472Y0016457D01*
X0023512Y0016531D01*
X0023555Y0016603D01*
X0023602Y0016672D01*
X0023652Y0016739D01*
X0023705Y0016804D01*
X0023761Y0016866D01*
X0023819Y0016926D01*
X0023881Y0016983D01*
X0023945Y0017036D01*
X0024012Y0017087D01*
X0024081Y0017134D01*
X0024152Y0017179D01*
X0024225Y0017219D01*
X0024300Y0017256D01*
X0024377Y0017290D01*
X0024455Y0017320D01*
X0024534Y0017346D01*
X0024615Y0017369D01*
X0024697Y0017387D01*
X0024779Y0017402D01*
X0024862Y0017413D01*
X0024945Y0017420D01*
X0025029Y0017423D01*
X0025113Y0017422D01*
X0025196Y0017417D01*
X0025280Y0017408D01*
X0025362Y0017395D01*
X0025444Y0017379D01*
X0025525Y0017358D01*
X0025606Y0017334D01*
X0025684Y0017306D01*
X0025762Y0017274D01*
X0025838Y0017238D01*
X0025912Y0017199D01*
X0025984Y0017157D01*
X0026054Y0017111D01*
X0026122Y0017062D01*
X0026187Y0017010D01*
X0026250Y0016955D01*
X0026310Y0016897D01*
X0026368Y0016836D01*
X0026422Y0016772D01*
X0026474Y0016706D01*
X0026522Y0016638D01*
X0026567Y0016567D01*
X0026608Y0016494D01*
X0026647Y0016420D01*
X0026681Y0016344D01*
X0026712Y0016266D01*
X0026739Y0016187D01*
X0026763Y0016106D01*
X0026782Y0016025D01*
X0026798Y0015943D01*
X0026810Y0015860D01*
X0026818Y0015776D01*
X0026822Y0015693D01*
X0026822Y0015609D01*
X0026818Y0015526D01*
X0026810Y0015442D01*
X0026798Y0015359D01*
X0026782Y0015277D01*
X0026763Y0015196D01*
X0026739Y0015115D01*
X0026712Y0015036D01*
X0026681Y0014958D01*
X0026647Y0014882D01*
X0026608Y0014808D01*
X0026567Y0014735D01*
X0026522Y0014664D01*
X0026474Y0014596D01*
X0026422Y0014530D01*
X0026368Y0014466D01*
X0026310Y0014405D01*
X0026250Y0014347D01*
X0026187Y0014292D01*
X0026122Y0014240D01*
X0026054Y0014191D01*
X0025984Y0014145D01*
X0025912Y0014103D01*
X0025838Y0014064D01*
X0025762Y0014028D01*
X0025684Y0013996D01*
X0025606Y0013968D01*
X0025525Y0013944D01*
X0025444Y0013923D01*
X0025362Y0013907D01*
X0025280Y0013894D01*
X0025196Y0013885D01*
X0025113Y0013880D01*
X0025029Y0013879D01*
X0024945Y0013882D01*
X0024862Y0013889D01*
X0024779Y0013900D01*
X0024697Y0013915D01*
X0024615Y0013933D01*
X0024534Y0013956D01*
X0024455Y0013982D01*
X0024377Y0014012D01*
X0024300Y0014046D01*
X0024225Y0014083D01*
X0024152Y0014123D01*
X0024081Y0014168D01*
X0024012Y0014215D01*
X0023945Y0014266D01*
X0023881Y0014319D01*
X0023819Y0014376D01*
X0023761Y0014436D01*
X0023705Y0014498D01*
X0023652Y0014563D01*
X0023602Y0014630D01*
X0023555Y0014699D01*
X0023512Y0014771D01*
X0023472Y0014845D01*
X0023436Y0014920D01*
X0023403Y0014997D01*
X0023374Y0015076D01*
X0023349Y0015155D01*
X0023327Y0015236D01*
X0023310Y0015318D01*
X0023296Y0015401D01*
X0023286Y0015484D01*
X0023280Y0015567D01*
X0023278Y0015651D01*
X0048278Y0015651D02*
X0048280Y0015735D01*
X0048286Y0015818D01*
X0048296Y0015901D01*
X0048310Y0015984D01*
X0048327Y0016066D01*
X0048349Y0016147D01*
X0048374Y0016226D01*
X0048403Y0016305D01*
X0048436Y0016382D01*
X0048472Y0016457D01*
X0048512Y0016531D01*
X0048555Y0016603D01*
X0048602Y0016672D01*
X0048652Y0016739D01*
X0048705Y0016804D01*
X0048761Y0016866D01*
X0048819Y0016926D01*
X0048881Y0016983D01*
X0048945Y0017036D01*
X0049012Y0017087D01*
X0049081Y0017134D01*
X0049152Y0017179D01*
X0049225Y0017219D01*
X0049300Y0017256D01*
X0049377Y0017290D01*
X0049455Y0017320D01*
X0049534Y0017346D01*
X0049615Y0017369D01*
X0049697Y0017387D01*
X0049779Y0017402D01*
X0049862Y0017413D01*
X0049945Y0017420D01*
X0050029Y0017423D01*
X0050113Y0017422D01*
X0050196Y0017417D01*
X0050280Y0017408D01*
X0050362Y0017395D01*
X0050444Y0017379D01*
X0050525Y0017358D01*
X0050606Y0017334D01*
X0050684Y0017306D01*
X0050762Y0017274D01*
X0050838Y0017238D01*
X0050912Y0017199D01*
X0050984Y0017157D01*
X0051054Y0017111D01*
X0051122Y0017062D01*
X0051187Y0017010D01*
X0051250Y0016955D01*
X0051310Y0016897D01*
X0051368Y0016836D01*
X0051422Y0016772D01*
X0051474Y0016706D01*
X0051522Y0016638D01*
X0051567Y0016567D01*
X0051608Y0016494D01*
X0051647Y0016420D01*
X0051681Y0016344D01*
X0051712Y0016266D01*
X0051739Y0016187D01*
X0051763Y0016106D01*
X0051782Y0016025D01*
X0051798Y0015943D01*
X0051810Y0015860D01*
X0051818Y0015776D01*
X0051822Y0015693D01*
X0051822Y0015609D01*
X0051818Y0015526D01*
X0051810Y0015442D01*
X0051798Y0015359D01*
X0051782Y0015277D01*
X0051763Y0015196D01*
X0051739Y0015115D01*
X0051712Y0015036D01*
X0051681Y0014958D01*
X0051647Y0014882D01*
X0051608Y0014808D01*
X0051567Y0014735D01*
X0051522Y0014664D01*
X0051474Y0014596D01*
X0051422Y0014530D01*
X0051368Y0014466D01*
X0051310Y0014405D01*
X0051250Y0014347D01*
X0051187Y0014292D01*
X0051122Y0014240D01*
X0051054Y0014191D01*
X0050984Y0014145D01*
X0050912Y0014103D01*
X0050838Y0014064D01*
X0050762Y0014028D01*
X0050684Y0013996D01*
X0050606Y0013968D01*
X0050525Y0013944D01*
X0050444Y0013923D01*
X0050362Y0013907D01*
X0050280Y0013894D01*
X0050196Y0013885D01*
X0050113Y0013880D01*
X0050029Y0013879D01*
X0049945Y0013882D01*
X0049862Y0013889D01*
X0049779Y0013900D01*
X0049697Y0013915D01*
X0049615Y0013933D01*
X0049534Y0013956D01*
X0049455Y0013982D01*
X0049377Y0014012D01*
X0049300Y0014046D01*
X0049225Y0014083D01*
X0049152Y0014123D01*
X0049081Y0014168D01*
X0049012Y0014215D01*
X0048945Y0014266D01*
X0048881Y0014319D01*
X0048819Y0014376D01*
X0048761Y0014436D01*
X0048705Y0014498D01*
X0048652Y0014563D01*
X0048602Y0014630D01*
X0048555Y0014699D01*
X0048512Y0014771D01*
X0048472Y0014845D01*
X0048436Y0014920D01*
X0048403Y0014997D01*
X0048374Y0015076D01*
X0048349Y0015155D01*
X0048327Y0015236D01*
X0048310Y0015318D01*
X0048296Y0015401D01*
X0048286Y0015484D01*
X0048280Y0015567D01*
X0048278Y0015651D01*
X0053278Y0015651D02*
X0053280Y0015735D01*
X0053286Y0015818D01*
X0053296Y0015901D01*
X0053310Y0015984D01*
X0053327Y0016066D01*
X0053349Y0016147D01*
X0053374Y0016226D01*
X0053403Y0016305D01*
X0053436Y0016382D01*
X0053472Y0016457D01*
X0053512Y0016531D01*
X0053555Y0016603D01*
X0053602Y0016672D01*
X0053652Y0016739D01*
X0053705Y0016804D01*
X0053761Y0016866D01*
X0053819Y0016926D01*
X0053881Y0016983D01*
X0053945Y0017036D01*
X0054012Y0017087D01*
X0054081Y0017134D01*
X0054152Y0017179D01*
X0054225Y0017219D01*
X0054300Y0017256D01*
X0054377Y0017290D01*
X0054455Y0017320D01*
X0054534Y0017346D01*
X0054615Y0017369D01*
X0054697Y0017387D01*
X0054779Y0017402D01*
X0054862Y0017413D01*
X0054945Y0017420D01*
X0055029Y0017423D01*
X0055113Y0017422D01*
X0055196Y0017417D01*
X0055280Y0017408D01*
X0055362Y0017395D01*
X0055444Y0017379D01*
X0055525Y0017358D01*
X0055606Y0017334D01*
X0055684Y0017306D01*
X0055762Y0017274D01*
X0055838Y0017238D01*
X0055912Y0017199D01*
X0055984Y0017157D01*
X0056054Y0017111D01*
X0056122Y0017062D01*
X0056187Y0017010D01*
X0056250Y0016955D01*
X0056310Y0016897D01*
X0056368Y0016836D01*
X0056422Y0016772D01*
X0056474Y0016706D01*
X0056522Y0016638D01*
X0056567Y0016567D01*
X0056608Y0016494D01*
X0056647Y0016420D01*
X0056681Y0016344D01*
X0056712Y0016266D01*
X0056739Y0016187D01*
X0056763Y0016106D01*
X0056782Y0016025D01*
X0056798Y0015943D01*
X0056810Y0015860D01*
X0056818Y0015776D01*
X0056822Y0015693D01*
X0056822Y0015609D01*
X0056818Y0015526D01*
X0056810Y0015442D01*
X0056798Y0015359D01*
X0056782Y0015277D01*
X0056763Y0015196D01*
X0056739Y0015115D01*
X0056712Y0015036D01*
X0056681Y0014958D01*
X0056647Y0014882D01*
X0056608Y0014808D01*
X0056567Y0014735D01*
X0056522Y0014664D01*
X0056474Y0014596D01*
X0056422Y0014530D01*
X0056368Y0014466D01*
X0056310Y0014405D01*
X0056250Y0014347D01*
X0056187Y0014292D01*
X0056122Y0014240D01*
X0056054Y0014191D01*
X0055984Y0014145D01*
X0055912Y0014103D01*
X0055838Y0014064D01*
X0055762Y0014028D01*
X0055684Y0013996D01*
X0055606Y0013968D01*
X0055525Y0013944D01*
X0055444Y0013923D01*
X0055362Y0013907D01*
X0055280Y0013894D01*
X0055196Y0013885D01*
X0055113Y0013880D01*
X0055029Y0013879D01*
X0054945Y0013882D01*
X0054862Y0013889D01*
X0054779Y0013900D01*
X0054697Y0013915D01*
X0054615Y0013933D01*
X0054534Y0013956D01*
X0054455Y0013982D01*
X0054377Y0014012D01*
X0054300Y0014046D01*
X0054225Y0014083D01*
X0054152Y0014123D01*
X0054081Y0014168D01*
X0054012Y0014215D01*
X0053945Y0014266D01*
X0053881Y0014319D01*
X0053819Y0014376D01*
X0053761Y0014436D01*
X0053705Y0014498D01*
X0053652Y0014563D01*
X0053602Y0014630D01*
X0053555Y0014699D01*
X0053512Y0014771D01*
X0053472Y0014845D01*
X0053436Y0014920D01*
X0053403Y0014997D01*
X0053374Y0015076D01*
X0053349Y0015155D01*
X0053327Y0015236D01*
X0053310Y0015318D01*
X0053296Y0015401D01*
X0053286Y0015484D01*
X0053280Y0015567D01*
X0053278Y0015651D01*
X0050129Y0008151D02*
X0050131Y0008291D01*
X0050137Y0008431D01*
X0050147Y0008570D01*
X0050161Y0008709D01*
X0050179Y0008848D01*
X0050200Y0008986D01*
X0050226Y0009124D01*
X0050256Y0009261D01*
X0050289Y0009396D01*
X0050327Y0009531D01*
X0050368Y0009665D01*
X0050413Y0009798D01*
X0050461Y0009929D01*
X0050514Y0010058D01*
X0050570Y0010187D01*
X0050629Y0010313D01*
X0050693Y0010438D01*
X0050759Y0010561D01*
X0050830Y0010682D01*
X0050903Y0010801D01*
X0050980Y0010918D01*
X0051061Y0011032D01*
X0051144Y0011144D01*
X0051231Y0011254D01*
X0051321Y0011362D01*
X0051413Y0011466D01*
X0051509Y0011568D01*
X0051608Y0011668D01*
X0051709Y0011764D01*
X0051813Y0011858D01*
X0051920Y0011948D01*
X0052029Y0012035D01*
X0052141Y0012120D01*
X0052255Y0012201D01*
X0052371Y0012279D01*
X0052489Y0012353D01*
X0052610Y0012424D01*
X0052732Y0012492D01*
X0052857Y0012556D01*
X0052983Y0012617D01*
X0053110Y0012674D01*
X0053240Y0012727D01*
X0053371Y0012777D01*
X0053503Y0012822D01*
X0053636Y0012865D01*
X0053771Y0012903D01*
X0053906Y0012937D01*
X0054043Y0012968D01*
X0054180Y0012995D01*
X0054318Y0013017D01*
X0054457Y0013036D01*
X0054596Y0013051D01*
X0054735Y0013062D01*
X0054875Y0013069D01*
X0055015Y0013072D01*
X0055155Y0013071D01*
X0055295Y0013066D01*
X0055434Y0013057D01*
X0055574Y0013044D01*
X0055713Y0013027D01*
X0055851Y0013006D01*
X0055989Y0012982D01*
X0056126Y0012953D01*
X0056262Y0012921D01*
X0056397Y0012884D01*
X0056531Y0012844D01*
X0056664Y0012800D01*
X0056795Y0012752D01*
X0056925Y0012701D01*
X0057054Y0012646D01*
X0057181Y0012587D01*
X0057306Y0012524D01*
X0057429Y0012459D01*
X0057551Y0012389D01*
X0057670Y0012316D01*
X0057788Y0012240D01*
X0057903Y0012161D01*
X0058016Y0012078D01*
X0058126Y0011992D01*
X0058234Y0011903D01*
X0058339Y0011811D01*
X0058442Y0011716D01*
X0058542Y0011618D01*
X0058639Y0011518D01*
X0058733Y0011414D01*
X0058825Y0011308D01*
X0058913Y0011200D01*
X0058998Y0011089D01*
X0059080Y0010975D01*
X0059159Y0010859D01*
X0059234Y0010742D01*
X0059306Y0010622D01*
X0059374Y0010500D01*
X0059439Y0010376D01*
X0059501Y0010250D01*
X0059559Y0010123D01*
X0059613Y0009994D01*
X0059664Y0009863D01*
X0059710Y0009731D01*
X0059753Y0009598D01*
X0059793Y0009464D01*
X0059828Y0009329D01*
X0059860Y0009192D01*
X0059887Y0009055D01*
X0059911Y0008917D01*
X0059931Y0008779D01*
X0059947Y0008640D01*
X0059959Y0008500D01*
X0059967Y0008361D01*
X0059971Y0008221D01*
X0059971Y0008081D01*
X0059967Y0007941D01*
X0059959Y0007802D01*
X0059947Y0007662D01*
X0059931Y0007523D01*
X0059911Y0007385D01*
X0059887Y0007247D01*
X0059860Y0007110D01*
X0059828Y0006973D01*
X0059793Y0006838D01*
X0059753Y0006704D01*
X0059710Y0006571D01*
X0059664Y0006439D01*
X0059613Y0006308D01*
X0059559Y0006179D01*
X0059501Y0006052D01*
X0059439Y0005926D01*
X0059374Y0005802D01*
X0059306Y0005680D01*
X0059234Y0005560D01*
X0059159Y0005443D01*
X0059080Y0005327D01*
X0058998Y0005213D01*
X0058913Y0005102D01*
X0058825Y0004994D01*
X0058733Y0004888D01*
X0058639Y0004784D01*
X0058542Y0004684D01*
X0058442Y0004586D01*
X0058339Y0004491D01*
X0058234Y0004399D01*
X0058126Y0004310D01*
X0058016Y0004224D01*
X0057903Y0004141D01*
X0057788Y0004062D01*
X0057670Y0003986D01*
X0057551Y0003913D01*
X0057429Y0003843D01*
X0057306Y0003778D01*
X0057181Y0003715D01*
X0057054Y0003656D01*
X0056925Y0003601D01*
X0056795Y0003550D01*
X0056664Y0003502D01*
X0056531Y0003458D01*
X0056397Y0003418D01*
X0056262Y0003381D01*
X0056126Y0003349D01*
X0055989Y0003320D01*
X0055851Y0003296D01*
X0055713Y0003275D01*
X0055574Y0003258D01*
X0055434Y0003245D01*
X0055295Y0003236D01*
X0055155Y0003231D01*
X0055015Y0003230D01*
X0054875Y0003233D01*
X0054735Y0003240D01*
X0054596Y0003251D01*
X0054457Y0003266D01*
X0054318Y0003285D01*
X0054180Y0003307D01*
X0054043Y0003334D01*
X0053906Y0003365D01*
X0053771Y0003399D01*
X0053636Y0003437D01*
X0053503Y0003480D01*
X0053371Y0003525D01*
X0053240Y0003575D01*
X0053110Y0003628D01*
X0052983Y0003685D01*
X0052857Y0003746D01*
X0052732Y0003810D01*
X0052610Y0003878D01*
X0052489Y0003949D01*
X0052371Y0004023D01*
X0052255Y0004101D01*
X0052141Y0004182D01*
X0052029Y0004267D01*
X0051920Y0004354D01*
X0051813Y0004444D01*
X0051709Y0004538D01*
X0051608Y0004634D01*
X0051509Y0004734D01*
X0051413Y0004836D01*
X0051321Y0004940D01*
X0051231Y0005048D01*
X0051144Y0005158D01*
X0051061Y0005270D01*
X0050980Y0005384D01*
X0050903Y0005501D01*
X0050830Y0005620D01*
X0050759Y0005741D01*
X0050693Y0005864D01*
X0050629Y0005989D01*
X0050570Y0006115D01*
X0050514Y0006244D01*
X0050461Y0006373D01*
X0050413Y0006504D01*
X0050368Y0006637D01*
X0050327Y0006771D01*
X0050289Y0006906D01*
X0050256Y0007041D01*
X0050226Y0007178D01*
X0050200Y0007316D01*
X0050179Y0007454D01*
X0050161Y0007593D01*
X0050147Y0007732D01*
X0050137Y0007871D01*
X0050131Y0008011D01*
X0050129Y0008151D01*
X0058278Y0015651D02*
X0058280Y0015735D01*
X0058286Y0015818D01*
X0058296Y0015901D01*
X0058310Y0015984D01*
X0058327Y0016066D01*
X0058349Y0016147D01*
X0058374Y0016226D01*
X0058403Y0016305D01*
X0058436Y0016382D01*
X0058472Y0016457D01*
X0058512Y0016531D01*
X0058555Y0016603D01*
X0058602Y0016672D01*
X0058652Y0016739D01*
X0058705Y0016804D01*
X0058761Y0016866D01*
X0058819Y0016926D01*
X0058881Y0016983D01*
X0058945Y0017036D01*
X0059012Y0017087D01*
X0059081Y0017134D01*
X0059152Y0017179D01*
X0059225Y0017219D01*
X0059300Y0017256D01*
X0059377Y0017290D01*
X0059455Y0017320D01*
X0059534Y0017346D01*
X0059615Y0017369D01*
X0059697Y0017387D01*
X0059779Y0017402D01*
X0059862Y0017413D01*
X0059945Y0017420D01*
X0060029Y0017423D01*
X0060113Y0017422D01*
X0060196Y0017417D01*
X0060280Y0017408D01*
X0060362Y0017395D01*
X0060444Y0017379D01*
X0060525Y0017358D01*
X0060606Y0017334D01*
X0060684Y0017306D01*
X0060762Y0017274D01*
X0060838Y0017238D01*
X0060912Y0017199D01*
X0060984Y0017157D01*
X0061054Y0017111D01*
X0061122Y0017062D01*
X0061187Y0017010D01*
X0061250Y0016955D01*
X0061310Y0016897D01*
X0061368Y0016836D01*
X0061422Y0016772D01*
X0061474Y0016706D01*
X0061522Y0016638D01*
X0061567Y0016567D01*
X0061608Y0016494D01*
X0061647Y0016420D01*
X0061681Y0016344D01*
X0061712Y0016266D01*
X0061739Y0016187D01*
X0061763Y0016106D01*
X0061782Y0016025D01*
X0061798Y0015943D01*
X0061810Y0015860D01*
X0061818Y0015776D01*
X0061822Y0015693D01*
X0061822Y0015609D01*
X0061818Y0015526D01*
X0061810Y0015442D01*
X0061798Y0015359D01*
X0061782Y0015277D01*
X0061763Y0015196D01*
X0061739Y0015115D01*
X0061712Y0015036D01*
X0061681Y0014958D01*
X0061647Y0014882D01*
X0061608Y0014808D01*
X0061567Y0014735D01*
X0061522Y0014664D01*
X0061474Y0014596D01*
X0061422Y0014530D01*
X0061368Y0014466D01*
X0061310Y0014405D01*
X0061250Y0014347D01*
X0061187Y0014292D01*
X0061122Y0014240D01*
X0061054Y0014191D01*
X0060984Y0014145D01*
X0060912Y0014103D01*
X0060838Y0014064D01*
X0060762Y0014028D01*
X0060684Y0013996D01*
X0060606Y0013968D01*
X0060525Y0013944D01*
X0060444Y0013923D01*
X0060362Y0013907D01*
X0060280Y0013894D01*
X0060196Y0013885D01*
X0060113Y0013880D01*
X0060029Y0013879D01*
X0059945Y0013882D01*
X0059862Y0013889D01*
X0059779Y0013900D01*
X0059697Y0013915D01*
X0059615Y0013933D01*
X0059534Y0013956D01*
X0059455Y0013982D01*
X0059377Y0014012D01*
X0059300Y0014046D01*
X0059225Y0014083D01*
X0059152Y0014123D01*
X0059081Y0014168D01*
X0059012Y0014215D01*
X0058945Y0014266D01*
X0058881Y0014319D01*
X0058819Y0014376D01*
X0058761Y0014436D01*
X0058705Y0014498D01*
X0058652Y0014563D01*
X0058602Y0014630D01*
X0058555Y0014699D01*
X0058512Y0014771D01*
X0058472Y0014845D01*
X0058436Y0014920D01*
X0058403Y0014997D01*
X0058374Y0015076D01*
X0058349Y0015155D01*
X0058327Y0015236D01*
X0058310Y0015318D01*
X0058296Y0015401D01*
X0058286Y0015484D01*
X0058280Y0015567D01*
X0058278Y0015651D01*
D12*
X0049797Y0040963D03*
X0044678Y0040963D03*
X0022297Y0046901D03*
X0017178Y0046901D03*
G36*
X0023145Y0072240D02*
X0021196Y0074189D01*
X0023699Y0076692D01*
X0025648Y0074743D01*
X0023145Y0072240D01*
G37*
G36*
X0019526Y0075860D02*
X0017577Y0077809D01*
X0020080Y0080312D01*
X0022029Y0078363D01*
X0019526Y0075860D01*
G37*
G36*
X0024455Y0084374D02*
X0026404Y0082425D01*
X0023901Y0079922D01*
X0021952Y0081871D01*
X0024455Y0084374D01*
G37*
G36*
X0028074Y0080755D02*
X0030023Y0078806D01*
X0027520Y0076303D01*
X0025571Y0078252D01*
X0028074Y0080755D01*
G37*
G36*
X0032654Y0081689D02*
X0030705Y0079740D01*
X0028202Y0082243D01*
X0030151Y0084192D01*
X0032654Y0081689D01*
G37*
G36*
X0036273Y0085309D02*
X0034324Y0083360D01*
X0031821Y0085863D01*
X0033770Y0087812D01*
X0036273Y0085309D01*
G37*
G36*
X0043827Y0078806D02*
X0045776Y0080755D01*
X0048279Y0078252D01*
X0046330Y0076303D01*
X0043827Y0078806D01*
G37*
G36*
X0047446Y0082425D02*
X0049395Y0084374D01*
X0051898Y0081871D01*
X0049949Y0079922D01*
X0047446Y0082425D01*
G37*
D13*
X0054112Y0081269D03*
X0054112Y0088158D03*
X0043487Y0030033D03*
X0043487Y0023144D03*
D14*
X0034425Y0032154D03*
X0034425Y0037273D03*
X0017238Y0052467D03*
X0017238Y0057585D03*
X0052237Y0094342D03*
X0052237Y0099460D03*
X0067863Y0099460D03*
X0067863Y0094342D03*
X0056300Y0072898D03*
X0056300Y0067779D03*
D15*
X0056300Y0093323D03*
X0056300Y0099229D03*
X0063800Y0099229D03*
X0063800Y0093323D03*
D16*
X0050550Y0035651D03*
X0042675Y0035651D03*
D17*
X0065050Y0031901D03*
X0065050Y0041901D03*
X0065050Y0051901D03*
X0065050Y0061901D03*
X0065050Y0071901D03*
X0065050Y0081901D03*
X0065050Y0021901D03*
X0010050Y0021901D03*
X0010050Y0031901D03*
X0010050Y0041901D03*
X0010050Y0051901D03*
X0010050Y0061901D03*
X0010050Y0071901D03*
X0010050Y0081901D03*
D18*
X0048497Y0029982D03*
X0052237Y0021320D03*
X0055978Y0029982D03*
D19*
G36*
X0043535Y0046730D02*
X0041309Y0048956D01*
X0042143Y0049790D01*
X0044369Y0047564D01*
X0043535Y0046730D01*
G37*
G36*
X0044927Y0048122D02*
X0042701Y0050348D01*
X0043535Y0051182D01*
X0045761Y0048956D01*
X0044927Y0048122D01*
G37*
G36*
X0046319Y0049514D02*
X0044093Y0051740D01*
X0044927Y0052574D01*
X0047153Y0050348D01*
X0046319Y0049514D01*
G37*
G36*
X0047711Y0050906D02*
X0045485Y0053132D01*
X0046319Y0053966D01*
X0048545Y0051740D01*
X0047711Y0050906D01*
G37*
G36*
X0047711Y0055358D02*
X0049937Y0053132D01*
X0049103Y0052298D01*
X0046877Y0054524D01*
X0047711Y0055358D01*
G37*
G36*
X0049103Y0056750D02*
X0051329Y0054524D01*
X0050495Y0053690D01*
X0048269Y0055916D01*
X0049103Y0056750D01*
G37*
G36*
X0050495Y0058142D02*
X0052721Y0055916D01*
X0051887Y0055082D01*
X0049661Y0057308D01*
X0050495Y0058142D01*
G37*
G36*
X0051887Y0059534D02*
X0054113Y0057308D01*
X0053279Y0056474D01*
X0051053Y0058700D01*
X0051887Y0059534D01*
G37*
G36*
X0053279Y0060925D02*
X0055505Y0058699D01*
X0054671Y0057865D01*
X0052445Y0060091D01*
X0053279Y0060925D01*
G37*
G36*
X0055505Y0065102D02*
X0053279Y0062876D01*
X0052445Y0063710D01*
X0054671Y0065936D01*
X0055505Y0065102D01*
G37*
G36*
X0054113Y0066494D02*
X0051887Y0064268D01*
X0051053Y0065102D01*
X0053279Y0067328D01*
X0054113Y0066494D01*
G37*
G36*
X0052721Y0067886D02*
X0050495Y0065660D01*
X0049661Y0066494D01*
X0051887Y0068720D01*
X0052721Y0067886D01*
G37*
G36*
X0051329Y0069278D02*
X0049103Y0067052D01*
X0048269Y0067886D01*
X0050495Y0070112D01*
X0051329Y0069278D01*
G37*
G36*
X0049937Y0070670D02*
X0047711Y0068444D01*
X0046877Y0069278D01*
X0049103Y0071504D01*
X0049937Y0070670D01*
G37*
G36*
X0048545Y0072062D02*
X0046319Y0069836D01*
X0045485Y0070670D01*
X0047711Y0072896D01*
X0048545Y0072062D01*
G37*
G36*
X0044093Y0072062D02*
X0046319Y0074288D01*
X0047153Y0073454D01*
X0044927Y0071228D01*
X0044093Y0072062D01*
G37*
G36*
X0042701Y0073454D02*
X0044927Y0075680D01*
X0045761Y0074846D01*
X0043535Y0072620D01*
X0042701Y0073454D01*
G37*
G36*
X0041309Y0074846D02*
X0043535Y0077072D01*
X0044369Y0076238D01*
X0042143Y0074012D01*
X0041309Y0074846D01*
G37*
G36*
X0039917Y0076238D02*
X0042143Y0078464D01*
X0042977Y0077630D01*
X0040751Y0075404D01*
X0039917Y0076238D01*
G37*
G36*
X0038525Y0077630D02*
X0040751Y0079856D01*
X0041585Y0079022D01*
X0039359Y0076796D01*
X0038525Y0077630D01*
G37*
G36*
X0034349Y0079856D02*
X0036575Y0077630D01*
X0035741Y0076796D01*
X0033515Y0079022D01*
X0034349Y0079856D01*
G37*
G36*
X0032957Y0078464D02*
X0035183Y0076238D01*
X0034349Y0075404D01*
X0032123Y0077630D01*
X0032957Y0078464D01*
G37*
G36*
X0031565Y0077072D02*
X0033791Y0074846D01*
X0032957Y0074012D01*
X0030731Y0076238D01*
X0031565Y0077072D01*
G37*
G36*
X0030173Y0075680D02*
X0032399Y0073454D01*
X0031565Y0072620D01*
X0029339Y0074846D01*
X0030173Y0075680D01*
G37*
G36*
X0028781Y0074288D02*
X0031007Y0072062D01*
X0030173Y0071228D01*
X0027947Y0073454D01*
X0028781Y0074288D01*
G37*
G36*
X0027389Y0072896D02*
X0029615Y0070670D01*
X0028781Y0069836D01*
X0026555Y0072062D01*
X0027389Y0072896D01*
G37*
G36*
X0027389Y0068444D02*
X0025163Y0070670D01*
X0025997Y0071504D01*
X0028223Y0069278D01*
X0027389Y0068444D01*
G37*
G36*
X0025997Y0067052D02*
X0023771Y0069278D01*
X0024605Y0070112D01*
X0026831Y0067886D01*
X0025997Y0067052D01*
G37*
G36*
X0024605Y0065660D02*
X0022379Y0067886D01*
X0023213Y0068720D01*
X0025439Y0066494D01*
X0024605Y0065660D01*
G37*
G36*
X0023213Y0064268D02*
X0020987Y0066494D01*
X0021821Y0067328D01*
X0024047Y0065102D01*
X0023213Y0064268D01*
G37*
G36*
X0021821Y0062876D02*
X0019595Y0065102D01*
X0020429Y0065936D01*
X0022655Y0063710D01*
X0021821Y0062876D01*
G37*
G36*
X0019595Y0058699D02*
X0021821Y0060925D01*
X0022655Y0060091D01*
X0020429Y0057865D01*
X0019595Y0058699D01*
G37*
G36*
X0020987Y0057308D02*
X0023213Y0059534D01*
X0024047Y0058700D01*
X0021821Y0056474D01*
X0020987Y0057308D01*
G37*
G36*
X0022379Y0055916D02*
X0024605Y0058142D01*
X0025439Y0057308D01*
X0023213Y0055082D01*
X0022379Y0055916D01*
G37*
G36*
X0023771Y0054524D02*
X0025997Y0056750D01*
X0026831Y0055916D01*
X0024605Y0053690D01*
X0023771Y0054524D01*
G37*
G36*
X0025163Y0053132D02*
X0027389Y0055358D01*
X0028223Y0054524D01*
X0025997Y0052298D01*
X0025163Y0053132D01*
G37*
G36*
X0026555Y0051740D02*
X0028781Y0053966D01*
X0029615Y0053132D01*
X0027389Y0050906D01*
X0026555Y0051740D01*
G37*
G36*
X0031007Y0051740D02*
X0028781Y0049514D01*
X0027947Y0050348D01*
X0030173Y0052574D01*
X0031007Y0051740D01*
G37*
G36*
X0032399Y0050348D02*
X0030173Y0048122D01*
X0029339Y0048956D01*
X0031565Y0051182D01*
X0032399Y0050348D01*
G37*
G36*
X0033791Y0048956D02*
X0031565Y0046730D01*
X0030731Y0047564D01*
X0032957Y0049790D01*
X0033791Y0048956D01*
G37*
G36*
X0035183Y0047564D02*
X0032957Y0045338D01*
X0032123Y0046172D01*
X0034349Y0048398D01*
X0035183Y0047564D01*
G37*
G36*
X0036575Y0046172D02*
X0034349Y0043946D01*
X0033515Y0044780D01*
X0035741Y0047006D01*
X0036575Y0046172D01*
G37*
G36*
X0040751Y0043946D02*
X0038525Y0046172D01*
X0039359Y0047006D01*
X0041585Y0044780D01*
X0040751Y0043946D01*
G37*
G36*
X0042143Y0045338D02*
X0039917Y0047564D01*
X0040751Y0048398D01*
X0042977Y0046172D01*
X0042143Y0045338D01*
G37*
D20*
X0029578Y0038559D03*
X0020522Y0038559D03*
X0020522Y0023993D03*
X0029578Y0023993D03*
D21*
X0032432Y0095700D03*
X0042668Y0095700D03*
D22*
X0037550Y0095307D03*
X0034991Y0095307D03*
D23*
X0058175Y0081219D03*
X0058175Y0076101D03*
D24*
X0052862Y0070963D03*
X0050362Y0073776D03*
X0013487Y0076901D03*
X0013487Y0066901D03*
X0013487Y0056901D03*
X0013487Y0046901D03*
X0013487Y0036901D03*
X0013487Y0026901D03*
D25*
X0008175Y0095963D03*
X0021925Y0095963D03*
D26*
X0015987Y0095963D01*
X0015362Y0096588D01*
X0015050Y0097838D01*
X0012825Y0095688D02*
X0011887Y0094751D01*
X0011875Y0094739D01*
X0011875Y0100212D01*
X0018025Y0100212D01*
X0018025Y0096363D01*
X0021525Y0096363D01*
X0021525Y0095564D01*
X0018025Y0095564D01*
X0018025Y0095251D01*
X0017588Y0095688D01*
X0012825Y0095688D01*
X0012291Y0095155D02*
X0011875Y0095155D01*
X0011875Y0095954D02*
X0021525Y0095954D01*
X0018175Y0092838D02*
X0018175Y0090338D01*
X0019738Y0088776D01*
X0031925Y0088776D01*
X0032432Y0089283D01*
X0032432Y0095700D01*
X0034991Y0095307D02*
X0035050Y0095247D01*
X0035050Y0086588D01*
X0034047Y0085586D01*
X0035841Y0083177D02*
X0046262Y0083177D01*
X0046300Y0083151D02*
X0045675Y0083776D01*
X0046325Y0083286D02*
X0046140Y0082967D01*
X0046045Y0082611D01*
X0046045Y0082242D01*
X0046122Y0081956D01*
X0045278Y0081956D01*
X0042942Y0079621D01*
X0042684Y0079770D01*
X0042482Y0079824D01*
X0041248Y0081057D01*
X0040254Y0081057D01*
X0039950Y0080753D01*
X0039950Y0081128D01*
X0039585Y0082010D01*
X0038909Y0082686D01*
X0038027Y0083051D01*
X0037073Y0083051D01*
X0036191Y0082686D01*
X0035515Y0082010D01*
X0035150Y0081128D01*
X0035150Y0080753D01*
X0034846Y0081057D01*
X0033851Y0081057D01*
X0033525Y0080731D01*
X0033525Y0080861D01*
X0033855Y0081191D01*
X0033855Y0082158D01*
X0034822Y0082158D01*
X0036860Y0084196D01*
X0037128Y0083929D01*
X0038010Y0083563D01*
X0038965Y0083563D01*
X0039847Y0083929D01*
X0040522Y0084604D01*
X0040887Y0085486D01*
X0040887Y0086441D01*
X0040522Y0087323D01*
X0039847Y0087998D01*
X0039150Y0088287D01*
X0039150Y0089402D01*
X0039439Y0089691D01*
X0039439Y0090576D01*
X0040579Y0090576D01*
X0040579Y0090004D01*
X0040675Y0089648D01*
X0040859Y0089329D01*
X0041120Y0089068D01*
X0041439Y0088884D01*
X0041795Y0088788D01*
X0042668Y0088788D01*
X0042668Y0095700D01*
X0042668Y0095700D01*
X0042668Y0088788D01*
X0043329Y0088788D01*
X0043742Y0088376D01*
X0048756Y0088376D01*
X0048328Y0087948D01*
X0047962Y0087066D01*
X0047962Y0086111D01*
X0048310Y0085272D01*
X0047634Y0084595D01*
X0049672Y0082557D01*
X0049263Y0082148D01*
X0047225Y0084186D01*
X0046325Y0083286D01*
X0046300Y0083151D02*
X0042863Y0079713D01*
X0042863Y0078349D01*
X0041447Y0076934D01*
X0041333Y0076934D01*
X0040675Y0076276D02*
X0040363Y0075963D01*
X0040363Y0070963D01*
X0040675Y0070651D01*
X0040400Y0070401D02*
X0044056Y0070401D01*
X0044075Y0070382D02*
X0044075Y0069008D01*
X0043640Y0068573D01*
X0043275Y0067691D01*
X0043275Y0066736D01*
X0043640Y0065854D01*
X0044316Y0065179D01*
X0045198Y0064813D01*
X0046152Y0064813D01*
X0047034Y0065179D01*
X0047710Y0065854D01*
X0047971Y0066486D01*
X0048460Y0065997D01*
X0049693Y0064764D01*
X0049697Y0064751D01*
X0041219Y0064751D01*
X0040784Y0065186D01*
X0040400Y0065345D01*
X0040400Y0074048D01*
X0040413Y0074044D01*
X0041646Y0072811D01*
X0041646Y0072811D01*
X0043038Y0071419D01*
X0044075Y0070382D01*
X0044075Y0069603D02*
X0040400Y0069603D01*
X0040400Y0068804D02*
X0043872Y0068804D01*
X0043405Y0068006D02*
X0040400Y0068006D01*
X0040400Y0067207D02*
X0043275Y0067207D01*
X0043411Y0066409D02*
X0040400Y0066409D01*
X0040400Y0065610D02*
X0043884Y0065610D01*
X0042238Y0064713D02*
X0042238Y0067213D01*
X0041613Y0067838D01*
X0041158Y0064812D02*
X0049646Y0064812D01*
X0048847Y0065610D02*
X0047466Y0065610D01*
X0047939Y0066409D02*
X0048049Y0066409D01*
X0048460Y0065997D02*
X0048460Y0065997D01*
X0051191Y0067190D02*
X0051277Y0067190D01*
X0052862Y0068776D01*
X0052862Y0070963D01*
X0050362Y0071901D02*
X0050362Y0073776D01*
X0050362Y0071901D02*
X0048436Y0069974D01*
X0048407Y0069974D01*
X0047015Y0071366D02*
X0045675Y0070026D01*
X0045675Y0067213D01*
X0042238Y0064713D02*
X0051612Y0064713D01*
X0052583Y0065684D01*
X0052270Y0065684D01*
X0052583Y0065684D02*
X0052583Y0065798D01*
X0053805Y0064406D02*
X0052550Y0063151D01*
X0039425Y0063151D01*
X0039425Y0048776D01*
X0041333Y0046868D01*
X0041447Y0046868D01*
X0041447Y0046754D01*
X0044425Y0043776D01*
X0044425Y0041842D01*
X0044678Y0040963D01*
X0044678Y0039148D01*
X0046612Y0037213D01*
X0046612Y0031867D01*
X0048497Y0029982D01*
X0043539Y0029982D01*
X0043487Y0030033D01*
X0043088Y0026611D02*
X0041650Y0026611D01*
X0041650Y0026766D01*
X0045329Y0026766D01*
X0045329Y0026729D01*
X0045447Y0026611D01*
X0043887Y0026611D01*
X0043887Y0023544D01*
X0043088Y0023544D01*
X0043088Y0026611D01*
X0043088Y0026483D02*
X0043887Y0026483D01*
X0043887Y0025685D02*
X0043088Y0025685D01*
X0043088Y0024886D02*
X0043887Y0024886D01*
X0043887Y0024088D02*
X0043088Y0024088D01*
X0043888Y0023544D02*
X0043888Y0022744D01*
X0047013Y0022744D01*
X0047013Y0020892D01*
X0046918Y0020536D01*
X0046734Y0020217D01*
X0046473Y0019956D01*
X0046154Y0019772D01*
X0045798Y0019677D01*
X0043887Y0019677D01*
X0043887Y0022744D01*
X0043088Y0022744D01*
X0043088Y0019677D01*
X0041338Y0019677D01*
X0040713Y0019051D01*
X0040213Y0018551D01*
X0048233Y0018551D01*
X0048389Y0018396D01*
X0049069Y0018678D01*
X0049069Y0024573D01*
X0049772Y0025276D01*
X0054703Y0025276D01*
X0055406Y0024573D01*
X0055406Y0021502D01*
X0055522Y0021385D01*
X0055887Y0020503D01*
X0055887Y0019549D01*
X0055587Y0018823D01*
X0055681Y0018823D01*
X0056847Y0018340D01*
X0057550Y0017636D01*
X0058253Y0018340D01*
X0059074Y0018680D01*
X0058850Y0018904D01*
X0058850Y0024898D01*
X0059553Y0025601D01*
X0063450Y0025601D01*
X0063450Y0026238D01*
X0059387Y0026238D01*
X0059022Y0026604D01*
X0058443Y0026026D01*
X0053512Y0026026D01*
X0052809Y0026729D01*
X0052809Y0032876D01*
X0051666Y0032876D01*
X0051666Y0026729D01*
X0050963Y0026026D01*
X0046759Y0026026D01*
X0046918Y0025751D01*
X0047013Y0025395D01*
X0047013Y0023544D01*
X0043888Y0023544D01*
X0043888Y0023289D02*
X0049069Y0023289D01*
X0049069Y0022491D02*
X0047013Y0022491D01*
X0047013Y0021692D02*
X0049069Y0021692D01*
X0049069Y0020894D02*
X0047013Y0020894D01*
X0046612Y0020095D02*
X0049069Y0020095D01*
X0049069Y0019297D02*
X0040958Y0019297D01*
X0040050Y0020651D02*
X0040050Y0032526D01*
X0039425Y0033151D01*
X0039425Y0036588D01*
X0032237Y0043776D01*
X0032237Y0045338D01*
X0033653Y0046754D01*
X0033653Y0046868D01*
X0032261Y0048260D02*
X0032034Y0048260D01*
X0029425Y0045651D01*
X0029425Y0044713D01*
X0029112Y0047838D02*
X0027237Y0047838D01*
X0029112Y0047838D02*
X0030869Y0049595D01*
X0030869Y0049652D01*
X0029477Y0051044D02*
X0029477Y0051328D01*
X0031300Y0053151D01*
X0031300Y0055026D01*
X0032900Y0053232D02*
X0032900Y0052488D01*
X0032428Y0052016D01*
X0033454Y0050991D01*
X0033454Y0050991D01*
X0034846Y0049599D01*
X0035950Y0048495D01*
X0035950Y0059988D01*
X0034950Y0060988D01*
X0034950Y0060799D01*
X0034585Y0059916D01*
X0033909Y0059241D01*
X0033027Y0058876D01*
X0032073Y0058876D01*
X0031191Y0059241D01*
X0031047Y0059385D01*
X0030088Y0058426D01*
X0028213Y0058426D01*
X0027257Y0057470D01*
X0027404Y0057323D01*
X0025301Y0055220D01*
X0025301Y0055220D01*
X0027404Y0057323D01*
X0027952Y0056775D01*
X0028137Y0056456D01*
X0028191Y0056254D01*
X0028912Y0055533D01*
X0029265Y0056385D01*
X0029941Y0057061D01*
X0030823Y0057426D01*
X0031777Y0057426D01*
X0032659Y0057061D01*
X0033335Y0056385D01*
X0033700Y0055503D01*
X0033700Y0054549D01*
X0033335Y0053666D01*
X0032900Y0053232D01*
X0032900Y0052834D02*
X0035950Y0052834D01*
X0035675Y0053151D02*
X0035675Y0055026D01*
X0032550Y0058151D01*
X0030050Y0058151D01*
X0028800Y0056901D01*
X0026925Y0056901D01*
X0025301Y0055277D01*
X0025301Y0055220D01*
X0019795Y0049713D01*
X0016925Y0049713D01*
X0016889Y0049640D02*
X0017467Y0049640D01*
X0017467Y0049889D02*
X0016889Y0049889D01*
X0016889Y0047190D01*
X0017467Y0047190D01*
X0017467Y0049889D01*
X0017467Y0048841D02*
X0016889Y0048841D01*
X0016889Y0048043D02*
X0017467Y0048043D01*
X0017467Y0047244D02*
X0016889Y0047244D01*
X0016889Y0046612D02*
X0017467Y0046612D01*
X0017467Y0043729D01*
X0018741Y0043729D01*
X0019097Y0043825D01*
X0019416Y0044009D01*
X0019677Y0044270D01*
X0019825Y0044526D01*
X0019962Y0044389D01*
X0019075Y0043501D01*
X0019075Y0043500D01*
X0017860Y0043500D01*
X0017157Y0042797D01*
X0017157Y0034322D01*
X0017805Y0033675D01*
X0017631Y0033501D01*
X0016250Y0033501D01*
X0016250Y0034898D01*
X0015936Y0035212D01*
X0016124Y0035492D01*
X0016348Y0036033D01*
X0016444Y0036514D01*
X0013875Y0036514D01*
X0013875Y0037288D01*
X0016444Y0037288D01*
X0016348Y0037769D01*
X0016124Y0038310D01*
X0015936Y0038590D01*
X0016250Y0038904D01*
X0016250Y0043729D01*
X0016889Y0043729D01*
X0016889Y0046612D01*
X0016889Y0046446D02*
X0017467Y0046446D01*
X0017467Y0045647D02*
X0016889Y0045647D01*
X0016889Y0044849D02*
X0017467Y0044849D01*
X0016925Y0044401D02*
X0016925Y0038151D01*
X0017157Y0038461D02*
X0016023Y0038461D01*
X0016250Y0039259D02*
X0017157Y0039259D01*
X0017157Y0040058D02*
X0016250Y0040058D01*
X0016250Y0040856D02*
X0017157Y0040856D01*
X0017157Y0041655D02*
X0016250Y0041655D01*
X0016250Y0042453D02*
X0017157Y0042453D01*
X0017612Y0043252D02*
X0016250Y0043252D01*
X0016889Y0044050D02*
X0017467Y0044050D01*
X0019457Y0044050D02*
X0019624Y0044050D01*
X0020675Y0042838D02*
X0020675Y0038712D01*
X0020522Y0038559D01*
X0020734Y0039396D01*
X0020675Y0042838D02*
X0022297Y0044460D01*
X0022297Y0046901D01*
X0022237Y0046960D01*
X0022237Y0049401D01*
X0026380Y0053544D01*
X0026693Y0053544D01*
X0026693Y0053828D01*
X0025301Y0055220D02*
X0023197Y0053116D01*
X0025301Y0055220D01*
X0025301Y0055220D01*
X0025311Y0055230D02*
X0025311Y0055230D01*
X0026109Y0056028D02*
X0026109Y0056028D01*
X0026908Y0056827D02*
X0026908Y0056827D01*
X0027412Y0057625D02*
X0035950Y0057625D01*
X0035950Y0056827D02*
X0032894Y0056827D01*
X0033483Y0056028D02*
X0035950Y0056028D01*
X0035950Y0055230D02*
X0033700Y0055230D01*
X0033651Y0054431D02*
X0035950Y0054431D01*
X0035950Y0053633D02*
X0033301Y0053633D01*
X0032447Y0052035D02*
X0035950Y0052035D01*
X0035950Y0051237D02*
X0033208Y0051237D01*
X0034006Y0050438D02*
X0035950Y0050438D01*
X0035950Y0049640D02*
X0034805Y0049640D01*
X0035603Y0048841D02*
X0035950Y0048841D01*
X0039150Y0043567D02*
X0039892Y0042825D01*
X0040211Y0042640D01*
X0040567Y0042545D01*
X0040936Y0042545D01*
X0041292Y0042640D01*
X0041611Y0042825D01*
X0042159Y0043373D01*
X0042362Y0043576D01*
X0042403Y0043535D01*
X0042100Y0043232D01*
X0042100Y0038988D01*
X0039150Y0041939D01*
X0039150Y0043567D01*
X0039150Y0043252D02*
X0039465Y0043252D01*
X0039150Y0042453D02*
X0042100Y0042453D01*
X0042100Y0041655D02*
X0039434Y0041655D01*
X0040232Y0040856D02*
X0042100Y0040856D01*
X0042100Y0040058D02*
X0041031Y0040058D01*
X0041829Y0039259D02*
X0042100Y0039259D01*
X0041613Y0037213D02*
X0042863Y0035651D01*
X0042675Y0036776D01*
X0042675Y0035651D01*
X0042675Y0036151D01*
X0041613Y0037213D02*
X0037550Y0041276D01*
X0037550Y0060651D01*
X0034425Y0063776D01*
X0030675Y0063776D01*
X0028487Y0061588D01*
X0025987Y0061588D01*
X0022517Y0058118D01*
X0022517Y0058004D01*
X0022403Y0058004D01*
X0020675Y0056276D01*
X0020050Y0056276D01*
X0018800Y0057526D01*
X0017297Y0057526D01*
X0017238Y0057585D01*
X0017178Y0057526D01*
X0015050Y0057526D01*
X0014425Y0056901D01*
X0013487Y0056901D01*
X0009425Y0056901D01*
X0010050Y0051901D02*
X0013800Y0051901D01*
X0013487Y0051588D01*
X0013487Y0046901D01*
X0013800Y0041901D02*
X0010050Y0041901D01*
X0010806Y0038201D02*
X0010627Y0037769D01*
X0010531Y0037288D01*
X0013100Y0037288D01*
X0013100Y0036514D01*
X0010531Y0036514D01*
X0010627Y0036033D01*
X0010806Y0035601D01*
X0006700Y0035601D01*
X0006700Y0038201D01*
X0010806Y0038201D01*
X0010606Y0037662D02*
X0006700Y0037662D01*
X0006700Y0036864D02*
X0013100Y0036864D01*
X0013875Y0036864D02*
X0017157Y0036864D01*
X0017157Y0037662D02*
X0016369Y0037662D01*
X0016354Y0036065D02*
X0017157Y0036065D01*
X0017157Y0035267D02*
X0015973Y0035267D01*
X0016250Y0034468D02*
X0017157Y0034468D01*
X0017800Y0033670D02*
X0016250Y0033670D01*
X0019425Y0031901D02*
X0010050Y0031901D01*
X0010621Y0036065D02*
X0006700Y0036065D01*
X0006925Y0026901D02*
X0013487Y0026901D01*
X0016613Y0027213D02*
X0018800Y0029401D01*
X0020363Y0029401D01*
X0021300Y0030338D01*
X0027237Y0030338D01*
X0026925Y0033151D02*
X0031300Y0033151D01*
X0032237Y0032213D01*
X0034366Y0032213D01*
X0034425Y0032154D01*
X0034425Y0030651D01*
X0033488Y0029713D01*
X0030987Y0029713D01*
X0029578Y0028304D01*
X0029578Y0023993D01*
X0032943Y0024088D02*
X0038450Y0024088D01*
X0038450Y0024886D02*
X0032943Y0024886D01*
X0032943Y0025685D02*
X0038450Y0025685D01*
X0038450Y0026483D02*
X0032943Y0026483D01*
X0032943Y0027282D02*
X0038450Y0027282D01*
X0038450Y0028080D02*
X0032943Y0028080D01*
X0032943Y0028113D02*
X0034150Y0028113D01*
X0035613Y0029576D01*
X0036694Y0029576D01*
X0037397Y0030279D01*
X0037397Y0034029D01*
X0036800Y0034626D01*
X0037056Y0034774D01*
X0037317Y0035035D01*
X0037501Y0035354D01*
X0037597Y0035710D01*
X0037597Y0036154D01*
X0037825Y0035926D01*
X0037825Y0032488D01*
X0038450Y0031863D01*
X0038450Y0021314D01*
X0037512Y0020376D01*
X0032943Y0020376D01*
X0032943Y0028113D01*
X0034915Y0028879D02*
X0038450Y0028879D01*
X0038450Y0029677D02*
X0036794Y0029677D01*
X0037397Y0030476D02*
X0038450Y0030476D01*
X0038450Y0031274D02*
X0037397Y0031274D01*
X0037397Y0032073D02*
X0038241Y0032073D01*
X0037825Y0032871D02*
X0037397Y0032871D01*
X0037397Y0033670D02*
X0037825Y0033670D01*
X0037825Y0034468D02*
X0036958Y0034468D01*
X0037550Y0034713D02*
X0037550Y0035963D01*
X0036241Y0037273D01*
X0034425Y0037273D01*
X0034714Y0036984D02*
X0034714Y0037562D01*
X0036189Y0037562D01*
X0036767Y0036984D01*
X0034714Y0036984D01*
X0037597Y0036065D02*
X0037685Y0036065D01*
X0037825Y0035267D02*
X0037451Y0035267D01*
X0042038Y0043252D02*
X0042120Y0043252D01*
X0042159Y0043373D02*
X0040056Y0045476D01*
X0042159Y0043373D01*
X0041481Y0044050D02*
X0041481Y0044050D01*
X0040683Y0044849D02*
X0040683Y0044849D01*
X0040056Y0045476D02*
X0040056Y0045476D01*
X0040055Y0045476D02*
X0040055Y0045646D01*
X0042839Y0048260D02*
X0043066Y0048260D01*
X0047237Y0044088D01*
X0054425Y0044088D01*
X0055675Y0042838D01*
X0055675Y0037526D01*
X0053800Y0035651D01*
X0056300Y0033151D01*
X0056300Y0029034D01*
X0055978Y0029982D01*
X0052809Y0029677D02*
X0051666Y0029677D01*
X0051666Y0028879D02*
X0052809Y0028879D01*
X0052809Y0028080D02*
X0051666Y0028080D01*
X0051666Y0027282D02*
X0052809Y0027282D01*
X0053055Y0026483D02*
X0051420Y0026483D01*
X0049382Y0024886D02*
X0047013Y0024886D01*
X0047013Y0024088D02*
X0049069Y0024088D01*
X0046936Y0025685D02*
X0063450Y0025685D01*
X0065050Y0027213D02*
X0064425Y0027838D01*
X0060050Y0027838D01*
X0059112Y0028776D01*
X0059112Y0035651D01*
X0057237Y0037526D01*
X0057237Y0044088D01*
X0055675Y0045651D01*
X0048232Y0045651D01*
X0044231Y0049652D01*
X0045623Y0051015D02*
X0049425Y0047213D01*
X0056925Y0047213D01*
X0058800Y0045338D01*
X0058800Y0038463D01*
X0060675Y0036588D01*
X0063800Y0036588D01*
X0065050Y0035338D01*
X0065050Y0031901D01*
X0065050Y0027213D02*
X0065050Y0021901D01*
X0058850Y0021692D02*
X0055406Y0021692D01*
X0055406Y0022491D02*
X0058850Y0022491D01*
X0058850Y0023289D02*
X0055406Y0023289D01*
X0055406Y0024088D02*
X0058850Y0024088D01*
X0058850Y0024886D02*
X0055093Y0024886D01*
X0055726Y0020894D02*
X0058850Y0020894D01*
X0058850Y0020095D02*
X0055887Y0020095D01*
X0055783Y0019297D02*
X0058850Y0019297D01*
X0058635Y0018498D02*
X0056465Y0018498D01*
X0057487Y0017700D02*
X0057613Y0017700D01*
X0053800Y0020026D02*
X0052506Y0021320D01*
X0052237Y0021320D01*
X0053487Y0020026D02*
X0053800Y0020026D01*
X0048635Y0018498D02*
X0048286Y0018498D01*
X0045362Y0019401D02*
X0043487Y0019401D01*
X0043487Y0023144D01*
X0043088Y0022491D02*
X0043887Y0022491D01*
X0043887Y0021692D02*
X0043088Y0021692D01*
X0043088Y0020894D02*
X0043887Y0020894D01*
X0043887Y0020095D02*
X0043088Y0020095D01*
X0040050Y0020651D02*
X0038175Y0018776D01*
X0017550Y0018776D01*
X0016613Y0019713D01*
X0016613Y0020963D01*
X0015675Y0021901D01*
X0010050Y0021901D01*
X0025050Y0035026D02*
X0026925Y0033151D01*
X0025050Y0035026D02*
X0025050Y0049401D01*
X0028085Y0052436D01*
X0028417Y0056028D02*
X0029117Y0056028D01*
X0029706Y0056827D02*
X0027901Y0056827D01*
X0028210Y0058424D02*
X0035950Y0058424D01*
X0035950Y0059222D02*
X0033863Y0059222D01*
X0034628Y0060021D02*
X0035918Y0060021D01*
X0035119Y0060819D02*
X0034950Y0060819D01*
X0032550Y0061276D02*
X0030675Y0061276D01*
X0029425Y0060026D01*
X0027550Y0060026D01*
X0024136Y0056612D01*
X0023909Y0056612D01*
X0019764Y0052467D01*
X0017238Y0052467D01*
X0016672Y0051901D01*
X0013800Y0051901D01*
X0019250Y0049889D02*
X0019506Y0049889D01*
X0020209Y0050592D01*
X0020209Y0050867D01*
X0020427Y0050867D01*
X0022937Y0053377D01*
X0023197Y0053116D01*
X0023444Y0052870D01*
X0021575Y0051001D01*
X0020638Y0050064D01*
X0020638Y0049873D01*
X0020422Y0049873D01*
X0019825Y0049276D01*
X0019677Y0049532D01*
X0019416Y0049793D01*
X0019250Y0049889D01*
X0019569Y0049640D02*
X0020189Y0049640D01*
X0020056Y0050438D02*
X0021012Y0050438D01*
X0020797Y0051237D02*
X0021811Y0051237D01*
X0021596Y0052035D02*
X0022609Y0052035D01*
X0022394Y0052834D02*
X0023408Y0052834D01*
X0023714Y0053633D02*
X0023714Y0053633D01*
X0024512Y0054431D02*
X0024512Y0054431D01*
X0021125Y0059395D02*
X0021125Y0059576D01*
X0018800Y0061901D01*
X0010050Y0061901D01*
X0013487Y0066901D02*
X0015987Y0066901D01*
X0018488Y0064401D01*
X0021300Y0064401D01*
X0021125Y0064576D01*
X0021125Y0064406D01*
X0022517Y0065684D02*
X0024425Y0063776D01*
X0026300Y0063776D01*
X0027860Y0065610D02*
X0037200Y0065610D01*
X0037200Y0064812D02*
X0035652Y0064812D01*
X0035088Y0065376D02*
X0033762Y0065376D01*
X0030012Y0065376D01*
X0029075Y0064439D01*
X0028700Y0064064D01*
X0028700Y0064253D01*
X0028335Y0065135D01*
X0027659Y0065811D01*
X0026807Y0066164D01*
X0027819Y0067176D01*
X0030088Y0067176D01*
X0031025Y0068113D01*
X0031025Y0068113D01*
X0033703Y0070791D01*
X0034316Y0070179D01*
X0035198Y0069813D01*
X0036152Y0069813D01*
X0037034Y0070179D01*
X0037200Y0070344D01*
X0037200Y0064051D01*
X0037025Y0063628D01*
X0037025Y0063439D01*
X0035088Y0065376D01*
X0036451Y0064013D02*
X0037184Y0064013D01*
X0038800Y0063776D02*
X0038800Y0077070D01*
X0040055Y0078326D01*
X0040055Y0078469D01*
X0039979Y0080782D02*
X0039950Y0080782D01*
X0039763Y0081580D02*
X0044902Y0081580D01*
X0044103Y0080782D02*
X0041524Y0080782D01*
X0042322Y0079983D02*
X0043305Y0079983D01*
X0046053Y0078529D02*
X0043066Y0075542D01*
X0042839Y0075542D01*
X0042839Y0075628D01*
X0040862Y0073595D02*
X0040400Y0073595D01*
X0040400Y0072797D02*
X0041660Y0072797D01*
X0042459Y0071998D02*
X0040400Y0071998D01*
X0040400Y0071200D02*
X0043257Y0071200D01*
X0045623Y0072758D02*
X0045623Y0072787D01*
X0050675Y0077838D01*
X0055987Y0077838D01*
X0056612Y0078463D01*
X0059425Y0078463D01*
X0062550Y0075338D01*
X0062550Y0071901D01*
X0065050Y0071901D01*
X0064150Y0075601D02*
X0064150Y0076001D01*
X0063213Y0076938D01*
X0062150Y0078001D01*
X0064650Y0078001D01*
X0064650Y0081501D01*
X0060359Y0081501D01*
X0060359Y0082301D01*
X0064650Y0082301D01*
X0064650Y0085801D01*
X0059866Y0085801D01*
X0059775Y0085777D01*
X0059775Y0086357D01*
X0060210Y0086791D01*
X0060575Y0087674D01*
X0060575Y0088628D01*
X0060210Y0089510D01*
X0059534Y0090186D01*
X0058652Y0090551D01*
X0058601Y0090551D01*
X0058734Y0090628D01*
X0058995Y0090889D01*
X0059179Y0091208D01*
X0059275Y0091564D01*
X0059275Y0092936D01*
X0056687Y0092936D01*
X0056687Y0093711D01*
X0055913Y0093711D01*
X0055913Y0096298D01*
X0055128Y0096298D01*
X0054972Y0096454D01*
X0058372Y0096454D01*
X0059075Y0097157D01*
X0059075Y0100251D01*
X0061025Y0100251D01*
X0061025Y0097157D01*
X0061728Y0096454D01*
X0065128Y0096454D01*
X0064972Y0096298D01*
X0064187Y0096298D01*
X0064187Y0093711D01*
X0063413Y0093711D01*
X0063413Y0096298D01*
X0062041Y0096298D01*
X0061685Y0096203D01*
X0061366Y0096018D01*
X0061105Y0095758D01*
X0060921Y0095438D01*
X0060825Y0095082D01*
X0060825Y0093711D01*
X0063413Y0093711D01*
X0063413Y0092936D01*
X0064187Y0092936D01*
X0064187Y0090348D01*
X0065559Y0090348D01*
X0065915Y0090444D01*
X0066234Y0090628D01*
X0066263Y0090656D01*
X0066263Y0089945D01*
X0065828Y0089510D01*
X0065462Y0088628D01*
X0065462Y0087674D01*
X0065828Y0086791D01*
X0066503Y0086116D01*
X0067264Y0085801D01*
X0065450Y0085801D01*
X0065450Y0082301D01*
X0064650Y0082301D01*
X0064650Y0081501D01*
X0065450Y0081501D01*
X0065450Y0078001D01*
X0068400Y0078001D01*
X0068400Y0075601D01*
X0064150Y0075601D01*
X0064150Y0075991D02*
X0068400Y0075991D01*
X0068400Y0076789D02*
X0063362Y0076789D01*
X0062563Y0077588D02*
X0068400Y0077588D01*
X0065450Y0078386D02*
X0064650Y0078386D01*
X0064650Y0079185D02*
X0065450Y0079185D01*
X0065450Y0079983D02*
X0064650Y0079983D01*
X0064650Y0080782D02*
X0065450Y0080782D01*
X0064650Y0081580D02*
X0060359Y0081580D01*
X0058175Y0081219D02*
X0058175Y0088151D01*
X0054730Y0088158D01*
X0054112Y0088158D01*
X0053713Y0084736D02*
X0051904Y0084736D01*
X0052060Y0084891D01*
X0056575Y0084891D01*
X0056575Y0084695D01*
X0056423Y0084736D01*
X0054512Y0084736D01*
X0054512Y0081669D01*
X0053713Y0081669D01*
X0053713Y0084736D01*
X0053713Y0083976D02*
X0054512Y0083976D01*
X0054512Y0083177D02*
X0053713Y0083177D01*
X0053713Y0082379D02*
X0054512Y0082379D01*
X0054810Y0081966D02*
X0054112Y0081269D01*
X0054810Y0081966D02*
X0050610Y0081966D01*
X0048800Y0083776D01*
X0046925Y0083776D01*
X0044737Y0083776D01*
X0046300Y0083151D02*
X0046925Y0083776D01*
X0047015Y0083976D02*
X0039894Y0083976D01*
X0040593Y0084774D02*
X0047813Y0084774D01*
X0048185Y0085573D02*
X0040887Y0085573D01*
X0040887Y0086371D02*
X0047962Y0086371D01*
X0048006Y0087170D02*
X0040585Y0087170D01*
X0039877Y0087969D02*
X0048348Y0087969D01*
X0050362Y0086588D02*
X0050987Y0087213D01*
X0050987Y0090651D01*
X0052237Y0091901D01*
X0052237Y0094342D01*
X0052237Y0099460D02*
X0056381Y0099460D01*
X0056300Y0099229D01*
X0056687Y0096298D02*
X0056687Y0093711D01*
X0059275Y0093711D01*
X0059275Y0095082D01*
X0059179Y0095438D01*
X0058995Y0095758D01*
X0058734Y0096018D01*
X0058415Y0096203D01*
X0058059Y0096298D01*
X0056687Y0096298D01*
X0056687Y0095954D02*
X0055913Y0095954D01*
X0055913Y0095155D02*
X0056687Y0095155D01*
X0056687Y0094357D02*
X0055913Y0094357D01*
X0056687Y0093558D02*
X0063413Y0093558D01*
X0063413Y0092936D02*
X0060825Y0092936D01*
X0060825Y0091564D01*
X0060921Y0091208D01*
X0061105Y0090889D01*
X0061366Y0090628D01*
X0061685Y0090444D01*
X0062041Y0090348D01*
X0063413Y0090348D01*
X0063413Y0092936D01*
X0063413Y0092760D02*
X0064187Y0092760D01*
X0064187Y0091961D02*
X0063413Y0091961D01*
X0063413Y0091163D02*
X0064187Y0091163D01*
X0064187Y0090364D02*
X0063413Y0090364D01*
X0061983Y0090364D02*
X0059104Y0090364D01*
X0059153Y0091163D02*
X0060947Y0091163D01*
X0060825Y0091961D02*
X0059275Y0091961D01*
X0059275Y0092760D02*
X0060825Y0092760D01*
X0060050Y0093151D02*
X0060050Y0099088D01*
X0059075Y0099148D02*
X0061025Y0099148D01*
X0061025Y0099946D02*
X0059075Y0099946D01*
X0059075Y0098349D02*
X0061025Y0098349D01*
X0061025Y0097551D02*
X0059075Y0097551D01*
X0058670Y0096752D02*
X0061430Y0096752D01*
X0061301Y0095954D02*
X0058799Y0095954D01*
X0059255Y0095155D02*
X0060845Y0095155D01*
X0060825Y0094357D02*
X0059275Y0094357D01*
X0060155Y0089566D02*
X0065883Y0089566D01*
X0065617Y0090364D02*
X0066263Y0090364D01*
X0065520Y0088767D02*
X0060518Y0088767D01*
X0060575Y0087969D02*
X0065462Y0087969D01*
X0065671Y0087170D02*
X0060366Y0087170D01*
X0059790Y0086371D02*
X0066248Y0086371D01*
X0065450Y0085573D02*
X0064650Y0085573D01*
X0064650Y0084774D02*
X0065450Y0084774D01*
X0065450Y0083976D02*
X0064650Y0083976D01*
X0064650Y0083177D02*
X0065450Y0083177D01*
X0065450Y0082379D02*
X0064650Y0082379D01*
X0067863Y0088151D02*
X0067863Y0094342D01*
X0067437Y0098210D02*
X0067863Y0099460D01*
X0067319Y0099229D01*
X0063800Y0099229D01*
X0063413Y0095954D02*
X0064187Y0095954D01*
X0064187Y0095155D02*
X0063413Y0095155D01*
X0063413Y0094357D02*
X0064187Y0094357D01*
X0056575Y0084774D02*
X0051943Y0084774D01*
X0050610Y0081966D02*
X0049672Y0082148D01*
X0049494Y0082379D02*
X0049032Y0082379D01*
X0049051Y0083177D02*
X0048234Y0083177D01*
X0048253Y0083976D02*
X0047435Y0083976D01*
X0046045Y0082379D02*
X0039216Y0082379D01*
X0037550Y0080651D02*
X0035225Y0078326D01*
X0035045Y0078326D01*
X0033653Y0076934D02*
X0034936Y0075651D01*
X0035050Y0075651D01*
X0035050Y0074401D01*
X0033800Y0073151D01*
X0034425Y0073463D01*
X0035675Y0072213D01*
X0034093Y0070401D02*
X0033313Y0070401D01*
X0032514Y0069603D02*
X0037200Y0069603D01*
X0037200Y0068804D02*
X0031716Y0068804D01*
X0030917Y0068006D02*
X0037200Y0068006D01*
X0037200Y0067207D02*
X0030119Y0067207D01*
X0029425Y0068776D02*
X0027891Y0068776D01*
X0026693Y0069974D01*
X0025079Y0071588D01*
X0024425Y0071588D01*
X0023487Y0070963D01*
X0022862Y0070963D01*
X0016300Y0077526D01*
X0016300Y0081276D01*
X0015675Y0081901D01*
X0010050Y0081901D01*
X0010050Y0087838D01*
X0011925Y0089713D01*
X0011925Y0092526D01*
X0013487Y0094088D01*
X0016925Y0094088D01*
X0018175Y0092838D01*
X0016575Y0092176D02*
X0016575Y0089676D01*
X0018138Y0088113D01*
X0019075Y0087176D01*
X0031435Y0087176D01*
X0030620Y0086361D01*
X0030620Y0085394D01*
X0029653Y0085394D01*
X0029012Y0084754D01*
X0029012Y0084878D01*
X0028647Y0085760D01*
X0027972Y0086436D01*
X0027090Y0086801D01*
X0026135Y0086801D01*
X0025253Y0086436D01*
X0024578Y0085760D01*
X0024501Y0085575D01*
X0023959Y0085575D01*
X0020751Y0082367D01*
X0020751Y0081543D01*
X0020622Y0081617D01*
X0020266Y0081713D01*
X0019897Y0081713D01*
X0019541Y0081617D01*
X0019222Y0081433D01*
X0018043Y0080254D01*
X0019803Y0078494D01*
X0019394Y0078086D01*
X0017900Y0079580D01*
X0017900Y0081939D01*
X0016963Y0082876D01*
X0016338Y0083501D01*
X0016250Y0083501D01*
X0016250Y0084898D01*
X0015547Y0085601D01*
X0011650Y0085601D01*
X0011650Y0087176D01*
X0012588Y0088113D01*
X0013525Y0089051D01*
X0013525Y0091863D01*
X0014150Y0092488D01*
X0016262Y0092488D01*
X0016575Y0092176D01*
X0016575Y0091961D02*
X0013623Y0091961D01*
X0013525Y0091163D02*
X0016575Y0091163D01*
X0016575Y0090364D02*
X0013525Y0090364D01*
X0013525Y0089566D02*
X0016685Y0089566D01*
X0017484Y0088767D02*
X0013241Y0088767D01*
X0012588Y0088113D02*
X0012588Y0088113D01*
X0012443Y0087969D02*
X0018282Y0087969D01*
X0018175Y0085963D02*
X0018175Y0081588D01*
X0020363Y0081588D01*
X0026925Y0075338D01*
X0029477Y0072787D01*
X0029477Y0072758D01*
X0029477Y0072758D01*
X0027373Y0074862D01*
X0027613Y0075102D01*
X0027022Y0075102D01*
X0024370Y0077754D01*
X0024370Y0078721D01*
X0023403Y0078721D01*
X0023377Y0078747D01*
X0023430Y0078548D01*
X0023430Y0078180D01*
X0023353Y0077894D01*
X0024197Y0077894D01*
X0026849Y0075242D01*
X0026849Y0074751D01*
X0026963Y0074751D01*
X0027113Y0074601D01*
X0027373Y0074862D01*
X0029477Y0072758D01*
X0029438Y0072797D02*
X0029438Y0072797D01*
X0028640Y0073595D02*
X0028639Y0073595D01*
X0027841Y0074394D02*
X0027841Y0074394D01*
X0026931Y0075192D02*
X0026849Y0075192D01*
X0026133Y0075991D02*
X0026100Y0075991D01*
X0025334Y0076789D02*
X0025302Y0076789D01*
X0024536Y0077588D02*
X0024503Y0077588D01*
X0024370Y0078386D02*
X0023430Y0078386D01*
X0023735Y0081523D02*
X0026612Y0084401D01*
X0025189Y0086371D02*
X0011650Y0086371D01*
X0011650Y0087170D02*
X0031429Y0087170D01*
X0030630Y0086371D02*
X0028036Y0086371D01*
X0028725Y0085573D02*
X0030620Y0085573D01*
X0029033Y0084774D02*
X0029012Y0084774D01*
X0030428Y0081966D02*
X0031925Y0080469D01*
X0031925Y0079088D01*
X0030675Y0077838D01*
X0030675Y0077213D01*
X0031300Y0076588D01*
X0031300Y0076503D01*
X0032261Y0075542D01*
X0032034Y0075542D01*
X0030926Y0074150D02*
X0030869Y0074150D01*
X0029112Y0075906D01*
X0029112Y0077213D01*
X0027797Y0078529D01*
X0027797Y0078529D01*
X0023735Y0081523D02*
X0024178Y0082148D01*
X0022360Y0083976D02*
X0016250Y0083976D01*
X0016250Y0084774D02*
X0023159Y0084774D01*
X0023957Y0085573D02*
X0015575Y0085573D01*
X0016661Y0083177D02*
X0021562Y0083177D01*
X0020763Y0082379D02*
X0017460Y0082379D01*
X0017900Y0081580D02*
X0019477Y0081580D01*
X0018571Y0080782D02*
X0017900Y0080782D01*
X0018175Y0080651D02*
X0018175Y0081588D01*
X0018314Y0079983D02*
X0017900Y0079983D01*
X0018295Y0079185D02*
X0019112Y0079185D01*
X0019093Y0078386D02*
X0019695Y0078386D01*
X0020685Y0081580D02*
X0020751Y0081580D01*
X0023422Y0074466D02*
X0024737Y0073151D01*
X0026300Y0073151D01*
X0028085Y0071366D01*
X0028085Y0071366D01*
X0029425Y0068776D02*
X0033800Y0073151D01*
X0030869Y0074150D02*
X0030869Y0074207D01*
X0033525Y0080782D02*
X0033576Y0080782D01*
X0033855Y0081580D02*
X0035337Y0081580D01*
X0035150Y0080782D02*
X0035121Y0080782D01*
X0035043Y0082379D02*
X0035884Y0082379D01*
X0036640Y0083976D02*
X0037081Y0083976D01*
X0038488Y0085963D02*
X0037550Y0086901D01*
X0037550Y0095307D01*
X0039439Y0090364D02*
X0040579Y0090364D01*
X0040722Y0089566D02*
X0039313Y0089566D01*
X0039150Y0088767D02*
X0043351Y0088767D01*
X0042668Y0089566D02*
X0042668Y0089566D01*
X0042668Y0089595D02*
X0042668Y0095700D01*
X0042668Y0095155D02*
X0042668Y0095155D01*
X0042668Y0094357D02*
X0042668Y0094357D01*
X0042668Y0093558D02*
X0042668Y0093558D01*
X0042668Y0092760D02*
X0042668Y0092760D01*
X0042668Y0091961D02*
X0042668Y0091961D01*
X0042668Y0091163D02*
X0042668Y0091163D01*
X0042668Y0090364D02*
X0042668Y0090364D01*
X0042668Y0089595D02*
X0044425Y0086276D01*
X0054112Y0075338D02*
X0055734Y0075338D01*
X0056300Y0074713D01*
X0056300Y0072898D01*
X0059112Y0075164D02*
X0058175Y0076101D01*
X0059112Y0075164D02*
X0059112Y0070338D01*
X0056553Y0067779D01*
X0056300Y0067779D01*
X0056300Y0066588D01*
X0054118Y0064406D01*
X0053975Y0064406D01*
X0053805Y0064406D01*
X0055315Y0063215D02*
X0058850Y0063215D01*
X0058850Y0064013D02*
X0056114Y0064013D01*
X0056706Y0064605D02*
X0056706Y0064732D01*
X0056963Y0064988D01*
X0057176Y0065201D01*
X0058569Y0065201D01*
X0059272Y0065904D01*
X0059272Y0068235D01*
X0059395Y0068359D01*
X0059553Y0068201D01*
X0068396Y0068201D01*
X0068393Y0065601D01*
X0059553Y0065601D01*
X0058850Y0064898D01*
X0058850Y0059090D01*
X0058340Y0059301D01*
X0057385Y0059301D01*
X0056853Y0059081D01*
X0056811Y0059240D01*
X0056626Y0059559D01*
X0055382Y0060803D01*
X0054143Y0062042D01*
X0056706Y0064605D01*
X0056786Y0064812D02*
X0058850Y0064812D01*
X0058977Y0065610D02*
X0068393Y0065610D01*
X0068394Y0066409D02*
X0059272Y0066409D01*
X0059272Y0067207D02*
X0068395Y0067207D01*
X0068396Y0068006D02*
X0059272Y0068006D01*
X0058850Y0062416D02*
X0054517Y0062416D01*
X0054568Y0061618D02*
X0058850Y0061618D01*
X0058850Y0060819D02*
X0055366Y0060819D01*
X0055382Y0060803D02*
X0053975Y0059396D01*
X0053975Y0059396D01*
X0053975Y0059396D01*
X0051871Y0061499D01*
X0051324Y0060951D01*
X0051139Y0060632D01*
X0051085Y0060430D01*
X0049852Y0059197D01*
X0049313Y0058658D01*
X0048960Y0059510D01*
X0048284Y0060186D01*
X0047402Y0060551D01*
X0046448Y0060551D01*
X0045566Y0060186D01*
X0044890Y0059510D01*
X0044525Y0058628D01*
X0044525Y0057674D01*
X0044890Y0056791D01*
X0045566Y0056116D01*
X0046418Y0055763D01*
X0045676Y0055021D01*
X0044284Y0053629D01*
X0042892Y0052237D01*
X0041646Y0050991D01*
X0041025Y0050370D01*
X0041025Y0061357D01*
X0041219Y0061551D01*
X0051923Y0061551D01*
X0051871Y0061499D01*
X0053975Y0059396D01*
X0055382Y0060803D01*
X0054600Y0060021D02*
X0054600Y0060021D01*
X0053975Y0059395D02*
X0053805Y0059395D01*
X0053350Y0060021D02*
X0053350Y0060021D01*
X0052551Y0060819D02*
X0052551Y0060819D01*
X0051247Y0060819D02*
X0041025Y0060819D01*
X0041025Y0060021D02*
X0045401Y0060021D01*
X0044771Y0059222D02*
X0041025Y0059222D01*
X0041025Y0058424D02*
X0044525Y0058424D01*
X0044545Y0057625D02*
X0041025Y0057625D01*
X0041025Y0056827D02*
X0044876Y0056827D01*
X0045779Y0056028D02*
X0041025Y0056028D01*
X0041025Y0055230D02*
X0045885Y0055230D01*
X0045086Y0054431D02*
X0041025Y0054431D01*
X0041025Y0053633D02*
X0044288Y0053633D01*
X0043489Y0052834D02*
X0041025Y0052834D01*
X0041025Y0052035D02*
X0042691Y0052035D01*
X0041892Y0051237D02*
X0041025Y0051237D01*
X0041646Y0050991D02*
X0041646Y0050991D01*
X0041094Y0050438D02*
X0041025Y0050438D01*
X0045623Y0051015D02*
X0045623Y0051044D01*
X0047015Y0052436D02*
X0050675Y0048776D01*
X0058175Y0048776D01*
X0060362Y0046588D01*
X0063800Y0046588D01*
X0065050Y0045338D01*
X0065050Y0041901D01*
X0065050Y0051901D02*
X0058487Y0051901D01*
X0057237Y0050651D01*
X0051612Y0050651D01*
X0050334Y0051901D01*
X0048407Y0053828D01*
X0049799Y0055220D02*
X0049799Y0055277D01*
X0046925Y0058151D01*
X0048449Y0060021D02*
X0050676Y0060021D01*
X0049877Y0059222D02*
X0049079Y0059222D01*
X0051191Y0056612D02*
X0051191Y0056385D01*
X0051504Y0056385D01*
X0054112Y0053776D01*
X0053800Y0056901D02*
X0057862Y0056901D01*
X0057195Y0059222D02*
X0056815Y0059222D01*
X0056165Y0060021D02*
X0058850Y0060021D01*
X0058850Y0059222D02*
X0058530Y0059222D01*
X0061300Y0061901D02*
X0065050Y0061901D01*
X0053800Y0056901D02*
X0052697Y0058004D01*
X0052583Y0058004D01*
X0047015Y0052436D02*
X0047015Y0052436D01*
X0039425Y0063151D02*
X0038800Y0063776D01*
X0037200Y0066409D02*
X0027051Y0066409D01*
X0028469Y0064812D02*
X0029448Y0064812D01*
X0030884Y0059222D02*
X0031237Y0059222D01*
X0023909Y0067190D02*
X0023823Y0067190D01*
X0020988Y0070026D01*
X0019738Y0070026D01*
X0020675Y0067526D02*
X0018488Y0067526D01*
X0017238Y0068776D01*
X0017238Y0074088D01*
X0014425Y0076901D01*
X0013487Y0076901D01*
X0011925Y0071901D02*
X0010050Y0071901D01*
X0010050Y0081901D02*
X0008175Y0081901D01*
X0011875Y0096752D02*
X0018025Y0096752D01*
X0018025Y0097551D02*
X0011875Y0097551D01*
X0011875Y0098349D02*
X0018025Y0098349D01*
X0018025Y0099148D02*
X0011875Y0099148D01*
X0011875Y0099946D02*
X0018025Y0099946D01*
X0023422Y0074466D02*
X0024360Y0074466D01*
X0020675Y0067526D02*
X0021778Y0066423D01*
X0022517Y0065798D01*
X0022517Y0065684D01*
X0049612Y0035651D02*
X0050550Y0035651D01*
X0053800Y0035651D01*
X0052809Y0032871D02*
X0051666Y0032871D01*
X0051666Y0032073D02*
X0052809Y0032073D01*
X0052809Y0031274D02*
X0051666Y0031274D01*
X0051666Y0030476D02*
X0052809Y0030476D01*
X0058901Y0026483D02*
X0059143Y0026483D01*
X0052862Y0040963D02*
X0052550Y0040963D01*
X0049797Y0040963D01*
X0038450Y0023289D02*
X0032943Y0023289D01*
X0032943Y0022491D02*
X0038450Y0022491D01*
X0038450Y0021692D02*
X0032943Y0021692D01*
X0032943Y0020894D02*
X0038030Y0020894D01*
D27*
X0035675Y0025026D03*
X0027237Y0030338D03*
X0019425Y0031901D03*
X0016613Y0027213D03*
X0008175Y0036901D03*
X0013800Y0041901D03*
X0009425Y0056901D03*
X0015987Y0066901D03*
X0019738Y0070026D03*
X0026300Y0063776D03*
X0032550Y0061276D03*
X0031300Y0055026D03*
X0034425Y0052526D03*
X0029425Y0044713D03*
X0027237Y0047838D03*
X0039425Y0063151D03*
X0041613Y0067838D03*
X0045675Y0067213D03*
X0046925Y0058151D03*
X0042550Y0056276D03*
X0033488Y0067838D03*
X0035675Y0072213D03*
X0037550Y0080651D03*
X0038488Y0085963D03*
X0044425Y0086276D03*
X0050362Y0086588D03*
X0054112Y0075338D03*
X0061612Y0081901D03*
X0058175Y0088151D03*
X0060050Y0099088D03*
X0067863Y0088151D03*
X0061300Y0061901D03*
X0057862Y0056901D03*
X0054112Y0053776D03*
X0052550Y0040963D03*
X0040675Y0041588D03*
X0045362Y0019401D03*
X0053487Y0020026D03*
X0011925Y0071901D03*
X0015050Y0091276D03*
X0015050Y0097838D03*
X0008175Y0095963D03*
X0026612Y0084401D03*
X0006925Y0026901D03*
D28*
X0040675Y0076276D02*
X0041300Y0076901D01*
D29*
X0070050Y0071901D03*
X0070050Y0061901D03*
X0070050Y0051901D03*
X0070050Y0041901D03*
X0070050Y0031901D03*
X0070050Y0021901D03*
X0070050Y0081901D03*
X0005050Y0081901D03*
X0005050Y0071901D03*
X0005050Y0061901D03*
X0005050Y0051901D03*
X0005050Y0041901D03*
X0005050Y0031901D03*
X0005050Y0021901D03*
M02*
