%
M48
M72
T01C0.01181
T02C0.03150
T03C0.03543
T04C0.05200
T05C0.09843
%
T01
X34113Y88518
X37863Y89143
X41925Y80393
X38956Y73674
X41300Y66955
X43800Y64455
X40050Y61018
X37238Y63830
X33644Y67111
X31300Y64768
X29112Y62580
X22862Y61018
X23175Y55080
X16300Y61955
X17863Y64768
X27862Y78830
X18800Y96330
X13800Y96330
X8800Y89768
X10987Y87268
X5050Y90080
X18488Y24768
X18175Y30080
X20675Y32580
X19425Y40080
X31612Y48518
X31925Y45393
X35050Y44768
X35675Y53830
X48175Y55080
X47550Y59455
X51925Y66955
X57237Y70705
X60050Y68830
X59737Y62580
X62237Y57268
X57862Y55080
X64737Y48518
X60675Y45393
X56925Y42580
X56925Y39143
X66300Y37580
X65675Y29768
X57862Y20705
X49737Y20080
X39113Y22268
X33175Y31018
X40988Y35080
X45675Y40393
X67863Y66330
X68175Y78518
X65050Y87268
X55362Y85080
X67550Y99768
X73800Y89455
X76613Y91643
X57862Y78205
X46925Y71643
X46925Y88830
X12237Y147893
X19113Y154768
X13175Y157268
X6300Y158205
X27862Y153518
X34738Y158205
X34425Y165080
X41925Y157893
X45675Y160080
X36613Y149768
X38488Y178518
X42863Y178205
T02
X36300Y113205
X31300Y118205
X26300Y113205
X21300Y118205
X16300Y113205
X6300Y113205
X6300Y22580
X6300Y32580
X6300Y42580
X6300Y52580
X6300Y62580
X6300Y72580
X6300Y82580
X41300Y118205
X46300Y113205
X51300Y118205
X56300Y113205
X61300Y118205
X66300Y113205
X76300Y113205
X76300Y133205
X76300Y123205
X66300Y123205
X61300Y128205
X56300Y123205
X51300Y128205
X46300Y123205
X41300Y128205
X36300Y123205
X31300Y128205
X26300Y123205
X21300Y128205
X16300Y123205
X16300Y133205
X21300Y138205
X26300Y133205
X31300Y138205
X36300Y133205
X41300Y138205
X46300Y133205
X51300Y138205
X56300Y133205
X61300Y138205
X66300Y133205
X66300Y143205
X61300Y148205
X56300Y143205
X51300Y148205
X46300Y143205
X41300Y148205
X36300Y143205
X31300Y148205
X26300Y143205
X21300Y148205
X16300Y143205
X6300Y143205
X6300Y133205
X6300Y123205
X6300Y153205
X6300Y163205
X6300Y173205
X51300Y168205
X56300Y163205
X51300Y158205
X56300Y153205
X61300Y158205
X66300Y153205
X76300Y153205
X76300Y143205
X90675Y143205
X90675Y133205
X90675Y123205
X90675Y113205
X100675Y113205
X105675Y118205
X110675Y113205
X115675Y118205
X120675Y113205
X125675Y118205
X130675Y113205
X135675Y118205
X140675Y113205
X145675Y118205
X150675Y113205
X160675Y113205
X160675Y123205
X160675Y133205
X160675Y143205
X160675Y153205
X150675Y153205
X145675Y148205
X140675Y143205
X135675Y138205
X130675Y133205
X125675Y128205
X120675Y123205
X115675Y128205
X110675Y123205
X105675Y128205
X100675Y123205
X100675Y133205
X105675Y138205
X110675Y133205
X115675Y138205
X120675Y133205
X125675Y138205
X120675Y143205
X115675Y148205
X110675Y143205
X105675Y148205
X100675Y143205
X100675Y153205
X105675Y158205
X110675Y153205
X115675Y158205
X120675Y153205
X125675Y148205
X130675Y143205
X135675Y148205
X130675Y153205
X125675Y158205
X120675Y163205
X115675Y168205
X110675Y163205
X105675Y168205
X100675Y163205
X100675Y173205
X105675Y178205
X110675Y173205
X115675Y178205
X120675Y173205
X125675Y168205
X130675Y163205
X135675Y158205
X140675Y153205
X145675Y158205
X140675Y163205
X135675Y168205
X130675Y173205
X125675Y178205
X135675Y178205
X140675Y173205
X145675Y168205
X150675Y163205
X150675Y173205
X145675Y178205
X161300Y173205
X160675Y163205
X150675Y143205
X145675Y138205
X140675Y133205
X135675Y128205
X130675Y123205
X140675Y123205
X145675Y128205
X150675Y123205
X150675Y133205
X145675Y87580
X140675Y82580
X135675Y77580
X130675Y72580
X125675Y67580
X120675Y62580
X115675Y57580
X110675Y52580
X105675Y47580
X100675Y42580
X105675Y37580
X100675Y32580
X105675Y27580
X100675Y22580
X90675Y22580
X90675Y32580
X90675Y42580
X90675Y52580
X100675Y52580
X105675Y57580
X100675Y62580
X105675Y67580
X110675Y62580
X115675Y67580
X110675Y72580
X105675Y77580
X100675Y72580
X100675Y82580
X105675Y87580
X110675Y82580
X115675Y77580
X120675Y72580
X125675Y77580
X120675Y82580
X115675Y87580
X125675Y87580
X130675Y82580
X135675Y87580
X145675Y77580
X140675Y72580
X135675Y67580
X130675Y62580
X125675Y57580
X120675Y52580
X115675Y47580
X110675Y42580
X115675Y37580
X110675Y32580
X115675Y27580
X110675Y22580
X120675Y22580
X125675Y27580
X130675Y22580
X135675Y27580
X140675Y22580
X145675Y27580
X150675Y22580
X160675Y22580
X160675Y32580
X160675Y42580
X160675Y52580
X150675Y52580
X145675Y47580
X140675Y42580
X135675Y37580
X130675Y32580
X125675Y37580
X120675Y32580
X120675Y42580
X125675Y47580
X130675Y42580
X135675Y47580
X130675Y52580
X135675Y57580
X140675Y52580
X145675Y57580
X140675Y62580
X145675Y67580
X150675Y62580
X150675Y72580
X150675Y82580
X160675Y82580
X160675Y72580
X160675Y62580
X150675Y42580
X145675Y37580
X140675Y32580
X150675Y32580
X90675Y62580
X90675Y72580
X90675Y82580
X76300Y82580
X76300Y72580
X76300Y62580
X76300Y52580
X76300Y42580
X76300Y32580
X76300Y22580
X90675Y153205
X90675Y163205
X90675Y173205
X76300Y173205
X76300Y163205
X66300Y163205
X61300Y168205
X56300Y173205
X51300Y178518
X61300Y178518
X66300Y173205
T03
X66925Y16330
X61925Y16330
X56925Y16330
X25675Y16330
X20675Y16330
X15675Y16330
X15362Y52580
T04
X31300Y176018
X21300Y176018
T05
X20675Y8830
X61925Y8830
M30
