G75*
%MOIN*%
%OFA0B0*%
%FSLAX25Y25*%
%IPPOS*%
%LPD*%
%AMOC8*
5,1,8,0,0,1.08239X$1,22.5*
%
%ADD10C,0.00500*%
%ADD11C,0.00000*%
D10*
X0011925Y0010080D02*
X0011925Y0017580D01*
X0005050Y0017580D01*
X0005050Y0090041D01*
X0005050Y0090080D02*
X0070001Y0090080D01*
X0070050Y0090080D02*
X0070050Y0073830D01*
X0070001Y0017580D01*
X0063175Y0017580D01*
X0063175Y0008830D01*
X0063157Y0008632D01*
X0063135Y0008435D01*
X0063108Y0008239D01*
X0063076Y0008043D01*
X0063039Y0007848D01*
X0062997Y0007654D01*
X0062951Y0007461D01*
X0062900Y0007269D01*
X0062845Y0007078D01*
X0062785Y0006889D01*
X0062720Y0006702D01*
X0062650Y0006516D01*
X0062577Y0006331D01*
X0062498Y0006149D01*
X0062416Y0005969D01*
X0062329Y0005790D01*
X0062237Y0005614D01*
X0062141Y0005440D01*
X0062042Y0005269D01*
X0061938Y0005100D01*
X0061830Y0004933D01*
X0061717Y0004770D01*
X0061601Y0004609D01*
X0061481Y0004451D01*
X0061358Y0004296D01*
X0061230Y0004143D01*
X0061099Y0003995D01*
X0060964Y0003849D01*
X0060826Y0003706D01*
X0060684Y0003568D01*
X0060539Y0003432D01*
X0060391Y0003300D01*
X0060239Y0003172D01*
X0060085Y0003047D01*
X0059927Y0002927D01*
X0059767Y0002810D01*
X0059604Y0002697D01*
X0059438Y0002588D01*
X0059269Y0002483D01*
X0059098Y0002383D01*
X0058925Y0002286D01*
X0058749Y0002194D01*
X0058571Y0002106D01*
X0058391Y0002022D01*
X0058209Y0001943D01*
X0058025Y0001869D01*
X0057840Y0001798D01*
X0057653Y0001733D01*
X0057464Y0001672D01*
X0057273Y0001615D01*
X0057082Y0001563D01*
X0056889Y0001516D01*
X0056695Y0001474D01*
X0056500Y0001436D01*
X0056305Y0001403D01*
X0056108Y0001375D01*
X0055911Y0001352D01*
X0055714Y0001333D01*
X0055516Y0001319D01*
X0055317Y0001310D01*
X0055119Y0001306D01*
X0054921Y0001307D01*
X0054722Y0001313D01*
X0054524Y0001323D01*
X0054326Y0001338D01*
X0054129Y0001358D01*
X0053932Y0001383D01*
X0053736Y0001413D01*
X0053540Y0001447D01*
X0053346Y0001486D01*
X0053152Y0001530D01*
X0052960Y0001579D01*
X0052768Y0001632D01*
X0052579Y0001690D01*
X0052390Y0001752D01*
X0052203Y0001819D01*
X0052018Y0001891D01*
X0051835Y0001967D01*
X0051654Y0002047D01*
X0051474Y0002132D01*
X0051297Y0002222D01*
X0051122Y0002315D01*
X0050949Y0002413D01*
X0050779Y0002515D01*
X0050611Y0002621D01*
X0050446Y0002731D01*
X0050284Y0002845D01*
X0050124Y0002963D01*
X0049968Y0003085D01*
X0049814Y0003211D01*
X0049664Y0003340D01*
X0049516Y0003473D01*
X0049372Y0003610D01*
X0049232Y0003750D01*
X0049094Y0003893D01*
X0048961Y0004040D01*
X0048831Y0004189D01*
X0048704Y0004342D01*
X0048582Y0004499D01*
X0048463Y0004657D01*
X0048348Y0004819D01*
X0048237Y0004984D01*
X0048130Y0005151D01*
X0048028Y0005321D01*
X0047929Y0005493D01*
X0047835Y0005668D01*
X0047744Y0005845D01*
X0047659Y0006024D01*
X0047577Y0006205D01*
X0047500Y0006387D01*
X0047428Y0006572D01*
X0047360Y0006759D01*
X0047297Y0006947D01*
X0047238Y0007136D01*
X0047184Y0007327D01*
X0047134Y0007519D01*
X0047089Y0007713D01*
X0047049Y0007907D01*
X0047014Y0008102D01*
X0046983Y0008298D01*
X0046958Y0008495D01*
X0046937Y0008693D01*
X0046921Y0008890D01*
X0046909Y0009088D01*
X0046903Y0009287D01*
X0046901Y0009485D01*
X0046904Y0009684D01*
X0046912Y0009882D01*
X0046925Y0010080D01*
X0046925Y0017580D01*
X0028175Y0017580D01*
X0028175Y0010080D01*
X0028189Y0009881D01*
X0028198Y0009681D01*
X0028203Y0009482D01*
X0028202Y0009282D01*
X0028197Y0009082D01*
X0028186Y0008883D01*
X0028171Y0008683D01*
X0028151Y0008485D01*
X0028126Y0008286D01*
X0028096Y0008089D01*
X0028062Y0007892D01*
X0028022Y0007696D01*
X0027978Y0007502D01*
X0027929Y0007308D01*
X0027875Y0007115D01*
X0027817Y0006924D01*
X0027754Y0006735D01*
X0027686Y0006547D01*
X0027614Y0006361D01*
X0027537Y0006176D01*
X0027456Y0005994D01*
X0027370Y0005813D01*
X0027280Y0005635D01*
X0027186Y0005459D01*
X0027087Y0005285D01*
X0026984Y0005114D01*
X0026877Y0004946D01*
X0026765Y0004780D01*
X0026650Y0004617D01*
X0026531Y0004456D01*
X0026408Y0004299D01*
X0026281Y0004145D01*
X0026150Y0003994D01*
X0026016Y0003846D01*
X0025878Y0003701D01*
X0025736Y0003560D01*
X0025591Y0003423D01*
X0025443Y0003289D01*
X0025292Y0003158D01*
X0025137Y0003032D01*
X0024980Y0002909D01*
X0024819Y0002790D01*
X0024656Y0002676D01*
X0024489Y0002565D01*
X0024321Y0002458D01*
X0024149Y0002355D01*
X0023975Y0002257D01*
X0023799Y0002163D01*
X0023620Y0002073D01*
X0023440Y0001988D01*
X0023257Y0001907D01*
X0023073Y0001831D01*
X0022886Y0001759D01*
X0022698Y0001692D01*
X0022508Y0001629D01*
X0022317Y0001572D01*
X0022125Y0001518D01*
X0021931Y0001470D01*
X0021736Y0001426D01*
X0021540Y0001387D01*
X0021343Y0001353D01*
X0021145Y0001324D01*
X0020947Y0001300D01*
X0020748Y0001280D01*
X0020549Y0001265D01*
X0020350Y0001256D01*
X0020150Y0001251D01*
X0019950Y0001251D01*
X0019750Y0001256D01*
X0019551Y0001265D01*
X0019352Y0001280D01*
X0019153Y0001300D01*
X0018955Y0001324D01*
X0018757Y0001353D01*
X0018560Y0001387D01*
X0018364Y0001426D01*
X0018169Y0001470D01*
X0017975Y0001518D01*
X0017783Y0001572D01*
X0017592Y0001629D01*
X0017402Y0001692D01*
X0017214Y0001759D01*
X0017027Y0001831D01*
X0016843Y0001907D01*
X0016660Y0001988D01*
X0016480Y0002073D01*
X0016301Y0002163D01*
X0016125Y0002257D01*
X0015951Y0002355D01*
X0015779Y0002458D01*
X0015611Y0002565D01*
X0015444Y0002676D01*
X0015281Y0002790D01*
X0015120Y0002909D01*
X0014963Y0003032D01*
X0014808Y0003158D01*
X0014657Y0003289D01*
X0014509Y0003423D01*
X0014364Y0003560D01*
X0014222Y0003701D01*
X0014084Y0003846D01*
X0013950Y0003994D01*
X0013819Y0004145D01*
X0013692Y0004299D01*
X0013569Y0004456D01*
X0013450Y0004617D01*
X0013335Y0004780D01*
X0013223Y0004946D01*
X0013116Y0005114D01*
X0013013Y0005285D01*
X0012914Y0005459D01*
X0012820Y0005635D01*
X0012730Y0005813D01*
X0012644Y0005994D01*
X0012563Y0006176D01*
X0012486Y0006361D01*
X0012414Y0006547D01*
X0012346Y0006735D01*
X0012283Y0006924D01*
X0012225Y0007115D01*
X0012171Y0007308D01*
X0012122Y0007502D01*
X0012078Y0007696D01*
X0012038Y0007892D01*
X0012004Y0008089D01*
X0011974Y0008286D01*
X0011949Y0008485D01*
X0011929Y0008683D01*
X0011914Y0008883D01*
X0011903Y0009082D01*
X0011898Y0009282D01*
X0011897Y0009482D01*
X0011902Y0009681D01*
X0011911Y0009881D01*
X0011925Y0010080D01*
D11*
X0013278Y0017580D02*
X0013280Y0017664D01*
X0013286Y0017747D01*
X0013296Y0017830D01*
X0013310Y0017913D01*
X0013327Y0017995D01*
X0013349Y0018076D01*
X0013374Y0018155D01*
X0013403Y0018234D01*
X0013436Y0018311D01*
X0013472Y0018386D01*
X0013512Y0018460D01*
X0013555Y0018532D01*
X0013602Y0018601D01*
X0013652Y0018668D01*
X0013705Y0018733D01*
X0013761Y0018795D01*
X0013819Y0018855D01*
X0013881Y0018912D01*
X0013945Y0018965D01*
X0014012Y0019016D01*
X0014081Y0019063D01*
X0014152Y0019108D01*
X0014225Y0019148D01*
X0014300Y0019185D01*
X0014377Y0019219D01*
X0014455Y0019249D01*
X0014534Y0019275D01*
X0014615Y0019298D01*
X0014697Y0019316D01*
X0014779Y0019331D01*
X0014862Y0019342D01*
X0014945Y0019349D01*
X0015029Y0019352D01*
X0015113Y0019351D01*
X0015196Y0019346D01*
X0015280Y0019337D01*
X0015362Y0019324D01*
X0015444Y0019308D01*
X0015525Y0019287D01*
X0015606Y0019263D01*
X0015684Y0019235D01*
X0015762Y0019203D01*
X0015838Y0019167D01*
X0015912Y0019128D01*
X0015984Y0019086D01*
X0016054Y0019040D01*
X0016122Y0018991D01*
X0016187Y0018939D01*
X0016250Y0018884D01*
X0016310Y0018826D01*
X0016368Y0018765D01*
X0016422Y0018701D01*
X0016474Y0018635D01*
X0016522Y0018567D01*
X0016567Y0018496D01*
X0016608Y0018423D01*
X0016647Y0018349D01*
X0016681Y0018273D01*
X0016712Y0018195D01*
X0016739Y0018116D01*
X0016763Y0018035D01*
X0016782Y0017954D01*
X0016798Y0017872D01*
X0016810Y0017789D01*
X0016818Y0017705D01*
X0016822Y0017622D01*
X0016822Y0017538D01*
X0016818Y0017455D01*
X0016810Y0017371D01*
X0016798Y0017288D01*
X0016782Y0017206D01*
X0016763Y0017125D01*
X0016739Y0017044D01*
X0016712Y0016965D01*
X0016681Y0016887D01*
X0016647Y0016811D01*
X0016608Y0016737D01*
X0016567Y0016664D01*
X0016522Y0016593D01*
X0016474Y0016525D01*
X0016422Y0016459D01*
X0016368Y0016395D01*
X0016310Y0016334D01*
X0016250Y0016276D01*
X0016187Y0016221D01*
X0016122Y0016169D01*
X0016054Y0016120D01*
X0015984Y0016074D01*
X0015912Y0016032D01*
X0015838Y0015993D01*
X0015762Y0015957D01*
X0015684Y0015925D01*
X0015606Y0015897D01*
X0015525Y0015873D01*
X0015444Y0015852D01*
X0015362Y0015836D01*
X0015280Y0015823D01*
X0015196Y0015814D01*
X0015113Y0015809D01*
X0015029Y0015808D01*
X0014945Y0015811D01*
X0014862Y0015818D01*
X0014779Y0015829D01*
X0014697Y0015844D01*
X0014615Y0015862D01*
X0014534Y0015885D01*
X0014455Y0015911D01*
X0014377Y0015941D01*
X0014300Y0015975D01*
X0014225Y0016012D01*
X0014152Y0016052D01*
X0014081Y0016097D01*
X0014012Y0016144D01*
X0013945Y0016195D01*
X0013881Y0016248D01*
X0013819Y0016305D01*
X0013761Y0016365D01*
X0013705Y0016427D01*
X0013652Y0016492D01*
X0013602Y0016559D01*
X0013555Y0016628D01*
X0013512Y0016700D01*
X0013472Y0016774D01*
X0013436Y0016849D01*
X0013403Y0016926D01*
X0013374Y0017005D01*
X0013349Y0017084D01*
X0013327Y0017165D01*
X0013310Y0017247D01*
X0013296Y0017330D01*
X0013286Y0017413D01*
X0013280Y0017496D01*
X0013278Y0017580D01*
X0018278Y0017580D02*
X0018280Y0017664D01*
X0018286Y0017747D01*
X0018296Y0017830D01*
X0018310Y0017913D01*
X0018327Y0017995D01*
X0018349Y0018076D01*
X0018374Y0018155D01*
X0018403Y0018234D01*
X0018436Y0018311D01*
X0018472Y0018386D01*
X0018512Y0018460D01*
X0018555Y0018532D01*
X0018602Y0018601D01*
X0018652Y0018668D01*
X0018705Y0018733D01*
X0018761Y0018795D01*
X0018819Y0018855D01*
X0018881Y0018912D01*
X0018945Y0018965D01*
X0019012Y0019016D01*
X0019081Y0019063D01*
X0019152Y0019108D01*
X0019225Y0019148D01*
X0019300Y0019185D01*
X0019377Y0019219D01*
X0019455Y0019249D01*
X0019534Y0019275D01*
X0019615Y0019298D01*
X0019697Y0019316D01*
X0019779Y0019331D01*
X0019862Y0019342D01*
X0019945Y0019349D01*
X0020029Y0019352D01*
X0020113Y0019351D01*
X0020196Y0019346D01*
X0020280Y0019337D01*
X0020362Y0019324D01*
X0020444Y0019308D01*
X0020525Y0019287D01*
X0020606Y0019263D01*
X0020684Y0019235D01*
X0020762Y0019203D01*
X0020838Y0019167D01*
X0020912Y0019128D01*
X0020984Y0019086D01*
X0021054Y0019040D01*
X0021122Y0018991D01*
X0021187Y0018939D01*
X0021250Y0018884D01*
X0021310Y0018826D01*
X0021368Y0018765D01*
X0021422Y0018701D01*
X0021474Y0018635D01*
X0021522Y0018567D01*
X0021567Y0018496D01*
X0021608Y0018423D01*
X0021647Y0018349D01*
X0021681Y0018273D01*
X0021712Y0018195D01*
X0021739Y0018116D01*
X0021763Y0018035D01*
X0021782Y0017954D01*
X0021798Y0017872D01*
X0021810Y0017789D01*
X0021818Y0017705D01*
X0021822Y0017622D01*
X0021822Y0017538D01*
X0021818Y0017455D01*
X0021810Y0017371D01*
X0021798Y0017288D01*
X0021782Y0017206D01*
X0021763Y0017125D01*
X0021739Y0017044D01*
X0021712Y0016965D01*
X0021681Y0016887D01*
X0021647Y0016811D01*
X0021608Y0016737D01*
X0021567Y0016664D01*
X0021522Y0016593D01*
X0021474Y0016525D01*
X0021422Y0016459D01*
X0021368Y0016395D01*
X0021310Y0016334D01*
X0021250Y0016276D01*
X0021187Y0016221D01*
X0021122Y0016169D01*
X0021054Y0016120D01*
X0020984Y0016074D01*
X0020912Y0016032D01*
X0020838Y0015993D01*
X0020762Y0015957D01*
X0020684Y0015925D01*
X0020606Y0015897D01*
X0020525Y0015873D01*
X0020444Y0015852D01*
X0020362Y0015836D01*
X0020280Y0015823D01*
X0020196Y0015814D01*
X0020113Y0015809D01*
X0020029Y0015808D01*
X0019945Y0015811D01*
X0019862Y0015818D01*
X0019779Y0015829D01*
X0019697Y0015844D01*
X0019615Y0015862D01*
X0019534Y0015885D01*
X0019455Y0015911D01*
X0019377Y0015941D01*
X0019300Y0015975D01*
X0019225Y0016012D01*
X0019152Y0016052D01*
X0019081Y0016097D01*
X0019012Y0016144D01*
X0018945Y0016195D01*
X0018881Y0016248D01*
X0018819Y0016305D01*
X0018761Y0016365D01*
X0018705Y0016427D01*
X0018652Y0016492D01*
X0018602Y0016559D01*
X0018555Y0016628D01*
X0018512Y0016700D01*
X0018472Y0016774D01*
X0018436Y0016849D01*
X0018403Y0016926D01*
X0018374Y0017005D01*
X0018349Y0017084D01*
X0018327Y0017165D01*
X0018310Y0017247D01*
X0018296Y0017330D01*
X0018286Y0017413D01*
X0018280Y0017496D01*
X0018278Y0017580D01*
X0023278Y0017580D02*
X0023280Y0017664D01*
X0023286Y0017747D01*
X0023296Y0017830D01*
X0023310Y0017913D01*
X0023327Y0017995D01*
X0023349Y0018076D01*
X0023374Y0018155D01*
X0023403Y0018234D01*
X0023436Y0018311D01*
X0023472Y0018386D01*
X0023512Y0018460D01*
X0023555Y0018532D01*
X0023602Y0018601D01*
X0023652Y0018668D01*
X0023705Y0018733D01*
X0023761Y0018795D01*
X0023819Y0018855D01*
X0023881Y0018912D01*
X0023945Y0018965D01*
X0024012Y0019016D01*
X0024081Y0019063D01*
X0024152Y0019108D01*
X0024225Y0019148D01*
X0024300Y0019185D01*
X0024377Y0019219D01*
X0024455Y0019249D01*
X0024534Y0019275D01*
X0024615Y0019298D01*
X0024697Y0019316D01*
X0024779Y0019331D01*
X0024862Y0019342D01*
X0024945Y0019349D01*
X0025029Y0019352D01*
X0025113Y0019351D01*
X0025196Y0019346D01*
X0025280Y0019337D01*
X0025362Y0019324D01*
X0025444Y0019308D01*
X0025525Y0019287D01*
X0025606Y0019263D01*
X0025684Y0019235D01*
X0025762Y0019203D01*
X0025838Y0019167D01*
X0025912Y0019128D01*
X0025984Y0019086D01*
X0026054Y0019040D01*
X0026122Y0018991D01*
X0026187Y0018939D01*
X0026250Y0018884D01*
X0026310Y0018826D01*
X0026368Y0018765D01*
X0026422Y0018701D01*
X0026474Y0018635D01*
X0026522Y0018567D01*
X0026567Y0018496D01*
X0026608Y0018423D01*
X0026647Y0018349D01*
X0026681Y0018273D01*
X0026712Y0018195D01*
X0026739Y0018116D01*
X0026763Y0018035D01*
X0026782Y0017954D01*
X0026798Y0017872D01*
X0026810Y0017789D01*
X0026818Y0017705D01*
X0026822Y0017622D01*
X0026822Y0017538D01*
X0026818Y0017455D01*
X0026810Y0017371D01*
X0026798Y0017288D01*
X0026782Y0017206D01*
X0026763Y0017125D01*
X0026739Y0017044D01*
X0026712Y0016965D01*
X0026681Y0016887D01*
X0026647Y0016811D01*
X0026608Y0016737D01*
X0026567Y0016664D01*
X0026522Y0016593D01*
X0026474Y0016525D01*
X0026422Y0016459D01*
X0026368Y0016395D01*
X0026310Y0016334D01*
X0026250Y0016276D01*
X0026187Y0016221D01*
X0026122Y0016169D01*
X0026054Y0016120D01*
X0025984Y0016074D01*
X0025912Y0016032D01*
X0025838Y0015993D01*
X0025762Y0015957D01*
X0025684Y0015925D01*
X0025606Y0015897D01*
X0025525Y0015873D01*
X0025444Y0015852D01*
X0025362Y0015836D01*
X0025280Y0015823D01*
X0025196Y0015814D01*
X0025113Y0015809D01*
X0025029Y0015808D01*
X0024945Y0015811D01*
X0024862Y0015818D01*
X0024779Y0015829D01*
X0024697Y0015844D01*
X0024615Y0015862D01*
X0024534Y0015885D01*
X0024455Y0015911D01*
X0024377Y0015941D01*
X0024300Y0015975D01*
X0024225Y0016012D01*
X0024152Y0016052D01*
X0024081Y0016097D01*
X0024012Y0016144D01*
X0023945Y0016195D01*
X0023881Y0016248D01*
X0023819Y0016305D01*
X0023761Y0016365D01*
X0023705Y0016427D01*
X0023652Y0016492D01*
X0023602Y0016559D01*
X0023555Y0016628D01*
X0023512Y0016700D01*
X0023472Y0016774D01*
X0023436Y0016849D01*
X0023403Y0016926D01*
X0023374Y0017005D01*
X0023349Y0017084D01*
X0023327Y0017165D01*
X0023310Y0017247D01*
X0023296Y0017330D01*
X0023286Y0017413D01*
X0023280Y0017496D01*
X0023278Y0017580D01*
X0015129Y0008830D02*
X0015131Y0008970D01*
X0015137Y0009110D01*
X0015147Y0009249D01*
X0015161Y0009388D01*
X0015179Y0009527D01*
X0015200Y0009665D01*
X0015226Y0009803D01*
X0015256Y0009940D01*
X0015289Y0010075D01*
X0015327Y0010210D01*
X0015368Y0010344D01*
X0015413Y0010477D01*
X0015461Y0010608D01*
X0015514Y0010737D01*
X0015570Y0010866D01*
X0015629Y0010992D01*
X0015693Y0011117D01*
X0015759Y0011240D01*
X0015830Y0011361D01*
X0015903Y0011480D01*
X0015980Y0011597D01*
X0016061Y0011711D01*
X0016144Y0011823D01*
X0016231Y0011933D01*
X0016321Y0012041D01*
X0016413Y0012145D01*
X0016509Y0012247D01*
X0016608Y0012347D01*
X0016709Y0012443D01*
X0016813Y0012537D01*
X0016920Y0012627D01*
X0017029Y0012714D01*
X0017141Y0012799D01*
X0017255Y0012880D01*
X0017371Y0012958D01*
X0017489Y0013032D01*
X0017610Y0013103D01*
X0017732Y0013171D01*
X0017857Y0013235D01*
X0017983Y0013296D01*
X0018110Y0013353D01*
X0018240Y0013406D01*
X0018371Y0013456D01*
X0018503Y0013501D01*
X0018636Y0013544D01*
X0018771Y0013582D01*
X0018906Y0013616D01*
X0019043Y0013647D01*
X0019180Y0013674D01*
X0019318Y0013696D01*
X0019457Y0013715D01*
X0019596Y0013730D01*
X0019735Y0013741D01*
X0019875Y0013748D01*
X0020015Y0013751D01*
X0020155Y0013750D01*
X0020295Y0013745D01*
X0020434Y0013736D01*
X0020574Y0013723D01*
X0020713Y0013706D01*
X0020851Y0013685D01*
X0020989Y0013661D01*
X0021126Y0013632D01*
X0021262Y0013600D01*
X0021397Y0013563D01*
X0021531Y0013523D01*
X0021664Y0013479D01*
X0021795Y0013431D01*
X0021925Y0013380D01*
X0022054Y0013325D01*
X0022181Y0013266D01*
X0022306Y0013203D01*
X0022429Y0013138D01*
X0022551Y0013068D01*
X0022670Y0012995D01*
X0022788Y0012919D01*
X0022903Y0012840D01*
X0023016Y0012757D01*
X0023126Y0012671D01*
X0023234Y0012582D01*
X0023339Y0012490D01*
X0023442Y0012395D01*
X0023542Y0012297D01*
X0023639Y0012197D01*
X0023733Y0012093D01*
X0023825Y0011987D01*
X0023913Y0011879D01*
X0023998Y0011768D01*
X0024080Y0011654D01*
X0024159Y0011538D01*
X0024234Y0011421D01*
X0024306Y0011301D01*
X0024374Y0011179D01*
X0024439Y0011055D01*
X0024501Y0010929D01*
X0024559Y0010802D01*
X0024613Y0010673D01*
X0024664Y0010542D01*
X0024710Y0010410D01*
X0024753Y0010277D01*
X0024793Y0010143D01*
X0024828Y0010008D01*
X0024860Y0009871D01*
X0024887Y0009734D01*
X0024911Y0009596D01*
X0024931Y0009458D01*
X0024947Y0009319D01*
X0024959Y0009179D01*
X0024967Y0009040D01*
X0024971Y0008900D01*
X0024971Y0008760D01*
X0024967Y0008620D01*
X0024959Y0008481D01*
X0024947Y0008341D01*
X0024931Y0008202D01*
X0024911Y0008064D01*
X0024887Y0007926D01*
X0024860Y0007789D01*
X0024828Y0007652D01*
X0024793Y0007517D01*
X0024753Y0007383D01*
X0024710Y0007250D01*
X0024664Y0007118D01*
X0024613Y0006987D01*
X0024559Y0006858D01*
X0024501Y0006731D01*
X0024439Y0006605D01*
X0024374Y0006481D01*
X0024306Y0006359D01*
X0024234Y0006239D01*
X0024159Y0006122D01*
X0024080Y0006006D01*
X0023998Y0005892D01*
X0023913Y0005781D01*
X0023825Y0005673D01*
X0023733Y0005567D01*
X0023639Y0005463D01*
X0023542Y0005363D01*
X0023442Y0005265D01*
X0023339Y0005170D01*
X0023234Y0005078D01*
X0023126Y0004989D01*
X0023016Y0004903D01*
X0022903Y0004820D01*
X0022788Y0004741D01*
X0022670Y0004665D01*
X0022551Y0004592D01*
X0022429Y0004522D01*
X0022306Y0004457D01*
X0022181Y0004394D01*
X0022054Y0004335D01*
X0021925Y0004280D01*
X0021795Y0004229D01*
X0021664Y0004181D01*
X0021531Y0004137D01*
X0021397Y0004097D01*
X0021262Y0004060D01*
X0021126Y0004028D01*
X0020989Y0003999D01*
X0020851Y0003975D01*
X0020713Y0003954D01*
X0020574Y0003937D01*
X0020434Y0003924D01*
X0020295Y0003915D01*
X0020155Y0003910D01*
X0020015Y0003909D01*
X0019875Y0003912D01*
X0019735Y0003919D01*
X0019596Y0003930D01*
X0019457Y0003945D01*
X0019318Y0003964D01*
X0019180Y0003986D01*
X0019043Y0004013D01*
X0018906Y0004044D01*
X0018771Y0004078D01*
X0018636Y0004116D01*
X0018503Y0004159D01*
X0018371Y0004204D01*
X0018240Y0004254D01*
X0018110Y0004307D01*
X0017983Y0004364D01*
X0017857Y0004425D01*
X0017732Y0004489D01*
X0017610Y0004557D01*
X0017489Y0004628D01*
X0017371Y0004702D01*
X0017255Y0004780D01*
X0017141Y0004861D01*
X0017029Y0004946D01*
X0016920Y0005033D01*
X0016813Y0005123D01*
X0016709Y0005217D01*
X0016608Y0005313D01*
X0016509Y0005413D01*
X0016413Y0005515D01*
X0016321Y0005619D01*
X0016231Y0005727D01*
X0016144Y0005837D01*
X0016061Y0005949D01*
X0015980Y0006063D01*
X0015903Y0006180D01*
X0015830Y0006299D01*
X0015759Y0006420D01*
X0015693Y0006543D01*
X0015629Y0006668D01*
X0015570Y0006794D01*
X0015514Y0006923D01*
X0015461Y0007052D01*
X0015413Y0007183D01*
X0015368Y0007316D01*
X0015327Y0007450D01*
X0015289Y0007585D01*
X0015256Y0007720D01*
X0015226Y0007857D01*
X0015200Y0007995D01*
X0015179Y0008133D01*
X0015161Y0008272D01*
X0015147Y0008411D01*
X0015137Y0008550D01*
X0015131Y0008690D01*
X0015129Y0008830D01*
X0048278Y0017580D02*
X0048280Y0017664D01*
X0048286Y0017747D01*
X0048296Y0017830D01*
X0048310Y0017913D01*
X0048327Y0017995D01*
X0048349Y0018076D01*
X0048374Y0018155D01*
X0048403Y0018234D01*
X0048436Y0018311D01*
X0048472Y0018386D01*
X0048512Y0018460D01*
X0048555Y0018532D01*
X0048602Y0018601D01*
X0048652Y0018668D01*
X0048705Y0018733D01*
X0048761Y0018795D01*
X0048819Y0018855D01*
X0048881Y0018912D01*
X0048945Y0018965D01*
X0049012Y0019016D01*
X0049081Y0019063D01*
X0049152Y0019108D01*
X0049225Y0019148D01*
X0049300Y0019185D01*
X0049377Y0019219D01*
X0049455Y0019249D01*
X0049534Y0019275D01*
X0049615Y0019298D01*
X0049697Y0019316D01*
X0049779Y0019331D01*
X0049862Y0019342D01*
X0049945Y0019349D01*
X0050029Y0019352D01*
X0050113Y0019351D01*
X0050196Y0019346D01*
X0050280Y0019337D01*
X0050362Y0019324D01*
X0050444Y0019308D01*
X0050525Y0019287D01*
X0050606Y0019263D01*
X0050684Y0019235D01*
X0050762Y0019203D01*
X0050838Y0019167D01*
X0050912Y0019128D01*
X0050984Y0019086D01*
X0051054Y0019040D01*
X0051122Y0018991D01*
X0051187Y0018939D01*
X0051250Y0018884D01*
X0051310Y0018826D01*
X0051368Y0018765D01*
X0051422Y0018701D01*
X0051474Y0018635D01*
X0051522Y0018567D01*
X0051567Y0018496D01*
X0051608Y0018423D01*
X0051647Y0018349D01*
X0051681Y0018273D01*
X0051712Y0018195D01*
X0051739Y0018116D01*
X0051763Y0018035D01*
X0051782Y0017954D01*
X0051798Y0017872D01*
X0051810Y0017789D01*
X0051818Y0017705D01*
X0051822Y0017622D01*
X0051822Y0017538D01*
X0051818Y0017455D01*
X0051810Y0017371D01*
X0051798Y0017288D01*
X0051782Y0017206D01*
X0051763Y0017125D01*
X0051739Y0017044D01*
X0051712Y0016965D01*
X0051681Y0016887D01*
X0051647Y0016811D01*
X0051608Y0016737D01*
X0051567Y0016664D01*
X0051522Y0016593D01*
X0051474Y0016525D01*
X0051422Y0016459D01*
X0051368Y0016395D01*
X0051310Y0016334D01*
X0051250Y0016276D01*
X0051187Y0016221D01*
X0051122Y0016169D01*
X0051054Y0016120D01*
X0050984Y0016074D01*
X0050912Y0016032D01*
X0050838Y0015993D01*
X0050762Y0015957D01*
X0050684Y0015925D01*
X0050606Y0015897D01*
X0050525Y0015873D01*
X0050444Y0015852D01*
X0050362Y0015836D01*
X0050280Y0015823D01*
X0050196Y0015814D01*
X0050113Y0015809D01*
X0050029Y0015808D01*
X0049945Y0015811D01*
X0049862Y0015818D01*
X0049779Y0015829D01*
X0049697Y0015844D01*
X0049615Y0015862D01*
X0049534Y0015885D01*
X0049455Y0015911D01*
X0049377Y0015941D01*
X0049300Y0015975D01*
X0049225Y0016012D01*
X0049152Y0016052D01*
X0049081Y0016097D01*
X0049012Y0016144D01*
X0048945Y0016195D01*
X0048881Y0016248D01*
X0048819Y0016305D01*
X0048761Y0016365D01*
X0048705Y0016427D01*
X0048652Y0016492D01*
X0048602Y0016559D01*
X0048555Y0016628D01*
X0048512Y0016700D01*
X0048472Y0016774D01*
X0048436Y0016849D01*
X0048403Y0016926D01*
X0048374Y0017005D01*
X0048349Y0017084D01*
X0048327Y0017165D01*
X0048310Y0017247D01*
X0048296Y0017330D01*
X0048286Y0017413D01*
X0048280Y0017496D01*
X0048278Y0017580D01*
X0053278Y0017580D02*
X0053280Y0017664D01*
X0053286Y0017747D01*
X0053296Y0017830D01*
X0053310Y0017913D01*
X0053327Y0017995D01*
X0053349Y0018076D01*
X0053374Y0018155D01*
X0053403Y0018234D01*
X0053436Y0018311D01*
X0053472Y0018386D01*
X0053512Y0018460D01*
X0053555Y0018532D01*
X0053602Y0018601D01*
X0053652Y0018668D01*
X0053705Y0018733D01*
X0053761Y0018795D01*
X0053819Y0018855D01*
X0053881Y0018912D01*
X0053945Y0018965D01*
X0054012Y0019016D01*
X0054081Y0019063D01*
X0054152Y0019108D01*
X0054225Y0019148D01*
X0054300Y0019185D01*
X0054377Y0019219D01*
X0054455Y0019249D01*
X0054534Y0019275D01*
X0054615Y0019298D01*
X0054697Y0019316D01*
X0054779Y0019331D01*
X0054862Y0019342D01*
X0054945Y0019349D01*
X0055029Y0019352D01*
X0055113Y0019351D01*
X0055196Y0019346D01*
X0055280Y0019337D01*
X0055362Y0019324D01*
X0055444Y0019308D01*
X0055525Y0019287D01*
X0055606Y0019263D01*
X0055684Y0019235D01*
X0055762Y0019203D01*
X0055838Y0019167D01*
X0055912Y0019128D01*
X0055984Y0019086D01*
X0056054Y0019040D01*
X0056122Y0018991D01*
X0056187Y0018939D01*
X0056250Y0018884D01*
X0056310Y0018826D01*
X0056368Y0018765D01*
X0056422Y0018701D01*
X0056474Y0018635D01*
X0056522Y0018567D01*
X0056567Y0018496D01*
X0056608Y0018423D01*
X0056647Y0018349D01*
X0056681Y0018273D01*
X0056712Y0018195D01*
X0056739Y0018116D01*
X0056763Y0018035D01*
X0056782Y0017954D01*
X0056798Y0017872D01*
X0056810Y0017789D01*
X0056818Y0017705D01*
X0056822Y0017622D01*
X0056822Y0017538D01*
X0056818Y0017455D01*
X0056810Y0017371D01*
X0056798Y0017288D01*
X0056782Y0017206D01*
X0056763Y0017125D01*
X0056739Y0017044D01*
X0056712Y0016965D01*
X0056681Y0016887D01*
X0056647Y0016811D01*
X0056608Y0016737D01*
X0056567Y0016664D01*
X0056522Y0016593D01*
X0056474Y0016525D01*
X0056422Y0016459D01*
X0056368Y0016395D01*
X0056310Y0016334D01*
X0056250Y0016276D01*
X0056187Y0016221D01*
X0056122Y0016169D01*
X0056054Y0016120D01*
X0055984Y0016074D01*
X0055912Y0016032D01*
X0055838Y0015993D01*
X0055762Y0015957D01*
X0055684Y0015925D01*
X0055606Y0015897D01*
X0055525Y0015873D01*
X0055444Y0015852D01*
X0055362Y0015836D01*
X0055280Y0015823D01*
X0055196Y0015814D01*
X0055113Y0015809D01*
X0055029Y0015808D01*
X0054945Y0015811D01*
X0054862Y0015818D01*
X0054779Y0015829D01*
X0054697Y0015844D01*
X0054615Y0015862D01*
X0054534Y0015885D01*
X0054455Y0015911D01*
X0054377Y0015941D01*
X0054300Y0015975D01*
X0054225Y0016012D01*
X0054152Y0016052D01*
X0054081Y0016097D01*
X0054012Y0016144D01*
X0053945Y0016195D01*
X0053881Y0016248D01*
X0053819Y0016305D01*
X0053761Y0016365D01*
X0053705Y0016427D01*
X0053652Y0016492D01*
X0053602Y0016559D01*
X0053555Y0016628D01*
X0053512Y0016700D01*
X0053472Y0016774D01*
X0053436Y0016849D01*
X0053403Y0016926D01*
X0053374Y0017005D01*
X0053349Y0017084D01*
X0053327Y0017165D01*
X0053310Y0017247D01*
X0053296Y0017330D01*
X0053286Y0017413D01*
X0053280Y0017496D01*
X0053278Y0017580D01*
X0058278Y0017580D02*
X0058280Y0017664D01*
X0058286Y0017747D01*
X0058296Y0017830D01*
X0058310Y0017913D01*
X0058327Y0017995D01*
X0058349Y0018076D01*
X0058374Y0018155D01*
X0058403Y0018234D01*
X0058436Y0018311D01*
X0058472Y0018386D01*
X0058512Y0018460D01*
X0058555Y0018532D01*
X0058602Y0018601D01*
X0058652Y0018668D01*
X0058705Y0018733D01*
X0058761Y0018795D01*
X0058819Y0018855D01*
X0058881Y0018912D01*
X0058945Y0018965D01*
X0059012Y0019016D01*
X0059081Y0019063D01*
X0059152Y0019108D01*
X0059225Y0019148D01*
X0059300Y0019185D01*
X0059377Y0019219D01*
X0059455Y0019249D01*
X0059534Y0019275D01*
X0059615Y0019298D01*
X0059697Y0019316D01*
X0059779Y0019331D01*
X0059862Y0019342D01*
X0059945Y0019349D01*
X0060029Y0019352D01*
X0060113Y0019351D01*
X0060196Y0019346D01*
X0060280Y0019337D01*
X0060362Y0019324D01*
X0060444Y0019308D01*
X0060525Y0019287D01*
X0060606Y0019263D01*
X0060684Y0019235D01*
X0060762Y0019203D01*
X0060838Y0019167D01*
X0060912Y0019128D01*
X0060984Y0019086D01*
X0061054Y0019040D01*
X0061122Y0018991D01*
X0061187Y0018939D01*
X0061250Y0018884D01*
X0061310Y0018826D01*
X0061368Y0018765D01*
X0061422Y0018701D01*
X0061474Y0018635D01*
X0061522Y0018567D01*
X0061567Y0018496D01*
X0061608Y0018423D01*
X0061647Y0018349D01*
X0061681Y0018273D01*
X0061712Y0018195D01*
X0061739Y0018116D01*
X0061763Y0018035D01*
X0061782Y0017954D01*
X0061798Y0017872D01*
X0061810Y0017789D01*
X0061818Y0017705D01*
X0061822Y0017622D01*
X0061822Y0017538D01*
X0061818Y0017455D01*
X0061810Y0017371D01*
X0061798Y0017288D01*
X0061782Y0017206D01*
X0061763Y0017125D01*
X0061739Y0017044D01*
X0061712Y0016965D01*
X0061681Y0016887D01*
X0061647Y0016811D01*
X0061608Y0016737D01*
X0061567Y0016664D01*
X0061522Y0016593D01*
X0061474Y0016525D01*
X0061422Y0016459D01*
X0061368Y0016395D01*
X0061310Y0016334D01*
X0061250Y0016276D01*
X0061187Y0016221D01*
X0061122Y0016169D01*
X0061054Y0016120D01*
X0060984Y0016074D01*
X0060912Y0016032D01*
X0060838Y0015993D01*
X0060762Y0015957D01*
X0060684Y0015925D01*
X0060606Y0015897D01*
X0060525Y0015873D01*
X0060444Y0015852D01*
X0060362Y0015836D01*
X0060280Y0015823D01*
X0060196Y0015814D01*
X0060113Y0015809D01*
X0060029Y0015808D01*
X0059945Y0015811D01*
X0059862Y0015818D01*
X0059779Y0015829D01*
X0059697Y0015844D01*
X0059615Y0015862D01*
X0059534Y0015885D01*
X0059455Y0015911D01*
X0059377Y0015941D01*
X0059300Y0015975D01*
X0059225Y0016012D01*
X0059152Y0016052D01*
X0059081Y0016097D01*
X0059012Y0016144D01*
X0058945Y0016195D01*
X0058881Y0016248D01*
X0058819Y0016305D01*
X0058761Y0016365D01*
X0058705Y0016427D01*
X0058652Y0016492D01*
X0058602Y0016559D01*
X0058555Y0016628D01*
X0058512Y0016700D01*
X0058472Y0016774D01*
X0058436Y0016849D01*
X0058403Y0016926D01*
X0058374Y0017005D01*
X0058349Y0017084D01*
X0058327Y0017165D01*
X0058310Y0017247D01*
X0058296Y0017330D01*
X0058286Y0017413D01*
X0058280Y0017496D01*
X0058278Y0017580D01*
X0050129Y0008830D02*
X0050131Y0008970D01*
X0050137Y0009110D01*
X0050147Y0009249D01*
X0050161Y0009388D01*
X0050179Y0009527D01*
X0050200Y0009665D01*
X0050226Y0009803D01*
X0050256Y0009940D01*
X0050289Y0010075D01*
X0050327Y0010210D01*
X0050368Y0010344D01*
X0050413Y0010477D01*
X0050461Y0010608D01*
X0050514Y0010737D01*
X0050570Y0010866D01*
X0050629Y0010992D01*
X0050693Y0011117D01*
X0050759Y0011240D01*
X0050830Y0011361D01*
X0050903Y0011480D01*
X0050980Y0011597D01*
X0051061Y0011711D01*
X0051144Y0011823D01*
X0051231Y0011933D01*
X0051321Y0012041D01*
X0051413Y0012145D01*
X0051509Y0012247D01*
X0051608Y0012347D01*
X0051709Y0012443D01*
X0051813Y0012537D01*
X0051920Y0012627D01*
X0052029Y0012714D01*
X0052141Y0012799D01*
X0052255Y0012880D01*
X0052371Y0012958D01*
X0052489Y0013032D01*
X0052610Y0013103D01*
X0052732Y0013171D01*
X0052857Y0013235D01*
X0052983Y0013296D01*
X0053110Y0013353D01*
X0053240Y0013406D01*
X0053371Y0013456D01*
X0053503Y0013501D01*
X0053636Y0013544D01*
X0053771Y0013582D01*
X0053906Y0013616D01*
X0054043Y0013647D01*
X0054180Y0013674D01*
X0054318Y0013696D01*
X0054457Y0013715D01*
X0054596Y0013730D01*
X0054735Y0013741D01*
X0054875Y0013748D01*
X0055015Y0013751D01*
X0055155Y0013750D01*
X0055295Y0013745D01*
X0055434Y0013736D01*
X0055574Y0013723D01*
X0055713Y0013706D01*
X0055851Y0013685D01*
X0055989Y0013661D01*
X0056126Y0013632D01*
X0056262Y0013600D01*
X0056397Y0013563D01*
X0056531Y0013523D01*
X0056664Y0013479D01*
X0056795Y0013431D01*
X0056925Y0013380D01*
X0057054Y0013325D01*
X0057181Y0013266D01*
X0057306Y0013203D01*
X0057429Y0013138D01*
X0057551Y0013068D01*
X0057670Y0012995D01*
X0057788Y0012919D01*
X0057903Y0012840D01*
X0058016Y0012757D01*
X0058126Y0012671D01*
X0058234Y0012582D01*
X0058339Y0012490D01*
X0058442Y0012395D01*
X0058542Y0012297D01*
X0058639Y0012197D01*
X0058733Y0012093D01*
X0058825Y0011987D01*
X0058913Y0011879D01*
X0058998Y0011768D01*
X0059080Y0011654D01*
X0059159Y0011538D01*
X0059234Y0011421D01*
X0059306Y0011301D01*
X0059374Y0011179D01*
X0059439Y0011055D01*
X0059501Y0010929D01*
X0059559Y0010802D01*
X0059613Y0010673D01*
X0059664Y0010542D01*
X0059710Y0010410D01*
X0059753Y0010277D01*
X0059793Y0010143D01*
X0059828Y0010008D01*
X0059860Y0009871D01*
X0059887Y0009734D01*
X0059911Y0009596D01*
X0059931Y0009458D01*
X0059947Y0009319D01*
X0059959Y0009179D01*
X0059967Y0009040D01*
X0059971Y0008900D01*
X0059971Y0008760D01*
X0059967Y0008620D01*
X0059959Y0008481D01*
X0059947Y0008341D01*
X0059931Y0008202D01*
X0059911Y0008064D01*
X0059887Y0007926D01*
X0059860Y0007789D01*
X0059828Y0007652D01*
X0059793Y0007517D01*
X0059753Y0007383D01*
X0059710Y0007250D01*
X0059664Y0007118D01*
X0059613Y0006987D01*
X0059559Y0006858D01*
X0059501Y0006731D01*
X0059439Y0006605D01*
X0059374Y0006481D01*
X0059306Y0006359D01*
X0059234Y0006239D01*
X0059159Y0006122D01*
X0059080Y0006006D01*
X0058998Y0005892D01*
X0058913Y0005781D01*
X0058825Y0005673D01*
X0058733Y0005567D01*
X0058639Y0005463D01*
X0058542Y0005363D01*
X0058442Y0005265D01*
X0058339Y0005170D01*
X0058234Y0005078D01*
X0058126Y0004989D01*
X0058016Y0004903D01*
X0057903Y0004820D01*
X0057788Y0004741D01*
X0057670Y0004665D01*
X0057551Y0004592D01*
X0057429Y0004522D01*
X0057306Y0004457D01*
X0057181Y0004394D01*
X0057054Y0004335D01*
X0056925Y0004280D01*
X0056795Y0004229D01*
X0056664Y0004181D01*
X0056531Y0004137D01*
X0056397Y0004097D01*
X0056262Y0004060D01*
X0056126Y0004028D01*
X0055989Y0003999D01*
X0055851Y0003975D01*
X0055713Y0003954D01*
X0055574Y0003937D01*
X0055434Y0003924D01*
X0055295Y0003915D01*
X0055155Y0003910D01*
X0055015Y0003909D01*
X0054875Y0003912D01*
X0054735Y0003919D01*
X0054596Y0003930D01*
X0054457Y0003945D01*
X0054318Y0003964D01*
X0054180Y0003986D01*
X0054043Y0004013D01*
X0053906Y0004044D01*
X0053771Y0004078D01*
X0053636Y0004116D01*
X0053503Y0004159D01*
X0053371Y0004204D01*
X0053240Y0004254D01*
X0053110Y0004307D01*
X0052983Y0004364D01*
X0052857Y0004425D01*
X0052732Y0004489D01*
X0052610Y0004557D01*
X0052489Y0004628D01*
X0052371Y0004702D01*
X0052255Y0004780D01*
X0052141Y0004861D01*
X0052029Y0004946D01*
X0051920Y0005033D01*
X0051813Y0005123D01*
X0051709Y0005217D01*
X0051608Y0005313D01*
X0051509Y0005413D01*
X0051413Y0005515D01*
X0051321Y0005619D01*
X0051231Y0005727D01*
X0051144Y0005837D01*
X0051061Y0005949D01*
X0050980Y0006063D01*
X0050903Y0006180D01*
X0050830Y0006299D01*
X0050759Y0006420D01*
X0050693Y0006543D01*
X0050629Y0006668D01*
X0050570Y0006794D01*
X0050514Y0006923D01*
X0050461Y0007052D01*
X0050413Y0007183D01*
X0050368Y0007316D01*
X0050327Y0007450D01*
X0050289Y0007585D01*
X0050256Y0007720D01*
X0050226Y0007857D01*
X0050200Y0007995D01*
X0050179Y0008133D01*
X0050161Y0008272D01*
X0050147Y0008411D01*
X0050137Y0008550D01*
X0050131Y0008690D01*
X0050129Y0008830D01*
M02*
