%
M48
M72
T01C0.03150
T02C0.03200
T03C0.03543
T04C0.09843
%
T01
X5050Y22580
X5050Y32580
X5050Y42580
X5050Y52580
X5050Y62580
X5050Y72580
X5050Y82580
X70050Y22580
X70050Y32580
X70050Y42580
X70050Y52580
X70050Y62580
X70050Y72580
T02
X12550Y22580
X17550Y27580
X22550Y22580
X27550Y27580
X22550Y32580
X27550Y37580
X22550Y42580
X27550Y47580
X22550Y52580
X27550Y57580
X22550Y62580
X27550Y67580
X22550Y72580
X27550Y77580
X22550Y82580
X17550Y77580
X12550Y72580
X17550Y67580
X12550Y62580
X17550Y57580
X12550Y52580
X17550Y47580
X12550Y42580
X17550Y37580
X12550Y32580
X32550Y22580
X37550Y27580
X42550Y22580
X47550Y27580
X52550Y22580
X57550Y27580
X62550Y22580
X62550Y32580
X57550Y37580
X52550Y32580
X47550Y37580
X52550Y42580
X47550Y47580
X52550Y52580
X47550Y57580
X52550Y62580
X47550Y67580
X52550Y72580
X47550Y77580
X52550Y82580
X57550Y77580
X62550Y72580
X57550Y67580
X62550Y62580
X57550Y57580
X62550Y52580
X57550Y47580
X62550Y42580
X42550Y42580
X37550Y37580
X42550Y32580
X32550Y32580
X32550Y42580
X37550Y47580
X42550Y52580
X37550Y57580
X42550Y62580
X37550Y67580
X42550Y72580
X37550Y77580
X42550Y82580
X32550Y82580
X32550Y72580
X32550Y62580
X32550Y52580
X12550Y82580
X62550Y82580
X70050Y82580
T03
X60050Y17580
X55050Y17580
X50050Y17580
X25050Y17580
X20050Y17580
X15050Y17580
T04
X20050Y8830
X55050Y8830
M30
