%
M48
M72
T01C0.01181
T02C0.03150
T03C0.03543
T04C0.09843
%
T01
X26612Y84401
X35675Y72213
X33488Y67838
X32550Y61276
X31300Y55026
X34425Y52526
X29425Y44713
X27237Y47838
X26300Y63776
X19738Y70026
X15987Y66901
X11925Y71901
X9425Y56901
X13800Y41901
X8175Y36901
X6925Y26901
X16613Y27213
X19425Y31901
X27237Y30338
X35675Y25026
X45362Y19401
X53487Y20026
X52550Y40963
X54112Y53776
X57862Y56901
X61300Y61901
X61612Y81901
X58175Y88151
X60050Y99088
X67863Y88151
X54112Y75338
X50362Y86588
X38488Y85963
X37550Y80651
X44425Y86276
X41613Y67838
X45675Y67213
X39425Y63151
X42550Y56276
X46925Y58151
X40675Y41588
X15050Y91276
X15050Y97838
X8175Y95963
T02
X5050Y21901
X5050Y31901
X5050Y41901
X5050Y51901
X5050Y61901
X5050Y71901
X5050Y81901
X70050Y81901
X70050Y71901
X70050Y61901
X70050Y51901
X70050Y41901
X70050Y31901
X70050Y21901
T03
X60050Y15651
X55050Y15651
X50050Y15651
X25050Y15651
X20050Y15651
X15050Y15651
T04
X20050Y8151
X55050Y8151
M30
